<svg width="1290" height="1276" viewBox="0 0 1290 1276" fill="none" xmlns="http://www.w3.org/2000/svg">
<path fill-rule="evenodd" clip-rule="evenodd" d="M599.5 0.988989C568.283 3.52799 562.965 4.02599 557.5 4.92699C554.2 5.46999 548.125 6.41 544 7.016C523.638 10.007 493.878 16.125 479 20.379C475.975 21.244 471.475 22.473 469 23.109C466.525 23.746 463.6 24.648 462.5 25.115C461.4 25.582 458.7 26.414 456.5 26.963C445.853 29.623 443 30.511 443 31.166C443 31.557 440.975 32.181 438.5 32.552C436.025 32.923 434 33.576 434 34.002C434 34.429 432.38 35.081 430.399 35.453C428.419 35.824 425.381 36.737 423.649 37.481C421.917 38.225 418.857 39.546 416.849 40.417C414.841 41.287 412.505 42 411.658 42C410.811 42 409.861 42.415 409.548 42.923C409.234 43.431 407.534 44.163 405.771 44.55C404.008 44.937 401.876 45.631 401.033 46.092C400.19 46.553 397.25 47.87 394.5 49.02C391.75 50.169 388.6 51.51 387.5 52C386.4 52.49 383.25 53.848 380.5 55.018C370.325 59.346 368.179 60.347 353 67.844C344.475 72.055 336.905 76.063 336.179 76.75C335.452 77.438 334.447 78 333.946 78C333.445 78 330.094 79.8 326.5 82C322.906 84.2 319.702 86 319.38 86C318.211 86 288.836 104.038 276.637 112.246C268.488 117.729 229.143 147.644 227 149.986C226.725 150.286 224.925 151.812 223 153.376C200.32 171.803 162.448 211.047 137.597 241.875C133.883 246.481 130.423 250.756 129.908 251.375C129.392 251.994 127.304 254.75 125.268 257.5C123.232 260.25 121.201 262.95 120.754 263.5C116.847 268.316 99.834 292.62 98.677 295.038C98.293 295.842 97.195 297.703 96.239 299.172C94.688 301.556 83.368 320.242 80.31 325.467C79.655 326.585 78.421 328.85 77.567 330.5C76.713 332.15 74.204 336.65 71.992 340.5C67.812 347.775 56.836 369.808 53.062 378.5C51.868 381.25 50.49 384.4 50 385.5C46.071 394.321 45 397.094 45 398.445C45 399.3 44.55 400 44 400C43.45 400 42.985 400.788 42.966 401.75C42.947 402.712 42.063 405.3 41 407.5C39.937 409.7 39.053 412.261 39.034 413.191C39.015 414.121 38.55 415.16 38 415.5C37.45 415.84 36.997 416.879 36.994 417.809C36.99 418.739 36.315 420.789 35.494 422.364C34.672 423.94 33.997 425.74 33.994 426.364C33.99 426.989 33.332 428.757 32.531 430.292C31.73 431.828 30.782 434.645 30.424 436.553C30.066 438.461 29.413 440.244 28.974 440.516C28.534 440.788 27.871 442.806 27.5 445C27.129 447.194 26.457 449.217 26.007 449.496C25.556 449.774 24.878 452.251 24.5 455C24.122 457.749 23.447 460.224 23 460.5C22.553 460.776 21.878 463.251 21.5 466C21.122 468.749 20.436 471.23 19.976 471.515C19.516 471.799 18.831 474.505 18.453 477.529C18.075 480.553 17.4 483.253 16.953 483.529C16.506 483.805 15.828 486.612 15.447 489.766C15.065 492.92 14.409 495.95 13.988 496.5C13.567 497.05 12.898 500.425 12.5 504C12.102 507.575 11.427 510.95 11 511.5C10.572 512.05 9.89601 515.875 9.49801 520C9.09901 524.125 8.487 527.95 8.137 528.5C7.141 530.064 2.36201 570.027 0.901007 589C-0.400993 605.917 0.345007 692.278 1.86001 700C2.45401 703.025 3.398 709.1 3.958 713.5C4.841 720.433 5.546 725.142 7.476 737C10.819 757.547 14.788 776.641 17.867 787C19.45 792.322 22.983 805.944 24.093 811C24.636 813.475 25.455 816.19 25.913 817.033C26.371 817.876 27.085 820.111 27.5 822C27.915 823.889 28.621 826.124 29.069 826.967C29.516 827.81 30.792 831.425 31.903 835C34.882 844.587 37.077 851.241 38.005 853.5C38.457 854.6 40.248 859.1 41.984 863.5C43.72 867.9 45.784 872.918 46.57 874.651C47.357 876.384 48 878.045 48 878.342C48 878.639 49.8 882.76 52 887.5C54.2 892.24 56 896.392 56 896.726C56 897.874 72.501 930.5 73.25 930.833C73.663 931.017 74 931.578 74 932.081C74 932.867 78.932 942.013 86.427 955.127C88.858 959.381 97.403 972.95 103.035 981.5C105.208 984.8 107.294 988.175 107.67 989C108.046 989.825 108.637 990.725 108.983 991C109.699 991.569 115.74 999.626 118 1003.03C119.407 1005.14 133.964 1024.78 136.015 1027.33C144.919 1038.4 148.366 1042.51 155.451 1050.5C158.863 1054.35 162.745 1058.84 164.077 1060.48C167.116 1064.22 203.509 1100.49 208.101 1104.36C209.971 1105.93 213.753 1109.31 216.506 1111.86C230.058 1124.42 254.974 1144.45 268.639 1153.77C269.663 1154.47 272.75 1156.65 275.5 1158.62C297.304 1174.22 328.593 1193.08 354.5 1206.25C381.636 1220.04 382.547 1220.17 383.468 1210.25C383.813 1206.54 384.468 1202.81 384.925 1201.96C385.381 1201.11 386.086 1196.16 386.49 1190.96C386.895 1185.76 387.513 1181.05 387.863 1180.5C388.213 1179.95 389.04 1175 389.699 1169.5C390.359 1164 391.609 1154.78 392.477 1149C393.344 1143.22 394.513 1134.68 395.075 1130C395.636 1125.32 396.384 1120.82 396.738 1120C397.497 1118.23 399.629 1104.17 401.059 1091.5C401.618 1086.55 402.453 1081.81 402.915 1080.96C403.377 1080.11 404.085 1075.61 404.488 1070.96C404.892 1066.31 405.568 1062.05 405.992 1061.5C406.416 1060.95 407.081 1056.56 407.471 1051.75C407.86 1046.94 408.535 1042.79 408.97 1042.52C409.405 1042.25 410.08 1038.2 410.47 1033.52C410.86 1028.84 411.53 1024.79 411.959 1024.53C412.388 1024.26 413.056 1019.99 413.443 1015.04C413.831 1010.08 414.511 1005.8 414.955 1005.53C415.398 1005.25 416.08 1001.2 416.47 996.519C416.86 991.837 417.53 987.791 417.959 987.525C418.388 987.26 419.056 982.99 419.443 978.035C419.831 973.08 420.511 968.802 420.955 968.528C421.399 968.253 422.086 964.535 422.481 960.264C422.876 955.994 423.551 952.05 423.98 951.5C424.409 950.95 425.084 946.9 425.48 942.5C425.876 938.1 426.551 934.05 426.98 933.5C427.409 932.95 428.085 928.9 428.483 924.5C428.881 920.1 429.497 916.05 429.853 915.5C430.487 914.52 431.834 905.939 434.013 889C434.614 884.325 435.504 879.6 435.99 878.5C436.475 877.4 437.173 872.9 437.54 868.5C437.906 864.1 438.497 860.05 438.853 859.5C439.209 858.95 440.066 854.45 440.757 849.5C442.038 840.326 444.151 826.284 445.873 815.5C448.039 801.937 448.116 802.16 437.349 790.738C432.04 785.107 425.078 776.9 421.877 772.5C418.676 768.1 415.703 764.05 415.271 763.5C413.74 761.553 410.524 756.454 408.649 753C407.604 751.075 406.468 749.275 406.125 748.999C404.89 748.009 390.845 720.669 388.108 713.929C387.342 712.043 385.88 708.612 384.858 706.305C383.836 703.998 383 701.185 383 700.055C383 698.925 382.601 698 382.114 698C381.626 698 380.925 695.985 380.556 693.523C380.187 691.061 379.512 688.817 379.058 688.536C378.603 688.255 377.928 686.005 377.558 683.536C377.187 681.067 376.503 678.811 376.036 678.522C375.569 678.234 374.865 675.654 374.471 672.789C374.077 669.924 373.382 666.887 372.926 666.04C371.889 664.113 370.183 653.41 368.935 641C368.409 635.775 367.482 627.225 366.875 622C366.267 616.775 365.997 608 366.276 602.5C367.174 584.724 369.035 563.579 369.971 560.5C370.473 558.85 371.375 554.8 371.977 551.5C374.284 538.838 375.268 534.466 376.027 533.5C376.459 532.95 377.131 530.362 377.52 527.75C377.909 525.138 378.575 523 379 523C379.425 523 380.075 520.985 380.444 518.523C380.813 516.061 381.489 513.816 381.944 513.534C382.4 513.253 383.08 511.387 383.455 509.388C383.83 507.389 384.534 505.022 385.02 504.127C385.506 503.232 386.641 500.7 387.543 498.5C388.445 496.3 390.042 492.651 391.091 490.39C392.141 488.13 393 485.768 393 485.14C393 484.513 393.45 484 394 484C394.55 484 395.003 483.438 395.006 482.75C395.01 482.063 395.606 480.375 396.332 479C405.932 460.821 413.256 448.978 420.762 439.5C421.198 438.95 422.645 436.925 423.979 435C425.313 433.075 426.65 431.275 426.952 431C427.253 430.725 429.285 428.25 431.467 425.5C435.606 420.283 456.281 399.292 461.523 394.984C463.186 393.618 466.786 390.707 469.523 388.515C472.26 386.323 475.4 383.706 476.5 382.699C477.6 381.692 480.075 379.899 482 378.715C483.925 377.532 485.95 376.191 486.5 375.735C487.905 374.57 496.959 368.877 501.066 366.575C502.955 365.517 504.725 364.386 505 364.063C506.189 362.667 539.048 347 540.787 347C541.328 347 543.06 346.328 544.636 345.506C546.211 344.685 548.261 344.01 549.191 344.006C550.121 344.003 551.136 343.589 551.446 343.087C551.757 342.585 553.806 341.871 556 341.5C558.194 341.129 560.211 340.467 560.482 340.028C560.754 339.59 563.118 338.912 565.738 338.522C568.357 338.132 570.95 337.459 571.5 337.027C572.897 335.929 593.066 332.006 608 329.927C617.707 328.575 667.269 328.542 677 329.88C691.633 331.892 698.52 333.108 700.089 333.957C700.963 334.429 704.231 335.135 707.352 335.525C710.473 335.915 713.272 336.631 713.572 337.117C713.872 337.603 714.916 338 715.891 338C717.886 338 730.676 341.679 733.033 342.931C733.876 343.379 736.044 344.07 737.85 344.467C739.657 344.864 742.342 345.818 743.817 346.588C745.293 347.358 747.069 347.99 747.764 347.994C748.459 347.997 749.809 348.428 750.764 348.952C751.719 349.475 754.3 350.657 756.5 351.579C764.351 354.87 781.506 363.417 781.833 364.201C782.017 364.641 782.633 365 783.203 365C784.107 365 794.753 371.093 797.5 373.184C798.05 373.602 802.325 376.779 807 380.242C811.675 383.706 816.816 387.656 818.425 389.02C827.954 397.1 833.042 401.761 837.328 406.341C839.984 409.179 844.512 413.975 847.391 417C853.056 422.953 862.288 433.853 865.5 438.382C866.6 439.933 868.891 443.069 870.591 445.351C874.591 450.719 881.129 460.839 882.638 464C883.032 464.825 883.627 465.725 883.96 466C884.602 466.53 896.724 490.967 899.413 497.151C900.286 499.159 901 501.432 901 502.201C901 502.971 901.41 504.027 901.912 504.55C903.488 506.192 911.759 532.243 912.519 537.96C912.919 540.963 913.62 544.113 914.077 544.96C915.693 547.954 916.905 556.487 920.119 587.5C921.864 604.331 919.738 636.636 915.645 655.5C912.356 670.659 911.89 672.553 911.083 674.038C910.623 674.885 909.927 677.47 909.537 679.783C909.146 682.097 908.415 684.243 907.913 684.554C907.411 684.864 906.997 686.104 906.994 687.309C906.99 688.514 906.315 690.789 905.494 692.364C904.672 693.94 904 695.652 904 696.169C904 696.983 902.684 700.228 899 708.5C895.252 716.914 894 720.031 894 720.945C894 721.525 893.586 722 893.079 722C892.573 722 891.862 723.35 891.5 725C891.138 726.65 890.427 728 889.921 728C889.414 728 889 728.5 889 729.111C889 730.5 878.91 747.379 877.808 747.833C877.364 748.017 877 748.601 877 749.132C877 750.04 863.697 768.094 860.808 771.106C860.073 771.873 857.922 774.525 856.028 777C854.134 779.475 848.801 785.408 844.176 790.184L835.768 798.867L837.442 810.684C839.301 823.813 841.416 836.909 842.902 844.5C843.44 847.25 843.908 851.611 843.94 854.191C843.973 856.771 844.403 859.131 844.895 859.435C845.388 859.74 846.113 863.704 846.506 868.244C846.9 872.785 847.566 876.95 847.987 877.5C848.649 878.364 849.609 883.972 850.64 893C850.797 894.375 851.61 899.775 852.447 905C853.283 910.225 854.448 918.1 855.034 922.5C855.621 926.9 856.51 931.85 857.01 933.5C857.51 935.15 858.197 939.65 858.536 943.5C858.875 947.35 859.559 951.4 860.056 952.5C860.552 953.6 861.408 958.1 861.958 962.5C863.459 974.518 865.73 989.243 866.431 991.5C866.773 992.6 867.482 997.1 868.006 1001.5C869.402 1013.21 871.635 1027.28 872.372 1029C872.725 1029.82 873.449 1034.1 873.981 1038.5C875.529 1051.29 877.76 1066.09 878.956 1071.5C879.564 1074.25 880.244 1078.53 880.467 1081C880.69 1083.47 881.392 1088.43 882.026 1092C882.661 1095.57 883.343 1100.07 883.542 1102C883.741 1103.93 884.386 1108.11 884.974 1111.3C885.562 1114.49 886.246 1118.99 886.493 1121.3C886.741 1123.61 887.629 1129.78 888.467 1135C889.305 1140.22 890.49 1148.32 891.101 1153C891.712 1157.68 892.475 1162.18 892.796 1163C893.461 1164.71 895.567 1178.43 897.092 1191C897.659 1195.68 898.516 1201.07 898.995 1203C899.474 1204.93 900.234 1209.2 900.683 1212.5C901.871 1221.22 900.858 1221.44 933 1205.74C943.175 1200.77 952.175 1196.15 953 1195.47C954.281 1194.42 957.833 1192.4 970.411 1185.58C971.56 1184.96 974.344 1183.26 976.598 1181.81C978.852 1180.35 982.232 1178.34 984.109 1177.33C993.897 1172.07 1040.83 1139.64 1044.5 1135.6C1045.32 1134.7 1057.7 1124.49 1062.8 1120.51C1063.51 1119.96 1064.86 1118.81 1065.8 1117.96C1066.73 1117.11 1071.48 1112.86 1076.34 1108.51C1087.55 1098.47 1112.92 1073.15 1124 1060.95C1128.68 1055.8 1133.18 1050.86 1134 1049.97C1134.82 1049.07 1136.4 1047.24 1137.5 1045.9C1138.6 1044.55 1141.97 1040.54 1145 1036.98C1148.02 1033.42 1150.82 1030.06 1151.21 1029.51C1151.61 1028.95 1153.24 1026.93 1154.83 1025C1157.59 1021.67 1169.08 1006.31 1171.76 1002.36C1174.91 997.714 1183.01 986.381 1183.95 985.292C1184.53 984.628 1185 983.822 1185 983.502C1185 982.955 1188.91 977.093 1190 976C1190.27 975.725 1191.04 974.6 1191.69 973.5C1192.35 972.4 1196.15 966.1 1200.14 959.5C1204.13 952.9 1208 946.375 1208.75 945C1209.49 943.625 1211.66 939.8 1213.57 936.5C1216.53 931.388 1233.31 897.768 1237.53 888.5C1243.48 875.413 1245 871.877 1245 871.078C1245 870.574 1245.65 868.888 1246.44 867.331C1248.72 862.839 1251 857.286 1251 856.213C1251 855.672 1251.67 853.94 1252.49 852.364C1253.32 850.789 1253.99 848.802 1253.99 847.95C1254 847.097 1254.39 845.972 1254.87 845.45C1255.34 844.927 1257.41 839.1 1259.46 832.5C1261.51 825.9 1263.55 819.6 1264.01 818.5C1264.81 816.552 1265.71 813.289 1268.58 802C1271.18 791.754 1272.93 784.518 1274.03 779.5C1274.63 776.75 1275.53 773.15 1276.02 771.5C1276.5 769.85 1277.17 766.025 1277.5 763C1277.83 759.975 1278.54 755.925 1279.07 754C1281.07 746.841 1284.59 719.001 1288.24 681.5C1289.93 664.058 1289.99 587.122 1288.31 581.5C1287.65 579.3 1286.66 572.325 1286.11 566C1284.62 548.973 1283.15 536.944 1282.08 533C1281.56 531.075 1280.68 526.125 1280.13 522C1278.45 509.343 1274.41 488.58 1273.04 485.5C1272.55 484.4 1271.85 481.7 1271.48 479.5C1271.12 477.3 1270.47 475.05 1270.04 474.5C1269.6 473.95 1268.94 471.373 1268.57 468.773C1268.19 466.174 1267.51 463.817 1267.06 463.536C1266.6 463.255 1265.93 461.005 1265.56 458.536C1265.19 456.067 1264.46 453.785 1263.94 453.464C1263.42 453.144 1263 451.896 1262.99 450.691C1262.99 449.486 1262.32 447.211 1261.49 445.636C1260.67 444.06 1260 442.035 1259.99 441.136C1259.99 440.236 1259.33 438.243 1258.53 436.708C1257.73 435.172 1256.78 432.355 1256.42 430.447C1256.07 428.539 1255.37 426.731 1254.89 426.43C1254.4 426.129 1254 425.121 1253.99 424.191C1253.99 423.261 1253.32 421.211 1252.49 419.636C1251.67 418.06 1251 416.348 1251 415.831C1251 415.314 1250.07 412.777 1248.94 410.195C1244.63 400.331 1244.35 399.669 1240.5 390C1239.08 386.425 1237.5 382.6 1237.01 381.5C1236.51 380.4 1235.14 377.25 1233.96 374.5C1230.34 366.087 1214.21 334.111 1212.07 331.097C1210.96 329.538 1209.58 327.19 1209.01 325.881C1208.44 324.571 1207.19 322.294 1206.23 320.821C1205.28 319.347 1202.55 315.072 1200.16 311.321C1197.78 307.569 1193.61 301.125 1190.91 297C1188.21 292.875 1185.68 288.825 1185.3 288C1184.92 287.175 1184.14 285.975 1183.56 285.332C1182.97 284.69 1180.47 281.198 1178 277.572C1168.5 263.661 1147.14 235.597 1141 228.963C1140.18 228.072 1138.42 226.028 1137.1 224.421C1124.33 208.884 1090.66 175.141 1070.56 157.743C1059.28 147.985 1025.22 121.762 1015.03 115C1013.79 114.175 1011.74 112.713 1010.48 111.75C1009.22 110.787 1007.69 110 1007.09 110C1006.49 110 1006 109.653 1006 109.229C1006 108.805 1003.98 107.352 1001.5 106C999.025 104.648 997 103.195 997 102.771C997 102.347 996.357 102 995.571 102C994.786 102 993.548 101.432 992.821 100.738C992.095 100.044 990.185 98.807 988.577 97.988C982.905 95.1 982 94.518 982 93.763C982 93.343 981.499 93 980.886 93C980.273 93 975.302 90.3 969.839 87C964.376 83.7 959.51 81 959.025 81C958.54 81 957.548 80.431 956.821 79.737C955.13 78.12 916.726 59 915.169 59C914.526 59 914 58.55 914 58C914 57.45 913.282 57 912.404 57C911.527 57 909.614 56.349 908.154 55.554C906.694 54.759 903.7 53.382 901.5 52.493C899.3 51.605 896.226 50.23 894.669 49.439C893.112 48.647 891.38 48 890.82 48C889.719 48 884.211 45.747 879.669 43.439C878.112 42.647 876.312 41.997 875.669 41.994C875.026 41.99 873.293 41.358 871.817 40.588C870.342 39.818 867.642 38.869 865.817 38.479C863.993 38.088 862.05 37.423 861.5 37C860.95 36.577 858.925 35.902 857 35.5C855.075 35.098 853.05 34.458 852.5 34.078C851.95 33.698 848.125 32.36 844 31.105C839.875 29.85 835.6 28.476 834.5 28.052C833.4 27.627 829.8 26.519 826.5 25.588C823.2 24.658 818.475 23.287 816 22.542C813.525 21.796 805.65 19.782 798.5 18.065C791.35 16.349 783.7 14.454 781.5 13.855C779.3 13.255 775.25 12.407 772.5 11.97C769.75 11.532 762.325 10.195 756 8.99698C744.251 6.77298 738.222 5.99099 718 4.06899C711.675 3.46699 702.9 2.49699 698.5 1.91199C688.546 0.588993 613.07 -0.115011 599.5 0.988989ZM621.5 391.902C620.4 392.35 615.458 393.036 610.517 393.429C605.576 393.821 601.076 394.506 600.517 394.95C599.958 395.394 596.467 396.072 592.761 396.457C589.054 396.842 585.791 397.529 585.509 397.985C585.228 398.44 582.749 399.122 580 399.5C577.251 399.878 574.75 400.595 574.442 401.094C574.134 401.592 573.121 402.003 572.191 402.006C571.261 402.01 569.211 402.685 567.636 403.506C566.06 404.328 564.328 405 563.787 405C561.75 405 534.697 417.992 534.167 419.225C533.983 419.651 533.443 420 532.967 420C529.525 420 503.828 440.165 491.598 452.463C480.094 464.031 478.191 466.117 471.494 474.5C469.297 477.25 467.275 479.725 467 480C465.56 481.44 462 487.048 462 487.876C462 488.403 461.636 488.983 461.192 489.167C460.002 489.658 450.764 505.487 447.283 513C442.084 524.224 441 526.774 441 527.787C441 528.328 440.328 530.06 439.506 531.636C438.685 533.211 438.01 535.197 438.006 536.05C438.003 536.902 437.597 538.027 437.105 538.55C436.256 539.452 435.472 542.322 432.608 555C431.925 558.025 431.083 561.175 430.738 562C426.491 572.139 426.718 645.87 431.013 651.5C431.433 652.05 432.094 654.862 432.482 657.749C432.87 660.636 433.543 663.218 433.978 663.487C434.413 663.755 435.072 665.995 435.442 668.464C435.813 670.933 436.54 673.215 437.058 673.536C437.576 673.856 438.015 674.879 438.034 675.809C438.053 676.739 438.937 679.3 440 681.5C441.063 683.7 441.947 686.288 441.966 687.25C441.985 688.212 442.45 689 443 689C443.55 689 443.998 689.563 443.995 690.25C443.989 691.823 454.235 712.382 455.25 712.833C455.663 713.017 456 713.555 456 714.03C456 715.053 462.907 727.002 464.438 728.627C465.022 729.248 466.175 730.763 467 731.995C472.234 739.812 482.462 751.689 495.021 764.532L503.853 773.564L504.406 783.532C504.711 789.014 505.045 794.85 505.148 796.5C505.308 799.068 503.765 813.999 502.513 822C502.298 823.375 501.656 827.65 501.088 831.5C500.519 835.35 499.354 842.55 498.499 847.5C497.643 852.45 496.274 861.201 495.456 866.947C494.637 872.692 493.727 878.542 493.434 879.947C492.637 883.756 491.148 892.391 489.543 902.5C488.758 907.45 487.389 915.55 486.502 920.5C485.614 925.45 484.253 933.55 483.477 938.5C482.701 943.45 481.362 951.55 480.501 956.5C479.641 961.45 478.302 969.55 477.526 974.5C476.75 979.45 475.404 987.775 474.534 993C473.665 998.225 472.257 1007.45 471.405 1013.5C469.183 1029.3 469.244 1028.89 468.011 1036C467.392 1039.57 466.251 1047 465.476 1052.5C464.702 1058 463.357 1066.78 462.489 1072C461.62 1077.22 460.289 1086 459.53 1091.5C458.772 1097 457.422 1106 456.53 1111.5C455.639 1117 454.267 1125.55 453.483 1130.5C452.699 1135.45 451.349 1143.78 450.483 1149C449.618 1154.22 448.27 1163 447.489 1168.5C446.707 1174 445.361 1182.78 444.497 1188C439.974 1215.36 437.072 1237.02 437.708 1238.68C438.339 1240.33 444.763 1243.58 449.293 1244.55C451.057 1244.92 452.95 1245.58 453.5 1246C454.05 1246.42 456.075 1247.1 458 1247.5C459.925 1247.9 461.95 1248.57 462.5 1248.99C463.05 1249.41 465.627 1250.06 468.227 1250.43C470.826 1250.81 473.179 1251.48 473.455 1251.93C473.73 1252.37 475.785 1253.03 478.022 1253.39C480.258 1253.74 482.855 1254.45 483.794 1254.95C484.732 1255.45 487.3 1256.3 489.5 1256.83C491.7 1257.37 496.881 1258.7 501.013 1259.8C505.145 1260.9 511.22 1262.12 514.513 1262.52C517.806 1262.92 520.95 1263.53 521.5 1263.88C522.988 1264.81 547.151 1268.76 565 1270.99C569.125 1271.51 574.525 1272.21 577 1272.55C586.743 1273.9 626.504 1275.85 644.5 1275.86C670.359 1275.87 724.714 1272 730 1269.77C730.825 1269.42 735.325 1268.65 740 1268.05C752.487 1266.45 763.36 1264.59 764.5 1263.85C765.05 1263.49 768.2 1262.87 771.5 1262.47C774.8 1262.08 777.95 1261.47 778.5 1261.12C779.05 1260.78 781.975 1259.98 785 1259.34C792.258 1257.81 799.025 1256.03 801.5 1255C802.6 1254.54 805.413 1253.68 807.75 1253.08C810.087 1252.49 813.913 1251.51 816.25 1250.92C818.587 1250.32 821.4 1249.45 822.5 1248.99C825.375 1247.79 838.138 1244 839.418 1243.98C840.013 1243.97 841.616 1243.1 842.98 1242.05C845.25 1240.31 845.435 1239.57 845.16 1233.44C844.994 1229.76 844.458 1226.02 843.967 1225.12C843.477 1224.23 842.633 1219.45 842.091 1214.5C841.55 1209.55 840.602 1202.57 839.985 1199C838.66 1191.33 838.551 1190.63 836.553 1177C835.706 1171.22 834.347 1162.45 833.532 1157.5C832.717 1152.55 831.344 1144 830.481 1138.5C829.617 1133 828.23 1124.22 827.398 1119C826.566 1113.78 825.267 1105.45 824.513 1100.5C822.861 1089.67 820.485 1074.88 818.971 1066C817.285 1056.12 817.041 1054.15 816.429 1045.5C816.117 1041.1 815.432 1036.37 814.906 1034.98C814.38 1033.6 813.299 1027.97 812.504 1022.48C811.144 1013.08 809.1 1000.5 806.903 988C806.371 984.975 805.77 981.15 805.565 979.5C805.361 977.85 804.702 973.8 804.099 970.5C802.721 962.951 800.013 945.624 799.488 941C799.27 939.075 798.608 934.8 798.018 931.5C797.428 928.2 796.761 924.15 796.537 922.5C796.312 920.85 795.651 916.8 795.067 913.5C794.484 910.2 793.327 902.775 792.498 897C791.668 891.225 790.776 885.15 790.516 883.5C790.256 881.85 789.583 877.575 789.019 874C788.455 870.425 787.798 866.15 787.559 864.5C787.319 862.85 786.649 858.575 786.068 855C785.488 851.425 784.839 847.375 784.628 846C784.416 844.625 783.726 840.35 783.095 836.5C782.463 832.65 781.758 827.925 781.527 826C781.296 824.075 780.61 819.8 780.002 816.5C778.009 805.687 775.913 791.675 774.804 781.755L773.715 772.011L793.698 752.255C804.689 741.39 814.662 731.15 815.859 729.5C823.329 719.209 827.021 713.802 830.197 708.5C836.06 698.714 843 684.8 843 682.832C843 681.824 843.414 681 843.921 681C844.427 681 845.154 679.538 845.536 677.75C845.918 675.962 846.577 674.05 847 673.5C847.423 672.95 848.098 670.925 848.5 669C848.902 667.075 849.577 665.05 850 664.5C850.423 663.95 851.072 661.925 851.443 660C851.813 658.075 852.512 655.6 852.995 654.5C854.163 651.841 855.907 642.355 857.04 632.5C857.546 628.1 858.419 620.877 858.98 616.448C860.261 606.338 860.266 601.103 859.002 594.06C858.454 591.002 857.583 584.675 857.068 580C855.706 567.633 852.246 550.809 849.973 545.5C849.502 544.4 848.813 541.925 848.443 540C848.072 538.075 847.423 536.05 847 535.5C846.577 534.95 845.912 533.007 845.521 531.183C845.131 529.358 844.182 526.658 843.412 525.183C842.642 523.707 842.01 521.712 842.006 520.75C842.003 519.788 841.55 519 841 519C840.45 519 840 518.495 840 517.878C840 516.647 829.981 495.806 829.002 495C828.668 494.725 827.317 492.7 826 490.5C824.683 488.3 823.357 486.275 823.053 486C821.723 484.797 818 478.994 818 478.124C818 477.597 817.66 477.017 817.245 476.833C816.83 476.65 814.051 473.35 811.069 469.5C806 462.955 786.588 442.931 781 438.483C767.766 427.95 745.403 415.011 726.5 406.95C721.571 404.848 702.886 399 701.099 399C700.01 399 698.872 398.603 698.572 398.117C698.272 397.631 695.473 396.915 692.352 396.525C689.231 396.135 685.963 395.415 685.089 394.924C681.76 393.056 666.696 391.718 645.5 391.41C633.4 391.233 622.6 391.455 621.5 391.902Z" fill="url(#paint0_linear_106_52)"/>
<path d="M639.291 666.534C624.69 666.534 612.322 663.336 602.186 656.941C592.17 650.425 584.689 641.737 579.742 630.877C574.794 620.017 572.321 608.011 572.321 594.858C572.321 581.705 574.794 569.759 579.742 559.02C584.689 548.16 592.17 539.532 602.186 533.137C612.322 526.621 624.69 523.363 639.291 523.363C654.012 523.363 666.38 526.621 676.396 533.137C686.532 539.532 694.073 548.16 699.021 559.02C703.968 569.759 706.442 581.705 706.442 594.858C706.442 608.011 703.968 620.017 699.021 630.877C694.073 641.737 686.532 650.425 676.396 656.941C666.38 663.336 654.012 666.534 639.291 666.534ZM639.291 643.185C651.84 643.185 661.614 638.781 668.613 629.972C675.732 621.163 679.292 609.459 679.292 594.858C679.292 580.257 675.732 568.613 668.613 559.925C661.614 551.237 651.84 546.893 639.291 546.893C626.862 546.893 617.088 551.297 609.969 560.106C602.97 568.794 599.471 580.378 599.471 594.858C599.471 609.459 602.97 621.163 609.969 629.972C617.088 638.781 626.862 643.185 639.291 643.185ZM591.534 716.897H651.083C664.597 716.897 675.276 720.276 683.12 727.033C690.963 733.67 694.885 743.866 694.885 757.622C694.885 766.31 693.014 773.852 689.274 780.247C685.654 786.522 680.525 791.348 673.889 794.727C667.373 798.106 659.771 799.795 651.083 799.795H617.598V855H591.534V716.897ZM647.463 776.989C654.461 776.989 659.771 775.42 663.391 772.283C667.131 769.146 669.002 764.56 669.002 758.527C669.002 752.614 667.131 748.089 663.391 744.952C659.65 741.815 654.341 740.246 647.463 740.246H617.598V776.989H647.463ZM595.599 1046V907.897H687.728V931.246H621.663V965.274H680.85V988.442H621.663V1022.65H687.728V1046H595.599ZM583.491 1098.9H612.813L660.416 1181.98C661.864 1184.39 663.131 1186.86 664.217 1189.4C665.303 1191.93 666.51 1195.43 667.837 1199.89L670.733 1199.17C669.888 1193.38 669.466 1187.71 669.466 1182.16V1098.9H695.53V1237H666.027L618.424 1153.38C616.855 1150.72 615.528 1148.25 614.442 1145.96C613.477 1143.54 612.391 1140.23 611.184 1136L608.288 1136.54C609.133 1142.34 609.555 1148.07 609.555 1153.74V1237H583.491V1098.9Z" fill="white"/>
<path d="M983.411 1124.05C984.152 1128.25 984.177 1132.39 983.488 1136.46C982.798 1140.54 981.167 1144.18 978.593 1147.4C975.957 1150.57 972.238 1152.82 967.437 1154.16L965.367 1142.42C969.149 1140.83 971.644 1138.55 972.852 1135.58C974.061 1132.6 974.345 1129.3 973.706 1125.68C973.123 1122.37 971.972 1119.84 970.255 1118.08C968.485 1116.33 966.234 1115.7 963.503 1116.18C961.56 1116.53 960.121 1117.43 959.188 1118.89C958.202 1120.37 957.592 1122.13 957.357 1124.17C957.06 1126.18 956.836 1128.9 956.684 1132.33C956.482 1137.03 956.102 1140.86 955.542 1143.83C954.973 1146.74 953.736 1149.4 951.829 1151.79C949.922 1154.19 947 1155.73 943.06 1156.43C939.279 1157.09 935.913 1156.74 932.962 1155.36C929.96 1154 927.519 1151.83 925.641 1148.86C923.711 1145.89 922.384 1142.36 921.662 1138.27C920.958 1134.27 921.014 1130.45 921.83 1126.78C922.594 1123.13 924.216 1119.89 926.697 1117.07C929.126 1114.26 932.36 1112.17 936.398 1110.81L938.44 1122.39C935.471 1123.67 933.428 1125.6 932.313 1128.18C931.135 1130.72 930.829 1133.59 931.394 1136.79C931.913 1139.73 932.96 1141.99 934.535 1143.55C936.058 1145.12 937.922 1145.72 940.128 1145.33C941.862 1145.02 943.147 1144.17 943.984 1142.78C944.822 1141.38 945.372 1139.74 945.635 1137.86C945.898 1135.97 946.114 1133.36 946.285 1130.02C946.477 1125.28 946.87 1121.36 947.464 1118.28C948.048 1115.15 949.389 1112.31 951.487 1109.77C953.585 1107.24 956.735 1105.6 960.937 1104.86C966.662 1103.85 971.531 1105.05 975.544 1108.46C979.548 1111.81 982.17 1117.01 983.411 1124.05ZM973.21 1066.2C974.331 1072.55 973.888 1078.18 971.882 1083.08C969.815 1087.94 966.607 1091.87 962.26 1094.85C957.913 1097.84 952.876 1099.84 947.151 1100.85C941.426 1101.86 936.037 1101.7 930.982 1100.37C925.876 1099.05 921.546 1096.45 917.994 1092.59C914.38 1088.67 912.012 1083.54 910.892 1077.18C909.762 1070.78 910.23 1065.14 912.298 1060.28C914.304 1055.38 917.48 1051.44 921.828 1048.45C926.123 1045.47 931.133 1043.48 936.858 1042.47C942.583 1041.46 947.998 1041.61 953.105 1042.93C958.212 1044.25 962.573 1046.87 966.187 1050.78C969.739 1054.65 972.08 1059.79 973.21 1066.2ZM963.047 1067.99C962.084 1062.53 959.417 1058.61 955.045 1056.24C950.665 1053.82 945.297 1053.17 938.941 1054.29C932.586 1055.41 927.791 1057.85 924.556 1061.62C921.311 1065.33 920.17 1069.92 921.134 1075.38C922.087 1080.79 924.755 1084.71 929.135 1087.13C933.454 1089.51 938.765 1090.14 945.068 1089.03C951.423 1087.91 956.249 1085.49 959.546 1081.77C962.834 1077.99 964.001 1073.4 963.047 1067.99ZM962.384 1004.8C963.847 1013.1 962.904 1019.57 959.554 1024.22C956.152 1028.89 950.88 1031.85 943.736 1033.11L905.447 1039.86L903.433 1028.43L941.722 1021.68C945.766 1020.97 948.742 1019.42 950.648 1017.02C952.502 1014.64 953.027 1011.16 952.221 1006.59C951.415 1002.02 949.733 998.933 947.175 997.326C944.565 995.728 941.238 995.286 937.193 995.999L898.904 1002.75L896.89 991.327L935.179 984.575C942.322 983.316 948.294 984.321 953.095 987.59C957.834 990.816 960.93 996.552 962.384 1004.8ZM895.093 981.14L890.523 955.219C889.486 949.337 890.137 944.429 892.476 940.497C894.763 936.573 898.9 934.084 904.888 933.028C907.199 932.62 909.434 932.551 911.594 932.82C913.701 933.099 915.565 933.69 917.187 934.596C919.893 936.123 921.421 938.182 921.769 940.774L922.863 940.987C923.398 940.027 923.996 939.271 924.657 938.721C925.265 938.181 926.254 937.492 927.623 936.655L947.038 924.215L949.149 936.19L926.722 949.974L929.098 963.446L953.206 959.195L955.206 970.54L895.093 981.14ZM916.957 952.183C916.42 949.137 915.33 946.946 913.686 945.611C912.034 944.224 909.894 943.762 907.268 944.225C904.695 944.678 902.868 945.84 901.79 947.709C900.711 949.578 900.436 952.009 900.964 955.003L903.256 968.002L919.249 965.182L916.957 952.183ZM941.994 889.162C943.124 895.57 942.681 901.199 940.666 906.049C938.599 910.908 935.391 914.832 931.044 917.819C926.697 920.805 921.66 922.804 915.935 923.813C910.21 924.823 904.821 924.663 899.767 923.334C894.66 922.014 890.33 919.419 886.778 915.551C883.173 911.692 880.805 906.558 879.676 900.15C878.397 892.902 879.177 886.726 882.014 881.623C884.851 876.519 889.215 873.015 895.107 871.109L897.288 883.478C894.229 884.559 892.073 886.456 890.818 889.168C889.563 891.881 889.255 895.049 889.894 898.673C890.848 904.083 893.506 907.947 897.868 910.265C902.169 912.539 907.496 913.116 913.852 911.995C920.259 910.866 925.121 908.492 928.437 904.875C931.691 901.214 932.84 896.679 931.887 891.269C931.238 887.592 929.839 884.725 927.689 882.667C925.487 880.618 922.601 879.611 919.033 879.644L916.852 867.275C923.355 866.995 928.865 868.758 933.381 872.565C937.836 876.329 940.707 881.861 941.994 889.162ZM934.979 855.825L874.866 866.425L867.795 826.323L877.958 824.531L883.029 853.288L897.84 850.676L893.298 824.914L903.382 823.135L907.925 848.898L922.815 846.272L917.745 817.516L927.908 815.724L934.979 855.825Z" fill="white"/>
<path d="M1006.26 1015.71L1003.35 999.164C1001.59 989.184 1002.86 981.079 1007.18 974.848C1011.5 968.617 1018.49 964.65 1028.15 962.946C1037.66 961.269 1045.49 962.652 1051.63 967.092C1057.76 971.48 1061.71 978.664 1063.47 988.643L1066.38 1005.11L1006.26 1015.71ZM1056.95 989.875C1055.67 982.627 1052.94 977.15 1048.77 973.445C1044.6 969.74 1038.15 968.657 1029.43 970.194C1013.62 972.982 1007.11 982.28 1009.9 998.089L1011.52 1007.31L1058.56 999.014L1056.95 989.875ZM1057.5 954.758L993.481 943.219L992.036 935.025L1048.24 902.287L1049.54 909.614L1035.73 917.49L1040.54 944.75L1056.2 947.431L1057.5 954.758ZM1029.71 921.072L1005.55 934.754C1004.27 935.467 1003.21 936.034 1002.36 936.454C1001.5 936.821 1000.53 937.102 999.423 937.297L999.645 938.557C1000.75 938.363 1001.77 938.318 1002.71 938.423C1003.64 938.476 1004.83 938.618 1006.28 938.85L1033.65 943.447L1029.71 921.072ZM1022.25 889.368L989.112 918.443L987.626 910.013L1009.84 890.905C1011.35 889.61 1012.44 888.741 1013.12 888.296C1013.8 887.851 1014.77 887.518 1016.03 887.296L1015.81 886.035C1014.55 886.257 1013.5 886.28 1012.65 886.104C1011.75 885.885 1010.42 885.441 1008.68 884.773L981.333 874.324L979.874 866.052L1020.91 881.805L1043.92 877.748L1045.25 885.311L1022.25 889.368Z" fill="white"/>
<defs>
<linearGradient id="paint0_linear_106_52" x1="644.884" y1="0.443115" x2="644.884" y2="1275.86" gradientUnits="userSpaceOnUse">
<stop stop-color="#9DBC3B"/>
<stop offset="1" stop-color="#109093"/>
</linearGradient>
</defs>
</svg>
