<svg width="945" height="292" viewBox="0 0 945 292" fill="none" xmlns="http://www.w3.org/2000/svg">
<path d="M99.1962 262.075C99.1962 266.575 97.5448 270.189 94.2421 272.917C90.8916 275.597 86.823 276.938 82.0365 276.938C77.7765 276.938 74.019 275.693 70.7642 273.204C67.5093 270.715 65.2597 267.317 64.0152 263.009L70.3334 260.424C70.7642 261.956 71.3625 263.344 72.1284 264.588C72.8942 265.833 73.7797 266.91 74.7849 267.819C75.8379 268.681 76.9867 269.375 78.2312 269.901C79.4757 270.38 80.792 270.619 82.1801 270.619C85.1956 270.619 87.6607 269.854 89.5753 268.322C91.4899 266.742 92.4472 264.66 92.4472 262.075C92.4472 259.921 91.6574 258.079 90.0779 256.547C88.594 255.063 85.8178 253.627 81.7493 252.239C77.6329 250.755 75.0721 249.75 74.0669 249.224C68.6103 246.447 65.8819 242.355 65.8819 236.946C65.8819 233.165 67.3897 229.934 70.4052 227.253C73.4686 224.573 77.226 223.233 81.6775 223.233C85.6025 223.233 89.0009 224.238 91.8728 226.248C94.7447 228.211 96.6593 230.676 97.6166 233.643L91.442 236.228C90.8676 234.314 89.7189 232.734 87.9957 231.489C86.3204 230.197 84.2622 229.551 81.8211 229.551C79.2364 229.551 77.0585 230.269 75.2875 231.705C73.5165 233.045 72.6309 234.792 72.6309 236.946C72.6309 238.717 73.325 240.249 74.7131 241.541C76.2448 242.834 79.5714 244.365 84.693 246.136C89.9103 247.907 93.6199 250.085 95.8217 252.67C98.0714 255.207 99.1962 258.342 99.1962 262.075Z" fill="#4935EB"/>
<path d="M118.104 276.363C115.232 276.363 112.839 275.478 110.924 273.707C109.057 271.936 108.1 269.471 108.052 266.312V246.639H101.877V240.608H108.052V229.838H114.657V240.608H123.273V246.639H114.657V264.158C114.657 266.503 115.112 268.106 116.022 268.968C116.931 269.782 117.96 270.189 119.109 270.189C119.635 270.189 120.138 270.141 120.617 270.045C121.143 269.901 121.622 269.734 122.053 269.542L124.135 275.43C122.412 276.052 120.401 276.363 118.104 276.363Z" fill="#4935EB"/>
<path d="M160.43 275.789H154.112V270.907H153.824C152.819 272.63 151.264 274.066 149.158 275.214C147.099 276.363 144.945 276.938 142.696 276.938C138.388 276.938 135.061 275.717 132.716 273.276C130.418 270.787 129.269 267.269 129.269 262.722V240.608H135.875V262.291C136.018 268.035 138.914 270.907 144.562 270.907C147.195 270.907 149.397 269.854 151.168 267.747C152.939 265.594 153.824 263.033 153.824 260.065V240.608H160.43V275.789Z" fill="#4935EB"/>
<path d="M183.916 270.907C187.17 270.907 189.827 269.734 191.885 267.388C194.039 265.043 195.116 261.98 195.116 258.198C195.116 254.513 194.039 251.473 191.885 249.08C189.779 246.687 187.123 245.49 183.916 245.49C180.756 245.49 178.1 246.687 175.946 249.08C173.792 251.473 172.715 254.513 172.715 258.198C172.715 261.932 173.792 264.971 175.946 267.317C178.1 269.71 180.756 270.907 183.916 270.907ZM182.839 276.938C178.244 276.938 174.295 275.119 170.992 271.481C167.737 267.795 166.11 263.368 166.11 258.198C166.11 253.029 167.737 248.601 170.992 244.916C174.295 241.278 178.244 239.459 182.839 239.459C185.423 239.459 187.769 240.01 189.875 241.11C192.029 242.211 193.68 243.671 194.829 245.49H195.116L194.829 240.608V224.381H201.434V275.789H195.116V270.907H194.829C193.68 272.725 192.029 274.185 189.875 275.286C187.769 276.387 185.423 276.938 182.839 276.938Z" fill="#4935EB"/>
<path d="M224.933 276.938C219.764 276.938 215.504 275.167 212.153 271.625C208.802 268.083 207.127 263.607 207.127 258.198C207.127 252.837 208.755 248.386 212.009 244.844C215.264 241.254 219.429 239.459 224.502 239.459C229.72 239.459 233.86 241.158 236.923 244.557C240.035 247.907 241.59 252.622 241.59 258.701L241.518 259.419H213.876C213.972 262.865 215.121 265.641 217.322 267.747C219.524 269.854 222.157 270.907 225.22 270.907C229.432 270.907 232.735 268.801 235.128 264.588L241.016 267.46C239.436 270.428 237.234 272.749 234.41 274.425C231.634 276.1 228.475 276.938 224.933 276.938ZM214.379 253.962H234.554C234.362 251.521 233.357 249.511 231.538 247.931C229.767 246.304 227.374 245.49 224.359 245.49C221.87 245.49 219.716 246.256 217.897 247.788C216.126 249.319 214.953 251.378 214.379 253.962Z" fill="#4935EB"/>
<path d="M247.631 240.608H253.949V245.49H254.236C255.241 243.767 256.773 242.331 258.831 241.182C260.937 240.033 263.115 239.459 265.365 239.459C269.673 239.459 272.975 240.704 275.273 243.193C277.618 245.634 278.791 249.128 278.791 253.675V275.789H272.186V254.106C272.042 248.362 269.146 245.49 263.498 245.49C260.865 245.49 258.664 246.567 256.893 248.721C255.122 250.827 254.236 253.364 254.236 256.332V275.789H247.631V240.608Z" fill="#4935EB"/>
<path d="M298.65 276.363C295.779 276.363 293.385 275.478 291.471 273.707C289.604 271.936 288.647 269.471 288.599 266.312V246.639H282.424V240.608H288.599V229.838H295.204V240.608H303.82V246.639H295.204V264.158C295.204 266.503 295.659 268.106 296.568 268.968C297.478 269.782 298.507 270.189 299.656 270.189C300.182 270.189 300.685 270.141 301.163 270.045C301.69 269.901 302.169 269.734 302.599 269.542L304.682 275.43C302.958 276.052 300.948 276.363 298.65 276.363Z" fill="#4935EB"/>
<path d="M337.729 266.024C337.729 269.088 336.389 271.672 333.708 273.779C331.028 275.885 327.653 276.938 323.585 276.938C320.043 276.938 316.931 276.028 314.251 274.209C311.57 272.343 309.656 269.901 308.507 266.886L314.394 264.373C315.256 266.479 316.501 268.13 318.128 269.327C319.803 270.476 321.622 271.05 323.585 271.05C325.691 271.05 327.438 270.595 328.826 269.686C330.262 268.777 330.98 267.7 330.98 266.455C330.98 264.205 329.257 262.554 325.81 261.501L319.779 259.993C312.935 258.27 309.512 254.967 309.512 250.085C309.512 246.878 310.805 244.317 313.389 242.403C316.022 240.44 319.372 239.459 323.441 239.459C326.552 239.459 329.352 240.201 331.841 241.685C334.378 243.169 336.149 245.155 337.154 247.644L331.267 250.085C330.597 248.601 329.496 247.453 327.964 246.639C326.48 245.777 324.805 245.346 322.938 245.346C321.215 245.346 319.66 245.777 318.272 246.639C316.931 247.5 316.261 248.553 316.261 249.798C316.261 251.808 318.152 253.244 321.933 254.106L327.246 255.47C334.235 257.193 337.729 260.711 337.729 266.024Z" fill="#4935EB"/>
<path d="M383.197 276.938C375.586 276.938 369.22 274.377 364.098 269.255C359.025 264.134 356.488 257.744 356.488 250.085C356.488 242.427 359.025 236.061 364.098 230.987C369.172 225.817 375.538 223.233 383.197 223.233C390.951 223.233 397.245 226.033 402.079 231.633L397.341 236.228C393.655 231.777 388.94 229.551 383.197 229.551C377.501 229.551 372.738 231.466 368.909 235.295C365.127 239.076 363.237 244.006 363.237 250.085C363.237 256.164 365.127 261.094 368.909 264.876C372.738 268.705 377.501 270.619 383.197 270.619C389.18 270.619 394.373 268.106 398.777 263.081L403.587 267.747C401.146 270.667 398.154 272.941 394.612 274.568C391.07 276.148 387.265 276.938 383.197 276.938Z" fill="#4935EB"/>
<path d="M406.745 258.198C406.745 252.79 408.444 248.314 411.843 244.772C415.289 241.23 419.621 239.459 424.838 239.459C430.056 239.459 434.363 241.23 437.762 244.772C441.208 248.314 442.931 252.79 442.931 258.198C442.931 263.655 441.208 268.13 437.762 271.625C434.363 275.167 430.056 276.938 424.838 276.938C419.621 276.938 415.289 275.167 411.843 271.625C408.444 268.083 406.745 263.607 406.745 258.198ZM413.351 258.198C413.351 261.98 414.452 265.043 416.653 267.388C418.855 269.734 421.583 270.907 424.838 270.907C428.093 270.907 430.821 269.734 433.023 267.388C435.225 265.043 436.326 261.98 436.326 258.198C436.326 254.465 435.225 251.425 433.023 249.08C430.774 246.687 428.045 245.49 424.838 245.49C421.631 245.49 418.903 246.687 416.653 249.08C414.452 251.425 413.351 254.465 413.351 258.198Z" fill="#4935EB"/>
<path d="M454.836 275.789H448.23V240.608H454.549V245.49H454.836C455.841 243.767 457.373 242.331 459.431 241.182C461.537 240.033 463.619 239.459 465.677 239.459C468.262 239.459 470.536 240.057 472.498 241.254C474.461 242.451 475.897 244.102 476.806 246.208C479.726 241.709 483.77 239.459 488.94 239.459C493.008 239.459 496.144 240.704 498.345 243.193C500.547 245.682 501.648 249.224 501.648 253.819V275.789H495.043V254.824C495.043 251.521 494.444 249.152 493.248 247.716C492.051 246.232 490.041 245.49 487.217 245.49C484.68 245.49 482.55 246.567 480.827 248.721C479.104 250.875 478.242 253.412 478.242 256.332V275.789H471.637V254.824C471.637 251.521 471.038 249.152 469.842 247.716C468.645 246.232 466.635 245.49 463.811 245.49C461.274 245.49 459.144 246.567 457.421 248.721C455.697 250.875 454.836 253.412 454.836 256.332V275.789Z" fill="#4935EB"/>
<path d="M515.976 275.789H509.371V240.608H515.689V245.49H515.976C516.982 243.767 518.513 242.331 520.571 241.182C522.677 240.033 524.76 239.459 526.818 239.459C529.403 239.459 531.676 240.057 533.639 241.254C535.601 242.451 537.037 244.102 537.947 246.208C540.866 241.709 544.911 239.459 550.08 239.459C554.149 239.459 557.284 240.704 559.486 243.193C561.688 245.682 562.789 249.224 562.789 253.819V275.789H556.183V254.824C556.183 251.521 555.585 249.152 554.388 247.716C553.192 246.232 551.181 245.49 548.357 245.49C545.82 245.49 543.69 246.567 541.967 248.721C540.244 250.875 539.382 253.412 539.382 256.332V275.789H532.777V254.824C532.777 251.521 532.179 249.152 530.982 247.716C529.785 246.232 527.775 245.49 524.951 245.49C522.414 245.49 520.284 246.567 518.561 248.721C516.838 250.875 515.976 253.412 515.976 256.332V275.789Z" fill="#4935EB"/>
<path d="M601.385 275.789H595.066V270.907H594.779C593.774 272.63 592.218 274.066 590.112 275.214C588.054 276.363 585.9 276.938 583.65 276.938C579.343 276.938 576.016 275.717 573.671 273.276C571.373 270.787 570.224 267.269 570.224 262.722V240.608H576.83V262.291C576.973 268.035 579.869 270.907 585.517 270.907C588.15 270.907 590.352 269.854 592.123 267.747C593.894 265.594 594.779 263.033 594.779 260.065V240.608H601.385V275.789Z" fill="#4935EB"/>
<path d="M609.425 240.608H615.744V245.49H616.031C617.036 243.767 618.568 242.331 620.626 241.182C622.732 240.033 624.91 239.459 627.159 239.459C631.467 239.459 634.77 240.704 637.068 243.193C639.413 245.634 640.586 249.128 640.586 253.675V275.789H633.98V254.106C633.837 248.362 630.941 245.49 625.293 245.49C622.66 245.49 620.458 246.567 618.687 248.721C616.916 250.827 616.031 253.364 616.031 256.332V275.789H609.425V240.608Z" fill="#4935EB"/>
<path d="M656.883 228.474C656.883 229.766 656.429 230.867 655.519 231.777C654.61 232.686 653.509 233.141 652.216 233.141C650.924 233.141 649.823 232.686 648.914 231.777C648.004 230.867 647.55 229.766 647.55 228.474C647.55 227.182 648.004 226.081 648.914 225.171C649.823 224.262 650.924 223.807 652.216 223.807C653.509 223.807 654.61 224.262 655.519 225.171C656.429 226.081 656.883 227.182 656.883 228.474ZM655.519 240.608V275.789H648.914V240.608H655.519Z" fill="#4935EB"/>
<path d="M677.693 276.363C674.822 276.363 672.428 275.478 670.514 273.707C668.647 271.936 667.69 269.471 667.642 266.312V246.639H661.467V240.608H667.642V229.838H674.247V240.608H682.863V246.639H674.247V264.158C674.247 266.503 674.702 268.106 675.611 268.968C676.521 269.782 677.55 270.189 678.699 270.189C679.225 270.189 679.728 270.141 680.206 270.045C680.733 269.901 681.212 269.734 681.642 269.542L683.725 275.43C682.001 276.052 679.991 276.363 677.693 276.363Z" fill="#4935EB"/>
<path d="M720.944 240.608L698.903 291.297H692.082L700.267 273.563L685.763 240.608H692.943L703.426 265.881H703.569L713.765 240.608H720.944Z" fill="#4935EB"/>
<path d="M748.786 275.789H742.18V224.381H748.786V275.789Z" fill="#4935EB"/>
<path d="M758 240.608H764.318V245.49H764.605C765.61 243.767 767.142 242.331 769.2 241.182C771.306 240.033 773.484 239.459 775.734 239.459C780.042 239.459 783.344 240.704 785.642 243.193C787.987 245.634 789.16 249.128 789.16 253.675V275.789H782.554V254.106C782.411 248.362 779.515 245.49 773.867 245.49C771.234 245.49 769.032 246.567 767.261 248.721C765.49 250.827 764.605 253.364 764.605 256.332V275.789H758V240.608Z" fill="#4935EB"/>
<path d="M812.709 270.907C815.964 270.907 818.62 269.734 820.679 267.388C822.833 265.043 823.91 261.98 823.91 258.198C823.91 254.513 822.833 251.473 820.679 249.08C818.573 246.687 815.916 245.49 812.709 245.49C809.55 245.49 806.893 246.687 804.739 249.08C802.586 251.473 801.509 254.513 801.509 258.198C801.509 261.932 802.586 264.971 804.739 267.317C806.893 269.71 809.55 270.907 812.709 270.907ZM811.632 276.938C807.037 276.938 803.088 275.119 799.785 271.481C796.531 267.795 794.903 263.368 794.903 258.198C794.903 253.029 796.531 248.601 799.785 244.916C803.088 241.278 807.037 239.459 811.632 239.459C814.217 239.459 816.562 240.01 818.668 241.11C820.822 242.211 822.474 243.671 823.622 245.49H823.91L823.622 240.608V224.381H830.228V275.789H823.91V270.907H823.622C822.474 272.725 820.822 274.185 818.668 275.286C816.562 276.387 814.217 276.938 811.632 276.938Z" fill="#4935EB"/>
<path d="M846.825 228.474C846.825 229.766 846.371 230.867 845.461 231.777C844.552 232.686 843.451 233.141 842.159 233.141C840.866 233.141 839.765 232.686 838.856 231.777C837.946 230.867 837.492 229.766 837.492 228.474C837.492 227.182 837.946 226.081 838.856 225.171C839.765 224.262 840.866 223.807 842.159 223.807C843.451 223.807 844.552 224.262 845.461 225.171C846.371 226.081 846.825 227.182 846.825 228.474ZM845.461 240.608V275.789H838.856V240.608H845.461Z" fill="#4935EB"/>
<path d="M858.517 265.019C858.517 266.742 859.235 268.178 860.671 269.327C862.155 270.476 863.878 271.05 865.841 271.05C868.617 271.05 871.082 270.021 873.236 267.963C875.438 265.905 876.539 263.487 876.539 260.711C874.48 259.084 871.608 258.27 867.923 258.27C865.242 258.27 862.993 258.916 861.174 260.209C859.403 261.501 858.517 263.105 858.517 265.019ZM867.061 239.459C871.943 239.459 875.797 240.775 878.621 243.408C881.445 245.993 882.857 249.559 882.857 254.106V275.789H876.539V270.907H876.251C873.523 274.927 869.885 276.938 865.338 276.938C861.461 276.938 858.206 275.789 855.574 273.491C852.989 271.194 851.696 268.322 851.696 264.876C851.696 261.238 853.061 258.342 855.789 256.188C858.565 254.034 862.251 252.957 866.846 252.957C870.771 252.957 874.002 253.675 876.539 255.111V253.603C876.539 251.306 875.629 249.367 873.81 247.788C871.991 246.16 869.861 245.346 867.42 245.346C863.735 245.346 860.815 246.902 858.661 250.013L852.845 246.352C856.052 241.757 860.791 239.459 867.061 239.459Z" fill="#4935EB"/>
<path d="M220.462 149.931V46.4575H281.585V64.4915H238.496V85.4819H274.49V103.516H238.496V149.931H220.462Z" fill="#4935EB"/>
<path d="M292.351 149.931V39.0666H310.385V149.931H292.351Z" fill="#4935EB"/>
<path d="M325.194 122.585V76.0214H343.228V117.854C343.228 120.761 343.943 123.422 345.372 125.837C346.801 128.202 348.698 130.099 351.063 131.528C353.477 132.907 356.113 133.597 358.971 133.597C361.928 133.597 364.588 132.907 366.953 131.528C369.319 130.099 371.216 128.202 372.645 125.837C374.073 123.422 374.788 120.761 374.788 117.854V76.0214H392.822L392.896 149.931H374.862L374.788 143.205C372.226 145.866 369.195 147.985 365.697 149.562C362.199 151.089 358.454 151.853 354.463 151.853C349.092 151.853 344.189 150.547 339.755 147.936C335.32 145.275 331.772 141.752 329.112 137.367C326.5 132.932 325.194 128.005 325.194 122.585Z" fill="#4935EB"/>
<path d="M447.306 94.0554H432.968V149.931H414.934V94.0554H403.995V76.0214H414.934V52.8138H432.968V76.0214H447.306V94.0554Z" fill="#4935EB"/>
<path d="M500.284 94.0554H485.946V149.931H467.912V94.0554H456.973V76.0214H467.912V52.8138H485.946V76.0214H500.284V94.0554Z" fill="#4935EB"/>
<path d="M544.435 151.853C537.635 151.853 531.427 150.104 525.81 146.605C520.242 143.107 515.783 138.401 512.432 132.488C509.131 126.576 507.48 120.047 507.48 112.902C507.48 107.532 508.441 102.506 510.363 97.8248C512.284 93.0946 514.92 88.9556 518.271 85.408C521.671 81.811 525.613 79.0025 530.096 76.9823C534.58 74.9621 539.36 73.952 544.435 73.952C550.2 73.952 555.472 75.1838 560.252 77.6474C565.08 80.0618 569.17 83.3878 572.521 87.6253C575.871 91.8627 578.31 96.6915 579.838 102.112C581.365 107.532 581.71 113.198 580.872 119.111H526.844C527.534 121.87 528.668 124.358 530.244 126.576C531.821 128.744 533.817 130.493 536.231 131.823C538.645 133.104 541.38 133.77 544.435 133.819C547.588 133.868 550.446 133.129 553.008 131.602C555.62 130.025 557.788 127.906 559.512 125.245L577.916 129.532C574.91 136.085 570.427 141.456 564.464 145.644C558.502 149.783 551.826 151.853 544.435 151.853ZM526.253 105.585H562.617C562.075 102.629 560.917 99.9682 559.143 97.6031C557.418 95.1887 555.275 93.267 552.713 91.8381C550.151 90.4092 547.391 89.6947 544.435 89.6947C541.479 89.6947 538.744 90.4092 536.231 91.8381C533.718 93.2178 531.575 95.1148 529.801 97.5292C528.076 99.8943 526.894 102.58 526.253 105.585Z" fill="#4935EB"/>
<path d="M592.972 149.931L592.898 76.0214H610.932L611.006 82.5994C613.519 79.9386 616.524 77.8445 620.023 76.3171C623.521 74.7403 627.29 73.952 631.331 73.952C634.041 73.952 636.751 74.3461 639.461 75.1345L632.366 93.3163C630.493 92.5772 628.621 92.2077 626.748 92.2077C623.841 92.2077 621.181 92.9221 618.766 94.351C616.401 95.7307 614.504 97.6277 613.075 100.042C611.695 102.407 611.006 105.043 611.006 107.95V149.931H592.972Z" fill="#4935EB"/>
<path d="M647.753 149.931V46.4575H708.876V64.4915H665.787V85.4819H701.781V103.516H665.787V149.931H647.753Z" fill="#4935EB"/>
<path d="M719.641 149.931V39.0666H737.675V149.931H719.641Z" fill="#4935EB"/>
<path d="M786.807 151.853C780.007 151.853 773.799 150.104 768.182 146.605C762.614 143.107 758.154 138.426 754.804 132.562C751.503 126.65 749.852 120.121 749.852 112.976C749.852 107.556 750.813 102.506 752.734 97.8248C754.656 93.0946 757.292 88.9556 760.643 85.408C764.043 81.811 767.984 79.0025 772.468 76.9823C776.952 74.9621 781.732 73.952 786.807 73.952C793.606 73.952 799.79 75.7012 805.358 79.1995C810.975 82.6979 815.434 87.4035 818.736 93.3163C822.086 99.2291 823.762 105.782 823.762 112.976C823.762 118.347 822.801 123.373 820.879 128.054C818.958 132.735 816.297 136.874 812.897 140.471C809.546 144.018 805.629 146.802 801.145 148.823C796.711 150.843 791.931 151.853 786.807 151.853ZM786.807 133.819C790.404 133.819 793.631 132.858 796.489 130.936C799.347 129.015 801.589 126.477 803.215 123.324C804.89 120.17 805.728 116.721 805.728 112.976C805.728 109.133 804.865 105.635 803.141 102.481C801.466 99.2784 799.174 96.7408 796.267 94.8684C793.409 92.9468 790.256 91.9859 786.807 91.9859C783.259 91.9859 780.056 92.9468 777.199 94.8684C774.341 96.7901 772.074 99.3523 770.399 102.555C768.724 105.758 767.886 109.232 767.886 112.976C767.886 116.869 768.748 120.392 770.473 123.545C772.197 126.699 774.489 129.212 777.346 131.084C780.253 132.907 783.407 133.819 786.807 133.819Z" fill="#4935EB"/>
<path d="M869.943 149.931H852.056L827.371 76.0214H845.035L861.073 123.841L877.038 76.0214H894.85L910.815 123.841L926.853 76.0214H944.517L919.832 149.931H901.945L885.907 101.89L869.943 149.931Z" fill="#4935EB"/>
<path fill-rule="evenodd" clip-rule="evenodd" d="M176.047 0C181.976 0 187.464 3.22485 190.244 8.46713C192.908 13.4885 192.795 19.4057 189.949 24.3175L189.852 24.4821L164.905 66.43C162.084 71.1732 156.992 74.134 151.549 74.1974L151.371 74.198H122.884L134.724 101.445L134.772 101.525L134.844 101.654C137.633 106.72 137.564 112.743 134.673 117.733L134.576 117.899L109.63 159.847C106.808 164.591 101.716 167.551 96.2728 167.614L96.0949 167.615L61.1308 167.615L35.9958 194.264L35.9483 194.313C33.583 196.73 30.3872 198.078 27.0553 198.078C26.2224 198.078 25.3889 197.994 24.5644 197.825C20.5 196.99 17.1231 194.187 15.4976 190.321L15.4518 190.21L2.22439 159.688L2.15482 159.571L2.08255 159.445C2.07055 159.423 2.05835 159.401 2.04559 159.378C-0.742781 154.313 -0.675272 148.29 2.21605 143.299L2.31348 143.133L26.5087 102.448L8.68046 61.4202L9.00717 61.2528L9.00221 61.2282C8.2479 57.4546 8.85513 53.5193 10.7924 50.0722L10.8995 49.8843L10.9983 49.7162L35.9447 7.76787C38.7661 3.02481 43.8587 0.0641705 49.3014 0H176.047ZM45.0593 167.296H18.5539L26.3388 185.398L26.358 185.446C26.487 185.77 26.6957 185.948 27.0065 186.012C27.2836 186.069 27.5078 186.01 27.7199 185.816L27.757 185.779L45.0593 167.296ZM120.831 105.062H40.7106C40.6221 105.062 40.5336 105.065 40.4453 105.071L40.421 105.072L62.3893 155.585H96.0908C97.4761 155.585 98.8111 154.84 99.5696 153.642L99.6296 153.544L124.612 111.57C125.358 110.319 125.44 108.866 124.85 107.558C124.168 106.051 122.588 105.062 120.831 105.062ZM32.3821 115.434L12.5543 149.027C11.7653 150.365 11.7196 151.93 12.4261 153.309L12.5011 153.449L12.541 153.517L12.621 153.648L12.7796 153.886L12.9566 154.117L13.126 154.311L13.1554 154.343L13.2699 154.46L13.3694 154.555C13.9931 155.124 14.7641 155.472 15.6145 155.56L15.8055 155.577L15.9161 155.583L16.0563 155.585H49.6979L32.3821 115.434ZM27.1682 74.279L35.8763 94.3548L36.046 94.2964C37.5498 93.7905 39.1222 93.5168 40.7117 93.4914L40.9502 93.49L118.612 93.4893L110.28 74.2797L27.1682 74.279ZM175.826 11.7107H95.4198L117.395 62.2343H151.084C152.473 62.2343 153.808 61.4878 154.567 60.2902L154.627 60.1917L179.612 18.2191C180.356 16.9673 180.439 15.5158 179.849 14.2096C179.182 12.7331 177.653 11.7531 175.938 11.712L175.826 11.7107ZM83.1112 11.7107H49.6083C48.2305 11.7107 46.9018 12.4549 46.1453 13.6511L46.0853 13.7491L21.1673 55.7223C20.4234 56.9754 20.3411 58.4305 20.931 59.7393C21.5955 61.2148 23.1166 62.1914 24.8208 62.2329L24.9323 62.2343H105.028L83.1112 11.7107Z" fill="#4935EB"/>
</svg>
