<svg width="482" height="320" viewBox="0 0 482 320" fill="none" xmlns="http://www.w3.org/2000/svg">
<path d="M202.954 55.9858C202.954 55.9858 176.202 68.0033 173.929 50.9983C171.657 33.9933 194.109 34.6183 194.109 34.6183C194.109 34.6183 182.514 27.1408 193.914 18.1708C205.314 9.20326 228.672 24.5658 228.672 24.5658C228.672 24.5658 210.777 12.1358 214.584 5.3633C218.392 -1.4067 258.474 -3.83169 262.329 54.5458L202.954 55.9858Z" fill="#0C6C45"/>
<path d="M305.865 132.626C324.745 122.011 341.947 108.424 356.647 92.5136C364.557 83.9511 375.455 73.751 386.072 78.566C396.717 83.3935 395.83 99.9011 388.015 108.594C391.7 101.521 402.952 101.274 408.417 107.081C413.885 112.889 413.997 122.276 410.615 129.499C407.232 136.721 401.022 142.189 394.69 147.036C398.522 142.284 407.105 147.644 406.807 153.741C406.512 159.839 401.122 164.366 395.84 167.424C388.245 171.816 379.885 174.881 371.247 176.434C375.852 173.224 381.975 180.204 380.207 185.531C378.44 190.861 372.725 193.656 367.5 195.709C350.8 202.266 333.087 207.136 315.157 206.486C299.57 205.921 279.025 200.869 270.28 186.481C262.862 174.279 269.232 159.759 278.42 150.479C286.172 142.649 296.387 137.954 305.865 132.626Z" fill="#17B268"/>
<path d="M345.426 120.378C349.206 117.905 354.426 115.51 357.856 118.45C360.966 121.115 360.001 126.168 358.124 129.81C356.246 133.45 353.636 137.185 354.276 141.23C358.166 142.985 363.064 140.513 366.864 142.455C370.164 144.143 371.149 148.72 369.754 152.155C368.359 155.588 365.191 157.99 361.884 159.663C358.666 161.29 354.466 163.758 355.494 167.213C356.469 170.488 361.201 170.638 363.541 173.128C365.509 175.22 365.331 178.688 363.844 181.143C362.354 183.6 359.849 185.245 357.341 186.648C347.431 192.2 336.119 195.095 324.781 195.34C314.266 195.568 302.871 193.943 293.931 188.045C287.356 183.708 281.434 176.135 284.181 167.858C285.801 162.973 289.846 159.5 293.804 156.468C298.904 152.56 304.141 148.82 309.364 145.078C319.911 137.515 330.604 130.155 341.434 123C342.759 122.128 344.091 121.25 345.426 120.378Z" fill="#0C6C45"/>
<path d="M307.977 162.485C309.372 161.297 310.765 160.11 312.16 158.925C312.405 158.662 312.692 158.475 313.027 158.367C313.35 158.197 313.695 158.12 314.067 158.135C314.727 158.135 315.52 158.427 315.975 158.925C316.447 159.44 316.797 160.112 316.765 160.832C316.735 161.515 316.515 162.28 315.975 162.74C314.58 163.927 313.187 165.115 311.792 166.3C311.547 166.562 311.26 166.75 310.925 166.857C310.605 167.025 310.257 167.102 309.887 167.09C309.225 167.09 308.435 166.795 307.98 166.3C307.507 165.785 307.157 165.112 307.19 164.392C307.22 163.71 307.44 162.942 307.977 162.485Z" fill="white"/>
<path d="M302.385 157.301C302.407 157.169 302.44 157.036 302.485 156.909C302.6 156.571 302.74 156.239 302.902 155.921C302.965 155.801 303.035 155.684 303.112 155.574C303.28 155.336 303.462 155.104 303.647 154.879C303.69 154.826 303.735 154.776 303.78 154.726C303.872 154.626 303.972 154.536 304.077 154.451C304.345 154.236 304.627 153.996 304.93 153.816C305.235 153.634 305.587 153.506 305.907 153.376C306.037 153.324 306.17 153.279 306.307 153.246C306.665 153.134 307.025 153.119 307.382 153.199C307.74 153.216 308.075 153.321 308.385 153.519C308.7 153.689 308.95 153.919 309.142 154.214C309.38 154.474 309.542 154.779 309.625 155.131C309.657 155.371 309.69 155.609 309.722 155.849C309.72 156.336 309.597 156.789 309.355 157.209C309.215 157.391 309.075 157.574 308.932 157.754C308.595 158.089 308.2 158.319 307.742 158.446C307.6 158.481 307.462 158.526 307.327 158.584C307.542 158.494 307.757 158.401 307.972 158.311C307.762 158.401 307.565 158.519 307.382 158.659C307.565 158.519 307.747 158.379 307.927 158.236C307.737 158.384 307.57 158.554 307.42 158.741C307.56 158.559 307.7 158.376 307.842 158.196C307.697 158.386 307.575 158.591 307.48 158.814C307.57 158.599 307.66 158.384 307.752 158.169C307.677 158.351 307.62 158.541 307.587 158.736C307.505 159.086 307.342 159.394 307.105 159.654C306.915 159.946 306.662 160.179 306.347 160.349C306.037 160.546 305.705 160.651 305.345 160.669C304.987 160.749 304.627 160.734 304.27 160.621C304.055 160.531 303.84 160.439 303.625 160.349C303.22 160.109 302.897 159.786 302.657 159.381C302.567 159.166 302.477 158.951 302.385 158.736C302.257 158.256 302.257 157.779 302.385 157.301Z" fill="white"/>
<path d="M301.402 169.672C301.87 169.91 302.337 170.147 302.805 170.387C303.12 170.557 303.372 170.787 303.562 171.082C303.8 171.342 303.962 171.647 304.045 172C304.157 172.357 304.172 172.717 304.092 173.075C304.075 173.432 303.97 173.767 303.772 174.077C303.632 174.26 303.492 174.442 303.35 174.622C303.012 174.957 302.617 175.187 302.16 175.315C301.92 175.347 301.682 175.38 301.442 175.412C300.955 175.41 300.502 175.287 300.082 175.045C299.615 174.807 299.147 174.57 298.68 174.33C298.365 174.16 298.115 173.93 297.922 173.635C297.685 173.375 297.522 173.07 297.44 172.717C297.327 172.36 297.312 172 297.392 171.642C297.41 171.285 297.515 170.95 297.712 170.64C297.852 170.457 297.992 170.275 298.135 170.095C298.472 169.76 298.867 169.53 299.325 169.402C299.565 169.37 299.802 169.337 300.042 169.305C300.527 169.305 300.982 169.427 301.402 169.672Z" fill="white"/>
<path d="M360.445 134.702C370.8 126.115 380.277 116.515 388.735 106.052C389.415 105.212 390.595 106.405 389.922 107.24C381.465 117.702 371.987 127.302 361.632 135.89C360.805 136.575 359.612 135.392 360.445 134.702Z" fill="white"/>
<path d="M370.139 160.441C377.789 155.614 385.439 150.786 393.091 145.961C394.006 145.384 394.851 146.834 393.939 147.411C386.289 152.239 378.639 157.066 370.986 161.894C370.069 162.469 369.226 161.016 370.139 160.441Z" fill="white"/>
<path d="M367.056 176.148C369.269 176.476 371.539 176.251 373.664 175.566C374.094 175.426 374.579 175.728 374.696 176.151C374.821 176.603 374.544 177.043 374.111 177.183C371.684 177.966 369.129 178.138 366.611 177.766C366.161 177.698 365.916 177.133 366.026 176.733C366.156 176.253 366.606 176.083 367.056 176.148Z" fill="white"/>
<path d="M367.672 107.828C369.077 111.345 370.484 114.863 371.889 118.38C372.057 118.8 371.704 119.303 371.304 119.413C370.827 119.543 370.442 119.25 370.272 118.828C368.867 115.31 367.459 111.793 366.054 108.276C365.887 107.856 366.239 107.353 366.639 107.243C367.117 107.11 367.504 107.405 367.672 107.828Z" fill="white"/>
<path d="M372.559 105.031C373.029 106.439 373.496 107.846 373.966 109.251C374.106 109.669 373.806 110.186 373.381 110.284C372.919 110.389 372.499 110.144 372.349 109.699C371.879 108.291 371.411 106.886 370.941 105.479C370.801 105.061 371.101 104.544 371.526 104.446C371.991 104.341 372.411 104.586 372.559 105.031Z" fill="white"/>
<path d="M396.418 123.812C397.121 125.219 397.823 126.627 398.526 128.034C398.721 128.427 398.643 128.962 398.226 129.182C397.846 129.382 397.286 129.299 397.078 128.882C396.376 127.474 395.673 126.067 394.971 124.659C394.776 124.267 394.853 123.732 395.271 123.512C395.648 123.309 396.208 123.392 396.418 123.812Z" fill="white"/>
<path d="M381.732 136.197C381.732 136.667 381.732 137.135 381.732 137.605C381.732 137.82 381.639 138.045 381.487 138.197C381.342 138.342 381.102 138.453 380.894 138.443C380.677 138.433 380.452 138.362 380.302 138.197C380.152 138.032 380.057 137.832 380.057 137.605C380.057 137.135 380.057 136.667 380.057 136.197C380.057 135.982 380.149 135.757 380.302 135.605C380.447 135.46 380.687 135.35 380.894 135.36C381.112 135.37 381.337 135.44 381.487 135.605C381.637 135.767 381.732 135.97 381.732 136.197Z" fill="white"/>
<path d="M390.897 162.423C391.579 163.608 392.262 164.793 392.944 165.975C393.164 166.355 393.047 166.91 392.644 167.123C392.244 167.335 391.729 167.228 391.497 166.823C390.814 165.638 390.132 164.453 389.449 163.27C389.229 162.89 389.347 162.335 389.749 162.123C390.147 161.91 390.662 162.015 390.897 162.423Z" fill="white"/>
<path d="M365.928 152.197C370.2 150.517 372.3 145.689 370.62 141.417L359.128 112.209C357.448 107.937 352.62 105.837 348.348 107.517C344.075 109.197 341.975 114.024 343.655 118.297L355.148 147.504C356.83 151.777 361.655 153.877 365.928 152.197Z" fill="#004629"/>
<path d="M426.837 3.30469L316.12 116.165C310.26 122.137 315.83 132.062 323.982 130.172L475.927 94.9222L426.837 3.30469Z" fill="#0C6C45"/>
<path d="M464.907 41.8775C478.36 67.345 483.677 90.94 476.785 94.5825C469.892 98.2225 453.4 80.5299 439.947 55.0624C426.495 29.5949 421.177 5.99992 428.07 2.35742C434.965 -1.28258 451.457 16.41 464.907 41.8775Z" fill="#0C6C45"/>
<path d="M455.953 55.7578C455.953 61.5828 453.073 66.7378 448.658 69.8778C445.693 65.3628 442.756 60.3828 439.943 55.0653C437.133 49.7503 434.683 44.5078 432.613 39.5203C434.486 38.8228 436.518 38.4453 438.636 38.4453C448.203 38.4453 455.953 46.1978 455.953 55.7578Z" fill="#EFEDE4"/>
<path d="M464.907 41.8775C478.36 67.345 483.677 90.94 476.785 94.5825C469.892 98.2225 453.4 80.5299 439.947 55.0624C426.495 29.5949 421.177 5.99992 428.07 2.35742C434.965 -1.28258 451.457 16.41 464.907 41.8775Z" stroke="#EFEDE4" stroke-width="3.7585" stroke-miterlimit="10"/>
<path d="M407.827 43.5196C407.564 43.9821 407.307 44.4472 407.039 44.9047C406.862 45.2072 406.754 45.3397 406.512 45.5397C406.404 45.6297 406.297 45.7197 406.187 45.8072C406.077 45.8972 405.967 45.9872 405.857 46.0772C405.629 46.2622 405.407 46.4671 405.167 46.6321C405.024 46.6971 404.882 46.7621 404.739 46.8271C404.512 46.9046 404.284 46.9247 404.052 46.8847C403.684 46.8522 403.234 46.7147 402.979 46.4297C402.872 46.3097 402.767 46.1847 402.669 46.0547C402.604 45.9122 402.539 45.7697 402.474 45.6272C402.397 45.3997 402.377 45.1721 402.417 44.9396C402.449 44.5596 402.589 44.1397 402.874 43.8672C403.177 43.5772 403.524 43.3222 403.849 43.0572C403.959 42.9672 404.069 42.8771 404.179 42.7871C404.414 42.5946 404.602 42.4772 404.919 42.3697C405.427 42.1972 405.942 42.0372 406.452 41.8722C406.894 41.7272 407.389 41.8971 407.682 42.2471C407.962 42.5896 408.054 43.1171 407.827 43.5196Z" fill="#EFEDE4"/>
<path d="M397.889 48.93C397.772 48.975 397.654 49.025 397.539 49.0775C397.694 49.0075 397.849 48.9375 398.002 48.865C397.462 49.1125 396.962 49.43 396.504 49.81C396.639 49.6975 396.774 49.585 396.909 49.4725C396.812 49.555 396.719 49.64 396.624 49.725C396.287 50.0325 395.987 50.2275 395.544 50.345C395.337 50.4 395.132 50.4675 394.929 50.545C394.459 50.7275 393.867 50.5525 393.509 50.2225C393.104 49.85 393.004 49.36 393.069 48.835C393.104 48.5625 393.154 48.29 393.227 48.025C393.359 47.5525 393.602 47.1725 393.969 46.855C394.197 46.6575 394.429 46.4624 394.669 46.2799C395.292 45.8049 396.004 45.46 396.732 45.175C397.172 45.005 397.799 45.095 398.207 45.305C398.639 45.5275 399.062 45.995 399.187 46.475C399.312 46.9575 399.312 47.5024 399.057 47.9499C398.957 48.0949 398.857 48.2375 398.754 48.3825C398.517 48.6425 398.227 48.825 397.889 48.93Z" fill="#EFEDE4"/>
<path d="M403.566 54.1677C403.094 54.4452 402.621 54.7228 402.151 55.0003C401.886 55.1578 401.501 55.1478 401.274 54.9178C401.041 54.6828 400.979 54.3527 401.119 54.0502C401.349 53.5502 401.581 53.0527 401.811 52.5527C401.989 52.1702 402.436 51.8828 402.859 51.8828C403.186 51.8828 403.501 51.9802 403.746 52.2077C403.979 52.4227 404.131 52.7478 404.146 53.0653C404.164 53.4978 403.944 53.9452 403.566 54.1677Z" fill="#EFEDE4"/>
<path d="M408.924 37.5038C408.451 37.7813 407.981 38.0588 407.509 38.3363C407.244 38.4938 406.859 38.4837 406.631 38.2537C406.399 38.0187 406.336 37.6888 406.476 37.3863C406.706 36.8888 406.939 36.3888 407.169 35.8888C407.346 35.5063 407.794 35.2188 408.216 35.2188C408.544 35.2188 408.859 35.3163 409.104 35.5438C409.336 35.7588 409.489 36.0862 409.504 36.4012C409.524 36.8362 409.301 37.2838 408.924 37.5038Z" fill="#EFEDE4"/>
<path d="M17.8064 268.287C10.1489 272.217 1.33145 277.117 0.121448 285.637C-0.973551 293.36 5.49645 300.715 13.0564 302.632C20.6164 304.55 28.6789 302.092 35.4314 298.19C29.0814 302.452 31.2539 313.45 37.9314 317.18C44.6089 320.91 53.1414 318.965 59.7489 315.112C66.3564 311.26 71.8214 305.705 78.2939 301.63C74.1064 304.847 77.1039 312.337 82.1539 313.887C87.2014 315.437 92.5589 313.085 97.1939 310.557C115.561 300.54 131.879 286.782 144.856 270.37C155.764 256.575 164.414 237.232 155.704 221.955C148.554 209.415 131.856 205.022 117.714 207.905C102.531 211 91.0189 220.79 77.9439 228.257C71.7214 231.812 66.3114 237.42 60.5439 241.702C54.1339 246.46 47.5389 250.97 40.7789 255.212C33.3164 259.897 25.6489 264.262 17.8064 268.287Z" fill="#17B268"/>
<path d="M33.2104 298.077C45.9604 289.697 57.4754 279.54 67.3429 267.902C68.1879 266.905 69.8679 268.08 69.0129 269.09C59.0279 280.865 47.4254 291.17 34.5254 299.65C33.4329 300.365 32.1104 298.802 33.2104 298.077Z" fill="#222221"/>
<path d="M76.621 302.113C82.1085 296.023 87.5985 289.936 93.086 283.846C93.9585 282.878 95.6385 284.053 94.756 285.033C89.2685 291.123 83.7785 297.211 78.291 303.301C77.4185 304.266 75.736 303.093 76.621 302.113Z" fill="#222221"/>
<path d="M27.7085 267.061C32.3935 275.101 38.686 282.139 46.131 287.716C47.1835 288.504 46.0035 290.179 44.9435 289.386C37.206 283.589 30.721 276.286 25.8535 267.934C25.191 266.791 27.0485 265.931 27.7085 267.061Z" fill="#222221"/>
<path d="M38.3592 262.131C43.2267 269.176 48.9517 275.609 55.4142 281.229C56.3992 282.086 55.2242 283.764 54.2267 282.899C47.6292 277.161 41.7592 270.641 36.7867 263.446C36.0442 262.369 37.6092 261.046 38.3592 262.131Z" fill="#222221"/>
<path d="M48.1017 287.466C57.4642 292.579 67.8892 295.459 78.5392 295.969C79.8567 296.031 79.6717 298.071 78.3567 298.009C67.3242 297.481 56.6017 294.424 46.9142 289.136C45.7617 288.504 46.9567 286.841 48.1017 287.466Z" fill="#222221"/>
<path d="M60.1528 276.572C67.3128 282.642 76.0928 286.51 85.4153 287.63C86.7203 287.787 86.5453 289.827 85.2328 289.67C75.5703 288.507 66.3928 284.537 58.9653 278.242C57.9703 277.395 59.1453 275.717 60.1528 276.572Z" fill="#222221"/>
<path d="M91.8876 286.507C100.213 289.772 109.05 291.384 117.99 291.292C119.308 291.279 119.115 293.317 117.808 293.332C108.7 293.427 99.6476 291.752 91.1701 288.427C89.9476 287.947 90.6576 286.024 91.8876 286.507Z" fill="#222221"/>
<path d="M86.7361 293.477C95.3061 297.304 104.399 299.732 113.739 300.662C115.049 300.792 114.871 302.832 113.556 302.702C104.046 301.754 94.7436 299.292 86.0186 295.394C84.8211 294.862 85.5286 292.939 86.7361 293.477Z" fill="#222221"/>
<path d="M111.308 278.551C120.908 288.689 135.281 292.761 149.138 294.471C187.341 299.186 227.213 288.631 258.078 265.634C288.943 242.636 310.463 207.446 316.871 169.494C321.311 143.196 318.453 115.161 305.606 91.7912C292.758 68.4212 269.236 50.3812 242.746 47.2912C208.171 43.2587 174.623 64.7987 154.491 93.1937C137.291 117.451 130.078 145.114 120.148 172.639C117.006 181.351 112.993 189.671 109.543 198.254C105.223 209.001 102.246 220.429 100.331 231.844C97.6381 247.919 99.6306 266.221 111.308 278.551Z" fill="#009850"/>
<path d="M227.831 61.7352C211.659 71.4402 201.241 88.4752 194.091 105.928C187.066 123.075 182.554 141.548 183.584 160.048C184.611 178.55 191.574 197.11 204.876 210.01C228.626 233.038 280.874 229.425 303.219 205.033C312.259 195.165 314.461 185.403 316.811 172.228C321.811 144.21 320.021 132.185 315.476 112.618C311.664 96.2103 303.009 80.5978 290.071 69.6503C280.101 61.2153 265.186 54.4252 252.039 54.7452C243.569 54.9502 235.099 57.3727 227.831 61.7352Z" fill="#EFEDE4"/>
<path d="M287.049 100.197C287.049 100.197 290.439 76.8296 328.241 90.6896C328.241 90.6896 289.146 119.037 287.049 100.197Z" fill="#222221"/>
<path d="M214.124 125.871C214.381 126.991 214.654 128.109 214.899 129.234C215.059 129.971 215.081 130.341 214.989 131.016C214.949 131.316 214.906 131.619 214.864 131.919C214.819 132.224 214.776 132.526 214.731 132.831C214.641 133.459 214.586 134.109 214.444 134.726C214.311 135.039 214.181 135.351 214.049 135.664C213.801 136.121 213.466 136.486 213.039 136.764C212.406 137.251 211.489 137.691 210.664 137.606C210.316 137.571 209.966 137.524 209.621 137.466C209.309 137.334 208.996 137.204 208.684 137.071C208.226 136.824 207.861 136.489 207.584 136.061C207.081 135.409 206.689 134.534 206.741 133.686C206.799 132.784 206.981 131.866 207.111 130.969C207.156 130.664 207.199 130.361 207.244 130.056C207.339 129.404 207.464 128.944 207.809 128.309C208.364 127.289 208.951 126.284 209.521 125.271C210.016 124.394 211.054 123.939 212.029 124.069C212.979 124.196 213.901 124.901 214.124 125.871Z" fill="#41A47B"/>
<path d="M206.194 149.013C206.074 149.26 205.959 149.508 205.849 149.76C205.992 149.423 206.134 149.083 206.277 148.745C205.779 149.93 205.447 151.168 205.274 152.44C205.324 152.063 205.377 151.688 205.427 151.31C205.392 151.583 205.369 151.855 205.344 152.128C205.257 153.11 205.067 153.86 204.529 154.698C204.277 155.09 204.049 155.498 203.844 155.915C203.364 156.895 202.162 157.483 201.112 157.483C199.919 157.483 199.042 156.848 198.379 155.915C198.034 155.43 197.714 154.923 197.444 154.393C196.962 153.445 196.794 152.488 196.914 151.443C196.989 150.795 197.072 150.143 197.187 149.5C197.487 147.833 198.112 146.238 198.857 144.72C199.307 143.805 200.439 143.03 201.394 142.768C202.412 142.488 203.764 142.615 204.667 143.195C205.574 143.78 206.372 144.65 206.619 145.733C206.669 146.108 206.719 146.485 206.772 146.863C206.772 147.635 206.579 148.35 206.194 149.013Z" fill="#41A47B"/>
<path d="M209.59 170.424C209.778 171.429 209.965 172.434 210.153 173.439C210.268 174.059 210.393 174.676 210.478 175.301C210.55 175.849 210.51 176.261 210.38 176.831C210.358 176.936 210.33 177.041 210.305 177.146C210.245 177.391 210.188 177.636 210.128 177.884C210.02 178.329 209.72 178.811 209.4 179.134C208.958 179.576 208.388 179.831 207.775 179.911C207.258 179.981 206.79 179.921 206.308 179.719C205.773 179.494 205.223 179.096 204.953 178.559C204.643 177.941 204.228 177.276 204.053 176.616C203.863 175.894 203.903 175.041 203.868 174.289C203.82 173.264 203.77 172.241 203.723 171.216C203.69 170.504 204.073 169.584 204.598 169.104C205.093 168.651 205.648 168.371 206.315 168.281C206.953 168.196 207.665 168.276 208.22 168.636C208.838 169.039 209.448 169.669 209.59 170.424Z" fill="#41A47B"/>
<path d="M222.909 149.033C222.564 150.166 222.219 151.298 221.871 152.431C221.676 153.068 221.054 153.616 220.354 153.586C219.639 153.553 219.056 153.116 218.836 152.431C218.474 151.298 218.111 150.166 217.749 149.033C217.471 148.163 217.764 147.048 218.436 146.431C218.959 145.951 219.604 145.648 220.326 145.648C221.011 145.648 221.734 145.946 222.219 146.431C222.881 147.091 223.186 148.126 222.909 149.033Z" fill="#41A47B"/>
<path d="M229.691 191.037C226.046 191.037 226.041 185.375 229.691 185.375C233.336 185.375 233.341 191.037 229.691 191.037Z" fill="#41A47B"/>
<path d="M302.111 148.072C301.838 146.242 301.688 144.415 301.811 142.565C301.856 141.91 301.886 141.197 302.076 140.58C302.251 140.01 302.576 139.407 302.848 138.867C303.226 138.122 303.648 137.402 304.106 136.705C304.883 135.517 306.306 134.982 307.641 135.545C308.953 136.097 309.618 137.5 309.281 138.885C309.093 139.652 308.946 140.427 308.836 141.21C308.873 140.922 308.913 140.637 308.951 140.35C308.848 141.125 308.871 142 308.618 142.732C308.426 143.292 308.208 143.842 308.038 144.412C307.708 145.502 307.468 146.617 307.311 147.745C307.343 147.505 307.376 147.262 307.408 147.022C307.393 147.135 307.378 147.247 307.366 147.36C307.278 148.062 307.136 148.745 306.583 149.25C306.141 149.655 305.643 149.905 305.048 149.985C303.863 150.147 302.306 149.39 302.111 148.072Z" fill="#41A47B"/>
<path d="M290.021 129.561C290.601 127.596 291.183 125.629 291.766 123.664C291.956 123.024 292.588 122.479 293.283 122.509C293.926 122.539 294.683 122.971 294.801 123.664C295.131 125.629 295.458 127.596 295.788 129.561C295.931 130.091 295.931 130.621 295.788 131.151C295.646 131.656 295.391 132.096 295.021 132.471C294.436 133.009 293.718 133.346 292.908 133.346C290.998 133.344 289.468 131.431 290.021 129.561Z" fill="#41A47B"/>
<path d="M284.403 140.605C281.163 140.605 281.158 135.57 284.403 135.57C287.643 135.573 287.648 140.605 284.403 140.605Z" fill="#41A47B"/>
<path d="M280.78 63.1258C268.198 50.4458 247.585 43.9009 229.868 46.1709C223.05 47.0434 213.158 48.5083 206.728 50.9358C189.768 57.3383 176.913 67.0309 163.898 79.6509C150.885 92.2709 144.31 109.223 137.195 125.228C141.053 126.118 178.275 116.946 192.51 109.918C201 87.2984 218.83 67.8734 241.873 60.6109C253.415 56.9734 271.85 57.4783 280.78 63.1258Z" fill="#009850"/>
<path d="M192.512 109.93C192.512 109.93 166.52 121.782 137.197 125.24L129.197 146.505C129.197 146.505 168.572 137.41 189.987 117.04L192.512 109.93Z" fill="#009850"/>
<path d="M166.013 98.265C165.568 97.76 165.158 97.2576 165.01 96.5826C164.88 95.9876 164.805 95.375 164.743 94.77C164.703 94.38 164.685 93.9876 164.69 93.5976C164.698 93.0976 164.723 92.5825 164.908 92.1175C165.1 91.6325 165.303 91.145 165.523 90.6725C165.805 90.0625 166.205 89.5575 166.745 89.1425C167.343 88.68 167.943 88.4501 168.673 88.3501C169.285 88.2676 169.578 88.3 170.265 88.4275C170.433 88.46 170.598 88.5 170.763 88.55C171.42 88.7525 172.035 89.0351 172.323 89.7176C172.435 89.9851 172.52 90.265 172.633 90.5325C172.535 90.3025 172.438 90.0701 172.34 89.8376C172.528 90.2726 172.795 90.62 172.908 91.1125C173.035 91.675 173.06 92.185 172.985 92.7475C172.963 93.27 172.805 93.7575 172.518 94.2075C172.313 94.4725 172.108 94.7375 171.903 95.0025C171.77 95.1625 171.635 95.3201 171.505 95.4826C171.705 95.2226 171.908 94.9625 172.108 94.7025C171.77 95.1425 171.478 95.6925 171.06 96.045C170.845 96.2275 170.625 96.4001 170.418 96.5926C170.038 96.9426 169.688 97.325 169.373 97.7325C169.508 97.5575 169.645 97.38 169.78 97.205C169.615 97.4225 169.438 97.705 169.265 97.8775C169.053 98.09 168.865 98.205 168.635 98.345C168.523 98.415 168.41 98.485 168.3 98.56C167.65 99.005 166.535 98.8575 166.013 98.265Z" fill="white"/>
<path d="M177.206 79.4738C177.456 78.8913 177.706 78.3089 177.956 77.7264C178.174 77.2189 178.359 76.7413 178.819 76.3738C179.059 76.1838 179.299 75.9913 179.539 75.8013C179.709 75.6713 179.879 75.5389 180.049 75.4089C180.249 75.3239 180.449 75.2388 180.651 75.1538C180.874 75.1238 181.096 75.0939 181.321 75.0639C181.669 75.0514 181.991 75.1238 182.291 75.2813C182.504 75.3413 182.689 75.4489 182.846 75.6039C183.036 75.7164 183.186 75.8664 183.299 76.0564C183.454 76.2139 183.561 76.3988 183.624 76.6113C183.781 76.9113 183.854 77.2339 183.841 77.5814C183.834 77.8764 183.829 78.1738 183.816 78.4713C183.814 78.6238 183.796 78.7738 183.761 78.9238C183.741 79.0763 183.721 79.2289 183.699 79.3839C183.616 79.7239 183.464 79.9864 183.299 80.2689C183.221 80.4014 183.144 80.5364 183.066 80.6689C182.746 81.2214 182.424 81.7763 182.104 82.3288C181.926 82.6588 181.684 82.9239 181.374 83.1239C181.101 83.3739 180.779 83.5439 180.411 83.6314C180.034 83.7489 179.659 83.7664 179.281 83.6814C178.904 83.6639 178.554 83.5514 178.229 83.3464C177.624 82.9564 177.091 82.3763 176.926 81.6538C176.894 81.4038 176.859 81.1514 176.826 80.9014C176.821 80.3939 176.951 79.9163 177.206 79.4738Z" fill="white"/>
<path d="M182.129 93.8318C178.686 93.8318 178.681 88.4844 182.129 88.4844C185.569 88.4819 185.574 93.8318 182.129 93.8318Z" fill="white"/>
<path d="M201.694 267.025C202.069 266.252 202.447 265.482 202.822 264.71C203.057 264.227 203.264 263.75 203.594 263.322C203.932 262.887 204.294 262.472 204.649 262.055C205.229 261.37 205.809 260.687 206.389 260.002C206.749 259.577 207.077 259.147 207.519 258.805C207.989 258.442 208.467 258.095 208.944 257.742C209.537 257.307 210.689 257.205 211.369 257.425C212.032 257.64 212.577 257.997 213.004 258.552C213.414 259.082 213.712 259.77 213.679 260.46C213.639 261.33 213.324 262.022 212.757 262.685C212.462 263.03 212.182 263.417 211.857 263.735C211.402 264.18 210.794 264.537 210.277 264.915C209.547 265.447 208.819 265.977 208.089 266.51C207.747 266.76 207.412 267.035 207.057 267.262C206.587 267.565 205.934 267.745 205.404 267.957C204.642 268.262 203.879 268.567 203.117 268.872C202.657 269.057 202.069 268.777 201.794 268.422C201.469 268.002 201.467 267.49 201.694 267.025Z" fill="white"/>
<path d="M220.359 260.342C220.811 259.845 221.261 259.347 221.714 258.85C221.936 258.605 222.159 258.36 222.381 258.115C222.406 258.087 222.431 258.062 222.459 258.035C222.639 257.882 222.826 257.737 223.019 257.6C223.231 257.51 223.444 257.42 223.656 257.33C223.726 257.317 223.801 257.31 223.871 257.3C224.024 257.277 224.174 257.258 224.326 257.235C224.716 257.13 225.106 257.13 225.496 257.235C225.869 257.34 226.194 257.527 226.469 257.802C226.741 258.077 226.931 258.402 227.036 258.775C227.141 259.165 227.141 259.555 227.036 259.945C227.016 260.087 226.994 260.232 226.974 260.375C226.964 260.447 226.954 260.517 226.941 260.59C226.909 260.827 226.819 261.047 226.669 261.25C226.529 261.43 226.391 261.61 226.251 261.79C226.226 261.817 226.201 261.842 226.174 261.87C225.926 262.102 225.669 262.325 225.416 262.555C224.916 263.005 224.419 263.455 223.919 263.905C223.691 264.15 223.421 264.322 223.109 264.425C222.809 264.582 222.486 264.655 222.139 264.642C221.791 264.655 221.469 264.582 221.169 264.425C220.856 264.322 220.586 264.15 220.359 263.905C219.919 263.425 219.591 262.795 219.621 262.125C219.651 261.902 219.681 261.68 219.711 261.455C219.831 261.027 220.049 260.657 220.359 260.342Z" fill="white"/>
<path d="M226.461 243.968C226.968 243.758 227.473 243.548 227.981 243.341C228.226 243.238 228.473 243.138 228.718 243.036C228.846 242.983 228.971 242.931 229.098 242.878C229.166 242.851 229.233 242.823 229.301 242.796C229.531 242.701 229.796 242.691 230.041 242.666C230.341 242.653 230.621 242.716 230.881 242.853C231.151 242.941 231.386 243.091 231.583 243.306C231.698 243.453 231.811 243.601 231.926 243.748C232.123 244.088 232.223 244.456 232.223 244.851C232.198 245.086 232.193 245.348 232.103 245.568C232.076 245.636 232.048 245.701 232.021 245.768C231.968 245.893 231.916 246.021 231.863 246.148C231.758 246.401 231.653 246.653 231.548 246.906C231.338 247.411 231.126 247.916 230.916 248.421C230.743 249.033 230.433 249.566 229.986 250.018C229.533 250.466 229.003 250.776 228.388 250.948C227.143 251.291 225.781 250.931 224.868 250.018C223.956 249.106 223.596 247.743 223.938 246.498C224.111 245.886 224.421 245.353 224.868 244.901C225.316 244.451 225.848 244.141 226.461 243.968Z" fill="white"/>
<path d="M244.122 251.477C244.605 251.089 245.09 250.699 245.575 250.312C245.812 250.122 246.05 249.929 246.29 249.739C246.662 249.369 247.102 249.114 247.607 248.972C247.885 248.904 248.165 248.864 248.452 248.852C248.52 248.857 248.587 248.864 248.655 248.872C248.79 248.884 248.925 248.899 249.062 248.912C249.517 248.914 249.94 249.027 250.332 249.257C250.625 249.414 250.86 249.632 251.037 249.904C251.26 250.147 251.41 250.432 251.487 250.759C251.607 251.204 251.607 251.652 251.487 252.097C251.447 252.209 251.41 252.322 251.37 252.434C251.35 252.489 251.33 252.547 251.312 252.602C251.172 253.104 250.917 253.542 250.55 253.912C250.382 254.129 250.17 254.302 249.91 254.424C249.635 254.569 249.35 254.699 249.07 254.837C248.502 255.114 247.932 255.394 247.365 255.672C247.057 255.867 246.727 255.974 246.37 255.989C246.015 256.069 245.66 256.052 245.305 255.942C245.092 255.852 244.88 255.762 244.665 255.672C244.352 255.504 244.102 255.274 243.915 254.984C243.75 254.817 243.635 254.622 243.57 254.394C243.402 254.074 243.325 253.732 243.34 253.364C243.372 253.127 243.402 252.889 243.435 252.654C243.56 252.204 243.79 251.812 244.122 251.477Z" fill="white"/>
<path d="M113.73 120.657C94.8502 110.042 77.6477 96.4548 62.9477 80.5448C55.0377 71.9823 44.1402 61.7823 33.5227 66.5973C22.8777 71.4248 23.7652 87.9323 31.5802 96.6248C27.8952 89.5523 16.6452 89.3048 11.1777 95.1123C5.71018 100.92 5.59768 110.307 8.98018 117.53C12.3602 124.752 18.5727 130.22 24.9052 135.067C21.0727 130.315 12.4902 135.675 12.7877 141.772C13.0827 147.87 18.4727 152.397 23.7577 155.455C31.3527 159.847 39.7127 162.912 48.3477 164.465C43.7427 161.252 37.6202 168.235 39.3877 173.562C41.1552 178.892 46.8702 181.687 52.0952 183.74C68.7952 190.297 86.5077 195.167 104.438 194.517C120.025 193.952 140.57 188.9 149.315 174.512C156.733 162.31 150.363 147.79 141.175 138.51C133.425 130.68 123.208 125.985 113.73 120.657Z" fill="#17B268"/>
<path d="M74.1728 108.409C70.3928 105.937 65.1729 103.542 61.7429 106.482C58.6329 109.147 59.5979 114.199 61.4754 117.842C63.3529 121.482 65.9629 125.217 65.3229 129.262C61.4329 131.017 56.5354 128.544 52.7354 130.487C49.4354 132.174 48.4504 136.752 49.8454 140.187C51.2404 143.619 54.4079 146.022 57.7154 147.694C60.9329 149.322 65.1329 151.789 64.1054 155.244C63.1304 158.519 58.3979 158.669 56.0579 161.159C54.0904 163.252 54.2679 166.719 55.7554 169.174C57.2454 171.632 59.7504 173.277 62.2579 174.679C72.1679 180.232 83.4804 183.127 94.8204 183.372C105.335 183.599 116.73 181.974 125.67 176.077C132.245 171.739 138.168 164.167 135.42 155.889C133.798 151.004 129.755 147.532 125.798 144.499C120.698 140.592 115.46 136.852 110.24 133.109C99.6929 125.547 89.0004 118.187 78.1704 111.032C76.8379 110.157 75.5053 109.282 74.1728 108.409Z" fill="#0C6C45"/>
<path d="M102.834 148.84C102.834 148.18 103.129 147.388 103.624 146.933C104.139 146.46 104.811 146.11 105.531 146.143C105.769 146.175 106.009 146.208 106.249 146.238C106.706 146.365 107.101 146.598 107.439 146.93C108.834 148.118 110.226 149.305 111.621 150.49C111.884 150.735 112.069 151.023 112.179 151.358C112.346 151.68 112.424 152.025 112.411 152.398C112.411 153.058 112.116 153.85 111.621 154.305C111.106 154.778 110.434 155.128 109.714 155.095C109.474 155.063 109.236 155.03 108.996 154.998C108.539 154.87 108.144 154.638 107.806 154.305C106.411 153.118 105.019 151.93 103.624 150.745" fill="white"/>
<path d="M116.474 143.593C116.551 143.703 116.624 143.818 116.684 143.938C116.846 144.255 116.986 144.588 117.104 144.925C117.149 145.058 117.184 145.195 117.209 145.333C117.321 145.69 117.336 146.05 117.256 146.408C117.239 146.765 117.134 147.1 116.936 147.41C116.766 147.725 116.536 147.978 116.241 148.168C115.981 148.405 115.676 148.568 115.324 148.65C115.084 148.683 114.846 148.715 114.606 148.745C114.119 148.743 113.666 148.62 113.246 148.378C113.064 148.238 112.881 148.098 112.701 147.955C112.366 147.618 112.136 147.223 112.009 146.765C111.974 146.57 111.919 146.38 111.844 146.198C111.934 146.413 112.024 146.628 112.116 146.843C112.021 146.623 111.901 146.415 111.754 146.225C111.894 146.408 112.034 146.59 112.176 146.77C112.029 146.58 111.859 146.413 111.669 146.265C111.851 146.405 112.034 146.545 112.214 146.688C112.031 146.548 111.836 146.433 111.624 146.34C111.839 146.43 112.054 146.52 112.269 146.613C112.134 146.555 111.996 146.51 111.854 146.478C111.504 146.395 111.196 146.233 110.936 145.995C110.644 145.805 110.411 145.553 110.241 145.238C110.044 144.928 109.939 144.593 109.921 144.235C109.841 143.878 109.856 143.518 109.969 143.16C110.059 142.945 110.151 142.73 110.241 142.515C110.481 142.11 110.804 141.788 111.209 141.548C111.424 141.458 111.639 141.365 111.854 141.275C112.331 141.148 112.809 141.148 113.286 141.275C113.419 141.308 113.546 141.348 113.671 141.4C113.991 141.53 114.344 141.66 114.649 141.838C114.951 142.015 115.236 142.258 115.504 142.47" fill="white"/>
<path d="M119.196 157.378C119.553 157.298 119.913 157.313 120.271 157.426C120.621 157.508 120.928 157.671 121.188 157.908C121.481 158.098 121.713 158.351 121.883 158.666C121.973 158.881 122.066 159.096 122.156 159.311C122.283 159.788 122.283 160.266 122.156 160.743C122.066 160.958 121.976 161.173 121.883 161.388C121.643 161.793 121.321 162.116 120.916 162.356C120.448 162.593 119.981 162.831 119.513 163.071C119.203 163.268 118.871 163.373 118.511 163.391C118.153 163.471 117.793 163.456 117.436 163.343C117.086 163.261 116.778 163.098 116.518 162.861C116.223 162.671 115.993 162.418 115.823 162.103C115.733 161.888 115.643 161.673 115.551 161.458C115.423 160.981 115.423 160.503 115.551 160.026C115.641 159.811 115.733 159.596 115.823 159.381C116.063 158.976 116.386 158.653 116.791 158.413" fill="white"/>
<path d="M57.965 123.921C47.61 115.331 38.1325 105.733 29.675 95.2707C29.0025 94.4382 30.1825 93.2432 30.8625 94.0832C39.32 104.546 48.7975 114.146 59.1525 122.733C59.9825 123.423 58.79 124.606 57.965 123.921Z" fill="white"/>
<path d="M48.6099 149.913C40.9599 145.086 33.3099 140.258 25.6574 135.433C24.7474 134.858 25.5873 133.406 26.5048 133.986C34.1548 138.813 41.8048 143.641 49.4573 148.466C50.3673 149.041 49.5274 150.493 48.6099 149.913Z" fill="white"/>
<path d="M52.9862 165.797C50.4687 166.17 47.9137 165.997 45.4862 165.215C45.0537 165.075 44.7762 164.632 44.9012 164.182C45.0187 163.76 45.5012 163.457 45.9337 163.597C48.0587 164.282 50.3287 164.507 52.5412 164.18C52.9887 164.115 53.4437 164.292 53.5737 164.765C53.6812 165.16 53.4362 165.73 52.9862 165.797Z" fill="white"/>
<path d="M53.5427 96.3057C52.1377 99.8232 50.7302 103.341 49.3252 106.858C49.1577 107.278 48.7651 107.573 48.2926 107.443C47.8926 107.333 47.5377 106.836 47.7077 106.411C49.1127 102.893 50.5202 99.3757 51.9252 95.8582C52.0927 95.4382 52.4851 95.1432 52.9576 95.2732C53.3551 95.3832 53.7102 95.8832 53.5427 96.3057Z" fill="white"/>
<path d="M48.6544 93.498C48.1844 94.9055 47.7169 96.3106 47.2469 97.7181C47.1094 98.1331 46.6619 98.448 46.2144 98.303C45.7994 98.168 45.4794 97.718 45.6294 97.2705C46.0994 95.863 46.5669 94.458 47.0369 93.0505C47.1744 92.6355 47.6219 92.3205 48.0694 92.4655C48.4819 92.598 48.8044 93.0505 48.6544 93.498Z" fill="white"/>
<path d="M24.6288 112.675C23.9263 114.083 23.2238 115.49 22.5213 116.898C22.3238 117.29 21.7363 117.433 21.3738 117.198C20.9713 116.938 20.8637 116.47 21.0737 116.05C21.7762 114.643 22.4788 113.235 23.1813 111.828C23.3788 111.435 23.9663 111.293 24.3288 111.528C24.7313 111.788 24.8388 112.255 24.6288 112.675Z" fill="white"/>
<path d="M39.5402 124.221C39.5402 124.691 39.5402 125.158 39.5402 125.628C39.5402 125.843 39.4477 126.068 39.2952 126.221C39.1502 126.366 38.9102 126.476 38.7027 126.466C38.4852 126.456 38.2602 126.386 38.1102 126.221C37.9602 126.056 37.8652 125.856 37.8652 125.628C37.8652 125.158 37.8652 124.691 37.8652 124.221C37.8652 124.006 37.9577 123.778 38.1102 123.628C38.2552 123.483 38.4952 123.373 38.7027 123.383C38.9202 123.393 39.1452 123.463 39.2952 123.628C39.4452 123.793 39.5402 123.993 39.5402 124.221Z" fill="white"/>
<path d="M30.1517 151.31C29.4692 152.495 28.7867 153.677 28.1042 154.862C27.8842 155.242 27.3367 155.408 26.9567 155.163C26.5742 154.915 26.4217 154.422 26.6567 154.015C27.3392 152.83 28.0217 151.645 28.7042 150.463C28.9242 150.083 29.4742 149.918 29.8517 150.163C30.2367 150.41 30.3867 150.902 30.1517 151.31Z" fill="white"/>
<path d="M289.738 105.415C289.738 105.415 307.528 114.402 326.926 102.077L303.416 99.1875L289.738 105.415Z" fill="#222221"/>
<path d="M273.105 94.6829C270.768 89.6804 265.196 85.6578 259.551 87.7053C257.146 88.5778 254.971 90.5354 254.218 93.0254C253.263 96.1904 254.676 99.6479 256.531 102.195C257.553 103.6 255.216 104.945 254.203 103.555C250.711 98.7578 249.888 91.9978 254.553 87.6828C258.613 83.9253 264.521 83.5478 269.211 86.3553C271.926 87.9803 274.101 90.4603 275.436 93.3203C276.163 94.8853 273.838 96.2554 273.105 94.6829Z" fill="#222221"/>
<path d="M275.88 88.8166C275.292 89.5191 274.707 90.224 274.12 90.9265C274.015 91.0515 273.8 91.1241 273.642 91.1241C273.477 91.1241 273.28 91.0515 273.165 90.9265C273.047 90.799 272.96 90.6291 272.967 90.4491C272.975 90.2616 273.045 90.1166 273.165 89.9716C273.75 89.2691 274.337 88.5641 274.922 87.8616C275.027 87.7366 275.242 87.6641 275.4 87.6641C275.565 87.6641 275.762 87.7366 275.877 87.8616C275.995 87.9891 276.082 88.1591 276.075 88.3391C276.067 88.5266 276 88.6716 275.88 88.8166Z" fill="#222221"/>
<path d="M272.215 83.2607C271.65 84.7932 271.085 86.3257 270.52 87.8557C270.395 88.1982 270.062 88.4282 269.69 88.3257C269.36 88.2357 269.092 87.8407 269.22 87.4957C269.785 85.9632 270.35 84.4307 270.912 82.9007C271.037 82.5607 271.37 82.3282 271.742 82.4307C272.072 82.5207 272.342 82.9157 272.215 83.2607Z" fill="#222221"/>
<path d="M264.821 80.9567C264.821 82.2467 264.821 83.5367 264.821 84.8242C264.821 85.1767 264.511 85.5142 264.146 85.4992C263.781 85.4817 263.471 85.2042 263.471 84.8242C263.471 83.5342 263.471 82.2442 263.471 80.9567C263.471 80.6042 263.781 80.2667 264.146 80.2817C264.511 80.2992 264.821 80.5792 264.821 80.9567Z" fill="#222221"/>
<path d="M256.97 82.3816C257.465 83.3066 257.96 84.2315 258.452 85.154C258.62 85.464 258.54 85.9016 258.21 86.0766C257.897 86.2416 257.465 86.1665 257.287 85.834C256.792 84.909 256.297 83.9866 255.805 83.0616C255.64 82.7516 255.717 82.3141 256.047 82.1391C256.362 81.9741 256.792 82.0491 256.97 82.3816Z" fill="#222221"/>
<path d="M250.205 86.8016C251.265 87.8516 252.325 88.9016 253.385 89.9516C253.635 90.1991 253.653 90.6592 253.385 90.9042C253.115 91.1517 252.7 91.1692 252.433 90.9042C251.373 89.8542 250.313 88.8041 249.253 87.7541C249.003 87.5066 248.985 87.0466 249.253 86.8016C249.523 86.5541 249.938 86.5366 250.205 86.8016Z" fill="#222221"/>
<path d="M247.455 93.9438C248.748 94.1638 250.04 94.3838 251.33 94.6063C251.68 94.6663 251.905 95.1138 251.8 95.4363C251.678 95.8113 251.345 95.9713 250.97 95.9063C249.678 95.6863 248.385 95.4663 247.095 95.2438C246.748 95.1838 246.52 94.7363 246.625 94.4138C246.748 94.0388 247.083 93.8788 247.455 93.9438Z" fill="#222221"/>
<path d="M248.133 101.474C249.623 101.767 251.216 101.539 252.581 100.834C252.903 100.667 253.313 100.749 253.503 101.077C253.681 101.379 253.586 101.832 253.261 101.999C251.566 102.877 249.643 103.144 247.773 102.777C247.416 102.707 247.211 102.279 247.303 101.947C247.406 101.572 247.776 101.404 248.133 101.474Z" fill="#222221"/>
</svg>
