<svg width="612" height="583" viewBox="0 0 612 583" fill="none" xmlns="http://www.w3.org/2000/svg">
<path d="M456.976 126.341C456.976 126.341 424.122 132.027 426.418 112.66C428.713 93.2925 453.265 100.312 453.265 100.312C453.265 100.312 442.605 88.8049 457.691 82.1437C472.776 75.4825 494.166 98.9942 494.166 98.9942C494.166 98.9942 477.965 80.2561 484.07 73.8731C490.175 67.4901 535.002 76.1298 522.776 141.509L456.976 126.341Z" fill="#0C6C45"/>
<path d="M326.146 358.68C366.901 364.083 392.34 329.341 391.622 291.324C391.456 263.587 380.185 230.331 362.463 180.408C331.367 103.495 313.528 -5.42413 289.432 0.210067C290.076 0.124267 271.351 7.77087 273.969 62.4281C272.877 62.8779 263.478 -0.260532 246.108 8.87587C227.214 18.9093 234.033 63.7905 234.517 63.5331C233.987 63.7671 225.76 18.4179 211.016 23.3475C193.559 28.8361 205.987 122.046 208.067 121.461C207.552 121.669 198.757 75.1395 185.556 87.4817C173.131 95.1777 142.36 200.92 249.995 314.488C280.189 344.336 306.433 355.752 326.146 358.68Z" fill="#17B268"/>
<path d="M189.529 192.96C189.529 192.96 251.344 136.932 347.885 144.197" stroke="#FFF4EB" stroke-width="2.32518" stroke-miterlimit="10" stroke-linecap="round"/>
<path d="M206.562 115.961C206.562 115.961 224.081 187.222 240.742 210.032" stroke="#FFF4EB" stroke-width="2.32518" stroke-miterlimit="10" stroke-linecap="round"/>
<path d="M230.154 62.4375C230.154 62.4375 262.55 164.893 276.325 202.37" stroke="#FFF4EB" stroke-width="2.32518" stroke-miterlimit="10" stroke-linecap="round"/>
<path d="M273.969 62.4375C273.969 62.4375 310.426 167.189 316.273 180.875" stroke="#FFF4EB" stroke-width="2.32518" stroke-miterlimit="10" stroke-linecap="round"/>
<path d="M212.954 217.191C218.136 215.101 223.318 213.008 228.5 210.918C229.976 210.322 230.878 212.628 229.396 213.226C224.215 215.317 219.033 217.41 213.851 219.5C212.374 220.096 211.475 217.789 212.954 217.191Z" fill="#EFEDE4"/>
<path d="M208.8 210.001C210.873 209.301 212.947 208.604 215.02 207.905C215.633 207.7 216.4 207.957 216.621 208.61C216.829 209.221 216.572 209.99 215.917 210.211C213.844 210.911 211.77 211.607 209.697 212.307C209.084 212.512 208.317 212.255 208.096 211.602C207.888 210.991 208.145 210.222 208.8 210.001Z" fill="#EFEDE4"/>
<path d="M236.684 174.579C238.756 173.536 240.828 172.493 242.903 171.448C243.483 171.157 244.304 171.563 244.504 172.153C244.736 172.837 244.419 173.442 243.8 173.754C241.728 174.797 239.655 175.842 237.583 176.885C237.003 177.176 236.182 176.77 235.982 176.18C235.748 175.499 236.062 174.893 236.684 174.579Z" fill="#EFEDE4"/>
<path d="M254.725 196.278C255.416 196.275 256.108 196.273 256.799 196.27C256.963 196.244 257.119 196.26 257.27 196.317C257.434 196.348 257.579 196.418 257.709 196.53C257.847 196.631 257.949 196.759 258.016 196.91C258.105 197.045 258.157 197.193 258.17 197.357C258.193 197.677 258.125 198.02 257.91 198.267C257.829 198.342 257.751 198.42 257.67 198.498C257.494 198.626 257.299 198.704 257.08 198.727C256.389 198.73 255.697 198.732 255.005 198.735C254.842 198.761 254.686 198.745 254.535 198.688C254.371 198.657 254.225 198.587 254.095 198.475C253.958 198.373 253.856 198.246 253.789 198.095C253.7 197.96 253.648 197.812 253.635 197.648C253.612 197.328 253.679 196.985 253.895 196.738C253.976 196.663 254.054 196.585 254.134 196.507C254.311 196.382 254.506 196.304 254.725 196.278Z" fill="#EFEDE4"/>
<path d="M293.41 182.693C295.155 181.681 296.899 180.667 298.641 179.656C299.2 179.331 299.975 179.328 300.37 179.926C300.711 180.436 300.701 181.309 300.1 181.655C298.355 182.667 296.611 183.681 294.869 184.692C294.31 185.017 293.535 185.02 293.14 184.422C292.802 183.912 292.812 183.041 293.41 182.693Z" fill="#EFEDE4"/>
<path d="M330.583 169.818C332.328 168.806 334.072 167.792 335.814 166.781C336.373 166.456 337.148 166.453 337.543 167.051C337.884 167.561 337.873 168.434 337.273 168.78C335.528 169.792 333.784 170.806 332.042 171.817C331.483 172.142 330.708 172.145 330.312 171.547C329.974 171.037 329.982 170.166 330.583 169.818Z" fill="#EFEDE4"/>
<path d="M221.41 343.764C221.41 343.764 4.92617 318.723 0.103165 348.023C-1.88323 360.092 25.474 369.647 25.474 369.647C25.474 369.647 12.3882 375.357 18.2928 382.748C26.449 392.959 46.469 396.068 46.469 396.068C46.469 396.068 31.5918 400.01 38.7028 412.443C52.5296 436.618 162.432 420.721 234.771 401.5L221.41 343.764Z" fill="#17B268"/>
<path d="M53.2148 397.547C65.4166 396.075 77.6419 394.882 89.8697 393.733C102.098 392.576 114.343 391.65 126.576 390.6C138.828 389.755 151.071 388.798 163.33 388.057C175.589 387.316 187.853 386.617 200.138 386.203C187.936 387.68 175.711 388.871 163.483 390.023C151.256 391.172 139.01 392.108 126.774 393.153C114.523 393.993 102.279 394.957 90.0205 395.691C77.7615 396.432 65.4998 397.128 53.2148 397.547Z" fill="#222221"/>
<path d="M32.25 370.205C44.4908 369.282 56.742 368.637 68.9932 368.036C81.2444 367.43 93.5034 367.053 105.76 366.549C118.021 366.253 130.28 365.847 142.545 365.655C154.809 365.465 167.076 365.314 179.353 365.452C167.112 366.38 154.861 367.022 142.61 367.625C130.358 368.226 118.099 368.611 105.843 369.107C93.5814 369.396 81.3224 369.812 69.0582 369.997C56.7914 370.189 44.5246 370.337 32.25 370.205Z" fill="#222221"/>
<path d="M562.206 182.083C552.555 156.99 535.569 135.746 503.233 124.576C503.233 124.576 418.169 91.8891 364.9 151.224C298.259 225.451 156.245 306.238 168.457 367.957C198.651 464.615 372.593 516.721 460.336 435.729C496.694 406.403 530.616 320.169 538.411 309.821C574.561 241.176 574.26 213.418 562.206 182.083ZM456.173 255.725C456.202 255.689 456.202 255.689 456.222 255.66C456.207 255.681 456.191 255.705 456.173 255.725Z" fill="#009850"/>
<mask id="mask0_3699_2319" style="mask-type:luminance" maskUnits="userSpaceOnUse" x="168" y="115" width="402" height="361">
<path d="M562.208 182.098C552.557 157.006 535.571 135.761 503.235 124.592C503.235 124.592 419.349 92.8039 364.902 151.239C297.853 222.287 194.532 349.845 168.459 367.972C198.653 464.63 372.595 516.737 460.338 435.744C496.696 406.419 530.618 320.184 538.413 309.836C574.563 241.191 574.262 213.434 562.208 182.098ZM456.175 255.741C456.204 255.704 456.204 255.704 456.224 255.676C456.209 255.697 456.193 255.72 456.175 255.741Z" fill="white"/>
</mask>
<g mask="url(#mask0_3699_2319)">
<path d="M577.652 282.291C582.293 245.506 579.363 207.382 562.135 177.662C529.362 167.082 470.002 154.613 440.882 190.253C407.027 231.692 458.333 264.736 458.333 264.736C458.333 264.736 316.664 371.084 510.59 436.164C525.512 418.042 537.765 398.053 548.288 378.088C561.074 353.825 573.055 318.725 577.652 282.291Z" fill="#EFEDE4"/>
</g>
<mask id="mask1_3699_2319" style="mask-type:luminance" maskUnits="userSpaceOnUse" x="168" y="115" width="402" height="361">
<path d="M562.208 182.098C552.557 157.006 535.571 135.761 503.235 124.592C503.235 124.592 419.349 92.8039 364.902 151.239C297.853 222.287 194.532 349.845 168.459 367.972C198.653 464.63 372.595 516.737 460.338 435.744C496.696 406.419 530.618 320.184 538.413 309.836C574.563 241.191 574.262 213.434 562.208 182.098ZM456.175 255.741C456.204 255.704 456.204 255.704 456.224 255.676C456.209 255.697 456.193 255.72 456.175 255.741Z" fill="white"/>
</mask>
<g mask="url(#mask1_3699_2319)">
<path d="M442.65 211.176C443.323 210.086 443.97 208.979 444.67 207.905C445.192 207.099 446.066 206.561 446.82 205.989C447.844 205.211 448.882 204.244 450.192 204.052C451.627 203.841 453.047 204.27 454.017 205.388C454.914 206.423 455.353 208.126 454.771 209.426C454.037 206.358 453.97 205.289 454.568 206.22C454.578 206.236 454.589 206.251 454.599 206.27C455.093 207.317 455.129 208.461 454.721 209.54C454.336 210.554 453.647 211.186 452.831 211.808C452.225 212.268 451.619 212.725 451.014 213.186C450.954 213.23 450.897 213.274 450.837 213.318C450.27 213.804 449.62 214.119 448.887 214.257C448.718 214.306 448.549 214.356 448.38 214.402C448.042 214.501 447.701 214.597 447.363 214.694C446.685 214.889 446.009 215.084 445.33 215.279C444.927 215.396 444.337 215.307 443.95 215.169C443.406 214.974 442.967 214.6 442.652 214.124C442.038 213.212 442.08 212.099 442.65 211.176Z" fill="#41A47B"/>
</g>
<mask id="mask2_3699_2319" style="mask-type:luminance" maskUnits="userSpaceOnUse" x="168" y="115" width="402" height="361">
<path d="M562.208 182.098C552.557 157.006 535.571 135.761 503.235 124.592C503.235 124.592 419.349 92.8039 364.902 151.239C297.853 222.287 194.532 349.845 168.459 367.972C198.653 464.63 372.595 516.737 460.338 435.744C496.696 406.419 530.618 320.184 538.413 309.836C574.563 241.191 574.262 213.434 562.208 182.098ZM456.175 255.741C456.204 255.704 456.204 255.704 456.224 255.676C456.209 255.697 456.193 255.72 456.175 255.741Z" fill="white"/>
</mask>
<g mask="url(#mask2_3699_2319)">
<path d="M455.212 191.33C455.818 190.459 456.523 189.671 457.243 188.888C457.742 188.345 458.283 187.84 458.857 187.378C459.138 187.151 459.424 186.938 459.721 186.733C460.15 186.434 460.568 186.08 461.034 185.859C461.392 185.69 461.879 185.493 462.274 185.42C462.69 185.342 463.192 185.363 463.615 185.355C464.481 185.337 465.373 185.389 466.205 185.646C467.794 186.137 468.917 188.29 468.191 189.853C467.804 190.687 467.258 191.428 466.834 192.245C467.006 191.909 467.177 191.577 467.349 191.241C466.977 191.972 466.699 192.661 466.023 193.196C465.662 193.482 465.24 193.714 464.856 193.966C465.178 193.753 465.5 193.54 465.823 193.326C464.759 194.039 463.795 194.876 462.939 195.828C463.194 195.544 463.446 195.258 463.701 194.975C463.303 195.425 462.937 195.893 462.594 196.384C461.936 197.33 460.862 198.04 459.726 198.251C458.647 198.451 457.271 198.214 456.377 197.544C455.451 196.849 454.674 195.856 454.51 194.676C454.341 193.508 454.523 192.32 455.212 191.33Z" fill="#41A47B"/>
</g>
<mask id="mask3_3699_2319" style="mask-type:luminance" maskUnits="userSpaceOnUse" x="168" y="115" width="402" height="361">
<path d="M562.208 182.098C552.557 157.006 535.571 135.761 503.235 124.592C503.235 124.592 419.349 92.8039 364.902 151.239C297.853 222.287 194.532 349.845 168.459 367.972C198.653 464.63 372.595 516.737 460.338 435.744C496.696 406.419 530.618 320.184 538.413 309.836C574.563 241.191 574.262 213.434 562.208 182.098ZM456.175 255.741C456.204 255.704 456.204 255.704 456.224 255.676C456.209 255.697 456.193 255.72 456.175 255.741Z" fill="white"/>
</mask>
<g mask="url(#mask3_3699_2319)">
<path d="M468.791 206.753C470 206.513 471.209 206.274 472.418 206.035C473.105 205.9 473.926 206.279 474.212 206.937C474.332 207.21 474.386 207.504 474.373 207.803C474.355 208.242 474.101 208.614 473.807 208.916C472.923 209.826 472.036 210.738 471.152 211.648C470.767 211.979 470.325 212.192 469.826 212.288C469.327 212.379 468.838 212.34 468.36 212.171C467.681 211.893 467.107 211.427 466.779 210.754C466.459 210.096 466.412 209.256 466.659 208.57C466.995 207.629 467.814 206.945 468.791 206.753Z" fill="#41A47B"/>
</g>
<path d="M509.982 212.57C502.111 216.478 498.9 226.028 502.808 233.895C506.716 241.765 516.266 244.976 524.133 241.069C532.004 237.158 535.215 227.611 531.307 219.743C527.396 211.873 517.849 208.662 509.982 212.57Z" fill="#222221"/>
<path d="M527.203 227.716C525.903 229.556 523.358 229.993 521.517 228.693C519.676 227.393 519.239 224.848 520.539 223.007C521.839 221.166 524.385 220.73 526.225 222.03C528.064 223.33 528.503 225.875 527.203 227.716Z" fill="white"/>
<path d="M563.785 242.75C563.785 242.75 544.29 248.665 552.189 275.853C552.189 275.853 587.432 277.317 611.027 273.04L563.785 242.75Z" fill="#222221"/>
<path d="M551.019 256.499C550.933 256.452 550.92 256.423 550.904 256.395L551.375 256.148L551.606 255.672C552.711 256.127 589.023 266.332 608.07 271.664C608.346 271.74 608.518 272.036 608.437 272.32C608.359 272.603 608.065 272.767 607.782 272.686C557.233 258.534 551.721 256.889 551.019 256.499Z" fill="#222221"/>
<path d="M386.941 154.355C387.615 153.266 388.262 152.158 388.962 151.084C389.484 150.278 390.358 149.74 391.112 149.168C392.136 148.391 393.174 147.424 394.484 147.231C395.919 147.021 397.341 147.452 398.309 148.568C399.206 149.602 399.645 151.306 399.063 152.606C398.329 149.538 398.262 148.469 398.86 149.4C398.87 149.415 398.881 149.431 398.891 149.447C399.385 150.494 399.421 151.638 399.013 152.717C398.628 153.731 397.939 154.363 397.123 154.982C396.517 155.442 395.911 155.9 395.306 156.36C395.246 156.404 395.189 156.448 395.129 156.492C394.562 156.979 393.912 157.293 393.179 157.431C393.01 157.481 392.841 157.527 392.672 157.577C392.334 157.676 391.993 157.772 391.655 157.87C390.977 158.065 390.298 158.261 389.622 158.456C389.219 158.573 388.629 158.484 388.241 158.346C387.698 158.151 387.259 157.777 386.944 157.298C386.333 156.388 386.372 155.278 386.941 154.355Z" fill="#EFEDE4"/>
<path d="M399.499 134.533C400.105 133.662 400.81 132.874 401.53 132.091C402.029 131.548 402.57 131.044 403.144 130.581C403.423 130.355 403.711 130.141 404.005 129.936C404.434 129.637 404.853 129.283 405.321 129.062C405.679 128.893 406.166 128.696 406.561 128.623C406.977 128.545 407.479 128.566 407.902 128.558C408.771 128.54 409.66 128.592 410.492 128.849C412.081 129.341 413.204 131.493 412.478 133.056C412.091 133.891 411.545 134.632 411.121 135.448C411.293 135.113 411.464 134.78 411.636 134.444C411.264 135.175 410.986 135.864 410.31 136.4C409.949 136.686 409.527 136.914 409.143 137.169C409.465 136.956 409.787 136.743 410.11 136.53C409.046 137.242 408.082 138.079 407.226 139.031C407.481 138.747 407.733 138.461 407.988 138.178C407.593 138.628 407.224 139.096 406.881 139.587C406.223 140.534 405.149 141.243 404.013 141.454C402.934 141.654 401.558 141.418 400.664 140.747C399.738 140.053 398.961 139.059 398.797 137.879C398.628 136.709 398.81 135.523 399.499 134.533Z" fill="#EFEDE4"/>
<path d="M413.084 149.956C414.293 149.717 415.502 149.477 416.711 149.238C417.398 149.103 418.219 149.483 418.505 150.14C418.625 150.413 418.679 150.707 418.666 151.006C418.648 151.446 418.393 151.817 418.1 152.119C417.216 153.029 416.329 153.942 415.445 154.852C415.06 155.182 414.618 155.395 414.119 155.491C413.62 155.582 413.131 155.543 412.653 155.374C411.974 155.096 411.399 154.63 411.072 153.957C410.752 153.299 410.705 152.46 410.952 151.773C411.29 150.832 412.109 150.148 413.084 149.956Z" fill="#EFEDE4"/>
<path d="M367.337 160.565C368.546 160.326 369.755 160.087 370.964 159.848C371.65 159.712 372.472 160.092 372.755 160.75C372.875 161.023 372.929 161.317 372.916 161.616C372.898 162.055 372.643 162.427 372.35 162.728C371.466 163.638 370.579 164.551 369.695 165.461C369.31 165.791 368.868 166.004 368.369 166.101C367.87 166.192 367.381 166.153 366.903 165.984C366.224 165.705 365.649 165.24 365.322 164.567C365.002 163.909 364.955 163.069 365.202 162.383C365.543 161.441 366.362 160.758 367.337 160.565Z" fill="#EFEDE4"/>
<path d="M195.226 346.574C195.899 345.485 196.547 344.377 197.246 343.303C197.769 342.497 198.642 341.959 199.396 341.387C200.421 340.61 201.458 339.642 202.769 339.45C204.204 339.239 205.626 339.671 206.593 340.786C207.49 341.821 207.93 343.524 207.347 344.824C206.614 341.756 206.546 340.688 207.144 341.618C207.155 341.634 207.165 341.65 207.176 341.668C207.67 342.716 207.706 343.86 207.298 344.939C206.913 345.953 206.224 346.584 205.408 347.203C204.802 347.663 204.196 348.121 203.59 348.581C203.53 348.625 203.473 348.67 203.413 348.714C202.847 349.2 202.197 349.512 201.463 349.652C201.294 349.702 201.125 349.751 200.954 349.798C200.616 349.897 200.275 349.993 199.937 350.092C199.259 350.287 198.583 350.482 197.904 350.677C197.501 350.794 196.911 350.705 196.523 350.568C195.98 350.373 195.541 349.998 195.226 349.522C194.615 348.607 194.657 347.497 195.226 346.574Z" fill="#EFEDE4"/>
<path d="M207.786 326.749C208.392 325.878 209.096 325.09 209.816 324.31C210.316 323.767 210.856 323.262 211.431 322.8C211.709 322.573 211.998 322.36 212.292 322.155C212.721 321.856 213.139 321.502 213.605 321.281C213.963 321.112 214.45 320.915 214.845 320.842C215.261 320.764 215.763 320.785 216.187 320.777C217.052 320.759 217.944 320.811 218.776 321.068C220.365 321.559 221.488 323.712 220.763 325.275C220.375 326.109 219.829 326.85 219.405 327.667C219.577 327.331 219.749 326.999 219.92 326.663C219.548 327.394 219.27 328.083 218.594 328.618C218.233 328.904 217.811 329.133 217.427 329.388C217.749 329.175 218.072 328.962 218.394 328.748C217.331 329.461 216.366 330.298 215.51 331.25C215.765 330.966 216.017 330.68 216.272 330.397C215.877 330.847 215.508 331.315 215.165 331.806C214.507 332.752 213.433 333.462 212.297 333.673C211.218 333.873 209.843 333.636 208.948 332.966C208.023 332.271 207.248 331.278 207.081 330.098C206.915 328.925 207.094 327.74 207.786 326.749Z" fill="#EFEDE4"/>
<path d="M221.367 342.159C222.576 341.92 223.785 341.68 224.994 341.441C225.681 341.306 226.502 341.686 226.788 342.343C226.908 342.616 226.963 342.91 226.95 343.209C226.931 343.649 226.677 344.02 226.383 344.322C225.499 345.232 224.612 346.145 223.728 347.055C223.343 347.385 222.902 347.598 222.402 347.694C221.903 347.785 221.414 347.746 220.936 347.577C220.257 347.299 219.683 346.834 219.355 346.16C219.035 345.502 218.988 344.663 219.235 343.976C219.571 343.032 220.39 342.351 221.367 342.159Z" fill="#EFEDE4"/>
<path d="M208.424 359.971C209.633 359.732 210.842 359.493 212.051 359.254C212.737 359.119 213.559 359.498 213.845 360.156C213.965 360.429 214.019 360.723 214.006 361.022C213.988 361.461 213.733 361.833 213.439 362.135C212.555 363.045 211.669 363.957 210.785 364.867C210.4 365.197 209.958 365.411 209.459 365.507C208.96 365.598 208.471 365.559 207.992 365.39C207.314 365.112 206.739 364.646 206.412 363.973C206.092 363.318 206.045 362.475 206.292 361.789C206.627 360.848 207.447 360.164 208.424 359.971Z" fill="#EFEDE4"/>
<path opacity="0.25" d="M299.592 273.324C322.002 237.954 364.949 241.446 393.452 267.778C414.83 286.381 426.615 302.733 451.547 351.714C494.691 426.657 502.85 432.083 475.703 441.841C472.921 441.799 504.42 529.851 493.534 513.333C493.339 513.385 510.325 533.488 490.49 539.562C470.329 545.404 466.983 542.624 467.019 542.682C467.004 542.666 470.22 545.302 455.613 552.335C440.637 559.93 404.583 524.463 405.025 524.055C404.523 524.323 434.769 562.187 416.642 563.986C402.609 568.177 300.892 521.512 283.857 362.138C280.631 318.725 289.003 290.638 299.592 273.324Z" fill="#80544B"/>
<path d="M306.093 282.549C327.169 247.252 370.196 248.89 399.547 273.059C421.185 290.414 440.25 319.903 468.372 364.795C509.343 436.932 583.635 518.556 564.255 533.943C564.723 533.491 547.1 543.418 505.885 507.423C504.855 508 548.504 554.577 530.556 562.52C510.96 571.097 480.017 537.88 480.519 537.661C480.007 537.932 510.443 572.543 497.422 581.037C482.279 591.31 416.939 523.684 418.691 522.417C418.208 522.69 449.215 558.482 431.343 561.163C417.597 566.123 315.604 524.57 293.439 369.68C288.793 327.477 296.143 299.816 306.093 282.549Z" fill="#17B268"/>
<path d="M354.355 502.805C354.355 502.805 434.896 481.038 480.918 395.867" stroke="#FFF4EB" stroke-width="2.32518" stroke-miterlimit="10" stroke-linecap="round"/>
<path d="M421.569 528.133C421.569 528.133 377.844 476.835 367.645 450.492" stroke="#FFF4EB" stroke-width="2.32518" stroke-miterlimit="10" stroke-linecap="round"/>
<path d="M478.454 545.528C478.454 545.528 417.416 456.525 393.314 424.695" stroke="#FFF4EB" stroke-width="2.32518" stroke-miterlimit="10" stroke-linecap="round"/>
<path d="M505.884 507.415C505.884 507.415 441.339 414.983 432.98 402.672" stroke="#FFF4EB" stroke-width="2.32518" stroke-miterlimit="10" stroke-linecap="round"/>
<path d="M346.603 469.997C351.161 466.765 355.721 463.534 360.279 460.302C361.579 459.381 360.123 457.377 358.82 458.3C354.263 461.532 349.702 464.763 345.144 467.995C343.844 468.918 345.3 470.92 346.603 469.997Z" fill="#EFEDE4"/>
<path d="M350.413 477.388C352.122 476.02 353.83 474.653 355.535 473.285C356.04 472.882 356.237 472.094 355.808 471.556C355.405 471.052 354.62 470.852 354.079 471.283C352.371 472.651 350.663 474.018 348.957 475.386C348.453 475.792 348.255 476.577 348.684 477.115C349.087 477.619 349.873 477.82 350.413 477.388Z" fill="#EFEDE4"/>
<path d="M395.276 473.054C397.273 471.874 399.269 470.691 401.269 469.51C401.828 469.18 401.929 468.27 401.542 467.781C401.092 467.217 400.411 467.155 399.813 467.508C397.816 468.689 395.819 469.869 393.82 471.052C393.261 471.382 393.159 472.292 393.547 472.781C393.996 473.348 394.678 473.408 395.276 473.054Z" fill="#EFEDE4"/>
<path d="M386.757 446.15C387.134 445.57 387.508 444.987 387.883 444.408C387.992 444.283 388.062 444.142 388.099 443.986C388.161 443.833 388.179 443.669 388.156 443.5C388.145 443.331 388.093 443.175 388.002 443.037C387.937 442.889 387.839 442.767 387.709 442.665C387.451 442.473 387.129 442.346 386.801 442.393C386.695 442.419 386.585 442.445 386.479 442.471C386.276 442.551 386.104 442.673 385.967 442.842C385.59 443.425 385.215 444.004 384.841 444.584C384.732 444.709 384.661 444.85 384.628 445.006C384.565 445.162 384.547 445.323 384.57 445.492C384.581 445.661 384.633 445.817 384.724 445.955C384.789 446.103 384.888 446.225 385.018 446.326C385.275 446.519 385.597 446.646 385.925 446.599C386.032 446.573 386.141 446.547 386.247 446.521C386.448 446.441 386.619 446.316 386.757 446.15Z" fill="#EFEDE4"/>
<path d="M419.086 420.934C420.88 420.013 422.674 419.093 424.468 418.17C425.042 417.876 425.463 417.226 425.175 416.568C424.928 416.007 424.189 415.544 423.573 415.861C421.779 416.782 419.985 417.705 418.191 418.625C417.617 418.919 417.195 419.569 417.484 420.227C417.731 420.788 418.469 421.251 419.086 420.934Z" fill="#EFEDE4"/>
<path d="M450.002 396.598C451.796 395.677 453.59 394.754 455.384 393.834C455.958 393.54 456.379 392.89 456.091 392.232C455.844 391.671 455.105 391.208 454.489 391.525C452.695 392.446 450.901 393.366 449.107 394.289C448.533 394.583 448.111 395.233 448.4 395.891C448.647 396.452 449.385 396.915 450.002 396.598Z" fill="#EFEDE4"/>
<path d="M304.228 338.709C304.275 338.75 304.319 338.789 304.366 338.828C304.972 339.364 305.866 339.561 306.644 339.559C307.491 339.556 308.269 339.312 308.955 338.792C309.709 338.22 310.385 337.51 311.085 336.868C311.766 336.244 312.447 335.622 313.126 334.998C313.807 334.374 314.488 333.753 315.167 333.129C316.269 332.123 317.488 330.846 318.053 329.427C318.692 327.812 318.31 325.971 317.075 324.757C315.905 323.608 313.947 323.093 312.403 323.847C310.12 324.96 308.646 327.146 307.122 329.091C306.55 329.822 305.978 330.55 305.406 331.28C304.819 332.029 304.158 332.762 303.641 333.563C303.181 334.278 302.908 334.975 302.91 335.841C302.913 336.616 303.121 337.567 303.677 338.152C303.859 338.345 304.036 338.54 304.228 338.709Z" fill="#EFEDE4"/>
<path d="M344.841 307.547C345.296 307.063 345.751 306.577 346.206 306.094C346.882 305.373 347.789 304.601 348.081 303.636C348.403 302.854 348.507 302.043 348.395 301.203C348.278 300.366 347.958 299.612 347.441 298.944C347.376 298.879 347.311 298.814 347.246 298.749C347.212 298.715 347.178 298.678 347.145 298.645C347.129 298.629 347.113 298.613 347.098 298.598C347.09 298.59 347.082 298.582 347.074 298.574C346.809 298.21 346.476 297.935 346.079 297.747C345.839 297.568 345.572 297.456 345.275 297.417C345.13 297.373 344.981 297.334 344.836 297.3C344.815 297.295 344.797 297.29 344.776 297.285C344.732 297.274 344.685 297.264 344.641 297.254C344.55 297.233 344.461 297.209 344.37 297.189C343.518 297.079 342.693 297.194 341.9 297.527C341.144 297.854 340.515 298.348 340.013 299.003C339.316 299.786 339.142 300.901 338.874 301.882C338.697 302.526 338.523 303.171 338.346 303.816C338.133 304.284 338.047 304.768 338.091 305.267C338.047 305.779 338.138 306.273 338.362 306.749C338.528 307.03 338.695 307.31 338.861 307.591C339.155 307.994 339.524 308.301 339.969 308.509C340.234 308.709 340.53 308.831 340.86 308.878C341.339 309.052 341.833 309.094 342.345 309.003C342.67 308.912 342.995 308.824 343.323 308.733C343.931 308.473 344.438 308.075 344.841 307.547Z" fill="#EFEDE4"/>
<path d="M339.292 332.884C339.771 332.778 340.254 332.653 340.714 332.484C340.889 332.421 341.058 332.346 341.221 332.258C341.796 331.948 342.407 331.613 342.896 331.163C343.252 330.835 343.6 330.487 343.915 330.12C344.037 329.98 344.149 329.832 344.25 329.676C344.523 329.257 344.778 328.82 344.999 328.368C345.223 327.908 345.353 327.401 345.454 326.904C345.545 326.361 345.498 325.836 345.311 325.331C345.215 324.811 344.994 324.348 344.646 323.935C344.404 323.698 344.165 323.462 343.923 323.225C343.515 322.892 343.057 322.679 342.55 322.588C342.22 322.453 341.877 322.409 341.523 322.456C340.985 322.411 340.467 322.505 339.968 322.739C339.674 322.913 339.378 323.087 339.084 323.262C338.543 323.691 338.138 324.224 337.87 324.861C337.758 325.256 337.641 325.654 337.563 326.057C337.548 326.14 337.527 326.22 337.506 326.304C337.594 325.976 337.683 325.648 337.771 325.321C337.678 325.667 337.542 325.994 337.366 326.306C337.529 326.023 337.691 325.739 337.854 325.459C337.675 325.768 337.462 326.054 337.212 326.309C337.436 326.083 337.659 325.856 337.88 325.628C337.641 325.869 337.376 326.083 337.082 326.262C337.353 326.101 337.623 325.942 337.893 325.781C337.732 325.877 337.566 325.96 337.394 326.033C336.947 326.207 336.573 326.473 336.274 326.834C335.92 327.138 335.66 327.513 335.494 327.957C335.413 328.256 335.332 328.555 335.252 328.854C335.169 329.348 335.213 329.821 335.382 330.282C335.426 330.601 335.548 330.89 335.748 331.145C335.951 331.566 336.25 331.914 336.64 332.187C336.905 332.341 337.171 332.492 337.436 332.645C338.031 332.889 338.65 332.97 339.292 332.884Z" fill="#EFEDE4"/>
</svg>
