<svg width="444" height="259" viewBox="0 0 444 259" fill="none" xmlns="http://www.w3.org/2000/svg">
<path d="M316.666 42.8384C316.666 42.8384 289.768 46.2485 292.346 30.5985C294.923 14.9485 314.608 21.556 314.608 21.556C314.608 21.556 306.373 11.816 318.871 6.96097C331.371 2.10597 347.881 21.991 347.881 21.991C347.881 21.991 335.411 6.17096 340.603 1.21096C345.798 -3.74904 381.893 4.92094 369.556 57.5809L316.666 42.8384Z" fill="#0C6C45"/>
<path d="M27.7448 87.3679C20.1098 85.0629 11.0773 82.6604 4.78976 87.5679C-0.907743 92.0154 -1.32272 101.083 2.48728 107.223C6.29728 113.363 13.2547 116.91 20.2697 118.65C13.2922 117.408 7.66975 126.143 9.72475 132.925C11.7798 139.708 18.7222 143.898 25.6072 145.578C32.4922 147.255 39.7098 147.068 46.6473 148.513C41.7848 147.965 38.9697 154.89 41.3397 159.17C43.7097 163.45 48.7947 165.328 53.5147 166.623C72.2097 171.753 91.9423 173.07 111.152 170.47C127.3 168.285 145.51 160.943 149.525 145.153C152.82 132.19 144.507 118.523 133.22 111.348C121.102 103.648 107.127 102.775 93.6022 99.3479C87.1672 97.7179 79.9498 97.9779 73.3498 97.1254C66.0148 96.1779 58.7147 94.9429 51.4772 93.4254C43.4847 91.7454 35.5648 89.7254 27.7448 87.3679Z" fill="#17B268"/>
<path d="M18.6304 119.035C32.6979 121.663 47.0629 122.275 61.3029 120.855C62.5179 120.733 62.333 118.845 61.118 118.968C47.038 120.373 32.8654 119.765 18.9554 117.168C17.7504 116.94 17.4304 118.81 18.6304 119.035Z" fill="#222221"/>
<path d="M45.4962 149.634C53.0737 149.101 60.6512 148.569 68.2262 148.039C69.4437 147.954 69.2587 146.066 68.0412 146.151C60.4637 146.684 52.8863 147.214 45.3113 147.746C44.0913 147.831 44.2787 149.719 45.4962 149.634Z" fill="#222221"/>
<path d="M33.3105 92.4396C31.2155 101.062 30.8631 110.037 32.2731 118.8C32.4656 120 34.3555 119.822 34.1605 118.615C32.7755 110.002 33.1206 101.24 35.1806 92.7621C35.4706 91.5721 33.598 91.2571 33.3105 92.4396Z" fill="#222221"/>
<path d="M43.5266 96.2663C42.2216 104.264 41.9191 112.396 42.6241 120.469C42.7316 121.686 44.6191 121.501 44.5116 120.284C43.8191 112.371 44.1166 104.429 45.3941 96.5888C45.5941 95.3838 43.7241 95.0613 43.5266 96.2663Z" fill="#222221"/>
<path d="M33.7993 120.167C36.8543 129.925 42.1218 138.822 49.1343 146.255C49.9718 147.142 51.1668 145.665 50.3393 144.787C43.5568 137.6 38.5217 128.912 35.5717 119.487C35.2042 118.322 33.4343 119.002 33.7993 120.167Z" fill="#222221"/>
<path d="M48.787 120.401C49.692 129.373 53.2195 137.943 58.9195 144.933C59.687 145.875 61.2295 144.77 60.457 143.82C54.9595 137.075 51.5495 128.873 50.677 120.215C50.552 119 48.6645 119.183 48.787 120.401Z" fill="#222221"/>
<path d="M63.6946 147.926C67.2421 155.681 72.2471 162.661 78.4521 168.511C79.3421 169.351 80.5421 167.878 79.6571 167.043C73.6996 161.428 68.8721 154.688 65.4671 147.243C64.9596 146.141 63.1846 146.811 63.6946 147.926Z" fill="#222221"/>
<path d="M55.7779 149.246C59.0854 157.453 63.6904 165.093 69.4254 171.833C70.2104 172.758 71.7554 171.653 70.9629 170.721C65.3304 164.096 60.8004 156.631 57.5504 148.566C57.0929 147.436 55.3204 148.111 55.7779 149.246Z" fill="#222221"/>
<path d="M102.027 138.695C100.482 154.405 107.652 169.695 116.457 182.798C140.732 218.915 179.285 245.15 221.792 254.473C264.3 263.795 310.295 256.105 347.455 233.463C373.202 217.773 395.03 194.563 405.472 166.278C415.915 137.993 413.895 104.54 396.91 79.6275C374.74 47.1125 331.492 34.4175 292.327 38.2575C258.867 41.54 229.9 55.87 199.04 67.7825C189.27 71.5525 179.192 74.2901 169.307 77.7001C156.927 81.9726 144.962 87.8951 133.797 94.7151C118.06 104.328 103.905 119.588 102.027 138.695Z" fill="#009850"/>
<path d="M373.52 77.5866C353.25 70.9641 330.985 74.6866 310.783 81.5091C290.935 88.2141 271.815 98.0441 256.778 112.629C241.738 127.214 231.043 146.909 229.883 167.827C227.81 205.169 269.603 247.114 306.988 248.127C322.11 248.537 331.365 243.054 344.358 235.302C371.99 218.814 381.65 208.512 394.995 190.134C406.185 174.724 413.108 155.767 412.87 136.607C412.688 121.842 407.438 104.077 397.425 93.0841C390.973 86.0016 382.628 80.5641 373.52 77.5866Z" fill="#EFEDE4"/>
<path d="M385.597 130.802C385.602 135.714 381.622 139.699 376.709 139.704C371.797 139.709 367.812 135.729 367.807 130.817C367.802 125.904 371.782 121.919 376.694 121.914C381.607 121.909 385.592 125.889 385.597 130.802Z" fill="#222221"/>
<path d="M372.526 134.59C372.528 136.675 370.838 138.365 368.756 138.368C366.671 138.37 364.981 136.68 364.979 134.598C364.976 132.513 366.666 130.823 368.749 130.82C370.834 130.818 372.523 132.505 372.526 134.59Z" fill="#EFEDE4"/>
<path d="M396.347 142.892C396.347 142.892 408.282 119.012 443.937 147.312C443.937 147.312 391.909 163.862 396.347 142.892Z" fill="#222221"/>
<path d="M305.943 108.976C305.263 109.116 304.581 109.256 303.901 109.396C302.911 109.601 301.758 109.718 300.836 110.091C299.841 110.491 298.898 111.236 297.993 111.816C297.646 112.041 297.291 112.256 296.948 112.488C295.248 113.641 294.478 115.901 295.233 117.836C295.246 117.871 295.271 117.901 295.286 117.933C296.013 119.688 297.538 120.576 299.861 120.598C300.658 120.518 301.383 120.243 302.036 119.776C302.366 119.571 302.688 119.356 303.016 119.146C303.666 118.728 304.353 118.341 304.976 117.886C305.861 117.238 306.433 116.336 307.068 115.468C307.518 114.851 307.971 114.233 308.421 113.616C309.108 112.676 309.271 111.513 308.703 110.466C308.461 110.021 308.151 109.688 307.718 109.418C307.228 109.108 306.531 108.856 305.943 108.976Z" fill="#41A47B"/>
<path d="M280.338 114.555C278.476 115.045 276.761 115.893 275.108 116.878C273.861 117.62 272.546 118.545 272.001 119.943C271.643 120.863 271.328 121.815 271.116 122.778C270.846 124 271.418 125.355 272.363 126.13C272.848 126.525 273.398 126.778 274.013 126.885C274.656 126.993 275.283 126.93 275.893 126.7C276.093 126.65 276.293 126.598 276.493 126.55C276.153 126.63 275.813 126.71 275.476 126.79C275.758 126.725 276.046 126.67 276.331 126.625C276.478 126.603 276.628 126.583 276.776 126.563C277.728 126.433 278.613 126.108 279.398 125.545C280.001 125.115 280.613 124.713 281.263 124.353C280.898 124.55 280.533 124.748 280.168 124.948C281.313 124.33 282.521 123.85 283.778 123.518C284.386 123.308 284.898 122.97 285.318 122.503C285.806 122.115 286.171 121.628 286.418 121.04C286.916 119.958 287.023 118.423 286.538 117.31C286.051 116.19 285.223 115.145 284.061 114.67C283.663 114.548 283.268 114.423 282.871 114.3C282.011 114.16 281.163 114.243 280.338 114.555Z" fill="#41A47B"/>
<path d="M261.759 138.494C260.931 139.284 260.102 140.074 259.274 140.864C258.867 141.252 258.436 141.627 258.049 142.032C257.866 142.222 257.601 142.679 257.481 142.917C257.454 142.974 257.426 143.029 257.404 143.089C257.351 143.219 257.296 143.352 257.244 143.482C257.136 143.744 257.029 144.007 256.921 144.267C256.711 144.777 256.589 145.364 256.644 145.917C256.709 146.194 256.777 146.474 256.842 146.752C256.982 147.157 257.207 147.499 257.519 147.779C257.684 148.004 257.894 148.177 258.146 148.294C258.364 148.472 258.612 148.584 258.889 148.634C259.152 148.754 259.426 148.799 259.714 148.772C260.146 148.824 260.569 148.764 260.979 148.589C261.204 148.472 261.426 148.357 261.651 148.239C261.769 148.177 261.889 148.117 262.006 148.054C262.059 148.027 262.112 147.999 262.164 147.972C263.007 147.532 262.897 147.637 263.437 147.127C263.959 146.634 264.384 146.047 264.829 145.484C265.546 144.582 266.264 143.679 266.984 142.777C267.529 142.092 267.821 141.177 267.736 140.302C267.654 139.477 267.192 138.527 266.517 138.019C265.819 137.494 264.934 137.139 264.041 137.269C263.746 137.339 263.454 137.409 263.159 137.477C262.604 137.699 262.136 138.037 261.759 138.494Z" fill="#41A47B"/>
<path d="M291.259 134.068C290.592 135.161 289.924 136.253 289.257 137.343C289.212 137.491 289.167 137.636 289.119 137.783C289.114 137.943 289.109 138.101 289.102 138.261C289.142 138.656 289.319 139.011 289.587 139.296C289.804 139.526 290.044 139.676 290.349 139.771C290.714 139.883 291.152 139.906 291.509 139.746C292.702 139.216 293.897 138.683 295.089 138.153C295.584 137.961 296.002 137.658 296.342 137.248C296.677 136.836 296.892 136.368 296.984 135.843C297.074 135.296 297.022 134.763 296.827 134.243C296.694 133.861 296.482 133.538 296.187 133.273C295.942 132.966 295.637 132.736 295.267 132.581C294.772 132.356 294.252 132.268 293.707 132.318C293.164 132.373 292.672 132.561 292.229 132.878C291.807 133.196 291.482 133.591 291.259 134.068Z" fill="#41A47B"/>
<path d="M267.191 176.055C271.291 175.652 270.671 169.28 266.563 169.682C262.466 170.087 263.086 176.46 267.191 176.055Z" fill="#41A47B"/>
<path d="M359.113 209.106C359.763 208.668 360.433 208.263 361.118 207.886C360.863 208.023 360.61 208.161 360.355 208.298C361.49 207.683 362.668 207.148 363.885 206.718C364.755 206.41 365.465 205.803 366.228 205.305C366.773 204.948 367.33 204.618 367.903 204.305C367.65 204.443 367.398 204.578 367.148 204.715C367.345 204.608 367.545 204.505 367.743 204.403C368.475 204.025 369.175 203.555 369.503 202.75C369.78 202.073 369.85 201.395 369.68 200.683C369.328 199.193 367.868 198.015 366.28 198.228C365.12 198.383 363.988 198.636 362.85 198.911C362.39 199.023 361.92 199.133 361.47 199.283C360.763 199.52 360.138 200.003 359.545 200.451C357.888 201.708 356.348 203.161 354.998 204.741C354.018 205.888 354.145 207.648 355.15 208.716C356.203 209.826 357.845 209.956 359.113 209.106Z" fill="#41A47B"/>
<path d="M365.735 186.148C367.203 184.368 368.67 182.588 370.138 180.808C370.62 180.221 370.69 179.248 370.203 178.636C369.733 178.043 368.858 177.686 368.123 178.018C366.05 178.961 363.98 179.906 361.908 180.848C360.855 181.328 359.943 182.221 359.79 183.428C359.675 184.331 359.84 185.236 360.385 185.986C361.658 187.738 364.348 187.828 365.735 186.148Z" fill="#41A47B"/>
<path d="M350.492 185.291C354.137 184.933 353.587 179.268 349.935 179.626C346.292 179.983 346.842 185.648 350.492 185.291Z" fill="#41A47B"/>
<path d="M411.555 123.834C413.063 103.696 403.383 81.2411 388.318 67.7936C382.52 62.6186 373.943 55.2561 367.108 51.5611C349.075 41.8186 331.275 38.0212 310.855 36.2562C290.435 34.4912 271.088 41.4337 252.15 47.2162C254.248 51.1712 289.658 76.1636 306.205 83.1161C331.813 73.6111 361.61 74.4461 384.885 88.7436C396.538 95.9061 409.765 112.024 411.555 123.834Z" fill="#009850"/>
<path d="M306.201 83.1031C306.201 83.1031 276.824 69.6856 252.146 47.2031L228.059 56.1231C228.059 56.1231 264.996 83.0131 298.256 86.2106L306.201 83.1031Z" fill="#009850"/>
<path d="M298.294 54.0982C298.466 54.1432 298.639 54.1932 298.809 54.2457C298.589 54.1782 298.369 54.1082 298.146 54.0407C298.861 54.2732 299.366 54.3382 300.124 54.3057C300.419 54.2932 300.711 54.2932 301.006 54.3032C300.701 54.2932 300.396 54.2807 300.091 54.2707C301.061 54.3082 302.026 54.5932 302.999 54.5257C303.379 54.4982 303.756 54.4582 304.141 54.4507C305.769 54.4207 307.441 53.3507 308.084 51.8257C308.204 51.5382 308.326 51.2633 308.466 50.9833C308.564 50.8208 308.499 50.9257 308.269 51.2982C308.491 51.0257 308.634 50.7132 308.696 50.3657C308.766 49.9557 308.694 49.5957 308.559 49.2107C308.511 49.0732 308.454 48.9382 308.391 48.8082C308.204 48.4132 307.989 48.0332 307.769 47.6557C306.944 46.2382 305.159 45.4483 303.561 45.6058C302.956 45.6658 302.204 45.9107 301.589 46.1057C300.926 46.3157 300.301 46.6207 299.769 47.0732C299.066 47.6707 298.376 48.3132 297.784 49.0232C297.466 49.4032 297.121 49.8232 296.909 50.2682C296.704 50.6957 296.619 51.1657 296.559 51.6307C296.391 52.8507 297.139 53.7957 298.294 54.0982Z" fill="#EFEDE4"/>
<path d="M321.772 53.8116C322.482 53.6766 323.19 53.5391 323.9 53.4041C324.772 53.2366 325.68 53.1366 326.397 52.5491C326.665 52.3316 326.932 52.1116 327.197 51.8941C327.567 51.5891 327.91 51.2191 328.112 50.7791C328.185 50.5441 328.257 50.3091 328.332 50.0741C328.412 49.6866 328.392 49.3091 328.272 48.9391C328.247 48.6841 328.157 48.4516 328.01 48.2441C327.92 48.0116 327.777 47.8141 327.585 47.6541C327.437 47.4541 327.252 47.3016 327.027 47.1966C326.729 46.9741 326.392 46.8366 326.014 46.7841C325.694 46.7241 325.374 46.6616 325.054 46.6016C324.287 46.4566 323.612 46.5791 322.887 46.8116C322.717 46.8666 322.55 46.9191 322.38 46.9741C321.69 47.1941 321.002 47.4141 320.312 47.6366C319.907 47.7766 319.565 48.0016 319.285 48.3141C318.96 48.5741 318.715 48.8966 318.552 49.2891C318.47 49.5541 318.387 49.8166 318.307 50.0816C318.215 50.5191 318.239 50.9441 318.374 51.3566C318.404 51.6441 318.502 51.9041 318.672 52.1391C318.84 52.5216 319.092 52.8416 319.432 53.0991C320.072 53.5841 320.95 53.9691 321.772 53.8116Z" fill="#EFEDE4"/>
<path d="M314.839 63.3552C318.712 62.9752 318.127 56.9553 314.247 57.3378C310.374 57.7178 310.959 63.7352 314.839 63.3552Z" fill="#EFEDE4"/>
<path d="M178.503 210.018C179.408 210.486 180.313 210.956 181.218 211.423C181.785 211.716 182.312 211.978 182.93 212.156C183.445 212.306 183.973 212.411 184.495 212.531C185.465 212.756 186.438 212.978 187.408 213.203C187.93 213.323 188.45 213.463 188.983 213.526C189.748 213.613 190.562 213.558 191.335 213.553C192.162 213.548 193.247 212.918 193.737 212.271C194.217 211.633 194.483 210.943 194.513 210.143C194.578 208.333 193.343 206.903 191.595 206.508C191.075 206.391 190.553 206.243 190.023 206.166C189.278 206.058 188.428 206.136 187.668 206.146C186.688 206.156 185.707 206.168 184.73 206.178C184.242 206.183 183.748 206.163 183.263 206.201C182.64 206.248 181.983 206.496 181.373 206.658C180.445 206.906 179.518 207.153 178.59 207.401C177.32 207.733 177.515 209.508 178.503 210.018Z" fill="#41A47B"/>
<path d="M197.688 223.978C198.46 224.073 199.233 224.168 200.005 224.263C200.378 224.308 200.748 224.361 201.12 224.401C201.418 224.423 201.718 224.433 202.015 224.428C202.43 224.403 202.805 224.278 203.145 224.056C203.325 223.958 203.488 223.871 203.655 223.761C203.785 223.676 203.915 223.593 204.045 223.508C204.395 223.251 204.663 222.926 204.848 222.531C205 222.228 205.068 221.911 205.05 221.581C205.078 220.781 204.77 220.096 204.165 219.566C204.04 219.456 203.915 219.348 203.79 219.238C203.738 219.191 203.685 219.143 203.63 219.098C203.22 218.763 202.753 218.548 202.23 218.456C201.935 218.406 201.638 218.393 201.335 218.413C200.963 218.403 200.588 218.396 200.215 218.388C199.44 218.371 198.665 218.353 197.89 218.336C197.498 218.361 197.143 218.476 196.823 218.688C196.483 218.838 196.198 219.063 195.97 219.363C195.84 219.568 195.713 219.773 195.583 219.981C195.408 220.326 195.33 220.688 195.35 221.066C195.308 221.323 195.333 221.573 195.425 221.818C195.48 222.193 195.625 222.533 195.865 222.838C196.315 223.408 196.95 223.888 197.688 223.978Z" fill="#41A47B"/>
<path d="M216.077 218.636C216.675 218.436 217.27 218.239 217.867 218.039C218.46 217.841 219.077 217.671 219.655 217.436C220.037 217.281 220.42 217.014 220.682 216.694C220.795 216.514 220.907 216.336 221.02 216.156C221.172 215.854 221.24 215.539 221.222 215.209C221.26 214.984 221.237 214.766 221.157 214.551C221.135 214.329 221.057 214.126 220.927 213.944C220.847 213.739 220.725 213.569 220.555 213.429C220.355 213.176 220.102 212.986 219.8 212.861C219.24 212.536 218.637 212.269 218.06 211.979C217.48 211.686 216.897 211.394 216.317 211.099C215.025 210.446 213.36 210.669 212.207 211.504C211.632 211.926 211.192 212.461 210.89 213.109C210.637 213.606 210.527 214.126 210.555 214.671C210.487 215.224 210.565 215.764 210.787 216.286C211.047 216.956 211.457 217.521 212.01 217.979C212.567 218.434 213.2 218.724 213.91 218.849C214.652 218.971 215.375 218.901 216.077 218.636Z" fill="#41A47B"/>
<path d="M222.062 237.828C222.717 238.106 223.37 238.383 224.025 238.658C224.34 238.793 224.655 238.931 224.972 239.061C225.922 239.446 226.875 239.461 227.82 239.081C227.965 239.023 228.11 238.963 228.255 238.906C228.722 238.723 229.115 238.441 229.432 238.053C229.682 237.771 229.85 237.446 229.927 237.083C230.072 236.728 230.117 236.356 230.065 235.968C230.012 235.458 229.837 234.993 229.537 234.576C229.452 234.456 229.37 234.333 229.285 234.213C228.722 233.403 227.935 232.856 226.955 232.663C226.617 232.598 226.277 232.541 225.94 232.478C225.24 232.351 224.537 232.223 223.837 232.098C223.425 232.013 223.022 232.033 222.632 232.163C222.235 232.221 221.872 232.376 221.55 232.631C221.362 232.808 221.175 232.983 220.987 233.161C220.72 233.463 220.545 233.806 220.46 234.191C220.347 234.438 220.302 234.698 220.33 234.971C220.28 235.381 220.337 235.778 220.502 236.166C220.812 236.876 221.33 237.518 222.062 237.828Z" fill="#41A47B"/>
<path d="M231.6 137.663C242.548 156.761 256.505 174.131 272.798 188.933C281.568 196.901 292.025 207.888 287.223 218.721C282.408 229.581 265.623 228.818 256.723 220.951C263.943 224.636 264.29 236.068 258.435 241.673C252.58 247.278 243.04 247.473 235.67 244.098C228.3 240.723 222.693 234.456 217.713 228.061C222.575 231.916 217.2 240.683 211 240.433C204.8 240.183 200.153 234.746 197 229.401C192.47 221.718 189.285 213.248 187.633 204.486C190.935 209.138 183.893 215.421 178.463 213.671C173.033 211.921 170.143 206.136 168.013 200.843C161.205 183.926 156.105 165.966 156.615 147.738C157.058 131.893 162.018 110.968 176.565 101.958C188.905 94.3159 203.715 100.666 213.225 109.926C221.245 117.733 226.103 128.076 231.6 137.663Z" fill="#17B268"/>
<path d="M221.979 144.897C222.224 144.672 222.471 144.447 222.716 144.222C223.511 143.434 223.824 141.687 223.289 140.687C222.476 139.174 221.661 137.659 220.849 136.147C220.451 135.407 220.054 134.667 219.654 133.924C219.306 133.279 219.001 132.594 218.561 132.012C218.294 131.657 217.999 131.322 217.719 130.977C216.529 129.514 214.731 128.942 212.934 129.557C212.211 129.804 211.744 130.234 211.239 130.782C210.339 131.759 209.969 133.637 210.581 134.849C211.111 135.902 211.609 136.962 212.334 137.897C212.854 138.572 213.376 139.244 213.896 139.919C214.961 141.297 216.024 142.674 217.089 144.052C218.031 145.274 219.769 145.902 221.246 145.284C221.484 145.184 221.771 145.024 221.979 144.897Z" fill="#EFEDE4"/>
<path d="M209.737 123.958C209.652 123.038 209.567 122.115 209.482 121.195C209.462 120.98 209.445 120.765 209.422 120.55C209.327 119.658 209.067 118.94 208.53 118.22C208.205 117.738 207.787 117.365 207.282 117.103C206.822 116.758 206.3 116.545 205.717 116.465C205.065 116.353 204.06 116.395 203.41 116.645C202.802 116.878 201.94 117.52 201.57 118.01C201.09 118.648 200.757 119.338 200.63 120.135C200.497 120.938 200.572 121.72 200.86 122.483C201.03 122.863 201.23 123.225 201.46 123.57C201.575 123.75 201.695 123.925 201.812 124.103C202.315 124.865 202.817 125.628 203.32 126.39C203.527 126.61 203.735 126.833 203.945 127.053C204.3 127.368 204.702 127.573 205.155 127.673C205.447 127.805 205.752 127.858 206.072 127.825C206.552 127.885 207.022 127.818 207.477 127.623C208.042 127.375 208.537 127.018 208.95 126.558C209.265 126.203 209.47 125.8 209.57 125.345C209.745 124.908 209.802 124.443 209.737 123.958Z" fill="#EFEDE4"/>
<path d="M206.297 134.514C206.044 134.352 205.817 134.162 205.609 133.944C205.812 134.159 206.014 134.374 206.217 134.589C205.987 134.342 205.792 134.069 205.629 133.774C205.777 134.044 205.922 134.314 206.069 134.584C205.902 134.269 205.777 133.939 205.694 133.592C205.769 133.909 205.844 134.227 205.919 134.544C205.877 134.354 205.847 134.162 205.832 133.969C205.824 133.877 205.822 133.782 205.822 133.689C205.822 133.662 205.822 133.634 205.822 133.604C205.744 133.279 205.669 132.954 205.592 132.629C205.437 132.344 205.284 132.062 205.129 131.779C204.927 131.512 204.699 131.272 204.444 131.059C204.077 130.734 203.657 130.519 203.187 130.417C202.727 130.229 202.244 130.169 201.739 130.239C201.417 130.314 201.097 130.392 200.774 130.467C200.169 130.702 199.659 131.072 199.244 131.572C199.124 131.697 199.029 131.842 198.962 132.007C198.754 132.262 198.622 132.549 198.564 132.874C198.402 133.397 198.294 133.799 198.394 134.392C198.459 134.784 198.579 135.229 198.667 135.579C198.709 135.749 198.759 135.917 198.824 136.082C198.997 136.522 199.247 136.929 199.472 137.339C199.562 137.502 199.659 137.659 199.769 137.809C199.959 138.067 200.184 138.292 200.404 138.524C200.622 138.757 200.832 138.989 201.082 139.192C201.439 139.479 201.847 139.714 202.239 139.947C202.399 140.042 202.564 140.124 202.737 140.197C203.147 140.404 203.577 140.497 204.027 140.472C204.484 140.527 204.929 140.464 205.362 140.279C205.619 140.139 205.874 139.999 206.132 139.862C206.502 139.612 206.789 139.292 206.989 138.902C207.177 138.672 207.297 138.409 207.349 138.117C207.519 137.694 207.574 137.254 207.512 136.792C207.442 136.497 207.374 136.204 207.304 135.909C207.092 135.359 206.754 134.894 206.297 134.514Z" fill="#EFEDE4"/>
<path d="M259.877 221.667C246.85 207.132 235.65 191.047 226.582 173.759C226.022 172.692 224.242 173.357 224.812 174.439C233.957 191.879 245.197 208.114 258.34 222.779C259.147 223.679 260.692 222.577 259.877 221.667Z" fill="#EFEDE4"/>
<path d="M221.194 229.324C214.284 212.812 208.194 195.974 202.939 178.862C202.582 177.697 200.809 178.379 201.169 179.542C206.422 196.654 212.514 213.492 219.424 230.004C219.892 231.129 221.667 230.454 221.194 229.324Z" fill="#EFEDE4"/>
<path d="M187.174 208.237C183.211 192.249 179.249 176.262 175.289 160.277C174.996 159.097 173.226 159.785 173.519 160.957C177.481 176.945 181.444 192.932 185.404 208.917C185.694 210.097 187.464 209.409 187.174 208.237Z" fill="#EFEDE4"/>
<path d="M259.924 177.432C254.251 184.977 245.774 190.137 236.446 191.635C235.246 191.827 235.424 193.717 236.631 193.522C246.444 191.947 255.411 186.585 261.389 178.635C262.121 177.662 260.659 176.455 259.924 177.432Z" fill="#EFEDE4"/>
<path d="M235.294 190.192C226.612 195.147 216.289 196.67 206.534 194.545C205.339 194.285 205.022 196.155 206.212 196.415C216.492 198.655 227.282 196.94 236.409 191.73C237.467 191.125 236.347 189.59 235.294 190.192Z" fill="#EFEDE4"/>
<path d="M204.796 192.726C196.151 193.451 187.496 191.348 180.116 186.796C179.079 186.156 178.296 187.886 179.324 188.521C186.974 193.238 196.029 195.366 204.981 194.616C206.199 194.514 206.014 192.626 204.796 192.726Z" fill="#EFEDE4"/>
<path d="M181.401 188.709C175.811 187.531 170.708 184.659 166.753 180.544C165.908 179.664 164.711 181.139 165.548 182.009C169.723 186.351 175.186 189.336 181.078 190.576C182.276 190.831 182.593 188.961 181.401 188.709Z" fill="#EFEDE4"/>
</svg>
