<svg width="605" height="415" viewBox="0 0 605 415" fill="none" xmlns="http://www.w3.org/2000/svg">
<path d="M243.166 64.7572C243.166 64.7572 211.111 79.1547 208.391 58.7822C205.668 38.4097 232.571 39.1547 232.571 39.1547C232.571 39.1547 218.678 30.1947 232.336 19.4497C245.993 8.70475 273.981 27.1122 273.981 27.1122C273.981 27.1122 252.541 12.2172 257.103 4.10475C261.666 -4.00775 309.688 -6.91026 314.311 63.0322L243.166 64.7572Z" fill="#0C6C45"/>
<path d="M366.468 156.607C389.088 143.889 409.7 127.609 427.31 108.547C436.788 98.2867 449.845 86.0667 462.565 91.8342C475.32 97.6167 474.255 117.397 464.893 127.812C469.308 119.337 482.788 119.039 489.338 125.999C495.888 132.957 496.023 144.204 491.973 152.859C487.923 161.514 480.478 168.062 472.89 173.872C477.483 168.179 487.765 174.602 487.41 181.907C487.055 189.212 480.6 194.639 474.268 198.302C465.168 203.564 455.15 207.237 444.803 209.099C450.32 205.252 457.655 213.614 455.538 219.999C453.42 226.384 446.575 229.734 440.313 232.192C420.303 240.049 399.08 245.884 377.6 245.104C358.925 244.427 334.308 238.374 323.83 221.134C314.943 206.514 322.575 189.117 333.583 177.999C342.873 168.617 355.11 162.992 366.468 156.607Z" fill="#17B268"/>
<path d="M413.864 141.92C418.391 138.957 424.646 136.087 428.756 139.61C432.484 142.802 431.326 148.857 429.079 153.22C426.831 157.582 423.701 162.057 424.469 166.905C429.131 169.007 434.996 166.045 439.551 168.375C443.504 170.395 444.686 175.882 443.014 179.995C441.341 184.107 437.546 186.987 433.586 188.992C429.731 190.942 424.699 193.897 425.929 198.04C427.096 201.965 432.766 202.145 435.571 205.127C437.929 207.635 437.716 211.787 435.931 214.732C434.146 217.675 431.144 219.647 428.141 221.33C416.266 227.982 402.714 231.45 389.129 231.745C376.531 232.02 362.876 230.07 352.166 223.002C344.289 217.805 337.191 208.732 340.484 198.815C342.426 192.962 347.271 188.802 352.014 185.17C358.124 180.49 364.399 176.007 370.656 171.522C383.296 162.462 396.106 153.642 409.081 145.07C410.669 144.012 412.264 142.965 413.864 141.92Z" fill="#0C6C45"/>
<path d="M368.998 192.363C370.668 190.941 372.338 189.518 374.011 188.096C374.303 187.781 374.651 187.558 375.051 187.428C375.436 187.226 375.851 187.133 376.296 187.151C377.088 187.151 378.036 187.503 378.581 188.096C379.146 188.711 379.566 189.521 379.526 190.381C379.488 191.198 379.226 192.116 378.581 192.666C376.911 194.088 375.241 195.511 373.568 196.933C373.276 197.248 372.928 197.471 372.528 197.601C372.143 197.803 371.728 197.896 371.283 197.878C370.491 197.878 369.543 197.526 368.998 196.931C368.433 196.316 368.013 195.506 368.053 194.646C368.088 193.831 368.351 192.913 368.998 192.363Z" fill="white"/>
<path d="M362.296 186.163C362.324 186.003 362.364 185.846 362.416 185.693C362.554 185.288 362.721 184.891 362.916 184.508C362.989 184.363 363.074 184.226 363.166 184.093C363.369 183.808 363.586 183.531 363.806 183.261C363.856 183.198 363.911 183.136 363.966 183.078C364.076 182.961 364.196 182.851 364.324 182.748C364.646 182.491 364.984 182.203 365.346 181.988C365.711 181.771 366.134 181.618 366.516 181.461C366.671 181.396 366.831 181.343 366.996 181.306C367.426 181.171 367.856 181.151 368.284 181.248C368.714 181.268 369.114 181.396 369.484 181.631C369.861 181.833 370.161 182.111 370.391 182.463C370.676 182.776 370.869 183.141 370.969 183.561C371.006 183.846 371.046 184.133 371.084 184.421C371.081 185.003 370.936 185.548 370.644 186.051C370.476 186.268 370.306 186.486 370.138 186.706C369.736 187.106 369.261 187.383 368.714 187.536C368.544 187.576 368.379 187.631 368.216 187.698C368.474 187.591 368.731 187.481 368.989 187.373C368.736 187.483 368.501 187.623 368.284 187.788C368.501 187.621 368.719 187.451 368.936 187.283C368.709 187.461 368.506 187.663 368.329 187.891C368.496 187.673 368.666 187.456 368.834 187.236C368.659 187.463 368.514 187.711 368.399 187.976C368.506 187.718 368.616 187.461 368.724 187.203C368.634 187.423 368.566 187.648 368.526 187.883C368.426 188.303 368.234 188.671 367.949 188.981C367.721 189.333 367.419 189.611 367.041 189.813C366.671 190.048 366.269 190.178 365.841 190.196C365.411 190.291 364.984 190.273 364.554 190.138C364.296 190.028 364.039 189.921 363.781 189.813C363.296 189.526 362.909 189.141 362.621 188.653C362.514 188.396 362.404 188.138 362.296 187.881C362.144 187.308 362.144 186.736 362.296 186.163Z" fill="white"/>
<path d="M361.122 200.984C361.682 201.269 362.242 201.554 362.802 201.839C363.18 202.042 363.48 202.319 363.71 202.672C363.995 202.984 364.187 203.349 364.287 203.769C364.422 204.199 364.442 204.629 364.345 205.057C364.325 205.487 364.197 205.887 363.962 206.257C363.795 206.474 363.625 206.692 363.457 206.912C363.055 207.312 362.58 207.589 362.032 207.742C361.745 207.779 361.46 207.819 361.172 207.857C360.59 207.854 360.045 207.707 359.542 207.417C358.982 207.132 358.422 206.847 357.862 206.562C357.485 206.359 357.185 206.082 356.955 205.729C356.67 205.417 356.477 205.052 356.377 204.632C356.242 204.202 356.225 203.772 356.32 203.344C356.34 202.914 356.467 202.514 356.702 202.144C356.87 201.927 357.04 201.709 357.207 201.492C357.61 201.092 358.085 200.814 358.632 200.662C358.92 200.624 359.205 200.584 359.492 200.547C360.075 200.544 360.62 200.692 361.122 200.984Z" fill="white"/>
<path d="M431.862 159.101C444.269 148.811 455.624 137.311 465.757 124.773C466.569 123.766 467.984 125.198 467.179 126.196C457.047 138.733 445.692 150.233 433.284 160.523C432.294 161.341 430.864 159.926 431.862 159.101Z" fill="white"/>
<path d="M443.478 189.932C452.645 184.149 461.81 178.364 470.978 172.582C472.075 171.889 473.085 173.629 471.993 174.317C462.825 180.099 453.66 185.884 444.493 191.667C443.395 192.359 442.385 190.622 443.478 189.932Z" fill="white"/>
<path d="M439.785 208.747C442.438 209.139 445.155 208.869 447.703 208.049C448.22 207.882 448.8 208.244 448.94 208.752C449.09 209.294 448.758 209.822 448.238 209.989C445.33 210.927 442.268 211.134 439.253 210.687C438.715 210.607 438.42 209.927 438.55 209.449C438.705 208.872 439.245 208.667 439.785 208.747Z" fill="white"/>
<path d="M440.521 126.888C442.206 131.103 443.891 135.315 445.574 139.53C445.776 140.035 445.354 140.635 444.871 140.768C444.299 140.925 443.836 140.573 443.634 140.065C441.949 135.85 440.264 131.638 438.581 127.423C438.379 126.918 438.801 126.318 439.284 126.185C439.856 126.03 440.319 126.383 440.521 126.888Z" fill="white"/>
<path d="M446.375 123.544C446.938 125.229 447.5 126.914 448.06 128.601C448.225 129.101 447.868 129.721 447.358 129.839C446.803 129.966 446.3 129.671 446.12 129.136C445.558 127.451 444.998 125.764 444.435 124.079C444.27 123.579 444.628 122.959 445.138 122.841C445.695 122.716 446.198 123.009 446.375 123.544Z" fill="white"/>
<path d="M474.963 146.033C475.805 147.718 476.645 149.406 477.488 151.091C477.723 151.561 477.628 152.201 477.128 152.466C476.673 152.706 476.003 152.608 475.753 152.106C474.91 150.421 474.07 148.733 473.228 147.048C472.993 146.578 473.088 145.938 473.588 145.673C474.043 145.431 474.713 145.531 474.963 146.033Z" fill="white"/>
<path d="M457.365 160.888C457.365 161.451 457.365 162.011 457.365 162.573C457.365 162.831 457.253 163.103 457.07 163.283C456.895 163.458 456.61 163.588 456.36 163.578C456.1 163.566 455.83 163.481 455.65 163.283C455.47 163.086 455.355 162.846 455.355 162.573C455.355 162.011 455.355 161.451 455.355 160.888C455.355 160.631 455.468 160.361 455.65 160.178C455.825 160.003 456.11 159.873 456.36 159.883C456.62 159.896 456.89 159.981 457.07 160.178C457.253 160.376 457.365 160.616 457.365 160.888Z" fill="white"/>
<path d="M468.344 192.323C469.162 193.743 469.979 195.16 470.797 196.58C471.059 197.035 470.917 197.7 470.437 197.955C469.957 198.208 469.342 198.083 469.062 197.595C468.244 196.175 467.427 194.758 466.609 193.338C466.347 192.883 466.487 192.218 466.969 191.963C467.447 191.71 468.062 191.838 468.344 192.323Z" fill="white"/>
<path d="M431.865 154.396C437.36 154.166 441.63 149.523 441.4 144.028L439.825 106.456C439.595 100.961 434.953 96.6906 429.458 96.9231C423.963 97.1531 419.693 101.796 419.925 107.291L421.5 144.863C421.725 150.356 426.368 154.626 431.865 154.396Z" fill="#004629"/>
<path d="M559.141 9.625L389.576 94.0675C380.601 98.5375 383.024 111.957 392.994 113.007L578.851 132.59L559.141 9.625Z" fill="#0C6C45"/>
<path d="M587.145 68.2143C592.405 102.319 589.188 131.122 579.955 132.544C570.725 133.967 558.978 107.474 553.718 73.3693C548.458 39.2643 551.678 10.4618 560.908 9.03926C570.14 7.61426 581.885 34.1093 587.145 68.2143Z" fill="#00321E"/>
<path d="M521.862 47.7316C521.385 48.1516 520.91 48.5791 520.427 48.9916C520.11 49.2641 519.935 49.3716 519.582 49.5041C519.425 49.5641 519.267 49.6216 519.11 49.6791C518.95 49.7366 518.79 49.7966 518.63 49.8541C518.3 49.9741 517.97 50.1191 517.63 50.2141C517.442 50.2316 517.257 50.2491 517.07 50.2666C516.782 50.2666 516.515 50.1991 516.267 50.0641C515.862 49.8841 515.407 49.5516 515.232 49.1266C515.157 48.9466 515.09 48.7641 515.027 48.5816C515.01 48.3941 514.992 48.2091 514.975 48.0216C514.975 47.7341 515.042 47.4666 515.177 47.2191C515.362 46.8016 515.687 46.3816 516.115 46.1841C516.57 45.9741 517.065 45.8216 517.537 45.6491C517.697 45.5916 517.857 45.5316 518.017 45.4741C518.36 45.3491 518.617 45.2891 519.017 45.2891C519.66 45.2916 520.305 45.3141 520.947 45.3266C521.505 45.3366 522 45.7241 522.192 46.2341C522.377 46.7316 522.277 47.3666 521.862 47.7316Z" fill="#EFEDE4"/>
<path d="M508.493 49.9535C508.341 49.9585 508.191 49.9685 508.038 49.981C508.241 49.961 508.443 49.9435 508.646 49.9235C507.938 49.9935 507.246 50.156 506.581 50.406C506.778 50.331 506.973 50.2585 507.171 50.1835C507.028 50.2385 506.891 50.2985 506.751 50.3585C506.248 50.5735 505.833 50.6785 505.283 50.6385C505.026 50.6185 504.768 50.616 504.511 50.626C503.908 50.6485 503.306 50.2185 503.028 49.706C502.716 49.126 502.793 48.531 503.073 47.961C503.221 47.666 503.381 47.376 503.568 47.1035C503.903 46.621 504.326 46.286 504.866 46.071C505.201 45.9385 505.541 45.806 505.883 45.6935C506.776 45.401 507.718 45.286 508.651 45.251C509.216 45.2285 509.891 45.5785 510.271 45.976C510.673 46.3985 510.968 47.091 510.923 47.6835C510.876 48.2785 510.663 48.8985 510.198 49.301C510.028 49.4235 509.858 49.5485 509.688 49.671C509.318 49.8735 508.918 49.966 508.493 49.9535Z" fill="#EFEDE4"/>
<path d="M512.876 58.1236C512.233 58.2536 511.591 58.3836 510.946 58.5111C510.584 58.5836 510.153 58.4236 509.983 58.0761C509.811 57.7186 509.871 57.3186 510.149 57.0336C510.606 56.5586 511.063 56.0861 511.518 55.6111C511.868 55.2461 512.488 55.0961 512.968 55.2636C513.341 55.3911 513.656 55.6261 513.848 55.9786C514.028 56.3136 514.073 56.7436 513.963 57.1061C513.816 57.5986 513.391 58.0211 512.876 58.1236Z" fill="#EFEDE4"/>
<path d="M525.464 41.3423C524.821 41.4723 524.179 41.6023 523.534 41.7298C523.171 41.8023 522.741 41.6424 522.571 41.2949C522.399 40.9374 522.459 40.5399 522.736 40.2524C523.194 39.7774 523.651 39.3023 524.106 38.8298C524.456 38.4648 525.079 38.3148 525.556 38.4823C525.929 38.6098 526.244 38.8448 526.436 39.1973C526.616 39.5323 526.661 39.9598 526.551 40.3248C526.401 40.8198 525.979 41.2398 525.464 41.3423Z" fill="#EFEDE4"/>
<path d="M21.3331 319.122C12.1581 323.829 1.59312 329.702 0.145615 339.909C-1.16688 349.162 6.58562 357.977 15.6431 360.272C24.7006 362.569 34.3606 359.624 42.4506 354.949C34.8406 360.054 37.4456 373.232 45.4456 377.702C53.4456 382.169 63.6706 379.842 71.5856 375.224C79.5006 370.607 86.0506 363.954 93.8056 359.072C88.7881 362.927 92.3806 371.899 98.4306 373.757C104.478 375.614 110.898 372.797 116.453 369.767C138.461 357.764 158.013 341.279 173.561 321.617C186.628 305.089 196.993 281.912 186.556 263.609C177.988 248.584 157.983 243.322 141.038 246.777C122.848 250.484 109.056 262.214 93.3881 271.162C85.9331 275.419 79.4506 282.139 72.5406 287.269C64.8606 292.972 56.9581 298.372 48.8581 303.457C39.9156 309.072 30.7281 314.302 21.3331 319.122Z" fill="#17B268"/>
<path d="M39.7912 354.812C55.0662 344.769 68.8637 332.599 80.6862 318.657C81.6987 317.462 83.7111 318.872 82.6861 320.079C70.7236 334.187 56.8211 346.534 41.3636 356.694C40.0586 357.554 38.4712 355.679 39.7912 354.812Z" fill="#222221"/>
<path d="M91.8004 359.64C98.3754 352.345 104.953 345.05 111.528 337.753C112.573 336.595 114.585 338 113.528 339.175C106.953 346.47 100.375 353.768 93.8004 361.063C92.7554 362.22 90.7429 360.815 91.8004 359.64Z" fill="#222221"/>
<path d="M33.1941 317.643C38.8066 327.276 46.3466 335.708 55.2666 342.391C56.5291 343.336 55.1141 345.341 53.8441 344.391C44.5716 337.446 36.8041 328.696 30.9716 318.688C30.1766 317.321 32.4041 316.288 33.1941 317.643Z" fill="#222221"/>
<path d="M45.9561 311.751C51.7886 320.191 58.6461 327.898 66.3911 334.631C67.5711 335.656 66.1636 337.668 64.9686 336.631C57.0636 329.756 50.0311 321.943 44.0736 313.323C43.1836 312.033 45.0586 310.451 45.9561 311.751Z" fill="#222221"/>
<path d="M57.6297 342.119C68.8497 348.244 81.3397 351.696 94.0997 352.306C95.6772 352.381 95.4572 354.824 93.8822 354.749C80.6647 354.116 67.8172 350.454 56.2097 344.119C54.8272 343.364 56.2572 341.369 57.6297 342.119Z" fill="#222221"/>
<path d="M72.0702 329.048C80.6477 336.32 91.1677 340.953 102.338 342.298C103.903 342.485 103.69 344.93 102.12 344.74C90.5427 343.348 79.5453 338.593 70.6478 331.048C69.4553 330.035 70.8627 328.025 72.0702 329.048Z" fill="#222221"/>
<path d="M110.092 340.967C120.064 344.88 130.654 346.812 141.367 346.7C142.944 346.682 142.714 349.127 141.149 349.142C130.237 349.257 119.392 347.25 109.232 343.265C107.764 342.69 108.614 340.39 110.092 340.967Z" fill="#222221"/>
<path d="M103.919 349.308C114.187 353.896 125.082 356.803 136.272 357.918C137.842 358.076 137.627 360.518 136.054 360.361C124.662 359.226 113.514 356.276 103.059 351.606C101.624 350.966 102.472 348.663 103.919 349.308Z" fill="#222221"/>
<path d="M133.361 331.436C144.864 343.583 162.084 348.461 178.689 350.511C224.461 356.161 272.234 343.513 309.216 315.958C346.199 288.403 371.981 246.241 379.659 200.766C384.979 169.258 381.554 135.668 366.161 107.666C350.769 79.6632 322.586 58.0507 290.846 54.3482C249.421 49.5182 209.224 75.3232 185.101 109.346C164.494 138.411 155.851 171.553 143.956 204.531C140.191 214.968 135.384 224.938 131.249 235.221C126.074 248.098 122.504 261.791 120.211 275.466C116.981 294.736 119.369 316.663 133.361 331.436Z" fill="#009850"/>
<path d="M272.975 71.6481C253.597 83.2756 241.115 103.686 232.55 124.598C224.135 145.143 218.727 167.276 219.96 189.443C221.192 211.611 229.532 233.851 245.472 249.306C273.927 276.896 336.527 272.568 363.3 243.341C374.13 231.518 376.77 219.821 379.587 204.036C385.577 170.466 383.435 156.061 377.987 132.613C373.42 112.953 363.05 94.2481 347.547 81.1306C335.602 71.0231 317.732 62.8906 301.98 63.2706C291.83 63.5156 281.682 66.4206 272.975 71.6481Z" fill="#EFEDE4"/>
<path d="M345.745 119.105C345.745 119.105 333.185 93.7553 379.895 81.6953C379.895 81.6953 360.635 136.258 345.745 119.105Z" fill="#222221"/>
<path d="M256.551 148.484C256.861 149.826 257.186 151.166 257.479 152.511C257.671 153.396 257.696 153.839 257.586 154.646C257.539 155.006 257.489 155.366 257.436 155.729C257.384 156.094 257.331 156.456 257.279 156.821C257.169 157.574 257.104 158.351 256.936 159.094C256.779 159.469 256.621 159.841 256.464 160.216C256.169 160.764 255.766 161.204 255.254 161.534C254.496 162.119 253.396 162.644 252.406 162.544C251.989 162.501 251.571 162.446 251.159 162.376C250.784 162.219 250.411 162.061 250.036 161.904C249.489 161.609 249.049 161.206 248.719 160.694C248.116 159.914 247.646 158.864 247.711 157.849C247.779 156.769 247.999 155.669 248.154 154.594C248.206 154.229 248.259 153.866 248.311 153.501C248.424 152.719 248.576 152.169 248.989 151.409C249.654 150.186 250.356 148.984 251.041 147.771C251.634 146.719 252.879 146.174 254.046 146.331C255.179 146.476 256.284 147.321 256.551 148.484Z" fill="#41A47B"/>
<path d="M247.045 176.216C246.9 176.511 246.763 176.809 246.633 177.111C246.803 176.706 246.975 176.301 247.145 175.896C246.55 177.316 246.15 178.799 245.945 180.324C246.005 179.874 246.065 179.421 246.128 178.971C246.088 179.299 246.058 179.624 246.03 179.951C245.925 181.129 245.698 182.029 245.055 183.031C244.753 183.501 244.48 183.989 244.235 184.491C243.66 185.666 242.22 186.369 240.96 186.369C239.53 186.369 238.48 185.609 237.685 184.491C237.273 183.909 236.888 183.304 236.563 182.666C235.985 181.531 235.783 180.384 235.928 179.134C236.018 178.359 236.118 177.576 236.255 176.806C236.613 174.809 237.363 172.896 238.255 171.081C238.795 169.984 240.153 169.059 241.298 168.741C242.515 168.406 244.138 168.556 245.22 169.254C246.308 169.954 247.263 170.999 247.56 172.296C247.62 172.746 247.68 173.199 247.743 173.649C247.738 174.566 247.505 175.421 247.045 176.216Z" fill="#41A47B"/>
<path d="M251.117 201.86C251.342 203.065 251.564 204.27 251.789 205.473C251.927 206.215 252.077 206.955 252.177 207.703C252.264 208.358 252.214 208.853 252.059 209.538C252.032 209.665 251.999 209.79 251.969 209.915C251.899 210.21 251.827 210.503 251.757 210.798C251.629 211.33 251.269 211.91 250.884 212.295C250.354 212.825 249.672 213.13 248.937 213.228C248.317 213.31 247.757 213.24 247.179 212.995C246.537 212.725 245.879 212.25 245.557 211.608C245.184 210.868 244.687 210.07 244.479 209.28C244.249 208.415 244.299 207.393 244.257 206.493C244.199 205.265 244.142 204.038 244.084 202.813C244.044 201.96 244.504 200.858 245.134 200.28C245.727 199.738 246.392 199.403 247.189 199.295C247.952 199.193 248.807 199.29 249.472 199.72C250.217 200.2 250.947 200.953 251.117 201.86Z" fill="#41A47B"/>
<path d="M267.076 176.258C266.661 177.616 266.249 178.973 265.834 180.331C265.601 181.096 264.854 181.751 264.016 181.713C263.161 181.676 262.461 181.151 262.199 180.331C261.764 178.973 261.331 177.616 260.896 176.258C260.564 175.216 260.914 173.881 261.721 173.141C262.349 172.566 263.119 172.203 263.986 172.203C264.809 172.203 265.671 172.561 266.251 173.141C267.044 173.931 267.409 175.173 267.076 176.258Z" fill="#41A47B"/>
<path d="M275.2 226.59C270.835 226.59 270.828 219.805 275.2 219.805C279.568 219.805 279.575 226.59 275.2 226.59Z" fill="#41A47B"/>
<path d="M361.974 175.08C361.649 172.888 361.467 170.7 361.614 168.483C361.667 167.698 361.704 166.845 361.932 166.103C362.142 165.42 362.529 164.698 362.857 164.053C363.309 163.16 363.814 162.298 364.364 161.463C365.297 160.04 366.999 159.398 368.602 160.075C370.174 160.738 370.972 162.415 370.567 164.078C370.342 164.998 370.167 165.925 370.034 166.863C370.079 166.52 370.127 166.175 370.172 165.833C370.049 166.76 370.077 167.81 369.774 168.685C369.542 169.358 369.284 170.015 369.079 170.698C368.684 172.005 368.397 173.338 368.207 174.69C368.247 174.403 368.284 174.113 368.324 173.823C368.307 173.958 368.289 174.093 368.272 174.228C368.167 175.07 367.994 175.885 367.334 176.493C366.804 176.978 366.209 177.278 365.494 177.375C364.072 177.565 362.207 176.658 361.974 175.08Z" fill="#41A47B"/>
<path d="M347.485 152.907C348.182 150.552 348.877 148.194 349.575 145.839C349.802 145.072 350.56 144.419 351.392 144.454C352.162 144.489 353.07 145.007 353.21 145.839C353.605 148.194 353.997 150.552 354.392 152.907C354.562 153.542 354.562 154.177 354.392 154.812C354.222 155.419 353.915 155.944 353.472 156.392C352.772 157.034 351.91 157.439 350.94 157.439C348.657 157.439 346.822 155.147 347.485 152.907Z" fill="#41A47B"/>
<path d="M340.756 166.15C336.873 166.15 336.868 160.117 340.756 160.117C344.636 160.117 344.643 166.15 340.756 166.15Z" fill="#41A47B"/>
<path d="M336.411 73.3067C321.336 58.1142 296.639 50.2717 275.411 52.9942C267.244 54.0417 255.391 55.7942 247.686 58.7042C227.366 66.3742 211.964 77.9892 196.371 93.1092C180.779 108.232 172.901 128.542 164.379 147.719C169.001 148.787 213.599 137.794 230.654 129.377C240.826 102.274 262.189 79.0017 289.796 70.2967C303.624 65.9367 325.714 66.5417 336.411 73.3067Z" fill="#009850"/>
<path d="M230.655 129.375C230.655 129.375 199.512 143.577 164.38 147.717L154.795 173.195C154.795 173.195 201.972 162.295 227.63 137.89L230.655 129.375Z" fill="#009850"/>
<path d="M198.905 115.419C198.37 114.814 197.88 114.214 197.702 113.401C197.547 112.689 197.457 111.956 197.382 111.229C197.335 110.761 197.312 110.294 197.32 109.824C197.327 109.226 197.357 108.609 197.58 108.049C197.812 107.466 198.052 106.884 198.317 106.316C198.655 105.584 199.135 104.981 199.78 104.481C200.495 103.929 201.212 103.649 202.09 103.531C202.825 103.431 203.175 103.471 203.997 103.624C204.2 103.661 204.397 103.711 204.592 103.771C205.38 104.016 206.117 104.354 206.462 105.169C206.597 105.491 206.7 105.824 206.835 106.146C206.717 105.869 206.6 105.591 206.485 105.316C206.71 105.836 207.03 106.254 207.165 106.844C207.317 107.519 207.347 108.129 207.257 108.804C207.23 109.431 207.042 110.014 206.7 110.554C206.455 110.871 206.21 111.189 205.965 111.506C205.805 111.696 205.642 111.886 205.49 112.081C205.73 111.769 205.972 111.459 206.212 111.146C205.807 111.674 205.457 112.331 204.957 112.754C204.7 112.971 204.435 113.181 204.187 113.411C203.732 113.831 203.315 114.289 202.935 114.776C203.097 114.566 203.26 114.354 203.425 114.144C203.227 114.404 203.012 114.741 202.807 114.949C202.552 115.204 202.327 115.341 202.055 115.509C201.92 115.591 201.785 115.676 201.652 115.766C200.867 116.304 199.53 116.126 198.905 115.419Z" fill="white"/>
<path d="M212.32 92.9014C212.62 92.2039 212.918 91.5064 213.218 90.8089C213.478 90.2014 213.698 89.6289 214.25 89.1889C214.538 88.9614 214.825 88.7314 215.113 88.5039C215.315 88.3464 215.52 88.1889 215.723 88.0314C215.963 87.9289 216.203 87.8289 216.443 87.7264C216.71 87.6914 216.978 87.6539 217.245 87.6189C217.66 87.6039 218.048 87.6889 218.408 87.8789C218.663 87.9514 218.885 88.0789 219.073 88.2664C219.3 88.4014 219.48 88.5814 219.613 88.8064C219.8 88.9939 219.928 89.2164 220 89.4714C220.19 89.8314 220.275 90.2189 220.26 90.6339C220.25 90.9889 220.245 91.3439 220.23 91.6989C220.228 91.8814 220.205 92.0639 220.165 92.2414C220.14 92.4239 220.115 92.6089 220.09 92.7914C219.993 93.1989 219.808 93.5139 219.61 93.8514C219.518 94.0114 219.425 94.1714 219.333 94.3314C218.948 94.9939 218.563 95.6589 218.178 96.3214C217.965 96.7164 217.673 97.0339 217.305 97.2739C216.978 97.5739 216.593 97.7764 216.15 97.8814C215.7 98.0239 215.248 98.0439 214.798 97.9414C214.345 97.9214 213.925 97.7864 213.535 97.5389C212.81 97.0714 212.173 96.3764 211.975 95.5114C211.935 95.2114 211.895 94.9089 211.855 94.6089C211.858 94.0014 212.013 93.4314 212.32 92.9014Z" fill="white"/>
<path d="M218.212 110.095C214.089 110.095 214.082 103.688 218.212 103.688C222.337 103.685 222.342 110.095 218.212 110.095Z" fill="white"/>
<path d="M241.656 317.614C242.106 316.689 242.556 315.764 243.006 314.839C243.288 314.262 243.536 313.687 243.931 313.177C244.333 312.654 244.768 312.159 245.196 311.657C245.891 310.837 246.586 310.019 247.281 309.199C247.711 308.692 248.106 308.174 248.633 307.764C249.196 307.329 249.768 306.915 250.341 306.492C251.051 305.97 252.431 305.847 253.246 306.112C254.041 306.369 254.691 306.8 255.203 307.462C255.696 308.097 256.051 308.92 256.013 309.747C255.966 310.79 255.588 311.619 254.908 312.412C254.556 312.824 254.221 313.292 253.831 313.67C253.283 314.202 252.558 314.632 251.938 315.084C251.063 315.722 250.191 316.359 249.316 316.994C248.906 317.294 248.506 317.622 248.078 317.897C247.516 318.259 246.733 318.474 246.098 318.729C245.186 319.094 244.271 319.462 243.358 319.827C242.808 320.047 242.103 319.714 241.773 319.287C241.386 318.787 241.383 318.174 241.656 317.614Z" fill="#EFEDE4"/>
<path d="M264.022 309.598C264.562 309.003 265.105 308.405 265.645 307.81C265.912 307.515 266.177 307.223 266.445 306.928C266.475 306.895 266.505 306.863 266.537 306.833C266.752 306.648 266.977 306.475 267.21 306.313C267.465 306.205 267.72 306.098 267.972 305.99C268.057 305.973 268.145 305.965 268.23 305.953C268.412 305.928 268.592 305.9 268.775 305.875C269.242 305.75 269.71 305.75 270.177 305.875C270.625 306 271.012 306.228 271.342 306.553C271.67 306.883 271.895 307.27 272.02 307.717C272.145 308.185 272.145 308.653 272.02 309.12C271.995 309.293 271.97 309.463 271.945 309.635C271.932 309.72 271.922 309.808 271.907 309.893C271.867 310.175 271.76 310.44 271.58 310.685C271.412 310.9 271.247 311.117 271.08 311.332C271.05 311.365 271.02 311.395 270.987 311.428C270.69 311.708 270.38 311.975 270.077 312.248C269.48 312.788 268.882 313.325 268.285 313.865C268.012 314.16 267.687 314.368 267.315 314.488C266.955 314.678 266.567 314.763 266.152 314.748C265.737 314.763 265.35 314.678 264.99 314.488C264.615 314.365 264.292 314.157 264.02 313.865C263.492 313.29 263.1 312.535 263.137 311.733C263.172 311.465 263.21 311.198 263.245 310.93C263.39 310.418 263.65 309.975 264.022 309.598Z" fill="#EFEDE4"/>
<path d="M271.328 289.975C271.936 289.725 272.543 289.473 273.148 289.223C273.443 289.1 273.738 288.98 274.031 288.858C274.183 288.795 274.333 288.733 274.486 288.67C274.566 288.638 274.646 288.603 274.726 288.57C275.003 288.455 275.318 288.445 275.613 288.415C275.973 288.403 276.308 288.478 276.621 288.64C276.946 288.745 277.226 288.925 277.463 289.18C277.601 289.358 277.736 289.533 277.873 289.71C278.111 290.118 278.228 290.558 278.231 291.03C278.201 291.313 278.196 291.628 278.086 291.89C278.053 291.97 278.018 292.05 277.986 292.13C277.923 292.283 277.858 292.433 277.796 292.585C277.671 292.888 277.543 293.19 277.418 293.493C277.166 294.098 276.913 294.703 276.661 295.308C276.456 296.043 276.083 296.68 275.546 297.22C275.006 297.758 274.368 298.13 273.633 298.335C272.141 298.745 270.508 298.313 269.416 297.22C268.323 296.128 267.891 294.495 268.301 293.003C268.506 292.268 268.878 291.63 269.416 291.09C269.956 290.553 270.593 290.183 271.328 289.975Z" fill="#EFEDE4"/>
<path d="M292.492 298.981C293.072 298.516 293.652 298.051 294.232 297.586C294.517 297.356 294.802 297.128 295.087 296.898C295.535 296.456 296.06 296.148 296.667 295.978C296.997 295.898 297.337 295.851 297.68 295.836C297.762 295.841 297.842 295.853 297.922 295.861C298.085 295.878 298.247 295.893 298.41 295.911C298.955 295.913 299.462 296.051 299.932 296.323C300.285 296.513 300.565 296.771 300.777 297.101C301.045 297.393 301.225 297.733 301.317 298.126C301.46 298.661 301.46 299.196 301.317 299.728C301.27 299.863 301.225 299.998 301.177 300.133C301.155 300.201 301.13 300.268 301.107 300.336C300.937 300.938 300.632 301.461 300.192 301.903C299.992 302.163 299.735 302.368 299.425 302.518C299.095 302.693 298.755 302.848 298.42 303.011C297.74 303.346 297.057 303.678 296.377 304.013C296.01 304.248 295.612 304.373 295.185 304.393C294.76 304.488 294.332 304.468 293.907 304.336C293.652 304.228 293.397 304.121 293.142 304.013C292.77 303.811 292.47 303.536 292.242 303.188C292.045 302.988 291.907 302.753 291.83 302.481C291.63 302.098 291.537 301.688 291.555 301.246C291.592 300.963 291.632 300.678 291.67 300.393C291.82 299.851 292.095 299.381 292.492 298.981Z" fill="#EFEDE4"/>
<path d="M136.266 142.232C113.646 129.514 93.0337 113.234 75.4237 94.1717C65.9462 83.9117 52.8887 71.6917 40.1687 77.4592C27.4137 83.2417 28.4787 103.022 37.8412 113.437C33.4262 104.962 19.9461 104.664 13.3961 111.624C6.84615 118.582 6.71116 129.829 10.7612 138.484C14.8112 147.139 22.2561 153.687 29.8436 159.497C25.2511 153.804 14.9686 160.227 15.3236 167.532C15.6786 174.837 22.1337 180.264 28.4662 183.927C37.5662 189.192 47.5836 192.862 57.9311 194.724C52.4136 190.877 45.0761 199.239 47.1961 205.624C49.3136 212.009 56.1612 215.359 62.4212 217.817C82.4287 225.674 103.654 231.509 125.134 230.729C143.809 230.052 168.426 223.999 178.904 206.759C187.791 192.139 180.159 174.742 169.149 163.622C159.861 154.239 147.621 148.614 136.266 142.232Z" fill="#17B268"/>
<path d="M88.8694 127.545C84.3394 124.582 78.0869 121.712 73.9769 125.235C70.2494 128.43 71.4069 134.482 73.6544 138.845C75.9044 143.207 79.0319 147.682 78.2644 152.53C73.6019 154.632 67.7369 151.67 63.1819 153.997C59.2294 156.017 58.0469 161.505 59.7194 165.617C61.3919 169.73 65.1869 172.61 69.1469 174.615C73.0019 176.567 78.0344 179.52 76.8044 183.662C75.6369 187.587 69.9669 187.767 67.1619 190.75C64.8044 193.257 65.0169 197.41 66.7994 200.355C68.5844 203.297 71.5869 205.27 74.5894 206.952C86.4644 213.605 100.017 217.072 113.602 217.367C126.199 217.64 139.854 215.692 150.564 208.625C158.442 203.427 165.539 194.355 162.247 184.437C160.304 178.585 155.459 174.425 150.717 170.792C144.607 166.112 138.332 161.63 132.074 157.145C119.437 148.085 106.624 139.265 93.6494 130.692C92.0644 129.64 90.4669 128.59 88.8694 127.545Z" fill="#0C6C45"/>
<path d="M123.209 176.006C123.209 175.214 123.561 174.266 124.156 173.721C124.771 173.156 125.581 172.736 126.441 172.776C126.726 172.814 127.014 172.854 127.299 172.891C127.846 173.044 128.321 173.321 128.724 173.721C130.394 175.144 132.064 176.566 133.736 177.989C134.051 178.281 134.274 178.629 134.404 179.029C134.606 179.414 134.699 179.829 134.681 180.274C134.681 181.066 134.329 182.014 133.734 182.559C133.119 183.124 132.309 183.544 131.449 183.506C131.161 183.469 130.876 183.429 130.591 183.391C130.044 183.239 129.569 182.961 129.166 182.561C127.496 181.139 125.826 179.716 124.154 178.294" fill="white"/>
<path d="M139.555 169.704C139.65 169.836 139.735 169.974 139.807 170.119C140.002 170.499 140.17 170.899 140.31 171.301C140.365 171.461 140.405 171.624 140.435 171.789C140.57 172.219 140.59 172.649 140.492 173.076C140.472 173.506 140.345 173.906 140.11 174.276C139.907 174.654 139.63 174.954 139.277 175.184C138.965 175.469 138.6 175.661 138.18 175.761C137.892 175.799 137.607 175.839 137.32 175.876C136.737 175.874 136.192 175.726 135.69 175.436C135.472 175.269 135.255 175.099 135.035 174.931C134.635 174.529 134.357 174.054 134.205 173.506C134.165 173.274 134.097 173.046 134.007 172.826C134.115 173.084 134.225 173.341 134.332 173.599C134.22 173.334 134.072 173.089 133.897 172.859C134.065 173.076 134.235 173.294 134.402 173.514C134.225 173.286 134.022 173.084 133.795 172.906C134.012 173.074 134.23 173.244 134.45 173.411C134.232 173.244 133.995 173.106 133.745 172.996C134.002 173.104 134.26 173.214 134.517 173.321C134.357 173.254 134.19 173.199 134.02 173.159C133.6 173.059 133.232 172.866 132.922 172.581C132.57 172.354 132.292 172.051 132.09 171.674C131.855 171.304 131.725 170.904 131.707 170.474C131.61 170.044 131.63 169.614 131.765 169.186C131.872 168.929 131.982 168.671 132.09 168.414C132.377 167.929 132.762 167.541 133.25 167.254C133.507 167.146 133.765 167.036 134.022 166.929C134.595 166.774 135.167 166.774 135.74 166.929C135.897 166.966 136.05 167.016 136.202 167.076C136.585 167.231 137.01 167.386 137.375 167.601C137.737 167.814 138.08 168.104 138.397 168.359" fill="white"/>
<path d="M142.811 186.232C143.241 186.137 143.671 186.154 144.099 186.289C144.519 186.389 144.886 186.582 145.196 186.867C145.549 187.094 145.826 187.397 146.029 187.774C146.136 188.032 146.246 188.289 146.354 188.547C146.509 189.119 146.509 189.692 146.354 190.264C146.246 190.522 146.136 190.779 146.029 191.037C145.741 191.522 145.356 191.909 144.869 192.197C144.309 192.482 143.749 192.767 143.189 193.052C142.819 193.287 142.416 193.417 141.989 193.434C141.559 193.532 141.129 193.512 140.701 193.377C140.281 193.277 139.914 193.084 139.604 192.799C139.251 192.572 138.974 192.269 138.771 191.892C138.664 191.634 138.554 191.377 138.446 191.119C138.291 190.547 138.291 189.974 138.446 189.402C138.554 189.144 138.664 188.887 138.771 188.629C139.059 188.144 139.446 187.757 139.931 187.469" fill="white"/>
<path d="M69.4522 146.147C57.0447 135.857 45.6897 124.357 35.5572 111.82C34.7497 110.822 36.1647 109.392 36.9797 110.397C47.1122 122.935 58.4672 134.435 70.8747 144.725C71.8697 145.552 70.4397 146.967 69.4522 146.147Z" fill="white"/>
<path d="M58.242 177.293C49.0745 171.51 39.9095 165.725 30.742 159.943C29.6495 159.255 30.657 157.513 31.757 158.208C40.9245 163.99 50.0895 169.775 59.257 175.558C60.3495 176.245 59.3395 177.985 58.242 177.293Z" fill="white"/>
<path d="M63.4863 196.312C60.4713 196.757 57.4088 196.552 54.5013 195.614C53.9838 195.447 53.6513 194.917 53.7988 194.377C53.9388 193.869 54.5163 193.507 55.0363 193.674C57.5813 194.494 60.3013 194.764 62.9538 194.372C63.4913 194.292 64.0338 194.504 64.1913 195.074C64.3188 195.547 64.0263 196.232 63.4863 196.312Z" fill="white"/>
<path d="M64.1515 113.048C62.4665 117.263 60.7815 121.475 59.099 125.69C58.8965 126.193 58.4265 126.548 57.8615 126.393C57.384 126.26 56.9565 125.663 57.159 125.155C58.844 120.94 60.529 116.728 62.2115 112.513C62.414 112.008 62.884 111.655 63.449 111.81C63.9265 111.943 64.354 112.54 64.1515 113.048Z" fill="white"/>
<path d="M58.2959 109.694C57.7334 111.379 57.1709 113.066 56.6109 114.751C56.4459 115.249 55.9109 115.626 55.3734 115.454C54.8784 115.294 54.4934 114.751 54.6709 114.216C55.2334 112.531 55.7959 110.846 56.3559 109.159C56.5209 108.661 57.0559 108.284 57.5934 108.456C58.0884 108.619 58.4734 109.161 58.2959 109.694Z" fill="white"/>
<path d="M29.5092 132.684C28.6667 134.369 27.8267 136.057 26.9842 137.742C26.7492 138.214 26.0442 138.384 25.6092 138.102C25.1267 137.792 24.9967 137.232 25.2492 136.727C26.0917 135.042 26.9317 133.354 27.7742 131.669C28.0092 131.197 28.7142 131.027 29.1492 131.309C29.6317 131.619 29.7617 132.179 29.5092 132.684Z" fill="white"/>
<path d="M47.3772 146.513C47.3772 147.076 47.3772 147.636 47.3772 148.198C47.3772 148.456 47.2647 148.726 47.0822 148.908C46.9072 149.083 46.6222 149.213 46.3722 149.203C46.1122 149.191 45.8422 149.106 45.6622 148.908C45.4822 148.711 45.3672 148.471 45.3672 148.198C45.3672 147.636 45.3672 147.076 45.3672 146.513C45.3672 146.256 45.4797 145.983 45.6622 145.803C45.8372 145.628 46.1222 145.498 46.3722 145.508C46.6322 145.521 46.9022 145.606 47.0822 145.803C47.2622 145.998 47.3772 146.238 47.3772 146.513Z" fill="white"/>
<path d="M36.1267 178.95C35.3092 180.37 34.4917 181.788 33.6742 183.208C33.4117 183.663 32.7542 183.863 32.2992 183.568C31.8392 183.27 31.6567 182.68 31.9392 182.193C32.7567 180.773 33.5742 179.355 34.3917 177.935C34.6542 177.48 35.3117 177.283 35.7667 177.575C36.2242 177.873 36.4067 178.463 36.1267 178.95Z" fill="white"/>
<path d="M348.809 121.541C348.809 121.541 370.124 132.308 393.364 117.541L365.196 114.078L348.809 121.541Z" fill="#222221"/>
<path d="M327.214 111.127C324.414 105.134 317.736 100.314 310.974 102.767C308.094 103.812 305.486 106.159 304.586 109.142C303.441 112.932 305.134 117.077 307.356 120.129C308.581 121.812 305.779 123.427 304.566 121.759C300.381 116.012 299.396 107.912 304.986 102.739C309.851 98.2368 316.929 97.7869 322.549 101.149C325.801 103.094 328.406 106.069 330.006 109.494C330.879 111.369 328.094 113.012 327.214 111.127Z" fill="#222221"/>
<path d="M330.539 104.091C329.836 104.933 329.134 105.776 328.431 106.618C328.306 106.768 328.049 106.856 327.859 106.856C327.661 106.856 327.424 106.768 327.289 106.618C327.146 106.463 327.044 106.263 327.051 106.046C327.061 105.821 327.144 105.648 327.289 105.476C327.991 104.633 328.694 103.791 329.396 102.948C329.521 102.798 329.779 102.711 329.966 102.711C330.164 102.711 330.401 102.798 330.539 102.948C330.681 103.103 330.784 103.303 330.776 103.521C330.764 103.746 330.681 103.918 330.539 104.091Z" fill="#222221"/>
<path d="M326.149 97.4279C325.471 99.2629 324.796 101.098 324.119 102.935C323.969 103.345 323.571 103.623 323.126 103.5C322.731 103.393 322.411 102.918 322.561 102.508C323.239 100.673 323.914 98.8379 324.591 97.0004C324.741 96.5904 325.139 96.3129 325.584 96.4354C325.979 96.5429 326.301 97.0179 326.149 97.4279Z" fill="#222221"/>
<path d="M317.289 94.6754C317.289 96.2204 317.289 97.7654 317.289 99.3104C317.289 99.7329 316.916 100.138 316.481 100.118C316.044 100.098 315.674 99.7629 315.674 99.3104C315.674 97.7654 315.674 96.2204 315.674 94.6754C315.674 94.2529 316.046 93.8479 316.481 93.8679C316.919 93.8879 317.289 94.2229 317.289 94.6754Z" fill="#222221"/>
<path d="M307.883 96.3843C308.476 97.4918 309.068 98.5993 309.661 99.7068C309.861 100.079 309.766 100.602 309.371 100.812C308.996 101.009 308.478 100.919 308.266 100.522C307.673 99.4143 307.081 98.3068 306.488 97.1993C306.288 96.8268 306.383 96.3043 306.778 96.0943C307.153 95.8943 307.671 95.9868 307.883 96.3843Z" fill="#222221"/>
<path d="M299.777 101.676C301.047 102.933 302.317 104.194 303.587 105.451C303.887 105.749 303.907 106.299 303.587 106.594C303.265 106.891 302.765 106.911 302.445 106.594C301.175 105.336 299.905 104.076 298.635 102.819C298.335 102.521 298.315 101.971 298.635 101.676C298.96 101.378 299.457 101.358 299.777 101.676Z" fill="#222221"/>
<path d="M296.483 110.228C298.031 110.493 299.578 110.755 301.128 111.02C301.546 111.09 301.818 111.628 301.693 112.013C301.548 112.463 301.148 112.653 300.701 112.578C299.153 112.313 297.606 112.05 296.058 111.785C295.641 111.713 295.368 111.178 295.493 110.793C295.636 110.34 296.036 110.15 296.483 110.228Z" fill="#222221"/>
<path d="M297.294 119.266C299.079 119.616 300.989 119.344 302.624 118.499C303.011 118.299 303.501 118.399 303.729 118.789C303.941 119.151 303.829 119.694 303.439 119.894C301.409 120.944 299.106 121.264 296.864 120.824C296.436 120.739 296.191 120.229 296.299 119.831C296.424 119.384 296.864 119.181 297.294 119.266Z" fill="#222221"/>
<path d="M245.767 355.423C248.212 361.608 250.06 367.928 251.707 374.295C253.252 380.685 255.127 387 254.487 393.883L254.482 393.938C254.405 394.763 253.857 395.433 253.13 395.705C250.052 396.855 246.917 397.19 243.772 397.343C240.625 397.478 237.47 397.478 234.28 396.975C233.445 396.843 232.875 396.058 233.007 395.223C233.102 394.623 233.535 394.16 234.08 393.995C237.172 393.068 240.3 392.645 243.437 392.358C246.575 392.088 249.725 392 252.93 392.725L251.575 394.545C248.03 388.61 246.997 382.105 245.635 375.673C244.375 369.218 243.315 362.72 242.855 356.085C242.797 355.253 243.425 354.53 244.257 354.473C244.93 354.423 245.532 354.828 245.767 355.423Z" fill="#222221"/>
<path d="M272.21 413.846C268.395 411.246 264.892 408.309 261.487 405.261C258.092 402.204 254.815 399.021 252.02 395.311L251.932 395.194C251.425 394.521 251.56 393.564 252.232 393.056C252.595 392.784 253.045 392.699 253.457 392.779C258.255 393.759 263 394.916 267.69 396.264C272.382 397.596 277.125 398.766 281.507 401.141C282.247 401.544 282.522 402.469 282.122 403.209C281.825 403.756 281.237 404.051 280.655 404.004C275.687 403.591 271.08 401.974 266.422 400.519C261.762 399.079 257.157 397.451 252.605 395.641L254.042 393.111C257.977 395.579 261.43 398.574 264.765 401.694C268.09 404.826 271.317 408.066 274.232 411.644C274.76 412.289 274.662 413.241 274.015 413.766C273.482 414.201 272.747 414.211 272.21 413.846Z" fill="#222221"/>
<path d="M252.693 392.283C256.573 391.761 260.46 391.381 264.355 391.118C268.25 390.886 272.135 390.411 276.075 391.008C276.76 391.111 277.233 391.751 277.13 392.438C277.053 392.948 276.678 393.341 276.21 393.466C272.358 394.486 268.445 394.438 264.548 394.631C260.648 394.793 256.743 394.841 252.828 394.741C252.148 394.723 251.608 394.158 251.625 393.476C251.64 392.858 252.103 392.361 252.693 392.283Z" fill="#222221"/>
<path d="M228.916 337.331C228.916 337.331 232.894 365.903 245.749 364.681C258.604 363.456 257.991 331.016 257.991 331.016L228.916 337.331Z" fill="#009850"/>
<path d="M187.314 355.423C189.759 361.608 191.607 367.928 193.254 374.295C194.799 380.685 196.674 387 196.034 393.883L196.029 393.938C195.952 394.763 195.404 395.433 194.677 395.705C191.599 396.855 188.464 397.19 185.319 397.343C182.172 397.478 179.017 397.478 175.827 396.975C174.992 396.843 174.422 396.058 174.554 395.223C174.649 394.623 175.082 394.16 175.627 393.995C178.719 393.068 181.847 392.645 184.984 392.358C188.122 392.088 191.272 392 194.477 392.725L193.122 394.545C189.577 388.61 188.544 382.105 187.182 375.673C185.922 369.218 184.862 362.72 184.402 356.085C184.344 355.253 184.972 354.53 185.804 354.473C186.477 354.423 187.077 354.828 187.314 355.423Z" fill="#222221"/>
<path d="M213.759 413.846C209.944 411.246 206.441 408.309 203.036 405.261C199.641 402.204 196.364 399.021 193.569 395.311L193.481 395.194C192.974 394.521 193.109 393.564 193.781 393.056C194.144 392.784 194.594 392.699 195.006 392.779C199.804 393.759 204.549 394.916 209.239 396.264C213.931 397.596 218.674 398.766 223.056 401.141C223.796 401.544 224.071 402.469 223.671 403.209C223.374 403.756 222.786 404.051 222.204 404.004C217.236 403.591 212.629 401.974 207.971 400.519C203.311 399.079 198.706 397.451 194.154 395.641L195.591 393.111C199.526 395.579 202.979 398.574 206.314 401.694C209.639 404.826 212.866 408.066 215.781 411.644C216.309 412.289 216.211 413.241 215.564 413.766C215.031 414.201 214.296 414.211 213.759 413.846Z" fill="#222221"/>
<path d="M194.242 392.283C198.122 391.761 202.009 391.381 205.904 391.118C209.799 390.886 213.682 390.411 217.624 391.008C218.309 391.111 218.782 391.751 218.679 392.438C218.602 392.948 218.227 393.341 217.759 393.466C213.907 394.486 209.994 394.438 206.097 394.631C202.197 394.793 198.292 394.841 194.377 394.741C193.697 394.723 193.157 394.158 193.174 393.476C193.189 392.858 193.652 392.361 194.242 392.283Z" fill="#222221"/>
<path d="M170.459 337.331C170.459 337.331 174.436 365.903 187.291 364.681C200.146 363.456 199.534 331.016 199.534 331.016L170.459 337.331Z" fill="#009850"/>
</svg>
