<svg width="417" height="268" viewBox="0 0 417 268" fill="none" xmlns="http://www.w3.org/2000/svg">
<path d="M315.217 63.5397C315.217 63.5397 285.005 60.6797 291.65 44.2191C298.296 27.7585 318.181 39.7939 318.181 39.7939C318.181 39.7939 311.569 27.1397 326.41 24.8959C341.251 22.6521 354.414 48.4155 354.414 48.4155C354.414 48.4155 344.667 28.0861 351.554 23.9391C358.442 19.7921 395.741 38.0987 369.377 92.5921L315.217 63.5397Z" fill="#0C6C45"/>
<path d="M24.6059 133.382C17.2843 132.084 8.6523 130.847 3.3665 136.078C-1.4227 140.82 -0.816894 149.265 3.38471 154.535C7.58631 159.806 14.4191 162.33 21.1037 163.173C14.5049 162.785 10.2539 171.49 12.8981 177.548C15.5449 183.606 22.4323 186.726 28.9921 187.529C35.5519 188.33 42.2183 187.366 48.8015 187.945C44.2385 187.971 42.3873 194.693 45.0523 198.398C47.7147 202.102 52.6313 203.285 57.1423 203.967C75.0199 206.673 93.4383 205.735 110.949 201.224C125.665 197.433 141.728 188.64 143.72 173.575C145.353 161.21 136.159 149.458 124.919 144.05C112.855 138.244 99.8135 138.964 86.9123 137.269C80.7737 136.463 74.1177 137.495 67.9115 137.425C61.0137 137.349 54.1185 137.004 47.2467 136.393C39.6651 135.717 32.1069 134.713 24.6059 133.382Z" fill="#17B268"/>
<path d="M19.631 163.698C32.9482 164.593 46.3174 163.589 59.3512 160.714C60.464 160.469 60.087 158.74 58.9716 158.985C46.0834 161.826 32.891 162.814 19.7246 161.93C18.5884 161.855 18.4974 163.623 19.631 163.698Z" fill="#0C6C45"/>
<path d="M47.8604 189.11C54.8206 187.789 61.7808 186.466 68.7384 185.145C69.8564 184.932 69.4795 183.206 68.3589 183.416C61.3987 184.737 54.4384 186.06 47.4808 187.381C46.3628 187.594 46.7398 189.323 47.8604 189.11Z" fill="#0C6C45"/>
<path d="M30.3168 137.482C29.321 145.698 29.9762 154.049 32.2408 162.01C32.5502 163.099 34.2818 162.73 33.9698 161.63C31.7442 153.804 31.1072 145.651 32.0848 137.575C32.2226 136.441 30.4546 136.356 30.3168 137.482Z" fill="#0C6C45"/>
<path d="M40.1957 139.886C39.8629 147.436 40.4713 155.002 42.0105 162.402C42.2419 163.517 43.9709 163.14 43.7395 162.022C42.2341 154.771 41.6387 147.379 41.9637 139.98C42.0131 138.843 40.2477 138.747 40.1957 139.886Z" fill="#0C6C45"/>
<path d="M33.8023 163.093C37.6997 171.796 43.5523 179.46 50.8583 185.576C51.7293 186.306 52.6757 184.809 51.8125 184.086C44.7431 178.171 39.1297 170.675 35.3675 162.267C34.9021 161.229 33.3369 162.056 33.8023 163.093Z" fill="#0C6C45"/>
<path d="M47.7106 161.672C49.5306 169.883 53.7348 177.436 59.7772 183.286C60.591 184.074 61.8988 182.883 61.0798 182.087C55.2506 176.443 51.1946 169.217 49.4396 161.293C49.1926 160.182 47.4636 160.559 47.7106 161.672Z" fill="#0C6C45"/>
<path d="M64.5279 185.532C68.6619 192.326 74.0621 198.243 80.4477 202.983C81.3629 203.664 82.3146 202.169 81.402 201.493C75.2712 196.943 70.0608 191.231 66.0932 184.708C65.5056 183.741 63.9351 184.554 64.5279 185.532Z" fill="#0C6C45"/>
<path d="M57.3402 187.643C61.3026 194.884 66.4037 201.455 72.4513 207.071C73.2807 207.84 74.5912 206.649 73.754 205.872C67.8104 200.352 62.8001 193.933 58.9079 186.819C58.3619 185.823 56.7916 186.642 57.3402 187.643Z" fill="#0C6C45"/>
<path d="M99.0214 172.788C99.31 187.507 107.622 200.886 117.211 212.056C143.645 242.853 182.224 262.933 222.615 266.918C263.006 270.902 304.765 258.749 336.706 233.709C358.837 216.361 376.514 192.475 383.09 165.134C389.665 137.792 384.137 107.031 365.677 85.8154C341.586 58.1254 300.142 51.0976 264.285 58.9418C233.655 65.642 208.39 82.0844 181.111 96.4936C172.477 101.054 163.442 104.691 154.659 108.935C143.661 114.246 133.224 121.04 123.63 128.58C110.113 139.201 98.673 154.884 99.0214 172.788Z" fill="#009850"/>
<path d="M343.794 86.4878C324.297 82.5722 304.082 88.456 286.116 96.9866C268.467 105.369 251.832 116.565 239.5 131.717C227.166 146.873 219.415 166.284 220.63 185.784C222.795 220.596 266.093 254.874 300.829 251.723C314.882 250.449 322.851 244.357 334.036 235.756C357.826 217.463 365.647 206.865 375.995 188.382C384.674 172.883 389.008 154.569 386.694 136.847C384.911 123.192 378.104 107.311 367.628 98.2268C360.881 92.3716 352.556 88.248 343.794 86.4878Z" fill="#EFEDE4"/>
<path d="M360.8 134.451C361.34 139.001 358.09 143.127 353.54 143.668C348.99 144.209 344.864 140.959 344.323 136.409C343.783 131.859 347.033 127.732 351.583 127.192C356.13 126.651 360.259 129.901 360.8 134.451Z" fill="#222221"/>
<path d="M349.107 139.377C349.336 141.306 347.958 143.059 346.029 143.288C344.1 143.516 342.347 142.138 342.119 140.209C341.89 138.28 343.268 136.528 345.197 136.299C347.126 136.067 348.879 137.445 349.107 139.377Z" fill="#EFEDE4"/>
<path d="M372.081 144.483C372.081 144.483 380.523 121.06 416.643 143.368C416.643 143.368 370.266 164.389 372.081 144.483Z" fill="#222221"/>
<path d="M284.64 122.966C284.024 123.172 283.411 123.375 282.794 123.58C281.9 123.876 280.847 124.113 280.031 124.558C279.154 125.036 278.361 125.829 277.587 126.466C277.288 126.71 276.983 126.95 276.692 127.202C275.244 128.455 274.779 130.631 275.689 132.342C275.704 132.373 275.73 132.397 275.748 132.428C276.614 133.972 278.125 134.627 280.278 134.396C281.008 134.235 281.65 133.899 282.202 133.395C282.485 133.169 282.761 132.935 283.041 132.703C283.598 132.246 284.193 131.812 284.718 131.323C285.467 130.626 285.899 129.729 286.393 128.853C286.744 128.231 287.092 127.61 287.443 126.989C287.976 126.042 288 124.948 287.36 124.04C287.087 123.653 286.762 123.38 286.333 123.177C285.847 122.948 285.173 122.79 284.64 122.966Z" fill="#41A47B"/>
<path d="M261.535 130.923C259.863 131.581 258.368 132.553 256.946 133.645C255.872 134.47 254.754 135.471 254.403 136.825C254.172 137.714 253.984 138.632 253.893 139.547C253.779 140.71 254.455 141.9 255.417 142.517C255.908 142.829 256.447 143.003 257.029 143.037C257.637 143.065 258.209 142.94 258.75 142.66C258.93 142.592 259.109 142.522 259.291 142.454C258.987 142.566 258.68 142.678 258.373 142.787C258.628 142.696 258.888 142.613 259.148 142.54C259.283 142.504 259.418 142.47 259.554 142.433C260.422 142.207 261.207 141.809 261.873 141.206C262.385 140.741 262.908 140.301 263.469 139.898C263.152 140.122 262.837 140.346 262.52 140.569C263.513 139.872 264.577 139.295 265.708 138.851C266.249 138.591 266.685 138.221 267.023 137.74C267.432 137.327 267.718 136.836 267.881 136.266C268.225 135.208 268.154 133.775 267.585 132.798C267.01 131.815 266.132 130.936 265.001 130.624C264.621 130.554 264.239 130.484 263.859 130.411C263.04 130.375 262.263 130.546 261.535 130.923Z" fill="#41A47B"/>
<path d="M246.946 155.139C246.265 155.961 245.584 156.785 244.903 157.606C244.567 158.009 244.211 158.405 243.896 158.823C243.748 159.018 243.551 159.473 243.467 159.705C243.447 159.759 243.428 159.814 243.413 159.871C243.376 159.998 243.343 160.126 243.306 160.253C243.236 160.508 243.163 160.763 243.093 161.015C242.955 161.512 242.906 162.068 243.018 162.575C243.109 162.825 243.2 163.077 243.291 163.326C243.465 163.685 243.709 163.979 244.029 164.205C244.206 164.395 244.419 164.533 244.666 164.613C244.887 164.754 245.129 164.832 245.391 164.847C245.649 164.931 245.909 164.941 246.171 164.886C246.577 164.889 246.962 164.785 247.323 164.58C247.518 164.447 247.713 164.314 247.908 164.182C248.012 164.112 248.114 164.041 248.218 163.971C248.264 163.94 248.309 163.909 248.355 163.878C249.086 163.376 248.998 163.488 249.44 162.957C249.871 162.442 250.199 161.855 250.55 161.283C251.117 160.368 251.683 159.455 252.248 158.54C252.677 157.846 252.848 156.967 252.671 156.166C252.505 155.412 251.972 154.583 251.293 154.187C250.589 153.777 249.731 153.545 248.92 153.764C248.654 153.86 248.389 153.956 248.124 154.052C247.643 154.312 247.248 154.674 246.946 155.139Z" fill="#41A47B"/>
<path d="M273.787 147.794C273.287 148.878 272.788 149.962 272.289 151.046C272.263 151.187 272.237 151.327 272.211 151.47C272.224 151.618 272.234 151.766 272.247 151.915C272.325 152.276 272.531 152.585 272.812 152.819C273.038 153.009 273.28 153.124 273.568 153.176C273.917 153.241 274.327 153.215 274.642 153.027C275.69 152.403 276.738 151.782 277.783 151.161C278.22 150.927 278.573 150.602 278.844 150.186C279.109 149.767 279.257 149.309 279.286 148.815C279.309 148.298 279.202 147.809 278.966 147.352C278.802 147.011 278.571 146.735 278.266 146.522C278.006 146.265 277.697 146.085 277.338 145.981C276.855 145.825 276.363 145.802 275.867 145.911C275.37 146.02 274.933 146.249 274.559 146.592C274.197 146.925 273.94 147.326 273.787 147.794Z" fill="#41A47B"/>
<path d="M256.086 189.335C259.841 188.514 258.569 182.679 254.81 183.501C251.055 184.325 252.327 190.16 256.086 189.335Z" fill="#41A47B"/>
<path d="M344.838 209.88C345.394 209.404 345.969 208.954 346.562 208.528C346.341 208.684 346.122 208.84 345.901 208.993C346.884 208.299 347.919 207.675 348.998 207.145C349.77 206.765 350.36 206.126 351.013 205.58C351.478 205.19 351.959 204.82 352.453 204.469C352.235 204.623 352.017 204.779 351.798 204.932C351.97 204.813 352.141 204.693 352.316 204.576C352.953 204.147 353.548 203.635 353.766 202.855C353.948 202.197 353.941 201.563 353.704 200.921C353.215 199.579 351.733 198.648 350.285 199.02C349.229 199.29 348.205 199.649 347.183 200.026C346.767 200.179 346.346 200.333 345.946 200.523C345.316 200.819 344.791 201.334 344.292 201.815C342.893 203.162 341.627 204.675 340.548 206.287C339.765 207.457 340.077 209.072 341.125 209.95C342.222 210.863 343.759 210.806 344.838 209.88Z" fill="#41A47B"/>
<path d="M348.46 187.87C349.625 186.06 350.79 184.251 351.954 182.441C352.337 181.846 352.295 180.936 351.778 180.421C351.276 179.924 350.428 179.688 349.783 180.078C347.969 181.178 346.154 182.277 344.339 183.38C343.416 183.939 342.67 184.867 342.659 186.001C342.652 186.848 342.904 187.67 343.489 188.304C344.859 189.789 347.36 189.578 348.46 187.87Z" fill="#41A47B"/>
<path d="M334.249 188.779C337.585 188.048 336.457 182.861 333.113 183.594C329.777 184.322 330.908 189.509 334.249 188.779Z" fill="#41A47B"/>
<path d="M384.083 125.161C383.277 106.345 371.852 86.6055 356.429 75.7973C350.493 71.6399 341.742 65.7561 335.008 63.0833C317.239 56.0321 300.337 54.4617 281.232 55.0623C262.127 55.6629 244.967 64.2091 228.057 71.6373C230.433 75.0693 265.962 94.3431 282.048 98.9737C304.725 87.3673 332.415 84.8817 355.537 95.5781C367.118 100.937 381.132 114.418 384.083 125.161Z" fill="#009850"/>
<path d="M282.048 98.977C282.048 98.977 253.37 89.7652 228.057 71.6406L206.724 82.5372C206.724 82.5372 243.878 103.4 275.033 102.724L282.048 98.977Z" fill="#009850"/>
<path d="M271.549 72.9627C271.715 72.9861 271.879 73.0121 272.043 73.0433C271.83 73.0043 271.619 72.9653 271.406 72.9263C272.095 73.0641 272.568 73.0693 273.268 72.9549C273.538 72.9107 273.811 72.8795 274.084 72.8561C273.801 72.8795 273.517 72.9029 273.231 72.9263C274.133 72.8561 275.059 73.0147 275.951 72.8431C276.302 72.7755 276.645 72.6975 277.001 72.6507C278.507 72.4453 279.937 71.2701 280.366 69.7881C280.446 69.5099 280.529 69.2395 280.626 68.9665C280.698 68.8053 280.649 68.9093 280.477 69.2785C280.654 69.0003 280.753 68.6961 280.771 68.3685C280.792 67.9811 280.685 67.6561 280.519 67.3129C280.459 67.1907 280.394 67.0711 280.321 66.9567C280.103 66.6135 279.864 66.2833 279.619 65.9583C278.699 64.7363 276.962 64.2007 275.498 64.5205C274.945 64.6427 274.274 64.9521 273.725 65.2017C273.135 65.4695 272.589 65.8179 272.147 66.2963C271.562 66.9281 270.993 67.5963 270.519 68.3191C270.267 68.7065 269.994 69.1329 269.846 69.5671C269.703 69.9857 269.677 70.4303 269.669 70.8671C269.651 72.0163 270.449 72.8093 271.549 72.9627Z" fill="white"/>
<path d="M293.268 70.1327C293.91 69.9299 294.552 69.7271 295.195 69.5243C295.985 69.2747 296.814 69.0823 297.415 68.4583C297.639 68.2269 297.862 67.9955 298.086 67.7641C298.395 67.4417 298.673 67.0595 298.811 66.6305C298.853 66.4043 298.894 66.1781 298.936 65.9545C298.97 65.5853 298.907 65.2369 298.757 64.9093C298.705 64.6753 298.598 64.4699 298.437 64.2931C298.328 64.0877 298.174 63.9213 297.979 63.7939C297.821 63.6249 297.633 63.5027 297.412 63.4299C297.111 63.2557 296.783 63.1647 296.43 63.1595C296.125 63.1387 295.824 63.1179 295.52 63.0945C294.792 63.0425 294.183 63.2323 293.533 63.5261C293.382 63.5937 293.232 63.6639 293.081 63.7315C292.467 64.0123 291.854 64.2905 291.237 64.5713C290.879 64.7455 290.585 64.9899 290.359 65.3097C290.086 65.5853 289.896 65.9129 289.787 66.2925C289.74 66.5447 289.693 66.7995 289.646 67.0543C289.61 67.4677 289.677 67.8603 289.849 68.2295C289.909 68.4921 290.028 68.7235 290.21 68.9211C290.408 69.2565 290.676 69.5269 291.019 69.7271C291.666 70.1093 292.522 70.3693 293.268 70.1327Z" fill="white"/>
<path d="M287.884 79.725C291.428 78.9476 290.229 73.4382 286.678 74.2156C283.134 74.993 284.335 80.5024 287.884 79.725Z" fill="white"/>
<path d="M177.659 230.507C178.548 230.842 179.438 231.175 180.327 231.51C180.883 231.721 181.403 231.903 181.993 232.002C182.487 232.082 182.987 232.124 183.486 232.178C184.409 232.28 185.332 232.381 186.257 232.483C186.754 232.537 187.253 232.61 187.752 232.607C188.47 232.605 189.219 232.464 189.934 232.373C190.698 232.277 191.637 231.578 192.016 230.923C192.391 230.28 192.562 229.612 192.5 228.866C192.362 227.181 191.06 225.993 189.401 225.819C188.907 225.767 188.405 225.689 187.908 225.673C187.206 225.655 186.426 225.821 185.724 225.912C184.82 226.029 183.912 226.146 183.007 226.263C182.558 226.321 182.095 226.357 181.65 226.445C181.078 226.557 180.498 226.859 179.95 227.075C179.118 227.405 178.286 227.735 177.454 228.065C176.315 228.52 176.692 230.143 177.659 230.507Z" fill="white"/>
<path d="M196.951 241.313C197.677 241.315 198.402 241.32 199.13 241.323C199.478 241.326 199.829 241.331 200.178 241.328C200.456 241.315 200.734 241.292 201.01 241.255C201.389 241.188 201.725 241.032 202.016 240.787C202.175 240.675 202.312 240.577 202.458 240.46C202.57 240.366 202.682 240.275 202.793 240.184C203.09 239.908 203.303 239.576 203.43 239.191C203.54 238.894 203.568 238.593 203.516 238.289C203.454 237.545 203.092 236.945 202.476 236.521C202.349 236.432 202.221 236.347 202.094 236.258C202.039 236.222 201.985 236.183 201.93 236.146C201.514 235.881 201.059 235.735 200.565 235.707C200.287 235.694 200.009 235.715 199.733 235.767C199.387 235.798 199.039 235.832 198.693 235.866C197.973 235.933 197.253 236.003 196.533 236.071C196.174 236.136 195.857 236.281 195.584 236.513C195.285 236.687 195.045 236.926 194.866 237.23C194.77 237.436 194.674 237.639 194.575 237.844C194.45 238.182 194.419 238.528 194.479 238.876C194.468 239.121 194.518 239.349 194.629 239.565C194.72 239.906 194.895 240.205 195.149 240.462C195.62 240.933 196.26 241.307 196.951 241.313Z" fill="white"/>
<path d="M213.401 234.354C213.932 234.105 214.462 233.855 214.993 233.606C215.52 233.359 216.072 233.132 216.584 232.852C216.922 232.667 217.247 232.376 217.455 232.051C217.541 231.871 217.624 231.695 217.707 231.515C217.816 231.219 217.845 230.92 217.79 230.616C217.801 230.402 217.756 230.202 217.658 230.015C217.613 229.812 217.52 229.633 217.379 229.477C217.283 229.297 217.151 229.152 216.979 229.04C216.766 228.829 216.511 228.681 216.217 228.595C215.663 228.354 215.076 228.174 214.509 227.969C213.94 227.761 213.37 227.553 212.798 227.345C211.529 226.882 210.011 227.269 209.036 228.169C208.547 228.624 208.201 229.167 207.991 229.799C207.811 230.285 207.765 230.782 207.853 231.281C207.85 231.801 207.98 232.293 208.246 232.753C208.56 233.346 209 233.824 209.564 234.188C210.131 234.549 210.747 234.747 211.418 234.786C212.12 234.822 212.78 234.677 213.401 234.354Z" fill="white"/>
<path d="M221.047 251.466C221.684 251.651 222.321 251.835 222.956 252.023C223.262 252.111 223.569 252.207 223.876 252.29C224.799 252.543 225.68 252.454 226.518 251.997C226.645 251.926 226.775 251.856 226.903 251.786C227.313 251.568 227.646 251.261 227.901 250.868C228.101 250.577 228.221 250.26 228.254 249.917C228.348 249.573 228.351 249.222 228.26 248.869C228.156 248.401 227.943 247.99 227.62 247.639C227.529 247.535 227.438 247.434 227.347 247.332C226.736 246.646 225.948 246.225 225.017 246.152C224.698 246.128 224.378 246.113 224.058 246.092C223.395 246.05 222.732 246.011 222.069 245.97C221.679 245.936 221.307 245.998 220.959 246.162C220.595 246.258 220.278 246.443 220.007 246.713C219.854 246.898 219.698 247.083 219.545 247.267C219.331 247.577 219.207 247.912 219.17 248.279C219.092 248.52 219.082 248.767 219.134 249.014C219.131 249.399 219.227 249.761 219.422 250.101C219.784 250.72 220.335 251.258 221.047 251.466Z" fill="white"/>
<path d="M188.004 88.5609C175.108 69.7109 165.189 48.833 158.718 26.9306C155.237 15.1422 149.696 0.41055 137.411 0.0075503C125.095 -0.39805 118.228 15.6231 121.556 27.4896C121.374 19.0812 110.852 13.5951 102.974 16.5331C95.0933 19.4711 90.6058 28.2929 90.429 36.7013C90.2522 45.1097 93.575 53.1776 97.3008 60.715C95.8942 54.4334 85.2783 55.4942 82.7121 61.3988C80.1459 67.3008 83.1255 74.0998 86.6953 79.4558C91.8251 87.1544 98.2992 93.956 105.738 99.455C102.883 94.268 93.835 98.0093 93.0186 103.872C92.2022 109.735 96.2998 115.047 100.283 119.426C113.01 133.421 127.484 146.297 144.738 154.05C159.737 160.792 181.523 165.607 196.506 156.086C209.218 148.013 209.972 131.31 205.617 118.248C201.946 107.229 194.478 98.0223 188.004 88.5609Z" fill="#17B268"/>
<path d="M156.324 58.5052C153.903 54.4024 150.086 49.7016 145.474 50.8794C141.29 51.948 139.842 57.174 139.918 61.4926C139.993 65.8112 140.718 70.5614 138.222 74.087C133.724 73.9284 130.251 69.3082 125.75 69.3706C121.842 69.4252 118.774 73.294 118.491 77.1914C118.208 81.0888 120.08 84.838 122.425 87.9632C124.708 91.0052 127.529 95.2978 124.942 98.085C122.492 100.727 117.948 98.6596 114.573 99.9206C111.736 100.981 110.285 104.341 110.545 107.359C110.805 110.378 112.407 113.103 114.123 115.601C120.901 125.476 130.246 133.494 140.848 139.022C150.682 144.147 162.218 147.93 173.421 146.526C181.661 145.493 190.797 141.099 192.066 131.992C192.815 126.615 190.61 121.446 188.285 116.732C185.288 110.659 182.082 104.676 178.892 98.7012C172.449 86.6268 165.777 74.6772 158.879 62.8576C158.027 61.4042 157.176 59.9534 156.324 58.5052Z" fill="#0C6C45"/>
<path d="M171.899 115.379C171.134 113.606 170.37 111.833 169.605 110.06C169.335 109.433 168.594 108.885 167.965 108.679C167.294 108.461 166.384 108.505 165.763 108.869C165.139 109.233 164.582 109.792 164.382 110.51C164.169 111.279 164.255 111.976 164.572 112.712C165.336 114.485 166.101 116.258 166.865 118.031C167.135 118.658 167.876 119.207 168.506 119.412C169.176 119.63 170.086 119.586 170.708 119.222C171.332 118.858 171.888 118.299 172.088 117.582C172.299 116.812 172.213 116.113 171.899 115.379Z" fill="#EFEDE4"/>
<path d="M179.689 113.835C179.793 113.479 179.853 113.107 179.908 112.74C179.931 112.592 179.939 112.441 179.939 112.291C179.934 111.911 179.9 111.526 179.845 111.152C179.824 111.004 179.791 110.855 179.746 110.712C179.601 110.231 179.427 109.698 179.151 109.264C178.87 108.825 178.569 108.365 178.163 108.024C177.919 107.738 177.622 107.53 177.276 107.403C176.954 107.215 176.603 107.119 176.223 107.111C175.828 107.075 175.456 107.14 175.105 107.304C174.739 107.4 174.419 107.587 174.146 107.86C173.636 108.372 173.239 109.056 173.233 109.8C173.254 110.052 173.275 110.307 173.296 110.559C173.408 111.061 173.636 111.5 173.982 111.877C174.164 112.031 174.325 112.205 174.466 112.397C174.325 112.197 174.182 111.997 174.039 111.794C174.195 112.015 174.318 112.254 174.411 112.506C174.325 112.267 174.237 112.028 174.151 111.789C174.234 112.028 174.289 112.275 174.312 112.53C174.292 112.278 174.271 112.023 174.25 111.771C174.271 112.023 174.26 112.275 174.214 112.525C174.258 112.283 174.305 112.041 174.349 111.799C174.331 111.893 174.307 111.984 174.281 112.075C174.071 112.798 174.115 113.604 174.471 114.277C174.637 114.62 174.871 114.898 175.176 115.112C175.438 115.372 175.75 115.554 176.112 115.655C176.832 115.855 177.648 115.853 178.314 115.465C178.938 115.106 179.479 114.553 179.689 113.835Z" fill="#EFEDE4"/>
<path d="M175.282 125.648C174.728 125.656 174.177 125.661 173.623 125.669C173.228 125.635 172.856 125.698 172.505 125.862C172.138 125.96 171.818 126.145 171.545 126.418C171.259 126.662 171.054 126.959 170.924 127.305C170.737 127.627 170.641 127.978 170.633 128.358C170.654 128.61 170.674 128.865 170.695 129.117C170.807 129.619 171.036 130.058 171.382 130.435C171.569 130.591 171.753 130.747 171.938 130.903C172.359 131.171 172.819 131.319 173.319 131.35C173.872 131.342 174.424 131.337 174.977 131.329C175.373 131.363 175.744 131.301 176.095 131.137C176.462 131.038 176.782 130.854 177.055 130.581C177.341 130.336 177.549 130.04 177.676 129.694C177.863 129.372 177.96 129.021 177.967 128.641C177.947 128.389 177.926 128.134 177.905 127.882C177.793 127.38 177.564 126.941 177.219 126.564C177.034 126.408 176.847 126.252 176.662 126.096C176.241 125.825 175.781 125.677 175.282 125.648Z" fill="#EFEDE4"/>
<path d="M135.376 64.9262C129.633 52.0328 125.189 38.622 122.088 24.855C121.838 23.7448 120.109 24.1218 120.359 25.2346C123.497 39.155 128.005 52.7192 133.811 65.753C134.274 66.7904 135.839 65.9636 135.376 64.9262Z" fill="#EFEDE4"/>
<path d="M114.296 84.9171C109.317 76.7817 104.336 68.6462 99.3568 60.5108C98.7666 59.5462 97.1935 60.36 97.7915 61.335C102.771 69.4704 107.752 77.6058 112.731 85.7412C113.319 86.7058 114.892 85.8921 114.296 84.9171Z" fill="#EFEDE4"/>
<path d="M109.942 101.176C109.36 100.989 108.785 100.771 108.226 100.521C108.159 100.49 108.091 100.459 108.023 100.427C108.127 100.477 107.982 100.407 107.945 100.388C107.81 100.323 107.678 100.256 107.545 100.186C107.267 100.04 106.994 99.8866 106.723 99.7254C106.211 99.4186 105.717 99.0806 105.241 98.7192C105.122 98.6282 105.005 98.5372 104.888 98.4436C104.888 98.4436 104.677 98.2694 104.784 98.3604C104.727 98.3136 104.669 98.2642 104.615 98.2148C104.378 98.0094 104.147 97.7962 103.923 97.5778C103.593 97.2554 103.024 97.1748 102.673 97.5258C102.35 97.8508 102.267 98.4306 102.621 98.7764C104.534 100.638 106.851 102.047 109.394 102.864C109.836 103.004 110.379 102.757 110.509 102.294C110.639 101.829 110.413 101.327 109.942 101.176Z" fill="#EFEDE4"/>
<path d="M141.209 36.2008C138.237 38.871 135.265 41.5386 132.296 44.2088C131.448 44.9706 132.647 46.2732 133.494 45.5088C136.466 42.8386 139.438 40.171 142.407 37.5008C143.255 36.7416 142.056 35.4364 141.209 36.2008Z" fill="#EFEDE4"/>
<path d="M137.895 31.2619C136.795 32.3721 135.695 33.485 134.595 34.5952C134.27 34.9228 134.195 35.4974 134.543 35.8458C134.871 36.1708 135.445 36.2488 135.794 35.8978C136.894 34.7876 137.993 33.6747 139.093 32.5645C139.418 32.2369 139.494 31.6624 139.145 31.314C138.818 30.9864 138.243 30.9109 137.895 31.2619Z" fill="#EFEDE4"/>
<path d="M106.399 38.0432C105.079 39.0468 103.758 40.0478 102.437 41.0514C102.068 41.3322 102.07 41.9874 102.385 42.302C102.752 42.666 103.24 42.653 103.636 42.354C104.956 41.3504 106.277 40.3494 107.598 39.3458C107.967 39.065 107.965 38.4098 107.65 38.0952C107.283 37.7312 106.795 37.7442 106.399 38.0432Z" fill="#EFEDE4"/>
<path d="M114.656 56.4257C114.438 56.8703 114.219 57.3123 113.998 57.7569C113.931 57.8531 113.892 57.9597 113.881 58.0741C113.85 58.1885 113.85 58.3055 113.879 58.4225C113.899 58.5421 113.949 58.6487 114.027 58.7397C114.084 58.8385 114.165 58.9191 114.266 58.9789C114.464 59.0933 114.705 59.1583 114.932 59.0985C115.007 59.0725 115.08 59.0439 115.155 59.0179C115.293 58.9451 115.402 58.8437 115.488 58.7111C115.706 58.2665 115.925 57.8245 116.146 57.3799C116.213 57.2837 116.252 57.1771 116.263 57.0627C116.294 56.9483 116.294 56.8313 116.265 56.7143C116.245 56.5947 116.195 56.4881 116.117 56.3971C116.06 56.2983 115.979 56.2177 115.878 56.1579C115.68 56.0435 115.439 55.9785 115.212 56.0383C115.137 56.0643 115.064 56.0929 114.989 56.1189C114.851 56.1917 114.742 56.2957 114.656 56.4257Z" fill="#EFEDE4"/>
<path d="M93.7769 76.996C92.5783 77.7968 91.3797 78.5976 90.1811 79.3984C89.7963 79.6558 89.5519 80.1498 89.8093 80.5944C90.0303 80.974 90.5919 81.2392 91.0053 80.9662C92.2039 80.1654 93.4025 79.3646 94.6011 78.5638C94.9833 78.3064 95.2303 77.8124 94.9729 77.3678C94.7493 76.9882 94.1877 76.7204 93.7769 76.996Z" fill="#EFEDE4"/>
</svg>
