<svg width="444" height="373" viewBox="0 0 444 373" fill="none" xmlns="http://www.w3.org/2000/svg">
<path d="M290.517 41.0184C290.517 41.0184 248.475 -3.24924 231.861 0.190563C215.247 3.63296 227.766 20.5096 227.766 20.5096C227.766 20.5096 196.163 8.60417 187.716 20.5096C179.268 32.415 193.347 38.0466 193.347 38.0466C193.347 38.0466 168.32 43.712 188.342 61.9978L290.517 41.0184Z" fill="#0C6C45"/>
<path opacity="0.25" d="M162.214 192.198C156.463 163.676 179.697 144.789 206.659 144.308C226.328 143.372 240.103 145.915 276.154 158.517C333.825 175.396 340.525 174.198 331.591 192.143C330.174 193.459 388.3 222.513 374.897 219.456C374.824 219.575 393.011 221.505 385.973 234.084C378.662 246.704 375.646 246.917 375.692 246.928C375.677 246.928 378.56 246.704 374.608 257.255C370.742 268.263 335.6 267.79 335.626 267.374C335.502 267.748 368.881 272.218 360.646 281.833C355.618 290.68 282.139 316.139 196.997 244.335C174.515 224.097 165.22 205.975 162.214 192.198Z" fill="#80544B"/>
<path d="M182.576 192.377C176.191 164.531 198.574 144.677 224.92 142.704C244.121 141.017 267.861 146.656 303.549 155.673C358.781 172.188 435.296 177.453 432.961 194.491C432.98 194.038 428.905 207.491 390.922 209.23C390.683 210.015 434.974 212.415 429.782 225.028C424.067 238.751 392.573 236.949 392.721 236.598C392.594 236.98 424.504 239.726 422.049 250.245C419.387 262.678 354.093 260.138 354.361 258.659C354.252 259.028 387.014 262.091 379.331 272.025C374.815 281.12 303.656 309.281 218.095 242.193C195.485 223.239 185.881 205.824 182.576 192.377Z" fill="#17B268"/>
<path d="M100.578 196.945C100.578 196.945 -11.9966 298.234 1.05276 314.216C6.42696 320.799 23.9847 310.94 23.9847 310.94C23.9847 310.94 20.9427 320.383 27.5103 320.705C36.5817 321.15 47.4056 312.149 47.4056 312.149C47.4056 312.149 42.619 321.711 52.369 323.724C71.323 327.634 113.565 263.061 136.809 216.531L100.578 196.945Z" fill="#17B268"/>
<path d="M51.2793 309.312C56.1231 302.276 61.1203 295.357 66.1435 288.457L81.3873 267.888L96.9587 247.569C102.211 240.841 107.483 234.13 112.915 227.539C108.074 234.577 103.074 241.493 98.0533 248.394L82.8069 268.96L67.2329 289.279C61.9835 296.007 56.7081 302.718 51.2793 309.312Z" fill="#222221"/>
<path d="M27.3965 307.668C32.5419 300.864 37.8407 294.187 43.1603 287.526L59.2881 267.685L75.7331 248.107C81.2737 241.628 86.8351 235.17 92.5499 228.836C87.4045 235.64 82.1083 242.32 76.7887 248.981L60.6583 268.819L44.2107 288.394C38.6727 294.873 33.1087 301.332 27.3965 307.668Z" fill="#222221"/>
<path d="M313.18 62.1621C302.825 46.6141 288.077 34.7893 264.456 32.1295C264.456 32.1295 201.812 22.8864 174.704 71.2126C140.795 131.668 56.771 208.025 74.4276 248.018C109.585 308.972 235.448 317.877 282.638 249.627C302.838 224.217 312.738 160.593 316.451 152.392C330.538 100.353 326.115 81.5789 313.18 62.1621ZM252.47 128.207C252.483 128.179 252.483 128.179 252.494 128.155C252.489 128.171 252.481 128.189 252.47 128.207Z" fill="#009850"/>
<mask id="mask0_3699_2718" style="mask-type:luminance" maskUnits="userSpaceOnUse" x="74" y="31" width="252" height="267">
<path d="M313.182 62.1541C302.827 46.6061 288.079 34.7813 264.458 32.1215C264.458 32.1215 202.75 23.3126 174.706 71.2046C140.035 129.567 89.3563 231.757 74.4297 248.01C109.587 308.964 235.45 317.869 282.64 249.619C302.84 224.209 312.74 160.585 316.453 152.384C330.54 100.345 326.117 81.5709 313.182 62.1541ZM252.472 128.199C252.485 128.171 252.485 128.171 252.496 128.147C252.491 128.163 252.483 128.181 252.472 128.199Z" fill="white"/>
</mask>
<g mask="url(#mask0_3699_2718)">
<path d="M264.479 169.891C239.061 171.451 145.082 178.996 105.965 288.895C156.784 332.554 286.657 317.649 319.063 256.003C261.752 247.053 258.19 203.36 264.479 169.891Z" fill="#009850"/>
</g>
<mask id="mask1_3699_2718" style="mask-type:luminance" maskUnits="userSpaceOnUse" x="74" y="31" width="252" height="267">
<path d="M313.182 62.1541C302.827 46.6061 288.079 34.7813 264.458 32.1215C264.458 32.1215 202.75 23.3126 174.706 71.2046C140.035 129.567 89.3563 231.757 74.4297 248.01C109.587 308.964 235.45 317.869 282.64 249.619C302.84 224.209 312.74 160.585 316.453 152.384C330.54 100.345 326.117 81.5709 313.182 62.1541ZM252.472 128.199C252.485 128.171 252.485 128.171 252.496 128.147C252.491 128.163 252.483 128.181 252.472 128.199Z" fill="white"/>
</mask>
<g mask="url(#mask1_3699_2718)">
<path d="M338.877 127.747C336.436 102.098 328.657 76.6935 312.461 59.1591C288.632 56.9647 246.486 57.5289 232.155 86.1185C215.494 119.36 255.305 133.972 255.305 133.972C255.305 133.972 175.4 227.605 316.782 242.272C324.148 227.717 329.419 212.302 333.521 197.165C338.503 178.772 341.295 153.149 338.877 127.747Z" fill="#EFEDE4"/>
</g>
<mask id="mask2_3699_2718" style="mask-type:luminance" maskUnits="userSpaceOnUse" x="74" y="31" width="252" height="267">
<path d="M313.182 62.1541C302.827 46.6061 288.079 34.7813 264.458 32.1215C264.458 32.1215 202.75 23.3126 174.706 71.2046C140.035 129.567 89.3563 231.757 74.4297 248.01C109.587 308.964 235.45 317.869 282.64 249.619C302.84 224.209 312.74 160.585 316.453 152.384C330.54 100.345 326.117 81.5709 313.182 62.1541ZM252.472 128.199C252.485 128.171 252.485 128.171 252.496 128.147C252.491 128.163 252.483 128.181 252.472 128.199Z" fill="white"/>
</mask>
<g mask="url(#mask2_3699_2718)">
<path d="M289.442 164.012C289.78 164.906 290.142 165.795 290.459 166.698C290.698 167.374 290.62 168.138 290.615 168.845C290.607 169.807 290.708 170.863 290.225 171.723C289.694 172.67 288.792 173.315 287.69 173.38C286.668 173.439 285.459 172.922 284.955 171.986C287.107 172.948 287.77 173.395 286.946 173.325C286.933 173.325 286.918 173.322 286.905 173.322C286.057 173.138 285.365 172.639 284.913 171.905C284.487 171.216 284.427 170.52 284.432 169.753C284.437 169.183 284.44 168.616 284.445 168.047C284.445 167.992 284.445 167.938 284.445 167.881C284.414 167.324 284.526 166.796 284.778 166.297C284.825 166.175 284.874 166.053 284.923 165.928C285.02 165.684 285.116 165.437 285.215 165.192C285.407 164.701 285.602 164.212 285.794 163.721C285.909 163.427 286.229 163.12 286.489 162.953C286.853 162.719 287.274 162.631 287.7 162.662C288.517 162.725 289.156 163.255 289.442 164.012Z" fill="#41A47B"/>
</g>
<mask id="mask3_3699_2718" style="mask-type:luminance" maskUnits="userSpaceOnUse" x="74" y="31" width="252" height="267">
<path d="M313.182 62.1541C302.827 46.6061 288.079 34.7813 264.458 32.1215C264.458 32.1215 202.75 23.3126 174.706 71.2046C140.035 129.567 89.3563 231.757 74.4297 248.01C109.587 308.964 235.45 317.869 282.64 249.619C302.84 224.209 312.74 160.585 316.453 152.384C330.54 100.345 326.117 81.5709 313.182 62.1541ZM252.472 128.199C252.485 128.171 252.485 128.171 252.496 128.147C252.491 128.163 252.483 128.181 252.472 128.199Z" fill="white"/>
</mask>
<g mask="url(#mask3_3699_2718)">
<path d="M295.462 180.487C295.701 181.243 295.847 182.021 295.982 182.801C296.075 183.344 296.13 183.895 296.14 184.446C296.146 184.714 296.143 184.982 296.13 185.25C296.112 185.64 296.13 186.048 296.049 186.425C295.987 186.716 295.88 187.093 295.745 187.361C295.602 187.642 295.36 187.93 295.173 188.185C294.788 188.708 294.352 189.21 293.821 189.587C292.807 190.304 291.018 189.99 290.426 188.846C290.108 188.235 289.919 187.574 289.627 186.95C289.747 187.205 289.867 187.457 289.989 187.712C289.726 187.158 289.443 186.68 289.435 186.035C289.43 185.692 289.484 185.336 289.51 184.992C289.49 185.281 289.469 185.57 289.448 185.856C289.51 184.901 289.456 183.947 289.282 183.009C289.334 183.289 289.388 183.568 289.44 183.848C289.354 183.409 289.245 182.977 289.11 182.548C288.85 181.727 288.918 180.767 289.31 179.998C289.682 179.267 290.452 178.56 291.255 178.336C292.087 178.105 293.031 178.097 293.806 178.537C294.567 178.979 295.189 179.626 295.462 180.487Z" fill="#41A47B"/>
</g>
<mask id="mask4_3699_2718" style="mask-type:luminance" maskUnits="userSpaceOnUse" x="74" y="31" width="252" height="267">
<path d="M313.182 62.1541C302.827 46.6061 288.079 34.7813 264.458 32.1215C264.458 32.1215 202.75 23.3126 174.706 71.2046C140.035 129.567 89.3563 231.757 74.4297 248.01C109.587 308.964 235.45 317.869 282.64 249.619C302.84 224.209 312.74 160.585 316.453 152.384C330.54 100.345 326.117 81.5709 313.182 62.1541ZM252.472 128.199C252.485 128.171 252.485 128.171 252.496 128.147C252.491 128.163 252.483 128.181 252.472 128.199Z" fill="white"/>
</mask>
<g mask="url(#mask4_3699_2718)">
<path d="M288.459 200.422C288.301 201.215 288.142 202.008 287.984 202.801C287.908 203.183 287.841 203.568 287.755 203.947C287.583 204.714 287.016 205.338 286.569 205.97C286.421 206.095 286.275 206.217 286.127 206.342C285.956 206.423 285.784 206.503 285.612 206.586C285.144 206.74 284.653 206.714 284.195 206.553C283.345 206.254 282.778 205.497 282.7 204.597C282.682 204.4 282.667 204.2 282.648 204.002C282.641 203.916 282.633 203.833 282.628 203.747C282.607 203.482 282.602 203.162 282.661 202.905C282.755 202.515 282.932 202.127 283.064 201.748C283.327 200.991 283.59 200.235 283.852 199.478C283.907 199.156 284.037 198.87 284.24 198.623C284.396 198.35 284.609 198.134 284.884 197.97C285.36 197.666 286.07 197.505 286.626 197.645C287.224 197.796 287.815 198.129 288.134 198.677C288.444 199.21 288.584 199.808 288.459 200.422Z" fill="#41A47B"/>
</g>
<mask id="mask5_3699_2718" style="mask-type:luminance" maskUnits="userSpaceOnUse" x="74" y="31" width="252" height="267">
<path d="M313.182 62.1541C302.827 46.6061 288.079 34.7813 264.458 32.1215C264.458 32.1215 202.75 23.3126 174.706 71.2046C140.035 129.567 89.3563 231.757 74.4297 248.01C109.587 308.964 235.45 317.869 282.64 249.619C302.84 224.209 312.74 160.585 316.453 152.384C330.54 100.345 326.117 81.5709 313.182 62.1541ZM252.472 128.199C252.485 128.171 252.485 128.171 252.496 128.147C252.491 128.163 252.483 128.181 252.472 128.199Z" fill="white"/>
</mask>
<g mask="url(#mask5_3699_2718)">
<path d="M280.137 181.504C279.729 182.329 279.318 183.155 278.91 183.98C278.678 184.448 278.078 184.762 277.558 184.63C277.342 184.575 277.142 184.474 276.97 184.331C276.718 184.12 276.614 183.798 276.57 183.488C276.435 182.55 276.297 181.608 276.162 180.67C276.141 180.29 276.216 179.931 276.388 179.593C276.562 179.255 276.806 178.985 277.126 178.777C277.599 178.501 278.138 178.374 278.686 178.486C279.222 178.595 279.739 178.951 280.036 179.411C280.439 180.041 280.467 180.839 280.137 181.504Z" fill="#41A47B"/>
</g>
<mask id="mask6_3699_2718" style="mask-type:luminance" maskUnits="userSpaceOnUse" x="74" y="31" width="252" height="267">
<path d="M313.182 62.1541C302.827 46.6061 288.079 34.7813 264.458 32.1215C264.458 32.1215 202.75 23.3126 174.706 71.2046C140.035 129.567 89.3563 231.757 74.4297 248.01C109.587 308.964 235.45 317.869 282.64 249.619C302.84 224.209 312.74 160.585 316.453 152.384C330.54 100.345 326.117 81.5709 313.182 62.1541ZM252.472 128.199C252.485 128.171 252.485 128.171 252.496 128.147C252.491 128.163 252.483 128.181 252.472 128.199Z" fill="white"/>
</mask>
<g mask="url(#mask6_3699_2718)">
<path d="M265.259 212.448C262.703 211.148 264.723 207.175 267.281 208.478C269.837 209.778 267.817 213.75 265.259 212.448Z" fill="#41A47B"/>
</g>
<path opacity="0.25" d="M172.013 153.741C188.63 132.813 215.647 137.935 231.954 156.577C244.26 169.829 250.632 181.004 263.136 213.777C285.441 264.256 290.251 268.252 272.363 272.607C270.6 272.394 284.627 330.403 278.837 319.184C278.71 319.205 288.127 333.112 275.129 335.621C261.94 337.964 260.005 335.972 260.023 336.011C260.016 336.001 261.877 337.891 252.132 341.364C242.115 345.168 221.637 320.221 221.944 319.992C221.608 320.128 238.238 346.206 226.611 346.12C217.422 347.831 156.034 311.329 156.016 209.035C156.907 181.267 164.122 164.011 172.013 153.741Z" fill="#80544B"/>
<path d="M175.476 151.793C192.641 128.957 222.25 133.26 240.749 152.126C254.42 165.714 265.418 187.494 281.54 220.587C304.532 273.452 349.848 335.327 335.321 344.531C335.678 344.253 322.769 349.812 296.945 321.903C296.191 322.226 322.917 357.627 309.93 361.79C295.757 366.272 276.827 341.037 277.188 340.925C276.814 341.073 295.292 367.234 285.669 372.143C274.45 378.126 234.288 326.581 235.591 325.834C235.237 325.988 254.025 353.004 241.477 353.537C231.613 355.95 164.205 319.719 160.308 211.063C160.209 181.563 167.328 162.991 175.476 151.793Z" fill="#17B268"/>
<path d="M189.684 309.777C189.684 309.777 251.02 301.818 290.519 238.672" stroke="#FFF4EB" stroke-width="1.7888" stroke-miterlimit="10" stroke-linecap="round"/>
<path d="M240.049 332.507C240.049 332.507 208.987 290.982 202.445 270.258" stroke="#FFF4EB" stroke-width="1.7888" stroke-miterlimit="10" stroke-linecap="round"/>
<path d="M277.186 340.917C277.186 340.917 253.953 292.17 237.006 266.555" stroke="#FFF4EB" stroke-width="1.7888" stroke-miterlimit="10" stroke-linecap="round"/>
<path d="M296.943 321.903C296.943 321.903 262.915 259.987 257.096 250.125" stroke="#FFF4EB" stroke-width="1.7888" stroke-miterlimit="10" stroke-linecap="round"/>
<path d="M185.333 284.213C188.992 281.953 192.65 279.696 196.308 277.437C197.351 276.792 196.332 275.183 195.286 275.83C191.628 278.09 187.97 280.347 184.312 282.606C183.269 283.248 184.288 284.86 185.333 284.213Z" fill="#EFEDE4"/>
<path d="M187.899 290.064C189.277 289.097 190.655 288.133 192.033 287.165C192.441 286.879 192.631 286.287 192.327 285.85C192.043 285.442 191.448 285.252 191.011 285.556C189.633 286.523 188.255 287.488 186.877 288.455C186.469 288.741 186.279 289.334 186.583 289.771C186.869 290.179 187.462 290.371 187.899 290.064Z" fill="#EFEDE4"/>
<path d="M222.559 288.929C224.15 288.12 225.741 287.312 227.333 286.501C227.777 286.274 227.902 285.58 227.626 285.185C227.309 284.73 226.789 284.649 226.311 284.891C224.72 285.7 223.128 286.508 221.537 287.32C221.093 287.546 220.968 288.24 221.243 288.635C221.563 289.093 222.081 289.173 222.559 288.929Z" fill="#EFEDE4"/>
<path d="M217.329 267.862C217.646 267.436 217.963 267.007 218.28 266.581C218.369 266.492 218.431 266.386 218.465 266.266C218.519 266.152 218.543 266.027 218.532 265.897C218.532 265.767 218.501 265.645 218.436 265.533C218.395 265.416 218.324 265.317 218.228 265.234C218.041 265.075 217.799 264.958 217.544 264.979C217.461 264.995 217.375 265.008 217.292 265.023C217.134 265.075 216.996 265.161 216.881 265.283C216.564 265.712 216.247 266.139 215.932 266.565C215.841 266.656 215.782 266.76 215.748 266.88C215.693 266.994 215.67 267.119 215.68 267.249C215.68 267.381 215.711 267.501 215.776 267.613C215.818 267.73 215.888 267.829 215.984 267.912C216.172 268.07 216.413 268.187 216.668 268.167C216.751 268.151 216.837 268.138 216.92 268.122C217.079 268.073 217.214 267.985 217.329 267.862Z" fill="#EFEDE4"/>
<path d="M247.369 264.158C248.791 263.539 250.214 262.918 251.636 262.299C252.091 262.102 252.447 261.623 252.257 261.103C252.096 260.659 251.55 260.269 251.061 260.482C249.639 261.101 248.217 261.722 246.795 262.341C246.34 262.538 245.983 263.017 246.173 263.537C246.337 263.979 246.88 264.371 247.369 264.158Z" fill="#EFEDE4"/>
<path d="M278.266 232.9C279.688 232.281 281.11 231.663 282.532 231.041C282.987 230.844 283.343 230.365 283.154 229.845C282.992 229.403 282.447 229.011 281.958 229.224C280.536 229.843 279.113 230.461 277.691 231.083C277.236 231.28 276.88 231.759 277.07 232.279C277.234 232.723 277.777 233.113 278.266 232.9Z" fill="#EFEDE4"/>
<path d="M220.803 183.417C222.183 185.034 223.564 186.654 224.945 188.271C225.431 188.843 225.615 189.844 225.511 190.564C225.4 191.334 224.913 192.21 224.253 192.647C223.59 193.086 222.766 193.364 221.96 193.214C221.097 193.05 220.447 192.626 219.877 191.955C218.497 190.338 217.116 188.718 215.735 187.101C215.249 186.529 215.065 185.528 215.169 184.808C215.28 184.038 215.767 183.16 216.427 182.725C217.093 182.286 217.914 182.008 218.72 182.159C219.583 182.322 220.231 182.746 220.803 183.417Z" fill="#EFEDE4"/>
<path d="M226.105 176.469C226.508 176.539 226.906 176.664 227.293 176.786C227.452 176.835 227.605 176.9 227.751 176.976C228.123 177.165 228.487 177.384 228.83 177.62C228.968 177.714 229.095 177.818 229.217 177.932C229.623 178.312 230.062 178.741 230.359 179.227C230.658 179.719 230.965 180.241 231.102 180.805C231.266 181.188 231.326 181.58 231.287 181.983C231.316 182.391 231.24 182.787 231.061 183.166C230.902 183.572 230.658 183.91 230.325 184.178C230.049 184.492 229.711 184.718 229.308 184.856C228.554 185.111 227.686 185.171 226.948 184.815C226.708 184.672 226.467 184.526 226.227 184.383C225.785 184.029 225.463 183.59 225.258 183.062C225.195 182.807 225.102 182.566 224.979 182.332C225.109 182.568 225.237 182.807 225.367 183.044C225.224 182.784 225.047 182.545 224.842 182.329C225.034 182.532 225.229 182.735 225.424 182.935C225.226 182.735 225.011 182.563 224.771 182.415C225.011 182.558 225.252 182.703 225.492 182.846C225.25 182.703 224.998 182.592 224.727 182.514C224.987 182.586 225.25 182.659 225.51 182.735C225.408 182.706 225.307 182.685 225.203 182.667C224.387 182.524 223.612 182.087 223.12 181.409C222.863 181.078 222.702 180.712 222.637 180.306C222.507 179.921 222.481 179.524 222.554 179.115C222.707 178.307 223.105 177.498 223.812 177.033C224.483 176.591 225.294 176.326 226.105 176.469Z" fill="#EFEDE4"/>
<path d="M212.285 175.077C212.009 175.621 211.733 176.164 211.458 176.705C211.299 177.111 211.055 177.449 210.722 177.716C210.446 178.031 210.108 178.257 209.705 178.395C209.323 178.559 208.931 178.619 208.528 178.58C208.119 178.608 207.724 178.533 207.345 178.353C207.105 178.21 206.864 178.065 206.624 177.922C206.182 177.568 205.86 177.129 205.655 176.601C205.592 176.341 205.527 176.084 205.465 175.824C205.405 175.275 205.483 174.747 205.696 174.24C205.972 173.697 206.247 173.153 206.523 172.613C206.682 172.207 206.926 171.869 207.259 171.601C207.534 171.287 207.872 171.06 208.275 170.923C208.658 170.759 209.05 170.699 209.453 170.738C209.861 170.709 210.257 170.785 210.636 170.964C210.875 171.107 211.117 171.253 211.356 171.396C211.798 171.749 212.121 172.189 212.326 172.717C212.389 172.977 212.454 173.237 212.516 173.494C212.578 174.043 212.5 174.57 212.285 175.077Z" fill="#EFEDE4"/>
<path d="M278.848 95.9442C276.966 101.753 280.146 107.987 285.954 109.87C291.763 111.755 297.997 108.572 299.882 102.767C301.765 96.9582 298.585 90.7234 292.777 88.8384C286.968 86.956 280.733 90.1384 278.848 95.9442Z" fill="#222221"/>
<path d="M294.743 94.7467C295.026 96.2859 294.004 97.7653 292.465 98.0461C290.926 98.3295 289.446 97.3077 289.166 95.7685C288.885 94.2293 289.904 92.7526 291.443 92.4692C292.985 92.1858 294.462 93.2049 294.743 94.7467Z" fill="white"/>
<path d="M97.9035 226.259C98.3897 225.687 98.8759 225.115 99.3621 224.54C99.7105 224.132 100.082 223.732 100.371 223.277C100.602 222.913 100.769 222.497 100.959 222.107C101.315 221.376 101.673 220.643 102.03 219.912C102.253 219.452 102.48 219.002 102.662 218.521C102.854 218.014 102.95 217.484 103.07 216.954C103.384 215.544 102.622 214.117 101.278 213.607C99.9939 213.119 98.3429 213.61 97.7137 214.915C97.5369 215.282 97.3497 215.643 97.1833 216.015C96.9233 216.595 96.8063 217.167 96.6711 217.778C96.4891 218.607 96.3071 219.437 96.1277 220.266C96.0393 220.666 95.9405 221.067 95.8729 221.47C95.7819 222.018 95.8079 222.538 95.8287 223.084C95.8573 223.883 95.8859 224.683 95.9145 225.482C95.9457 226.436 97.2327 227.044 97.9035 226.259Z" fill="#EFEDE4"/>
<path d="M112.635 213.183C112.848 212.598 113.061 212.011 113.275 211.426C113.379 211.142 113.48 210.862 113.584 210.578C113.758 210.1 113.709 209.533 113.537 209.062C113.488 208.927 113.438 208.792 113.391 208.657C113.29 208.306 113.108 208.004 112.845 207.752C112.65 207.552 112.424 207.414 112.162 207.339C111.925 207.224 111.67 207.175 111.403 207.19C111.046 207.201 110.716 207.294 110.409 207.476C110.305 207.552 110.201 207.627 110.1 207.703C110.061 207.731 110.022 207.757 109.983 207.786C109.598 208.02 109.299 208.332 109.083 208.727C108.998 208.943 108.914 209.161 108.834 209.38C108.75 209.679 108.68 209.98 108.605 210.279C108.449 210.89 108.296 211.501 108.14 212.11C107.997 212.669 108.111 213.342 108.405 213.831C108.561 214.112 108.774 214.335 109.042 214.496C109.273 214.699 109.543 214.832 109.853 214.892C110.43 215.003 111.072 214.959 111.574 214.626C111.735 214.496 111.896 214.369 112.058 214.239C112.346 213.943 112.539 213.589 112.635 213.183Z" fill="#EFEDE4"/>
<path d="M111.685 198.398C111.633 197.842 111.579 197.283 111.527 196.726C111.501 196.453 111.475 196.18 111.449 195.905C111.436 195.762 111.423 195.621 111.407 195.478C111.402 195.418 111.396 195.356 111.389 195.296C111.344 194.862 111.292 194.584 111.074 194.196C110.939 193.955 110.757 193.762 110.525 193.622C110.325 193.448 110.094 193.333 109.826 193.281C109.657 193.263 109.488 193.245 109.319 193.227C108.968 193.234 108.643 193.331 108.341 193.507C107.959 193.697 107.697 194.079 107.429 194.402C107.27 194.594 107.109 194.787 106.95 194.976C106.62 195.374 106.288 195.772 105.957 196.172C105.544 196.607 105.268 197.116 105.128 197.699C104.995 198.263 105.008 198.824 105.164 199.383C105.331 199.958 105.63 200.455 106.064 200.871C106.384 201.198 106.758 201.424 107.187 201.549C107.577 201.736 107.993 201.817 108.435 201.791C109.02 201.775 109.563 201.619 110.065 201.32C110.588 201.003 110.993 200.579 111.287 200.044C111.565 199.532 111.698 198.983 111.685 198.398Z" fill="#EFEDE4"/>
<path d="M128.154 196.435C128.492 195.967 128.832 195.497 129.17 195.029C129.334 194.803 129.5 194.579 129.659 194.353C129.976 193.898 130.075 193.263 129.994 192.72C129.976 192.593 129.955 192.465 129.937 192.338C129.927 191.932 129.818 191.553 129.61 191.204C129.454 190.921 129.243 190.7 128.973 190.536C128.741 190.333 128.471 190.201 128.161 190.141C127.769 190.05 127.379 190.058 126.989 190.167C126.89 190.206 126.791 190.247 126.692 190.286C126.542 190.349 126.393 190.411 126.243 190.479C126.115 190.528 125.993 190.583 125.871 190.643C125.439 190.905 125.104 191.256 124.862 191.698C124.74 191.958 124.633 192.229 124.521 192.491C124.29 193.029 124.059 193.568 123.825 194.106C123.658 194.389 123.572 194.691 123.565 195.013C123.505 195.325 123.526 195.637 123.624 195.947C123.705 196.272 123.858 196.552 124.082 196.789C124.267 197.067 124.514 197.283 124.82 197.434C125.382 197.707 126.053 197.837 126.661 197.631C126.856 197.548 127.051 197.462 127.246 197.379C127.636 197.145 127.935 196.831 128.154 196.435Z" fill="#EFEDE4"/>
<path d="M220.967 64.1052C221.18 63.5202 221.393 62.9326 221.607 62.3476C221.711 62.0642 221.812 61.7833 221.916 61.4999C222.09 61.0215 222.038 60.4548 221.869 59.9842C221.82 59.849 221.77 59.7138 221.724 59.5786C221.622 59.2276 221.44 58.926 221.178 58.6738C220.983 58.4736 220.756 58.3357 220.494 58.2603C220.257 58.1459 220.002 58.0966 219.735 58.1122C219.378 58.1226 219.048 58.2161 218.741 58.3981C218.637 58.4735 218.533 58.549 218.432 58.6244C218.393 58.653 218.354 58.679 218.315 58.7076C217.93 58.9416 217.631 59.2536 217.415 59.6488C217.33 59.8646 217.246 60.0829 217.166 60.3013C217.083 60.6003 217.012 60.902 216.937 61.201C216.781 61.812 216.628 62.423 216.472 63.0314C216.329 63.5904 216.443 64.2637 216.737 64.7525C216.893 65.0333 217.106 65.257 217.374 65.4182C217.605 65.621 217.876 65.7536 218.185 65.8134C218.762 65.9252 219.402 65.8809 219.906 65.5481C220.067 65.4181 220.229 65.2908 220.39 65.1608C220.678 64.8618 220.871 64.5082 220.967 64.1052Z" fill="#EFEDE4"/>
<path d="M220.018 49.3251C219.966 48.7687 219.912 48.2097 219.86 47.6533C219.834 47.3803 219.808 47.1072 219.782 46.8316C219.769 46.6886 219.756 46.5482 219.74 46.4052C219.735 46.3454 219.73 46.2831 219.722 46.2233C219.678 45.7891 219.626 45.5109 219.407 45.1261C219.272 44.8843 219.09 44.6919 218.859 44.5515C218.658 44.3773 218.427 44.2628 218.159 44.2108C217.99 44.1926 217.821 44.1744 217.652 44.1562C217.301 44.1667 216.976 44.2577 216.675 44.4371C216.292 44.6269 216.03 45.009 215.765 45.3314C215.606 45.5238 215.445 45.7163 215.286 45.9061C214.956 46.3039 214.623 46.7016 214.293 47.102C213.88 47.5362 213.604 48.0459 213.464 48.6283C213.331 49.1925 213.344 49.7541 213.503 50.3131C213.669 50.8877 213.968 51.3843 214.402 51.8003C214.719 52.1279 215.094 52.354 215.525 52.4788C215.915 52.666 216.331 52.7467 216.773 52.7207C217.358 52.7051 217.902 52.5491 218.404 52.2527C218.926 51.9355 219.332 51.5117 219.626 50.9761C219.896 50.4613 220.029 49.9101 220.018 49.3251Z" fill="#EFEDE4"/>
<path d="M236.483 47.3624C236.821 46.8944 237.162 46.4238 237.5 45.9558C237.663 45.7296 237.83 45.506 237.988 45.2798C238.306 44.8248 238.404 44.1904 238.324 43.647C238.306 43.5196 238.285 43.3922 238.267 43.2648C238.256 42.8592 238.147 42.4796 237.942 42.1312C237.786 41.8504 237.572 41.6269 237.305 41.4657C237.073 41.2629 236.803 41.1302 236.493 41.0704C236.101 40.9794 235.708 40.9872 235.321 41.0964C235.222 41.138 235.123 41.177 235.024 41.216C234.874 41.2784 234.725 41.3435 234.575 41.4085C234.447 41.4579 234.325 41.5124 234.203 41.5722C233.771 41.8322 233.436 42.1858 233.194 42.6278C233.072 42.8878 232.965 43.1582 232.854 43.4208C232.622 43.959 232.391 44.4972 232.157 45.0354C231.99 45.3188 231.904 45.6204 231.897 45.9428C231.837 46.2548 231.858 46.5669 231.957 46.8763C232.037 47.2013 232.188 47.4821 232.414 47.7187C232.599 47.9969 232.846 48.2126 233.152 48.3634C233.714 48.6338 234.382 48.7664 234.993 48.561C235.188 48.4752 235.383 48.392 235.578 48.3088C235.966 48.0722 236.265 47.7576 236.483 47.3624Z" fill="#EFEDE4"/>
<path d="M317.409 101.53C317.409 101.53 306.738 79.994 346.419 69.75C346.419 69.75 330.058 116.1 317.409 101.53Z" fill="#222221"/>
<path d="M320.014 103.612C320.014 103.612 338.12 112.759 357.865 100.214L333.937 97.2734L320.014 103.612Z" fill="#222221"/>
</svg>
