<svg width="385" height="331" viewBox="0 0 385 331" fill="none" xmlns="http://www.w3.org/2000/svg">
<path d="M257.765 36.3926C257.765 36.3926 220.463 -2.8856 205.724 0.169399C190.984 3.2218 202.091 18.1978 202.091 18.1978C202.091 18.1978 174.053 7.63397 166.557 18.1978C159.061 28.7616 171.554 33.7588 171.554 33.7588C171.554 33.7588 149.348 38.7872 167.114 55.0086L257.765 36.3926Z" fill="#0C6C45"/>
<path opacity="0.25" d="M143.926 170.515C138.822 145.207 159.437 128.452 183.36 128.023C200.811 127.191 213.034 129.448 245.021 140.631C296.189 155.607 302.136 154.546 294.208 170.466C292.952 171.633 344.523 197.415 332.634 194.7C332.569 194.807 348.704 196.518 342.462 207.679C335.975 218.878 333.299 219.067 333.341 219.075C333.328 219.075 335.884 218.878 332.379 228.238C328.947 238.006 297.768 237.585 297.791 237.215C297.682 237.548 327.296 241.513 319.99 250.044C315.528 257.893 250.333 280.485 174.79 216.774C154.84 198.816 146.593 182.74 143.926 170.515Z" fill="#80544B"/>
<path d="M161.993 170.683C156.328 145.978 176.187 128.361 199.566 126.608C216.601 125.111 237.666 130.113 269.332 138.113C318.336 152.767 386.225 157.439 384.155 172.555C384.171 172.155 380.557 184.089 346.856 185.633C346.643 186.33 385.942 188.46 381.334 199.65C376.264 211.826 348.322 210.227 348.452 209.915C348.34 210.253 376.652 212.689 374.473 222.023C372.11 233.055 314.176 230.801 314.416 229.488C314.317 229.815 343.387 232.532 336.57 241.346C332.564 249.417 269.425 274.4 193.51 214.876C173.449 198.067 164.926 182.615 161.993 170.683Z" fill="#17B268"/>
<path d="M89.2382 174.75C89.2382 174.75 -10.646 264.619 0.934401 278.802C5.7028 284.644 21.282 275.895 21.282 275.895C21.282 275.895 18.5832 284.275 24.4098 284.561C32.4568 284.956 42.0612 276.969 42.0612 276.969C42.0612 276.969 37.8154 285.455 46.463 287.239C63.2798 290.707 100.761 233.414 121.382 192.128L89.2382 174.75Z" fill="#17B268"/>
<path d="M45.4941 274.436C49.7919 268.193 54.2275 262.055 58.6839 255.934L72.2091 237.685L86.0255 219.656C90.6847 213.687 95.3621 207.733 100.183 201.883C95.8873 208.125 91.4517 214.264 86.9953 220.387L73.4675 238.634L59.6485 256.662C54.9919 262.632 50.3119 268.586 45.4941 274.436Z" fill="#222221"/>
<path d="M24.3086 272.995C28.8742 266.958 33.575 261.032 38.294 255.122L52.6044 237.518L67.1956 220.147C72.1122 214.398 77.047 208.668 82.117 203.047C77.5514 209.084 72.8532 215.01 68.1342 220.919L53.8212 238.521L39.2274 255.889C34.3108 261.643 29.376 267.374 24.3086 272.995Z" fill="#222221"/>
<path d="M277.875 55.1657C268.687 41.3701 255.604 30.8791 234.645 28.5183C234.645 28.5183 179.062 20.3179 155.012 63.1971C124.925 116.838 50.3754 184.586 66.0404 220.071C97.2352 274.153 208.908 282.055 250.778 221.498C268.7 198.954 277.483 142.5 280.78 135.225C293.275 89.0515 289.352 72.3933 277.875 55.1657ZM224.009 113.764C224.022 113.738 224.022 113.738 224.029 113.72C224.024 113.733 224.016 113.749 224.009 113.764Z" fill="#009850"/>
<mask id="mask0_3701_3552" style="mask-type:luminance" maskUnits="userSpaceOnUse" x="66" y="27" width="223" height="237">
<path d="M277.876 55.1657C268.688 41.3701 255.604 30.8791 234.646 28.5183C234.646 28.5183 179.892 20.7027 155.013 63.1971C124.252 114.981 79.2828 205.648 66.041 220.071C97.2358 274.153 208.908 282.055 250.779 221.498C268.701 198.954 277.483 142.5 280.78 135.225C293.276 89.0515 289.352 72.3933 277.876 55.1657ZM224.009 113.764C224.022 113.738 224.022 113.739 224.03 113.72C224.025 113.733 224.017 113.749 224.009 113.764Z" fill="white"/>
</mask>
<g mask="url(#mask0_3701_3552)">
<path d="M234.66 150.758C212.108 152.141 128.723 158.836 94.0156 256.346C139.107 295.084 254.337 281.86 283.09 227.161C232.242 219.221 229.08 180.455 234.66 150.758Z" fill="#009850"/>
</g>
<mask id="mask1_3701_3552" style="mask-type:luminance" maskUnits="userSpaceOnUse" x="66" y="27" width="223" height="237">
<path d="M277.876 55.1657C268.688 41.3701 255.604 30.8791 234.646 28.5183C234.646 28.5183 179.892 20.7027 155.013 63.1971C124.252 114.981 79.2828 205.648 66.041 220.071C97.2358 274.153 208.908 282.055 250.779 221.498C268.701 198.954 277.483 142.5 280.78 135.225C293.276 89.0515 289.352 72.3933 277.876 55.1657ZM224.009 113.764C224.022 113.738 224.022 113.739 224.03 113.72C224.025 113.733 224.017 113.749 224.009 113.764Z" fill="white"/>
</mask>
<g mask="url(#mask1_3701_3552)">
<path d="M300.671 113.348C298.506 90.5933 291.603 68.0513 277.232 52.4929C256.089 50.5455 218.693 51.0447 205.979 76.4129C191.196 105.907 226.519 118.871 226.519 118.871C226.519 118.871 155.623 201.949 281.067 214.962C287.601 202.047 292.279 188.371 295.919 174.94C300.341 158.622 302.816 135.888 300.671 113.348Z" fill="#EFEDE4"/>
</g>
<mask id="mask2_3701_3552" style="mask-type:luminance" maskUnits="userSpaceOnUse" x="66" y="27" width="223" height="237">
<path d="M277.876 55.1657C268.688 41.3701 255.604 30.8791 234.646 28.5183C234.646 28.5183 179.892 20.7027 155.013 63.1971C124.252 114.981 79.2828 205.648 66.041 220.071C97.2358 274.153 208.908 282.055 250.779 221.498C268.701 198.954 277.483 142.5 280.78 135.225C293.276 89.0515 289.352 72.3933 277.876 55.1657ZM224.009 113.764C224.022 113.738 224.022 113.739 224.03 113.72C224.025 113.733 224.017 113.749 224.009 113.764Z" fill="white"/>
</mask>
<g mask="url(#mask2_3701_3552)">
<path d="M256.808 145.547C257.109 146.34 257.429 147.13 257.71 147.931C257.92 148.532 257.853 149.208 257.848 149.834C257.84 150.687 257.931 151.623 257.502 152.388C257.031 153.227 256.23 153.8 255.253 153.857C254.345 153.909 253.274 153.451 252.827 152.622C254.735 153.477 255.326 153.872 254.595 153.81C254.582 153.81 254.569 153.807 254.556 153.807C253.805 153.643 253.191 153.201 252.788 152.549C252.408 151.938 252.356 151.319 252.362 150.638C252.364 150.133 252.369 149.629 252.372 149.125C252.372 149.075 252.372 149.026 252.372 148.979C252.346 148.485 252.445 148.017 252.668 147.575C252.71 147.466 252.754 147.357 252.796 147.247C252.882 147.029 252.967 146.813 253.053 146.595C253.225 146.161 253.396 145.724 253.568 145.29C253.669 145.03 253.953 144.757 254.184 144.608C254.507 144.403 254.881 144.322 255.258 144.348C255.986 144.403 256.553 144.874 256.808 145.547Z" fill="#41A47B"/>
</g>
<mask id="mask3_3701_3552" style="mask-type:luminance" maskUnits="userSpaceOnUse" x="66" y="27" width="223" height="237">
<path d="M277.876 55.1657C268.688 41.3701 255.604 30.8791 234.646 28.5183C234.646 28.5183 179.892 20.7027 155.013 63.1971C124.252 114.981 79.2828 205.648 66.041 220.071C97.2358 274.153 208.908 282.055 250.779 221.498C268.701 198.954 277.483 142.5 280.78 135.225C293.276 89.0515 289.352 72.3933 277.876 55.1657ZM224.009 113.764C224.022 113.738 224.022 113.739 224.03 113.72C224.025 113.733 224.017 113.749 224.009 113.764Z" fill="white"/>
</mask>
<g mask="url(#mask3_3701_3552)">
<path d="M262.156 160.155C262.369 160.825 262.5 161.514 262.619 162.209C262.702 162.69 262.749 163.178 262.762 163.667C262.767 163.904 262.765 164.143 262.752 164.38C262.733 164.725 262.752 165.089 262.679 165.422C262.622 165.68 262.531 166.015 262.408 166.252C262.281 166.501 262.068 166.756 261.902 166.982C261.561 167.445 261.174 167.892 260.703 168.225C259.803 168.862 258.217 168.581 257.689 167.567C257.409 167.026 257.24 166.439 256.982 165.888C257.089 166.114 257.196 166.337 257.302 166.564C257.068 166.072 256.818 165.648 256.811 165.076C256.805 164.772 256.855 164.458 256.878 164.151C256.86 164.406 256.842 164.663 256.824 164.918C256.878 164.07 256.829 163.225 256.675 162.391C256.722 162.64 256.769 162.887 256.816 163.137C256.74 162.747 256.644 162.362 256.522 161.985C256.291 161.257 256.353 160.407 256.699 159.723C257.029 159.076 257.71 158.449 258.425 158.249C259.164 158.043 260.001 158.036 260.687 158.426C261.363 158.816 261.914 159.393 262.156 160.155Z" fill="#41A47B"/>
</g>
<mask id="mask4_3701_3552" style="mask-type:luminance" maskUnits="userSpaceOnUse" x="66" y="27" width="223" height="237">
<path d="M277.876 55.1657C268.688 41.3701 255.604 30.8791 234.646 28.5183C234.646 28.5183 179.892 20.7027 155.013 63.1971C124.252 114.981 79.2828 205.648 66.041 220.071C97.2358 274.153 208.908 282.055 250.779 221.498C268.701 198.954 277.483 142.5 280.78 135.225C293.276 89.0515 289.352 72.3933 277.876 55.1657ZM224.009 113.764C224.022 113.738 224.022 113.739 224.03 113.72C224.025 113.733 224.017 113.749 224.009 113.764Z" fill="white"/>
</mask>
<g mask="url(#mask4_3701_3552)">
<path d="M255.938 177.846C255.798 178.551 255.658 179.253 255.515 179.958C255.447 180.296 255.387 180.636 255.312 180.974C255.158 181.655 254.657 182.207 254.259 182.768C254.129 182.877 253.999 182.989 253.866 183.098C253.713 183.171 253.562 183.241 253.409 183.314C252.993 183.449 252.558 183.426 252.15 183.283C251.396 183.018 250.892 182.347 250.824 181.549C250.809 181.372 250.793 181.198 250.78 181.021C250.775 180.946 250.767 180.87 250.762 180.795C250.741 180.561 250.738 180.275 250.793 180.049C250.876 179.703 251.032 179.36 251.149 179.022C251.383 178.351 251.615 177.68 251.849 177.009C251.898 176.723 252.012 176.471 252.194 176.25C252.332 176.008 252.522 175.816 252.766 175.67C253.188 175.4 253.817 175.257 254.313 175.382C254.844 175.514 255.366 175.811 255.65 176.299C255.925 176.773 256.048 177.303 255.938 177.846Z" fill="#41A47B"/>
</g>
<mask id="mask5_3701_3552" style="mask-type:luminance" maskUnits="userSpaceOnUse" x="66" y="27" width="223" height="237">
<path d="M277.876 55.1657C268.688 41.3701 255.604 30.8791 234.646 28.5183C234.646 28.5183 179.892 20.7027 155.013 63.1971C124.252 114.981 79.2828 205.648 66.041 220.071C97.2358 274.153 208.908 282.055 250.779 221.498C268.701 198.954 277.483 142.5 280.78 135.225C293.276 89.0515 289.352 72.3933 277.876 55.1657ZM224.009 113.764C224.022 113.738 224.022 113.739 224.03 113.72C224.025 113.733 224.017 113.749 224.009 113.764Z" fill="white"/>
</mask>
<g mask="url(#mask5_3701_3552)">
<path d="M248.555 161.051C248.191 161.781 247.829 162.515 247.465 163.245C247.26 163.661 246.727 163.939 246.267 163.822C246.074 163.773 245.897 163.685 245.747 163.557C245.523 163.37 245.429 163.084 245.39 162.808C245.268 161.974 245.149 161.142 245.026 160.307C245.008 159.972 245.076 159.652 245.227 159.353C245.38 159.054 245.598 158.812 245.882 158.63C246.303 158.386 246.779 158.271 247.265 158.373C247.738 158.472 248.201 158.786 248.461 159.194C248.822 159.753 248.848 160.461 248.555 161.051Z" fill="#41A47B"/>
</g>
<mask id="mask6_3701_3552" style="mask-type:luminance" maskUnits="userSpaceOnUse" x="66" y="27" width="223" height="237">
<path d="M277.876 55.1657C268.688 41.3701 255.604 30.8791 234.646 28.5183C234.646 28.5183 179.892 20.7027 155.013 63.1971C124.252 114.981 79.2828 205.648 66.041 220.071C97.2358 274.153 208.908 282.055 250.779 221.498C268.701 198.954 277.483 142.5 280.78 135.225C293.276 89.0515 289.352 72.3933 277.876 55.1657ZM224.009 113.764C224.022 113.738 224.022 113.739 224.03 113.72C224.025 113.733 224.017 113.749 224.009 113.764Z" fill="white"/>
</mask>
<g mask="url(#mask6_3701_3552)">
<path d="M235.352 188.519C233.085 187.364 234.876 183.839 237.146 184.996C239.413 186.153 237.622 189.676 235.352 188.519Z" fill="#41A47B"/>
</g>
<path opacity="0.25" d="M152.619 136.43C167.361 117.861 191.333 122.406 205.802 138.947C216.719 150.707 222.374 160.621 233.468 189.699C253.259 234.489 257.526 238.033 241.656 241.897C240.09 241.707 252.537 293.177 247.399 283.224C247.287 283.242 255.641 295.582 244.107 297.81C232.405 299.887 230.689 298.122 230.704 298.156C230.697 298.145 232.35 299.825 223.703 302.906C214.813 306.281 196.644 284.147 196.917 283.941C196.618 284.061 211.373 307.198 201.059 307.123C192.906 308.641 138.438 276.253 138.42 185.492C139.216 160.855 145.617 145.543 152.619 136.43Z" fill="#80544B"/>
<path d="M155.69 134.692C170.92 114.43 197.191 118.249 213.605 134.988C225.734 147.044 235.494 166.37 249.797 195.732C270.196 242.638 310.403 297.537 297.514 305.704C297.832 305.457 286.379 310.389 263.465 285.627C262.797 285.913 286.509 317.323 274.985 321.018C262.409 324.996 245.613 302.605 245.936 302.503C245.605 302.636 261.998 325.846 253.46 330.201C243.505 335.508 207.869 289.774 209.026 289.113C208.711 289.249 225.38 313.221 214.249 313.694C205.498 315.836 145.687 283.69 142.229 187.282C142.146 161.105 148.462 144.626 155.69 134.692Z" fill="#17B268"/>
<path d="M168.293 274.87C168.293 274.87 222.714 267.809 257.762 211.781" stroke="#FFF4EB" stroke-width="1.5873" stroke-miterlimit="10" stroke-linecap="round"/>
<path d="M212.983 295.021C212.983 295.021 185.42 258.176 179.617 239.789" stroke="#FFF4EB" stroke-width="1.5873" stroke-miterlimit="10" stroke-linecap="round"/>
<path d="M245.936 302.496C245.936 302.496 225.324 259.245 210.285 236.516" stroke="#FFF4EB" stroke-width="1.5873" stroke-miterlimit="10" stroke-linecap="round"/>
<path d="M263.464 285.624C263.464 285.624 233.27 230.687 228.109 221.938" stroke="#FFF4EB" stroke-width="1.5873" stroke-miterlimit="10" stroke-linecap="round"/>
<path d="M164.44 252.173C167.684 250.168 170.932 248.164 174.177 246.162C175.102 245.59 174.197 244.162 173.269 244.734C170.024 246.739 166.777 248.744 163.532 250.746C162.607 251.318 163.511 252.745 164.44 252.173Z" fill="#EFEDE4"/>
<path d="M166.715 257.366C167.937 256.508 169.159 255.65 170.383 254.795C170.745 254.54 170.914 254.015 170.643 253.628C170.391 253.266 169.863 253.097 169.476 253.368C168.254 254.226 167.032 255.084 165.807 255.939C165.446 256.194 165.277 256.719 165.547 257.106C165.799 257.468 166.327 257.637 166.715 257.366Z" fill="#EFEDE4"/>
<path d="M197.465 256.363C198.877 255.646 200.289 254.928 201.7 254.21C202.096 254.01 202.205 253.394 201.96 253.043C201.677 252.64 201.217 252.567 200.793 252.783C199.381 253.501 197.969 254.218 196.558 254.936C196.162 255.136 196.053 255.752 196.298 256.103C196.581 256.506 197.041 256.576 197.465 256.363Z" fill="#EFEDE4"/>
<path d="M192.83 237.654C193.111 237.275 193.391 236.895 193.672 236.515C193.753 236.435 193.807 236.344 193.836 236.237C193.885 236.136 193.906 236.027 193.896 235.91C193.896 235.793 193.867 235.686 193.81 235.587C193.771 235.483 193.711 235.395 193.625 235.322C193.459 235.179 193.243 235.078 193.019 235.096C192.944 235.109 192.871 235.122 192.796 235.135C192.653 235.182 192.533 235.257 192.432 235.366C192.151 235.746 191.87 236.125 191.59 236.505C191.509 236.586 191.454 236.677 191.426 236.783C191.376 236.887 191.355 236.996 191.366 237.111C191.366 237.228 191.395 237.334 191.452 237.433C191.491 237.537 191.551 237.626 191.636 237.698C191.803 237.839 192.019 237.943 192.242 237.925C192.318 237.912 192.39 237.899 192.466 237.886C192.606 237.839 192.728 237.763 192.83 237.654Z" fill="#EFEDE4"/>
<path d="M219.482 234.392C220.743 233.843 222.007 233.292 223.268 232.743C223.671 232.567 223.988 232.143 223.819 231.683C223.676 231.29 223.192 230.942 222.758 231.131C221.497 231.68 220.234 232.231 218.973 232.78C218.57 232.957 218.252 233.38 218.421 233.841C218.567 234.233 219.048 234.582 219.482 234.392Z" fill="#EFEDE4"/>
<path d="M246.892 206.642C248.153 206.093 249.417 205.542 250.678 204.993C251.081 204.817 251.398 204.393 251.229 203.933C251.086 203.54 250.603 203.192 250.168 203.381C248.907 203.93 247.644 204.481 246.383 205.03C245.98 205.207 245.663 205.63 245.832 206.091C245.975 206.486 246.458 206.832 246.892 206.642Z" fill="#EFEDE4"/>
<path d="M195.909 162.762C197.134 164.197 198.359 165.635 199.583 167.07C200.015 167.577 200.179 168.467 200.085 169.104C199.986 169.787 199.555 170.565 198.97 170.952C198.379 171.342 197.649 171.589 196.936 171.454C196.169 171.308 195.595 170.931 195.088 170.338C193.863 168.903 192.639 167.466 191.414 166.03C190.982 165.523 190.819 164.634 190.912 163.997C191.011 163.313 191.443 162.536 192.028 162.149C192.618 161.759 193.348 161.511 194.061 161.647C194.828 161.792 195.402 162.167 195.909 162.762Z" fill="#EFEDE4"/>
<path d="M200.609 156.581C200.965 156.644 201.319 156.753 201.664 156.865C201.805 156.909 201.94 156.966 202.07 157.031C202.4 157.2 202.723 157.395 203.029 157.603C203.152 157.686 203.266 157.78 203.373 157.879C203.731 158.214 204.124 158.596 204.384 159.028C204.649 159.465 204.922 159.928 205.044 160.429C205.187 160.767 205.242 161.116 205.208 161.475C205.232 161.839 205.167 162.187 205.008 162.525C204.868 162.886 204.652 163.185 204.355 163.422C204.111 163.7 203.812 163.9 203.453 164.025C202.785 164.251 202.013 164.303 201.358 163.989C201.144 163.861 200.931 163.734 200.718 163.607C200.328 163.292 200.039 162.902 199.857 162.437C199.803 162.21 199.72 161.995 199.61 161.789C199.725 162 199.839 162.21 199.954 162.424C199.826 162.192 199.67 161.982 199.488 161.789C199.66 161.969 199.831 162.148 200.003 162.327C199.829 162.151 199.636 161.997 199.423 161.865C199.636 161.992 199.85 162.119 200.063 162.247C199.85 162.119 199.623 162.021 199.384 161.951C199.616 162.016 199.847 162.08 200.078 162.145C199.987 162.122 199.899 162.101 199.808 162.086C199.085 161.958 198.396 161.571 197.959 160.97C197.731 160.677 197.588 160.351 197.53 159.993C197.416 159.649 197.393 159.298 197.458 158.937C197.593 158.219 197.946 157.502 198.573 157.088C199.168 156.691 199.889 156.454 200.609 156.581Z" fill="#EFEDE4"/>
<path d="M188.353 155.353C188.109 155.834 187.864 156.318 187.617 156.799C187.477 157.16 187.261 157.459 186.965 157.696C186.72 157.974 186.421 158.174 186.062 158.299C185.724 158.445 185.376 158.497 185.017 158.463C184.653 158.489 184.305 158.421 183.969 158.263C183.756 158.135 183.543 158.008 183.33 157.881C182.94 157.566 182.651 157.176 182.469 156.708C182.412 156.477 182.357 156.248 182.3 156.016C182.248 155.53 182.316 155.062 182.506 154.612C182.75 154.131 182.994 153.65 183.239 153.167C183.379 152.805 183.595 152.506 183.891 152.27C184.136 151.992 184.435 151.791 184.794 151.667C185.132 151.524 185.48 151.466 185.839 151.503C186.203 151.479 186.551 151.544 186.889 151.703C187.102 151.83 187.316 151.958 187.529 152.085C187.919 152.4 188.207 152.79 188.389 153.258C188.447 153.489 188.501 153.718 188.558 153.949C188.61 154.436 188.543 154.904 188.353 155.353Z" fill="#EFEDE4"/>
<path d="M247.409 85.1286C245.737 90.2818 248.561 95.8146 253.711 97.4864C258.865 99.1582 264.397 96.3346 266.069 91.184C267.741 86.0308 264.917 80.498 259.764 78.8262C254.611 77.1518 249.078 79.9754 247.409 85.1286Z" fill="#222221"/>
<path d="M261.511 84.0624C261.76 85.43 260.855 86.7404 259.49 86.99C258.123 87.2396 256.812 86.3348 256.563 84.9698C256.313 83.6022 257.218 82.2918 258.583 82.0422C259.948 81.79 261.258 82.6948 261.511 84.0624Z" fill="white"/>
<path d="M277.928 79.477C277.928 79.477 271.618 90.3373 286.607 99.2839C286.607 99.2839 303.122 85.1347 311.97 73.2891L277.928 79.477Z" fill="#222221"/>
<path d="M277.946 91.0459C277.886 91.0615 277.868 91.0537 277.85 91.0459L277.959 90.7365L277.863 90.4244C278.552 90.1644 299.224 79.5122 310.058 73.9118C310.214 73.8286 310.417 73.891 310.5 74.0522C310.584 74.2134 310.521 74.411 310.36 74.4942C281.604 89.3532 278.427 90.9263 277.946 91.0459Z" fill="#222221"/>
<path d="M86.8605 200.761C87.2921 200.254 87.7237 199.745 88.1553 199.238C88.4621 198.874 88.795 198.52 89.0498 198.117C89.2552 197.792 89.4033 197.423 89.5697 197.08C89.8869 196.43 90.2042 195.782 90.5214 195.132C90.719 194.724 90.9191 194.324 91.0803 193.9C91.2519 193.45 91.3377 192.98 91.4417 192.509C91.7199 191.258 91.0439 189.992 89.8531 189.54C88.7143 189.106 87.248 189.542 86.6916 190.699C86.5356 191.024 86.3692 191.347 86.221 191.677C85.9896 192.192 85.8855 192.699 85.7685 193.242C85.6073 193.978 85.4462 194.714 85.285 195.452C85.207 195.806 85.1185 196.162 85.0587 196.521C84.9781 197.007 85.0015 197.467 85.0197 197.956C85.0457 198.666 85.0691 199.376 85.0951 200.083C85.1263 200.917 86.2677 201.458 86.8605 200.761Z" fill="#EFEDE4"/>
<path d="M99.9332 189.151C100.123 188.631 100.313 188.111 100.5 187.591C100.591 187.339 100.682 187.089 100.773 186.837C100.929 186.41 100.882 185.909 100.731 185.49C100.687 185.37 100.646 185.251 100.601 185.131C100.51 184.822 100.349 184.554 100.115 184.328C99.9436 184.151 99.7408 184.029 99.5094 183.961C99.2988 183.86 99.0726 183.816 98.836 183.831C98.5214 183.839 98.2276 183.925 97.9546 184.086C97.8636 184.154 97.77 184.219 97.679 184.286C97.6452 184.312 97.6088 184.336 97.575 184.362C97.2344 184.57 96.9692 184.848 96.7768 185.196C96.6988 185.389 96.626 185.581 96.5558 185.776C96.483 186.041 96.4206 186.309 96.353 186.574C96.2152 187.115 96.0774 187.658 95.9396 188.199C95.8122 188.693 95.9136 189.291 96.1736 189.728C96.3114 189.978 96.5012 190.175 96.7404 190.318C96.9458 190.498 97.185 190.615 97.4606 190.669C97.9728 190.768 98.5422 190.729 98.9894 190.435C99.1324 190.321 99.2754 190.206 99.4184 190.092C99.6758 189.824 99.8474 189.512 99.9332 189.151Z" fill="#EFEDE4"/>
<path d="M99.0925 176.042C99.0457 175.548 98.9989 175.054 98.9521 174.56C98.9287 174.318 98.9053 174.074 98.8819 173.832C98.8689 173.707 98.8585 173.58 98.8455 173.455C98.8403 173.401 98.8351 173.346 98.8299 173.294C98.7909 172.909 98.7441 172.662 98.5517 172.319C98.4321 172.103 98.2709 171.934 98.0629 171.809C97.8861 171.656 97.6781 171.555 97.4441 171.508C97.2933 171.492 97.1451 171.477 96.9943 171.461C96.6849 171.469 96.3937 171.552 96.1259 171.711C95.7853 171.877 95.5539 172.218 95.3173 172.504C95.1769 172.673 95.0339 172.844 94.8935 173.013C94.5997 173.367 94.3059 173.72 94.0121 174.074C93.6455 174.459 93.4011 174.911 93.2737 175.429C93.1567 175.93 93.1671 176.427 93.3075 176.923C93.4557 177.433 93.7209 177.873 94.1057 178.242C94.3891 178.533 94.7193 178.733 95.1015 178.842C95.4473 179.009 95.8165 179.082 96.2091 179.058C96.7265 179.045 97.2101 178.905 97.6547 178.642C98.1175 178.361 98.4789 177.984 98.7389 177.509C98.9833 177.048 99.1003 176.56 99.0925 176.042Z" fill="#EFEDE4"/>
<path d="M113.702 174.294C114.004 173.878 114.303 173.462 114.604 173.046C114.75 172.845 114.898 172.648 115.038 172.445C115.319 172.042 115.408 171.478 115.335 170.997C115.317 170.885 115.301 170.771 115.283 170.659C115.272 170.297 115.176 169.962 114.994 169.653C114.856 169.403 114.667 169.205 114.427 169.062C114.222 168.883 113.983 168.766 113.707 168.711C113.359 168.631 113.01 168.639 112.667 168.735C112.579 168.771 112.49 168.808 112.405 168.841C112.269 168.896 112.139 168.953 112.007 169.01C111.895 169.055 111.783 169.101 111.677 169.156C111.294 169.387 110.995 169.699 110.782 170.092C110.673 170.323 110.579 170.563 110.478 170.797C110.273 171.275 110.067 171.753 109.862 172.229C109.714 172.481 109.638 172.749 109.63 173.035C109.578 173.313 109.597 173.589 109.685 173.862C109.755 174.151 109.89 174.4 110.093 174.608C110.257 174.855 110.475 175.045 110.748 175.18C111.248 175.422 111.84 175.536 112.381 175.357C112.555 175.282 112.727 175.206 112.899 175.133C113.242 174.923 113.51 174.645 113.702 174.294Z" fill="#EFEDE4"/>
<path d="M196.051 56.8774C196.241 56.3574 196.431 55.8373 196.618 55.3173C196.709 55.0677 196.8 54.8156 196.891 54.5634C197.047 54.137 197 53.6377 196.849 53.2165C196.805 53.0969 196.764 52.9773 196.719 52.8577C196.628 52.5457 196.467 52.2806 196.233 52.0544C196.062 51.8776 195.859 51.7554 195.627 51.6878C195.417 51.5864 195.193 51.5421 194.954 51.5577C194.639 51.5655 194.346 51.6514 194.073 51.8126C193.982 51.8802 193.888 51.9452 193.797 52.0128C193.763 52.0388 193.727 52.0622 193.693 52.0882C193.352 52.2936 193.087 52.5718 192.895 52.9228C192.817 53.1152 192.744 53.3075 192.674 53.5025C192.601 53.7677 192.539 54.0356 192.471 54.3008C192.333 54.8416 192.195 55.385 192.058 55.9258C191.933 56.4198 192.032 57.0178 192.292 57.4546C192.429 57.7042 192.619 57.9018 192.858 58.0448C193.064 58.2242 193.303 58.3412 193.579 58.3958C194.091 58.4946 194.66 58.4556 195.107 58.1618C195.25 58.0474 195.393 57.933 195.536 57.8186C195.794 57.5508 195.965 57.2362 196.051 56.8774Z" fill="#EFEDE4"/>
<path d="M195.212 43.7609C195.165 43.2669 195.118 42.7729 195.072 42.2789C195.048 42.0371 195.025 41.7927 195.001 41.5509C194.988 41.4261 194.978 41.2987 194.965 41.1739C194.96 41.1193 194.955 41.0647 194.949 41.0127C194.91 40.6279 194.864 40.3809 194.671 40.0377C194.552 39.8219 194.39 39.6529 194.185 39.5281C194.008 39.3747 193.8 39.2733 193.566 39.2265C193.415 39.2109 193.267 39.1953 193.116 39.1797C192.804 39.1875 192.516 39.2707 192.248 39.4293C191.907 39.5957 191.676 39.9363 191.439 40.2223C191.299 40.3913 191.156 40.5629 191.016 40.7319C190.722 41.0855 190.428 41.4391 190.134 41.7927C189.768 42.1775 189.523 42.6299 189.396 43.1473C189.279 43.6491 189.292 44.1457 189.43 44.6423C189.578 45.1519 189.843 45.5913 190.228 45.9605C190.511 46.2517 190.844 46.4519 191.224 46.5611C191.569 46.7275 191.939 46.8003 192.331 46.7769C192.849 46.7639 193.332 46.6235 193.779 46.3609C194.242 46.0801 194.604 45.7031 194.861 45.2273C195.103 44.7671 195.22 44.2783 195.212 43.7609Z" fill="#EFEDE4"/>
<path d="M209.822 42.0384C210.124 41.6224 210.423 41.2064 210.725 40.7904C210.87 40.5902 211.018 40.3926 211.159 40.1898C211.44 39.7868 211.528 39.2225 211.458 38.7415C211.44 38.6297 211.424 38.5154 211.406 38.4036C211.395 38.0422 211.299 37.7067 211.117 37.3973C210.979 37.1477 210.79 36.9502 210.553 36.8046C210.348 36.6252 210.109 36.5082 209.833 36.4536C209.485 36.373 209.139 36.3807 208.793 36.4769C208.704 36.5133 208.616 36.5471 208.53 36.5835C208.398 36.6381 208.265 36.6953 208.133 36.7525C208.021 36.7967 207.909 36.8435 207.802 36.8981C207.42 37.1295 207.121 37.4415 206.908 37.8341C206.799 38.0655 206.705 38.3047 206.604 38.5387C206.398 39.0171 206.193 39.4956 205.985 39.9714C205.837 40.2236 205.761 40.4914 205.754 40.7774C205.702 41.0556 205.72 41.3311 205.808 41.6041C205.878 41.8927 206.014 42.1423 206.216 42.3503C206.38 42.5973 206.599 42.7871 206.872 42.9223C207.371 43.1641 207.963 43.2786 208.504 43.0992C208.676 43.0238 208.85 42.9483 209.022 42.8755C209.362 42.6675 209.63 42.3894 209.822 42.0384Z" fill="#EFEDE4"/>
</svg>
