<svg width="275" height="297" viewBox="0 0 275 297" fill="none" xmlns="http://www.w3.org/2000/svg">
<path d="M203.357 32.0023C203.357 32.0023 176.46 -7.89465 166.107 1.40555C155.756 10.7057 165.038 19.7719 165.038 19.7719C165.038 19.7719 139.009 21.9611 156.437 42.0279C173.865 62.0947 160.738 43.9857 160.738 43.9857L203.357 32.0023Z" fill="#0C6C45"/>
<path d="M14.0152 242.497C8.83078 245.617 2.87678 249.473 2.43218 255.507C2.03178 260.975 6.91978 265.829 12.3122 266.817C17.7072 267.803 23.2452 265.697 27.7978 262.639C23.5442 265.931 25.593 273.544 30.4524 275.842C35.3118 278.14 41.2086 276.372 45.6598 273.356C50.111 270.34 53.6834 266.183 58.0306 263.019C55.246 265.476 57.7056 270.587 61.3196 271.435C64.9336 272.283 68.5814 270.379 71.7144 268.385C84.1242 260.486 94.9194 250.058 103.245 237.929C110.241 227.734 115.392 213.751 108.556 203.45C102.946 194.992 91.0246 192.704 81.2382 195.398C70.7342 198.289 63.124 205.704 54.3048 211.565C50.1084 214.355 46.5776 218.546 42.7374 221.822C38.4656 225.464 34.0534 228.941 29.5112 232.237C24.4984 235.877 19.327 239.302 14.0152 242.497Z" fill="#17B268"/>
<path d="M27.1226 263.796C35.7702 257.228 43.4428 249.477 49.8934 240.741C50.4368 240.003 49.3838 239.02 48.8326 239.766C42.4574 248.398 34.894 256.089 26.3478 262.579C25.6172 263.138 26.3842 264.357 27.1226 263.796Z" fill="#0C6C45"/>
<path d="M58.0251 264.284C61.5871 259.752 65.1465 255.22 68.7085 250.686C69.2779 249.963 68.2223 248.98 67.6477 249.711C64.0857 254.242 60.5263 258.774 56.9643 263.309C56.3949 264.031 57.4505 265.014 58.0251 264.284Z" fill="#0C6C45"/>
<path d="M19.6677 241.894C23.4845 247.526 28.3907 252.317 34.0951 256.022C34.8725 256.527 35.5407 255.25 34.7685 254.751C29.2799 251.186 24.5531 246.538 20.8819 241.122C20.3619 240.355 19.1451 241.124 19.6677 241.894Z" fill="#0C6C45"/>
<path d="M27.0156 238.086C30.848 242.896 35.2472 247.217 40.1508 250.932C40.8814 251.486 41.8668 250.433 41.1258 249.872C36.3262 246.234 31.9842 242.022 28.2324 237.311C27.6578 236.593 26.4358 237.358 27.0156 238.086Z" fill="#0C6C45"/>
<path d="M35.4669 255.761C42.5025 259.011 50.1933 260.628 57.9439 260.469C58.8721 260.451 58.8279 259.011 57.9023 259.029C50.4039 259.182 42.9523 257.633 36.1429 254.487C35.3005 254.099 34.6219 255.371 35.4669 255.761Z" fill="#0C6C45"/>
<path d="M43.2546 247.439C48.816 251.552 55.4616 253.939 62.3724 254.292C63.298 254.339 63.2486 252.899 62.3308 252.852C55.8282 252.519 49.4686 250.249 44.2296 246.378C43.4912 245.835 42.5084 246.887 43.2546 247.439Z" fill="#0C6C45"/>
<path d="M66.481 253.151C72.5806 255.083 79.0182 255.819 85.396 255.317C86.319 255.244 86.2774 253.804 85.3544 253.877C79.0858 254.371 72.8042 253.648 66.8112 251.747C65.9246 251.469 65.6022 252.873 66.481 253.151Z" fill="#0C6C45"/>
<path d="M63.1969 258.302C69.5019 260.626 76.1423 261.9 82.8581 262.108C83.7863 262.137 83.7369 260.696 82.8165 260.668C76.2255 260.462 69.7151 259.178 63.5271 256.898C62.6561 256.581 62.3389 257.987 63.1969 258.302Z" fill="#0C6C45"/>
<path d="M80.7285 226.864C88.7755 235.738 101.029 239.495 112.883 241.219C145.562 245.969 179.96 237.652 206.86 218.498C233.759 199.341 252.867 169.558 259.065 137.12C263.36 114.646 261.426 90.5464 250.839 70.2612C240.252 49.9786 220.408 34.0692 197.744 30.931C168.164 26.8334 138.989 44.6876 121.195 68.6726C105.993 89.1632 99.2951 112.756 90.2705 136.179C87.4131 143.594 83.8173 150.656 80.6999 157.954C76.7947 167.093 74.0283 176.84 72.1771 186.596C69.5693 200.339 70.9395 216.072 80.7285 226.864Z" fill="#009850"/>
<path d="M184.682 43.0407C170.631 51.0669 161.381 65.4839 154.925 80.3221C148.583 94.9003 144.371 110.661 144.91 126.55C145.45 142.439 151.077 158.488 162.252 169.798C182.196 189.987 227.08 187.855 246.694 167.347C254.63 159.05 256.26 151.052 258.522 139.797C263.327 115.856 262.455 105.176 258.917 88.3067C255.95 74.1627 248.816 60.6115 237.919 50.9811C229.524 43.5607 216.857 37.4637 205.573 37.4923C198.306 37.5105 190.997 39.4345 184.682 43.0407Z" fill="#EFEDE4"/>
<path d="M224.271 70.7348C225.368 74.2968 223.369 78.0746 219.807 79.1718C216.245 80.269 212.467 78.2696 211.37 74.7076C210.273 71.1456 212.272 67.3679 215.834 66.2707C219.396 65.1709 223.174 67.1702 224.271 70.7348Z" fill="#222221"/>
<path d="M215.634 76.4046C216.1 77.9152 215.252 79.5194 213.739 79.9848C212.228 80.4502 210.624 79.6026 210.159 78.0894C209.693 76.5788 210.541 74.9746 212.054 74.5092C213.565 74.0464 215.169 74.894 215.634 76.4046Z" fill="#EFEDE4"/>
<path d="M167.74 97.3289C167.21 98.2259 166.653 99.1151 166.144 100.025C165.762 100.706 165.702 101.541 165.574 102.303C165.403 103.338 165.096 104.453 165.455 105.47C165.847 106.585 166.695 107.448 167.868 107.724C168.954 107.979 170.351 107.651 171.068 106.738C168.577 107.37 167.779 107.726 168.679 107.804C168.694 107.804 168.71 107.807 168.726 107.809C169.669 107.768 170.507 107.362 171.131 106.658C171.718 105.997 171.913 105.259 172.048 104.435C172.15 103.824 172.251 103.213 172.355 102.599C172.366 102.539 172.373 102.48 172.384 102.422C172.522 101.83 172.501 101.242 172.324 100.659C172.295 100.519 172.267 100.379 172.236 100.236C172.178 99.9549 172.119 99.6741 172.061 99.3907C171.944 98.8265 171.83 98.2649 171.713 97.7007C171.643 97.3653 171.359 96.9727 171.11 96.7465C170.764 96.4293 170.325 96.2525 169.862 96.2057C168.975 96.1199 168.19 96.5697 167.74 97.3289Z" fill="#1A9362"/>
<path d="M158.184 113.908C157.786 114.675 157.482 115.483 157.19 116.297C156.988 116.864 156.829 117.444 156.712 118.034C156.655 118.32 156.608 118.608 156.574 118.9C156.522 119.323 156.423 119.758 156.442 120.179C156.455 120.504 156.496 120.928 156.592 121.24C156.694 121.57 156.899 121.923 157.053 122.233C157.367 122.865 157.742 123.489 158.243 123.99C159.2 124.95 161.179 124.947 162.032 123.829C162.487 123.234 162.814 122.558 163.243 121.944C163.066 122.194 162.89 122.446 162.713 122.696C163.098 122.15 163.49 121.689 163.623 120.998C163.693 120.629 163.698 120.239 163.737 119.864C163.706 120.179 163.675 120.491 163.644 120.805C163.755 119.768 163.992 118.754 164.356 117.776C164.247 118.068 164.138 118.359 164.028 118.65C164.203 118.195 164.4 117.75 164.626 117.316C165.061 116.482 165.165 115.439 164.889 114.539C164.626 113.687 163.932 112.782 163.111 112.392C162.26 111.986 161.249 111.802 160.334 112.129C159.424 112.454 158.636 113.034 158.184 113.908Z" fill="#1A9362"/>
<path d="M161.975 136.646C161.999 137.528 162.019 138.409 162.043 139.29C162.053 139.714 162.053 140.141 162.074 140.565C162.116 141.42 162.607 142.197 162.968 142.959C163.104 143.12 163.239 143.282 163.374 143.443C163.543 143.562 163.712 143.682 163.881 143.802C164.357 144.054 164.887 144.116 165.41 144.03C166.377 143.869 167.131 143.162 167.383 142.21C167.438 142 167.495 141.789 167.55 141.581C167.573 141.49 167.596 141.402 167.622 141.311C167.695 141.03 167.76 140.687 167.742 140.398C167.713 139.961 167.596 139.512 167.526 139.08C167.386 138.217 167.245 137.356 167.102 136.493C167.105 136.137 167.019 135.806 166.845 135.502C166.731 135.18 166.538 134.907 166.273 134.681C165.818 134.265 165.087 133.958 164.461 134.005C163.79 134.054 163.096 134.304 162.649 134.834C162.22 135.346 161.96 135.962 161.975 136.646Z" fill="#1A9362"/>
<path d="M174.458 117.85C174.744 118.812 175.03 119.777 175.313 120.739C175.474 121.285 176.059 121.735 176.642 121.691C176.883 121.672 177.117 121.6 177.328 121.48C177.64 121.301 177.809 120.976 177.915 120.651C178.238 119.668 178.56 118.682 178.883 117.7C178.976 117.297 178.963 116.896 178.841 116.501C178.719 116.106 178.506 115.768 178.202 115.487C177.744 115.102 177.19 114.866 176.582 114.884C175.986 114.902 175.362 115.185 174.959 115.625C174.408 116.223 174.226 117.073 174.458 117.85Z" fill="#1A9362"/>
<path d="M184.654 153.897C187.641 152.976 186.217 148.332 183.224 149.253C180.237 150.173 181.661 154.82 184.654 153.897Z" fill="#1A9362"/>
<path d="M251.26 118.426C251.461 117.051 251.814 115.706 252.3 114.404C252.215 114.633 252.129 114.861 252.043 115.09C252.235 114.591 252.524 114.079 252.605 113.554C252.657 113.218 252.685 112.878 252.737 112.542C252.841 111.879 252.984 111.224 253.156 110.576C253.468 109.404 252.729 108.177 251.635 107.766C251.151 107.584 250.577 107.522 250.075 107.701C249.43 107.932 249.027 108.325 248.642 108.886C248.25 109.458 247.883 110.051 247.553 110.665C247.394 110.956 247.236 111.253 247.103 111.557C246.765 112.319 246.723 113.018 246.648 113.837C246.523 115.215 246.557 116.598 246.731 117.971C246.807 118.569 246.986 119.183 247.472 119.593C247.86 119.921 248.291 120.116 248.796 120.168C249.849 120.272 251.094 119.56 251.26 118.426Z" fill="#1A9362"/>
<path d="M241.795 103.036C241.538 101.255 241.28 99.4763 241.02 97.6979C240.968 97.3417 240.875 96.9881 240.583 96.7437C240.355 96.5513 240.102 96.4369 239.803 96.4057C239.104 96.3355 238.561 96.7801 238.355 97.4301C237.814 99.1305 237.274 100.828 236.733 102.529C236.525 103.181 236.738 103.922 237.068 104.494C237.463 105.178 238.217 105.568 238.977 105.646C239.692 105.719 240.316 105.526 240.864 105.064C241.137 104.871 241.348 104.622 241.496 104.315C241.707 103.912 241.805 103.485 241.795 103.036Z" fill="#1A9362"/>
<path d="M232.43 111.642C235.084 110.826 233.818 106.694 231.158 107.513C228.504 108.332 229.77 112.461 232.43 111.642Z" fill="#1A9362"/>
<path d="M230.071 45.2133C219.515 34.1061 201.954 28.1104 186.713 29.7302C180.85 30.3542 172.338 31.4255 166.779 33.3885C152.112 38.5651 140.906 46.6433 129.51 57.2279C118.115 67.8125 112.163 82.232 105.765 95.8274C109.056 96.662 141.153 89.4809 153.493 83.7167C161.194 64.4715 176.846 48.1383 196.744 42.3351C206.712 39.4309 222.518 40.2031 230.071 45.2133Z" fill="#009850"/>
<path d="M153.495 83.7266C153.495 83.7266 130.981 93.4141 105.767 95.8373L98.5127 113.928C98.5127 113.928 132.456 106.854 151.199 89.7768L153.495 83.7266Z" fill="#009850"/>
<path d="M133.023 73.4842C133.158 73.3958 133.301 73.3204 133.439 73.2346C133.759 73.0318 133.964 72.7406 134.209 72.4676C134.495 72.1452 134.807 71.8487 135.134 71.5731C134.937 71.7395 134.736 71.906 134.539 72.0724C134.609 72.0152 134.679 71.9554 134.752 71.9008C134.794 71.8696 134.835 71.8384 134.874 71.8072C135.074 71.6538 135.41 71.425 135.568 71.23C135.709 71.0584 135.834 70.8764 135.974 70.7074C136.042 70.6268 136.112 70.5488 136.182 70.4682C136.369 70.2524 136.582 69.9586 136.725 69.7116C136.978 69.28 137.048 68.8796 137.097 68.4116C137.165 68.1178 137.154 67.8266 137.066 67.5354C137.056 67.2286 136.967 66.9452 136.803 66.6852C136.725 66.5162 136.666 66.3836 136.59 66.2328C136.572 66.1964 136.554 66.1625 136.538 66.1261C136.647 66.3627 136.757 66.5967 136.863 66.8333C136.783 66.6591 136.71 66.4824 136.65 66.3004C136.546 65.9884 136.426 65.6998 136.177 65.471C135.906 65.2214 135.628 65.1486 135.285 65.0264C135.119 64.9666 134.952 64.912 134.781 64.8704C134.705 64.8522 134.627 64.834 134.552 64.821C133.345 64.5922 132.173 64.9146 131.32 65.8168C131.076 66.0742 130.868 66.3732 130.704 66.6904C130.615 66.8568 130.535 67.0284 130.457 67.2C130.418 67.2858 130.381 67.3742 130.345 67.4626C130.231 67.7408 130.127 68.0216 130.028 68.305C129.986 68.604 129.958 68.903 129.939 69.202C129.921 69.5192 129.921 69.8364 129.939 70.1536C129.971 70.6944 130.062 71.2274 130.158 71.7604C130.244 72.2414 130.478 72.6288 130.784 72.9954C131.055 73.3204 131.341 73.6193 131.78 73.7025C132.209 73.7779 132.651 73.726 133.023 73.4842Z" fill="#EFEDE4"/>
<path d="M145.149 59.7385C145.432 59.2705 145.718 58.8051 146.002 58.3371C146.072 58.2227 146.142 58.1057 146.212 57.9913C146.246 57.9341 146.282 57.8768 146.311 57.8144C146.386 57.6116 146.464 57.4063 146.542 57.2009C146.563 56.9799 146.587 56.7615 146.61 56.5405C146.613 56.5067 146.613 56.4755 146.615 56.4417C146.628 56.1999 146.639 55.958 146.652 55.7188C146.636 55.3236 146.524 54.9571 146.314 54.6217C146.108 54.3019 145.838 54.0523 145.502 53.8755C145.167 53.6987 144.808 53.6155 144.429 53.6259C144.033 53.6415 143.667 53.7533 143.331 53.9639C143.144 54.1069 142.957 54.2473 142.77 54.3903C142.744 54.4111 142.718 54.4293 142.692 54.4501C142.598 54.5203 142.51 54.5956 142.421 54.6762C142.232 54.7984 142.083 54.9571 141.979 55.1573C141.868 55.3185 141.784 55.4225 141.712 55.5863C141.652 55.7163 141.595 55.8462 141.535 55.9762C141.309 56.4754 141.082 56.9721 140.856 57.4713C140.695 57.7521 140.612 58.0511 140.607 58.3657C140.547 58.6881 140.573 59.0053 140.682 59.3225C140.768 59.6449 140.926 59.9231 141.158 60.1545C141.34 60.4145 141.576 60.6121 141.868 60.7525C142.063 60.8253 142.255 60.8981 142.45 60.9709C142.876 61.0697 143.3 61.0541 143.719 60.9267C143.916 60.8357 144.114 60.7447 144.312 60.6537C144.668 60.4197 144.949 60.1155 145.149 59.7385Z" fill="#EFEDE4"/>
<path d="M145.613 69.6172C148.434 68.7488 147.09 64.3599 144.264 65.2309C141.44 66.0993 142.787 70.4856 145.613 69.6172Z" fill="#EFEDE4"/>
<path d="M78.8915 121.327C62.1865 121.364 45.4789 118.769 29.5721 113.665C21.0103 110.917 9.82248 108.205 4.52108 115.467C-0.793317 122.747 6.06549 133.495 14.6117 136.366C9.45329 133.014 1.80409 137.117 0.33769 143.092C-1.12871 149.067 2.35789 155.411 7.36809 158.978C12.3809 162.545 18.6261 163.858 24.7179 164.708C20.3421 162.972 16.6137 169.828 19.1253 173.811C21.6369 177.794 26.9747 178.787 31.6833 178.837C38.4511 178.904 45.2267 177.789 51.6149 175.556C47.3041 175.147 45.8429 182.157 49.0513 185.064C52.2597 187.971 57.1581 187.679 61.4455 187.074C75.1475 185.139 88.8885 181.689 100.682 174.448C110.934 168.153 122.811 156.963 123.224 143.984C123.575 132.975 113.786 125.643 104.096 122.898C95.9189 120.584 87.2765 121.309 78.8915 121.327Z" fill="#17B268"/>
<path d="M77.7796 130.596C77.7796 130.64 77.777 130.681 77.777 130.726C77.7614 131.303 78.0604 131.885 78.4166 132.309C78.804 132.772 79.2954 133.089 79.896 133.227C80.5564 133.38 81.2558 133.424 81.9266 133.515C82.5792 133.604 83.2343 133.692 83.8869 133.781C84.5395 133.869 85.1948 133.957 85.8474 134.046C86.9056 134.189 88.164 134.277 89.2014 133.934C90.3818 133.547 91.2164 132.494 91.3178 131.261C91.414 130.094 90.7978 128.783 89.6798 128.279C88.0236 127.535 86.149 127.728 84.3836 127.78C83.7206 127.801 83.0602 127.819 82.3972 127.84C81.716 127.86 81.0114 127.832 80.338 127.915C79.7348 127.99 79.2278 128.159 78.7546 128.557C78.3308 128.913 77.9018 129.462 77.8368 130.037C77.8108 130.226 77.7848 130.411 77.7796 130.596Z" fill="#EFEDE4"/>
<path d="M97.4147 135.664C97.8879 135.693 98.3638 135.719 98.837 135.747C99.5416 135.789 100.381 135.935 101.044 135.654C101.622 135.472 102.113 135.157 102.524 134.713C102.929 134.265 103.197 133.745 103.327 133.155C103.332 133.09 103.34 133.025 103.345 132.96C103.348 132.926 103.353 132.89 103.356 132.856C103.358 132.841 103.358 132.825 103.361 132.809C103.361 132.802 103.364 132.794 103.364 132.786C103.442 132.474 103.442 132.165 103.361 131.861C103.351 131.647 103.288 131.45 103.176 131.268C103.135 131.169 103.088 131.07 103.041 130.971C103.033 130.958 103.028 130.945 103.02 130.932C103.005 130.904 102.992 130.872 102.976 130.844C102.948 130.784 102.919 130.724 102.888 130.667C102.558 130.15 102.118 129.749 101.572 129.466C101.044 129.201 100.488 129.081 99.8978 129.104C99.149 129.081 98.4574 129.494 97.797 129.796C97.3628 129.994 96.9286 130.194 96.4944 130.391C96.1408 130.488 95.8365 130.662 95.5817 130.917C95.2801 131.127 95.0513 131.403 94.8927 131.743C94.8147 131.964 94.7368 132.183 94.6588 132.404C94.573 132.75 94.573 133.093 94.6614 133.431C94.6744 133.667 94.742 133.888 94.8668 134.089C94.9916 134.432 95.1943 134.72 95.4777 134.962C95.6753 135.1 95.8756 135.238 96.0732 135.376C96.4918 135.589 96.9415 135.685 97.4147 135.664Z" fill="#EFEDE4"/>
<path d="M87.9191 141.053C88.1973 141.266 88.4859 141.474 88.7901 141.651C88.9045 141.719 89.0241 141.776 89.1463 141.825C89.5805 142 90.0433 142.181 90.5139 142.244C90.8571 142.288 91.2081 142.322 91.5539 142.327C91.6865 142.33 91.8191 142.322 91.9517 142.306C92.3079 142.265 92.6641 142.205 93.0125 142.119C93.3687 142.031 93.7041 141.87 94.0239 141.698C94.3645 141.5 94.6297 141.232 94.8221 140.9C95.0639 140.611 95.2173 140.276 95.2823 139.896C95.3031 139.657 95.3213 139.415 95.3421 139.176C95.3395 138.799 95.2459 138.45 95.0639 138.131C94.9859 137.886 94.8559 137.678 94.6661 137.507C94.4451 137.192 94.1565 136.95 93.7977 136.784C93.5663 136.703 93.3375 136.62 93.1061 136.539C92.6225 136.438 92.1441 136.459 91.6709 136.604C91.4031 136.724 91.1301 136.841 90.8727 136.982C90.8207 137.01 90.7661 137.036 90.7115 137.062C90.9325 136.961 91.1509 136.859 91.3719 136.758C91.1405 136.865 90.8961 136.94 90.6465 136.987C90.8753 136.945 91.1067 136.906 91.3355 136.867C91.0833 136.911 90.8285 136.924 90.5737 136.904C90.7999 136.922 91.0261 136.94 91.2523 136.961C91.0105 136.94 90.7713 136.891 90.5399 136.813C90.7531 136.888 90.9637 136.963 91.1743 137.039C91.0495 136.995 90.9273 136.943 90.8077 136.88C90.5087 136.714 90.1889 136.63 89.8535 136.63C89.5259 136.576 89.2009 136.604 88.8811 136.716C88.6809 136.81 88.4781 136.901 88.2779 136.995C87.9685 137.174 87.7293 137.416 87.5551 137.72C87.3991 137.892 87.2977 138.089 87.2483 138.315C87.1105 138.62 87.0559 138.942 87.0845 139.282C87.1209 139.498 87.1599 139.714 87.1989 139.93C87.3367 140.364 87.5785 140.741 87.9191 141.053Z" fill="#EFEDE4"/>
<path d="M12.7192 135.974C27.3312 139.06 42.2812 140.321 57.2026 139.723C58.1308 139.686 58.0632 138.249 57.1376 138.285C42.3332 138.878 27.5184 137.627 13.0208 134.564C12.1134 134.375 11.8092 135.781 12.7192 135.974Z" fill="#EFEDE4"/>
<path d="M22.705 164.32C36.2406 162.601 49.6826 160.214 62.9816 157.17C63.8864 156.962 63.4522 155.589 62.5526 155.794C49.3706 158.81 36.0534 161.176 22.64 162.879C21.7248 162.999 21.7846 164.437 22.705 164.32Z" fill="#EFEDE4"/>
<path d="M49.6484 178.669C61.6604 175.216 73.6724 171.766 85.687 168.313C86.5788 168.056 86.1498 166.683 85.258 166.938C73.246 170.39 61.2314 173.841 49.2194 177.293C48.325 177.551 48.7566 178.924 49.6484 178.669Z" fill="#EFEDE4"/>
<path d="M40.7012 117.196C37.7398 124.114 37.5422 132.065 40.2306 139.106C40.5608 139.969 41.9362 139.545 41.606 138.677C39.0528 131.992 39.1672 124.434 41.9856 117.848C42.3444 117.003 41.0652 116.34 40.7012 117.196Z" fill="#EFEDE4"/>
<path d="M41.5186 138.753C41.542 146.722 44.5918 154.46 49.9504 160.346C50.5744 161.03 51.539 159.964 50.9202 159.283C45.819 153.677 42.9798 146.259 42.9564 138.688C42.9564 137.757 41.516 137.827 41.5186 138.753Z" fill="#EFEDE4"/>
<path d="M51.5733 160.495C54.4801 166.672 59.3421 171.776 65.3455 175.023C66.1593 175.463 66.8145 174.181 65.9981 173.739C60.2079 170.606 55.5929 165.682 52.7927 159.728C52.3975 158.89 51.1833 159.665 51.5733 160.495Z" fill="#EFEDE4"/>
<path d="M63.3097 174.669C66.3699 178.077 70.4207 180.485 74.8615 181.593C75.7611 181.816 76.0627 180.41 75.1631 180.183C70.9537 179.136 67.1759 176.829 64.2795 173.605C63.6607 172.916 62.6961 173.985 63.3097 174.669Z" fill="#EFEDE4"/>
<path d="M159.706 220.242C160.364 219.998 161.022 219.751 161.677 219.506C162.147 219.332 162.634 219.174 163.076 218.934C163.432 218.742 163.757 218.479 164.087 218.248C164.711 217.814 165.335 217.38 165.962 216.945C166.354 216.672 166.744 216.407 167.111 216.098C167.501 215.773 167.821 215.383 168.159 215.006C169.058 214 169.087 212.489 168.224 211.459C167.397 210.474 165.829 210.123 164.719 210.903C164.407 211.122 164.09 211.332 163.785 211.561C163.31 211.914 162.953 212.33 162.566 212.767C162.041 213.363 161.513 213.955 160.988 214.551C160.736 214.837 160.47 215.118 160.231 215.417C159.906 215.822 159.693 216.259 159.459 216.714C159.118 217.38 158.778 218.045 158.437 218.708C158.029 219.496 158.801 220.58 159.706 220.242Z" fill="#EFEDE4"/>
<path d="M177.688 216.286C178.13 215.907 178.57 215.524 179.012 215.145C179.225 214.96 179.438 214.778 179.651 214.594C180.013 214.282 180.229 213.798 180.304 213.335C180.325 213.202 180.348 213.07 180.369 212.937C180.444 212.605 180.434 212.277 180.335 211.949C180.268 211.697 180.145 211.481 179.966 211.302C179.823 211.102 179.641 210.946 179.415 210.836C179.121 210.683 178.806 210.608 178.474 210.618C178.354 210.631 178.237 210.647 178.117 210.66C178.073 210.665 178.029 210.67 177.985 210.675C177.566 210.691 177.179 210.811 176.823 211.034C176.654 211.172 176.487 211.312 176.321 211.453C176.118 211.658 175.923 211.874 175.723 212.082C175.317 212.508 174.914 212.937 174.509 213.364C174.139 213.754 173.924 214.354 173.939 214.89C173.937 215.192 174.009 215.47 174.155 215.725C174.251 215.995 174.412 216.226 174.636 216.416C175.055 216.77 175.598 217.027 176.162 216.986C176.352 216.954 176.542 216.921 176.734 216.889C177.103 216.772 177.423 216.572 177.688 216.286Z" fill="#EFEDE4"/>
<path d="M183.644 203.795C183.855 203.316 184.065 202.838 184.276 202.36C184.38 202.126 184.484 201.889 184.585 201.655C184.64 201.533 184.692 201.411 184.746 201.288C184.77 201.236 184.793 201.184 184.814 201.132C184.978 200.758 185.061 200.506 185.058 200.092C185.058 199.832 184.999 199.593 184.871 199.375C184.788 199.141 184.65 198.943 184.458 198.779C184.328 198.688 184.198 198.597 184.068 198.506C183.779 198.353 183.47 198.283 183.142 198.291C182.744 198.27 182.357 198.465 181.99 198.605C181.772 198.688 181.556 198.774 181.338 198.857C180.885 199.032 180.436 199.206 179.983 199.38C179.448 199.546 178.99 199.835 178.61 200.246C178.246 200.646 177.999 201.112 177.875 201.637C177.75 202.183 177.768 202.724 177.929 203.259C178.041 203.673 178.241 204.026 178.538 204.323C178.772 204.653 179.073 204.908 179.445 205.09C179.929 205.344 180.443 205.464 180.989 205.451C181.559 205.43 182.084 205.269 182.568 204.965C183.03 204.666 183.387 204.276 183.644 203.795Z" fill="#EFEDE4"/>
<path d="M197.969 209.681C198.458 209.452 198.949 209.226 199.441 208.997C199.677 208.888 199.914 208.781 200.148 208.667C200.613 208.441 200.985 207.968 201.164 207.487C201.206 207.375 201.25 207.263 201.292 207.149C201.469 206.813 201.552 206.454 201.541 206.075C201.544 205.773 201.471 205.495 201.326 205.24C201.229 204.97 201.068 204.738 200.845 204.549C200.566 204.296 200.244 204.125 199.877 204.036C199.779 204.023 199.68 204.013 199.581 204C199.43 203.982 199.279 203.966 199.129 203.95C199.004 203.932 198.876 203.919 198.749 203.914C198.278 203.932 197.844 204.065 197.446 204.315C197.228 204.471 197.02 204.642 196.807 204.806C196.373 205.139 195.938 205.474 195.504 205.807C195.239 205.963 195.031 206.171 194.88 206.428C194.688 206.657 194.563 206.92 194.506 207.219C194.423 207.52 194.42 207.819 194.498 208.113C194.521 208.425 194.625 208.711 194.807 208.976C195.143 209.455 195.629 209.865 196.219 209.977C196.417 209.998 196.614 210.016 196.812 210.037C197.225 210.027 197.613 209.907 197.969 209.681Z" fill="#EFEDE4"/>
<path d="M234.35 74.523C234.35 74.523 230.866 52.1656 269.393 54.2014C269.393 54.2014 241.583 91.1864 234.35 74.523Z" fill="#222221"/>
<path d="M239.223 78.7013C239.223 78.7013 256.268 87.3126 274.856 75.5034L252.327 72.7344L239.223 78.7013Z" fill="#222221"/>
<path d="M181.79 239.445C183.927 244.847 185.539 250.367 186.977 255.926C188.326 261.506 189.964 267.02 189.405 273.034L189.4 273.081C189.332 273.801 188.854 274.386 188.219 274.625C185.531 275.629 182.793 275.92 180.048 276.055C177.299 276.175 174.543 276.175 171.756 275.733C171.026 275.618 170.529 274.932 170.643 274.201C170.727 273.676 171.104 273.273 171.579 273.13C174.281 272.319 177.013 271.952 179.751 271.7C182.492 271.464 185.242 271.388 188.043 272.023L186.86 273.611C183.763 268.427 182.861 262.746 181.673 257.13C180.573 251.493 179.647 245.817 179.244 240.022C179.195 239.294 179.743 238.665 180.469 238.613C181.059 238.571 181.584 238.925 181.79 239.445Z" fill="#222221"/>
<path d="M204.887 290.462C201.557 288.192 198.496 285.626 195.522 282.966C192.558 280.296 189.695 277.517 187.254 274.275L187.176 274.173C186.734 273.586 186.851 272.748 187.439 272.306C187.756 272.067 188.148 271.994 188.507 272.065C192.698 272.92 196.843 273.931 200.938 275.107C205.035 276.271 209.177 277.293 213.004 279.365C213.652 279.716 213.891 280.525 213.54 281.172C213.28 281.651 212.768 281.908 212.258 281.867C207.921 281.505 203.897 280.093 199.828 278.825C195.756 277.566 191.736 276.144 187.761 274.566L189.014 272.356C192.451 274.511 195.465 277.127 198.379 279.852C201.284 282.587 204.102 285.418 206.647 288.541C207.108 289.105 207.022 289.934 206.458 290.395C206 290.772 205.355 290.782 204.887 290.462Z" fill="#222221"/>
<path d="M187.839 271.638C191.227 271.181 194.622 270.851 198.026 270.622C201.429 270.419 204.82 270.006 208.262 270.526C208.86 270.617 209.273 271.176 209.182 271.774C209.115 272.218 208.787 272.561 208.379 272.671C205.015 273.562 201.598 273.521 198.192 273.687C194.786 273.83 191.375 273.869 187.956 273.783C187.361 273.768 186.89 273.274 186.906 272.678C186.921 272.143 187.324 271.706 187.839 271.638Z" fill="#222221"/>
<path d="M167.07 223.65C167.07 223.65 170.547 248.605 181.771 247.536C192.998 246.468 192.462 218.133 192.462 218.133L167.07 223.65Z" fill="#2ABF78"/>
<path d="M132.819 245.457C134.953 250.859 136.568 256.379 138.006 261.938C139.355 267.518 140.993 273.032 140.434 279.046L140.429 279.093C140.361 279.813 139.883 280.398 139.249 280.635C136.56 281.638 133.825 281.932 131.077 282.065C128.329 282.184 125.573 282.184 122.785 281.742C122.055 281.628 121.558 280.941 121.673 280.211C121.756 279.686 122.133 279.283 122.609 279.137C125.31 278.328 128.043 277.959 130.78 277.707C133.521 277.47 136.272 277.395 139.072 278.029L137.886 279.618C134.79 274.434 133.887 268.753 132.699 263.137C131.599 257.5 130.674 251.824 130.271 246.029C130.219 245.301 130.77 244.671 131.495 244.619C132.086 244.586 132.611 244.939 132.819 245.457Z" fill="#222221"/>
<path d="M155.914 296.499C152.583 294.229 149.523 291.663 146.548 289.003C143.584 286.333 140.722 283.553 138.28 280.314L138.202 280.212C137.76 279.625 137.877 278.787 138.465 278.345C138.782 278.106 139.175 278.033 139.534 278.104C143.725 278.959 147.869 279.97 151.964 281.146C156.062 282.31 160.204 283.332 164.031 285.404C164.678 285.755 164.917 286.564 164.566 287.211C164.306 287.69 163.794 287.947 163.285 287.906C158.948 287.544 154.923 286.132 150.854 284.864C146.782 283.605 142.763 282.183 138.787 280.605L140.041 278.395C143.478 280.55 146.491 283.166 149.406 285.891C152.31 288.626 155.128 291.457 157.674 294.58C158.134 295.144 158.048 295.973 157.484 296.434C157.026 296.808 156.384 296.818 155.914 296.499Z" fill="#222221"/>
<path d="M138.868 277.654C142.256 277.196 145.652 276.866 149.055 276.637C152.459 276.435 155.849 276.021 159.291 276.541C159.889 276.632 160.303 277.191 160.212 277.789C160.144 278.234 159.817 278.577 159.408 278.686C156.044 279.578 152.628 279.536 149.222 279.705C145.816 279.848 142.404 279.887 138.985 279.802C138.39 279.786 137.919 279.292 137.935 278.697C137.948 278.158 138.351 277.722 138.868 277.654Z" fill="#222221"/>
<path d="M118.097 229.666C118.097 229.666 121.57 254.62 132.797 253.552C144.024 252.483 143.488 224.148 143.488 224.148L118.097 229.666Z" fill="#2ABF78"/>
</svg>
