<svg width="322" height="366" viewBox="0 0 322 366" fill="none" xmlns="http://www.w3.org/2000/svg">
<path d="M163.617 307.668C166.324 314.514 168.368 321.509 170.192 328.555C171.901 335.627 173.402 339.97 174.749 348.568L176.386 349.761C176.3 350.676 173.076 353.316 172.27 353.619C168.862 354.891 164.894 353.892 161.411 354.06C157.929 354.211 157.002 355.335 153.47 354.776C152.545 354.629 151.914 353.762 152.061 352.837C152.166 352.172 152.645 351.66 153.248 351.477C156.671 350.45 158.472 349.337 161.942 349.02C165.414 348.721 167.997 348.146 171.543 348.949L170.043 350.963C166.119 344.395 164.977 337.193 163.47 330.077C162.076 322.933 160.902 315.74 160.393 308.397C160.329 307.477 161.023 306.677 161.946 306.613C162.69 306.562 163.355 307.01 163.617 307.668Z" fill="#262626"/>
<path d="M171.581 349.231C175.875 348.651 180.178 348.231 184.488 347.941C188.799 347.683 188.143 347.735 192.506 348.393C193.265 348.508 193.787 349.216 193.672 349.975C193.586 350.539 193.173 350.972 192.653 351.111C188.388 352.24 189.015 351.611 184.699 351.825C180.383 352.006 176.059 352.057 171.728 351.948C170.973 351.929 170.379 351.302 170.398 350.55C170.417 349.87 170.929 349.318 171.581 349.231Z" fill="#262626"/>
<path d="M171.186 352.187C171.186 352.187 174.161 355.375 173.413 358.135C172.665 360.895 172.579 366.494 175.039 365.196C177.498 363.898 179.014 355.032 177.829 352.958C176.644 350.882 180.495 358.135 179.282 361.247C178.067 364.359 182.079 364.271 183.417 361.057C186.787 352.971 181.588 351.912 181.588 351.912L178.242 349.766L171.186 352.187Z" fill="#262626"/>
<path d="M222.541 303.285C225.248 310.131 227.292 317.126 229.116 324.172C230.825 331.244 232.326 335.587 233.673 344.185L235.31 345.378C235.224 346.292 232 348.933 231.194 349.236C227.788 350.508 223.818 349.509 220.335 349.677C216.853 349.828 215.925 350.951 212.394 350.393C211.469 350.246 210.838 349.379 210.985 348.454C211.09 347.791 211.569 347.277 212.172 347.094C215.597 346.067 217.396 344.954 220.866 344.636C224.338 344.338 226.921 343.763 230.467 344.566L228.967 346.58C225.043 340.012 223.901 332.81 222.394 325.694C221 318.55 219.826 311.356 219.316 304.014C219.252 303.093 219.947 302.294 220.87 302.23C221.614 302.181 222.281 302.627 222.541 303.285Z" fill="#262626"/>
<path d="M230.507 344.848C234.801 344.268 239.104 343.848 243.414 343.559C247.725 343.301 247.069 343.352 251.43 344.01C252.188 344.125 252.71 344.833 252.595 345.592C252.51 346.157 252.095 346.589 251.577 346.728C247.312 347.857 247.939 347.229 243.623 347.442C239.307 347.623 234.982 347.674 230.652 347.565C229.897 347.546 229.303 346.92 229.322 346.167C229.341 345.487 229.852 344.935 230.507 344.848Z" fill="#262626"/>
<path d="M230.11 347.802C230.11 347.802 233.086 350.99 232.335 353.752C231.587 356.512 231.502 362.111 233.962 360.813C236.421 359.515 237.936 350.649 236.751 348.576C235.566 346.5 239.418 353.752 238.205 356.864C236.992 359.976 241.001 359.888 242.34 356.674C245.709 348.588 240.511 347.529 240.511 347.529L237.165 345.383L230.11 347.802Z" fill="#262626"/>
<path d="M207.303 303.929C207.303 303.929 213.302 321.28 218.865 321.937C224.428 322.593 229.136 322.544 231.872 320.688C234.609 318.829 239.788 302.227 239.788 302.227L207.303 303.929Z" fill="#0C6C45"/>
<path d="M145.4 302.227C145.4 302.227 153.414 323.949 158.977 324.605C164.539 325.262 169.247 325.215 171.984 323.356C174.721 321.498 179.9 304.895 179.9 304.895L145.4 302.227Z" fill="#0C6C45"/>
<path d="M236.742 50.581C236.742 50.581 234.046 30.5142 240.621 29.5366C247.196 28.559 250.09 34.9212 250.09 34.9212C250.09 34.9212 239.129 3.11019 260.781 0.172194C282.434 -2.76321 292.527 32.472 274.268 56.9432L236.742 50.581Z" fill="#0C6C45"/>
<path d="M125.507 230.102C125.507 230.102 -5.99324 282.026 0.212964 300.265C2.76876 307.777 21.3432 304.872 21.3432 304.872C21.3432 304.872 15.605 312.142 21.2444 314.565C29.034 317.909 41.4386 313.561 41.4386 313.561C41.4386 313.561 34.1352 320.368 42.008 325.306C57.3168 334.905 115.32 292.177 150.821 259.042L125.507 230.102Z" fill="#17B268"/>
<path d="M41.4404 313.567C47.1708 309.581 52.9974 305.754 58.8396 301.945C64.6792 298.136 70.5968 294.452 76.4728 290.7L94.3088 279.78C100.291 276.2 106.29 272.64 112.384 269.242C106.656 273.228 100.827 277.058 94.9874 280.864L77.3516 292.107C71.4028 295.741 65.4982 299.446 59.513 303.024C53.5304 306.607 47.5322 310.164 41.4404 313.567Z" fill="#0C6C45"/>
<path d="M22.085 302.335C27.8154 298.349 33.6419 294.52 39.4841 290.713C45.3237 286.904 51.2414 283.22 57.1174 279.468L74.9533 268.548C80.9359 264.968 86.9342 261.409 93.0286 258.008C87.3008 261.994 81.4742 265.823 75.632 269.632L57.9962 280.875C52.0474 284.51 46.1427 288.215 40.1575 291.792C34.1749 295.375 28.1794 298.932 22.085 302.335Z" fill="#0C6C45"/>
<path d="M306.226 75.4082C302.113 74.2434 296.918 73.024 291.156 72.0698C296.689 72.9382 301.847 74.168 306.226 75.4082C296.52 59.1296 274.147 47.96 251.756 44.9232C251.756 44.9232 200.499 34.5492 175.953 82.4854C154.698 123.992 99.3308 242.7 99.3308 242.7L88.3926 259.496C88.3926 259.496 96.5462 270.866 111.871 283.268C126.514 295.119 147.704 307.913 174.648 312.64C181.418 313.828 188.529 314.538 196.009 314.561C244.684 314.725 273.242 288.954 291.762 256.212C299.276 242.926 305.147 228.499 310.027 214.181C315.955 196.781 320.783 171.962 321.288 146.622C321.795 121.038 317.874 94.942 306.226 75.4082Z" fill="#009850"/>
<path d="M240.953 202.99C224.917 196.295 206.62 195.159 189.876 199.813C173.132 204.47 158.05 214.888 147.769 228.899C133.23 248.719 128.865 275.728 136.855 298.972C136.959 299.273 137.086 299.567 137.193 299.869C148.029 305.472 160.541 310.165 174.646 312.64C181.416 313.828 188.527 314.538 196.007 314.561C243.286 314.72 271.581 290.41 290.138 259.012C289.654 257.46 289.144 255.918 288.583 254.392C280.284 231.84 263.131 212.246 240.953 202.99Z" fill="#009850"/>
<path d="M304.437 100.748C301.177 70.3539 258.165 63.3417 258.165 63.3417C238.704 57.8297 197.138 54.6759 182.49 80.7929C165.46 111.161 194.964 127.518 194.964 127.518C194.964 127.518 141.012 202.21 217.548 225.493C229.045 228.99 241.395 229.396 252.872 225.829C307.469 208.853 283.752 135.289 283.752 135.289C283.752 135.289 307.698 131.142 304.437 100.748Z" fill="#EFEDE4"/>
<path opacity="0.25" d="M213.843 157.475C209.093 133.903 185.425 119.413 162.038 125.003C145.341 128.992 133.438 134.366 109.887 160.049C72.6603 200.645 70.7077 206.498 86.7289 213.973C86.7289 213.973 71.3135 267.91 77.8889 257.897C77.8889 257.897 57.9989 289.001 70.7623 292.813C83.5231 296.627 96.7103 276.378 96.7103 276.378C96.7103 276.378 95.0983 277.813 104.555 282.491C114.013 287.168 132.005 269.595 132.005 269.595C132.005 269.595 117.669 289.035 128.755 291.328C139.839 293.621 183.545 277.304 208.352 204.831C215.312 184.499 216.188 169.102 213.843 157.475Z" fill="#80544B"/>
<path d="M208.745 146.623C203.994 123.052 180.327 108.562 156.94 114.152C140.242 118.14 121.294 130.932 97.7428 156.615C60.516 197.211 44.8483 247.105 60.8695 254.58C60.8695 254.58 66.2125 257.058 72.7905 247.046C72.7905 247.046 52.9031 278.149 65.6639 281.961C78.4247 285.775 91.612 265.526 91.612 265.526C91.612 265.526 78.8875 286.937 88.3437 291.615C97.8025 296.292 126.907 258.743 126.907 258.743C126.907 258.743 112.573 278.183 123.657 280.476C134.741 282.77 178.447 266.452 203.253 193.98C210.214 173.648 211.087 158.253 208.745 146.623Z" fill="#17B268"/>
<path d="M68.2373 198.109C68.2373 198.109 106 244.257 175.006 249.345" stroke="#FFF4EB" stroke-width="1.66192" stroke-miterlimit="10" stroke-linecap="round"/>
<path d="M71.3936 249.342C71.3936 249.342 92.0479 205.818 106.241 191.461" stroke="#FFF4EB" stroke-width="1.66192" stroke-miterlimit="10" stroke-linecap="round"/>
<path d="M91.6123 265.531C91.6123 265.531 123.374 222.022 137.079 196.992" stroke="#FFF4EB" stroke-width="1.66192" stroke-miterlimit="10" stroke-linecap="round"/>
<path d="M126.907 258.741C126.907 258.741 148.914 219.673 154.496 210.617" stroke="#FFF4EB" stroke-width="1.66192" stroke-miterlimit="10" stroke-linecap="round"/>
<path d="M87.3618 183.438C90.8042 185.466 94.244 187.491 97.6864 189.519C98.6666 190.096 99.5479 188.562 98.5651 187.983C95.1227 185.955 91.683 183.929 88.2406 181.901C87.2604 181.324 86.379 182.858 87.3618 183.438Z" fill="#EFEDE4"/>
<path d="M83.6636 188.085C85.0546 188.797 86.4456 189.512 87.8366 190.225C88.2474 190.435 88.8194 190.334 89.043 189.897C89.2536 189.486 89.1548 188.914 88.7154 188.691C87.3244 187.978 85.9334 187.263 84.5424 186.551C84.1316 186.34 83.5596 186.442 83.336 186.879C83.1228 187.289 83.2242 187.861 83.6636 188.085Z" fill="#EFEDE4"/>
<path d="M99.6218 216.07C100.976 217.027 102.331 217.984 103.686 218.941C104.065 219.209 104.689 219.008 104.892 218.613C105.129 218.153 104.97 217.693 104.564 217.407C103.21 216.45 101.855 215.493 100.501 214.536C100.121 214.269 99.497 214.469 99.2942 214.864C99.0576 215.324 99.2162 215.784 99.6218 216.07Z" fill="#EFEDE4"/>
<path d="M114.671 202.646C115.159 202.721 115.648 202.794 116.137 202.869C116.249 202.903 116.363 202.908 116.475 202.885C116.595 202.879 116.706 202.846 116.808 202.781C116.917 202.724 117 202.646 117.065 202.544C117.143 202.458 117.195 202.357 117.221 202.243C117.271 202.019 117.26 201.769 117.133 201.572C117.086 201.509 117.037 201.447 116.987 201.384C116.875 201.275 116.745 201.2 116.595 201.161C116.106 201.085 115.617 201.01 115.128 200.937C115.016 200.903 114.902 200.896 114.79 200.922C114.671 200.927 114.559 200.961 114.457 201.026C114.348 201.083 114.265 201.161 114.2 201.262C114.122 201.348 114.07 201.449 114.044 201.564C113.995 201.787 114.005 202.037 114.132 202.235C114.182 202.297 114.229 202.36 114.278 202.422C114.39 202.529 114.52 202.604 114.671 202.646Z" fill="#EFEDE4"/>
<path d="M140.579 216.35C141.704 217.249 142.83 218.151 143.956 219.051C144.315 219.34 144.863 219.423 145.207 219.043C145.5 218.718 145.586 218.102 145.199 217.793C144.073 216.893 142.947 215.991 141.821 215.091C141.46 214.803 140.914 214.719 140.571 215.099C140.277 215.424 140.194 216.04 140.579 216.35Z" fill="#EFEDE4"/>
<path d="M165.493 229.389C166.618 230.288 167.744 231.19 168.87 232.09C169.231 232.379 169.777 232.462 170.121 232.082C170.414 231.757 170.5 231.141 170.113 230.832C168.987 229.932 167.861 229.032 166.735 228.13C166.377 227.842 165.828 227.759 165.485 228.138C165.191 228.463 165.105 229.079 165.493 229.389Z" fill="#EFEDE4"/>
<path d="M241.341 99.1875C241.341 99.1875 252.186 106.743 241.866 121.937C241.866 121.937 219.826 115.781 206.124 108.415L241.341 99.1875Z" fill="#222221"/>
<path d="M246.466 110.211C246.528 110.198 246.541 110.185 246.557 110.169L246.315 109.922L246.268 109.582C245.496 109.641 221.046 108.664 208.222 108.141C208.038 108.131 207.871 108.282 207.864 108.471C207.856 108.661 208.004 108.822 208.194 108.83C242.225 110.221 245.954 110.31 246.466 110.211Z" fill="#1A1A1A"/>
<path d="M271.875 96.1933C266.925 99.0169 265.198 105.322 268.022 110.272C270.845 115.225 277.15 116.949 282.101 114.125C287.051 111.302 288.778 104.997 285.954 100.046C283.13 95.0934 276.825 93.3697 271.875 96.1933Z" fill="#222221"/>
<path d="M283.593 105.37C282.821 106.61 281.188 106.99 279.945 106.215C278.705 105.44 278.325 103.807 279.1 102.567C279.875 101.327 281.508 100.947 282.748 101.722C283.988 102.494 284.365 104.127 283.593 105.37Z" fill="white"/>
<path d="M198.396 82.6444C193.822 85.2548 192.228 91.0763 194.836 95.6497C197.444 100.223 203.268 101.817 207.841 99.209C212.415 96.5986 214.009 90.7773 211.401 86.2013C208.793 81.6279 202.972 80.0366 198.396 82.6444Z" fill="#222221"/>
<path d="M209.223 91.1237C208.508 92.2703 207 92.6187 205.853 91.9037C204.707 91.1887 204.358 89.6808 205.073 88.5342C205.788 87.3876 207.296 87.0391 208.443 87.7541C209.587 88.4691 209.938 89.9771 209.223 91.1237Z" fill="white"/>
<path d="M272.968 153.978C273.338 154.953 273.73 155.925 274.079 156.908C274.339 157.647 274.255 158.479 274.248 159.248C274.24 160.296 274.349 161.448 273.824 162.389C273.247 163.421 272.261 164.126 271.06 164.196C269.945 164.261 268.626 163.7 268.078 162.678C270.423 163.728 271.148 164.214 270.249 164.139C270.233 164.139 270.218 164.136 270.202 164.136C269.279 163.933 268.522 163.39 268.028 162.589C267.563 161.838 267.498 161.079 267.503 160.242C267.508 159.623 267.514 159.001 267.516 158.383C267.516 158.323 267.516 158.263 267.516 158.203C267.482 157.595 267.605 157.02 267.878 156.477C267.93 156.342 267.982 156.209 268.036 156.076C268.143 155.809 268.247 155.541 268.353 155.273C268.564 154.737 268.775 154.204 268.985 153.669C269.11 153.349 269.458 153.013 269.742 152.831C270.137 152.577 270.6 152.481 271.063 152.514C271.957 152.572 272.656 153.151 272.968 153.978Z" fill="#41A47B"/>
<path d="M279.536 171.956C279.796 172.78 279.957 173.628 280.103 174.48C280.204 175.073 280.264 175.674 280.277 176.274C280.285 176.566 280.28 176.859 280.264 177.151C280.243 177.577 280.264 178.022 280.176 178.433C280.106 178.75 279.991 179.161 279.843 179.452C279.687 179.759 279.424 180.073 279.219 180.351C278.8 180.921 278.325 181.469 277.745 181.88C276.637 182.663 274.687 182.319 274.04 181.071C273.694 180.406 273.486 179.686 273.169 179.007C273.299 179.285 273.431 179.561 273.561 179.839C273.275 179.236 272.966 178.713 272.956 178.011C272.95 177.634 273.01 177.25 273.039 176.875C273.015 177.19 272.995 177.504 272.971 177.816C273.039 176.776 272.979 175.736 272.789 174.709C272.846 175.013 272.904 175.32 272.961 175.624C272.867 175.146 272.748 174.673 272.602 174.208C272.319 173.313 272.394 172.265 272.82 171.428C273.226 170.633 274.063 169.86 274.942 169.616C275.849 169.364 276.876 169.356 277.721 169.834C278.564 170.31 279.24 171.02 279.536 171.956Z" fill="#41A47B"/>
<path d="M271.902 193.692C271.727 194.558 271.556 195.421 271.382 196.287C271.298 196.703 271.226 197.121 271.132 197.535C270.945 198.372 270.326 199.051 269.84 199.742C269.679 199.877 269.52 200.013 269.359 200.148C269.172 200.236 268.984 200.325 268.797 200.413C268.285 200.579 267.752 200.551 267.25 200.377C266.325 200.052 265.703 199.227 265.62 198.245C265.602 198.029 265.584 197.81 265.565 197.595C265.558 197.501 265.55 197.41 265.542 197.316C265.519 197.028 265.511 196.677 265.581 196.399C265.685 195.975 265.875 195.551 266.02 195.138C266.306 194.313 266.595 193.487 266.881 192.662C266.941 192.311 267.081 191.999 267.305 191.732C267.474 191.435 267.708 191.196 268.009 191.019C268.529 190.686 269.302 190.512 269.91 190.666C270.563 190.829 271.205 191.193 271.553 191.794C271.883 192.371 272.037 193.021 271.902 193.692Z" fill="#41A47B"/>
<path d="M262.825 173.06C262.378 173.96 261.933 174.859 261.486 175.759C261.234 176.268 260.579 176.612 260.012 176.469C259.775 176.409 259.559 176.3 259.372 176.144C259.097 175.915 258.985 175.564 258.935 175.226C258.787 174.201 258.639 173.177 258.488 172.153C258.465 171.739 258.548 171.349 258.735 170.977C258.925 170.608 259.193 170.312 259.539 170.088C260.056 169.787 260.641 169.649 261.239 169.771C261.821 169.891 262.388 170.278 262.708 170.78C263.153 171.464 263.186 172.332 262.825 173.06Z" fill="#41A47B"/>
<path d="M246.597 206.799C243.81 205.38 246.012 201.048 248.802 202.47C251.587 203.887 249.387 208.219 246.597 206.799Z" fill="#41A47B"/>
<path d="M125.002 156.089C125.033 156.117 125.067 156.146 125.101 156.175C125.535 156.557 126.175 156.7 126.728 156.697C127.334 156.695 127.891 156.52 128.382 156.149C128.923 155.74 129.404 155.231 129.906 154.773C130.392 154.329 130.878 153.884 131.364 153.437C131.851 152.992 132.337 152.548 132.823 152.1C133.611 151.38 134.482 150.468 134.885 149.454C135.342 148.299 135.069 146.984 134.188 146.115C133.353 145.294 131.952 144.927 130.85 145.463C129.219 146.258 128.164 147.821 127.074 149.212C126.666 149.734 126.258 150.254 125.847 150.777C125.426 151.313 124.955 151.835 124.586 152.407C124.256 152.917 124.061 153.416 124.064 154.035C124.066 154.589 124.214 155.27 124.612 155.688C124.737 155.826 124.864 155.967 125.002 156.089Z" fill="#EFEDE4"/>
<path d="M154.029 133.819C154.354 133.473 154.679 133.127 155.004 132.779C155.488 132.264 156.138 131.713 156.343 131.024C156.572 130.465 156.647 129.885 156.567 129.285C156.484 128.687 156.255 128.148 155.883 127.67C155.836 127.623 155.792 127.576 155.745 127.53C155.722 127.504 155.696 127.48 155.672 127.454C155.662 127.444 155.652 127.433 155.639 127.42C155.633 127.415 155.628 127.41 155.623 127.405C155.433 127.145 155.197 126.947 154.911 126.815C154.739 126.687 154.549 126.607 154.339 126.578C154.235 126.547 154.128 126.518 154.024 126.492C154.011 126.49 153.995 126.484 153.982 126.482C153.951 126.474 153.917 126.466 153.886 126.458C153.821 126.443 153.759 126.427 153.694 126.412C153.083 126.334 152.495 126.414 151.928 126.653C151.388 126.887 150.938 127.238 150.579 127.709C150.08 128.268 149.955 129.066 149.765 129.766C149.64 130.226 149.513 130.686 149.388 131.149C149.235 131.482 149.175 131.827 149.206 132.186C149.175 132.553 149.24 132.906 149.401 133.247C149.521 133.447 149.638 133.647 149.757 133.85C149.968 134.139 150.231 134.357 150.548 134.505C150.738 134.648 150.951 134.737 151.185 134.768C151.525 134.893 151.882 134.921 152.248 134.856C152.48 134.791 152.714 134.729 152.945 134.664C153.379 134.479 153.741 134.199 154.029 133.819Z" fill="#EFEDE4"/>
<path d="M150.062 151.905C150.405 151.83 150.748 151.738 151.079 151.619C151.203 151.575 151.323 151.52 151.44 151.458C151.851 151.237 152.288 150.997 152.636 150.675C152.891 150.441 153.14 150.191 153.367 149.929C153.452 149.827 153.533 149.721 153.606 149.612C153.801 149.31 153.983 149.001 154.141 148.678C154.3 148.348 154.394 147.987 154.466 147.63C154.531 147.24 154.498 146.866 154.362 146.505C154.295 146.133 154.136 145.803 153.887 145.509C153.715 145.34 153.543 145.171 153.372 145.002C153.081 144.763 152.753 144.612 152.389 144.544C152.152 144.448 151.908 144.417 151.656 144.451C151.271 144.419 150.902 144.487 150.546 144.653C150.335 144.778 150.124 144.903 149.914 145.028C149.526 145.335 149.238 145.717 149.045 146.172C148.965 146.455 148.882 146.739 148.824 147.027C148.814 147.087 148.798 147.144 148.783 147.204C148.845 146.97 148.908 146.736 148.973 146.502C148.905 146.749 148.809 146.983 148.684 147.207C148.801 147.004 148.915 146.801 149.032 146.601C148.905 146.822 148.752 147.025 148.575 147.209C148.733 147.048 148.895 146.884 149.053 146.723C148.882 146.897 148.692 147.048 148.484 147.176C148.676 147.061 148.871 146.947 149.064 146.832C148.949 146.9 148.83 146.96 148.707 147.012C148.388 147.136 148.12 147.326 147.907 147.584C147.654 147.799 147.47 148.067 147.35 148.387C147.293 148.6 147.236 148.816 147.176 149.029C147.116 149.38 147.147 149.721 147.27 150.048C147.301 150.277 147.389 150.483 147.53 150.665C147.675 150.966 147.888 151.213 148.167 151.411C148.356 151.52 148.546 151.629 148.736 151.738C149.16 151.91 149.604 151.967 150.062 151.905Z" fill="#EFEDE4"/>
<path d="M251.721 255.785C252.379 255.541 253.037 255.294 253.695 255.05C254.165 254.873 254.651 254.717 255.093 254.478C255.45 254.285 255.775 254.02 256.105 253.791C256.729 253.357 257.353 252.923 257.979 252.489C258.372 252.216 258.762 251.95 259.129 251.644C259.519 251.319 259.838 250.929 260.176 250.552C261.076 249.545 261.105 248.035 260.241 247.005C259.415 246.02 257.847 245.671 256.737 246.449C256.425 246.667 256.107 246.878 255.803 247.104C255.327 247.458 254.971 247.874 254.584 248.31C254.059 248.906 253.531 249.499 253.006 250.094C252.751 250.38 252.488 250.661 252.249 250.96C251.924 251.365 251.711 251.802 251.477 252.257C251.136 252.923 250.796 253.588 250.455 254.251C250.044 255.039 250.816 256.123 251.721 255.785Z" fill="#EFEDE4"/>
<path d="M269.705 251.817C270.147 251.438 270.586 251.056 271.028 250.676C271.241 250.491 271.455 250.309 271.665 250.125C272.027 249.813 272.242 249.329 272.318 248.866C272.339 248.734 272.362 248.601 272.383 248.469C272.458 248.136 272.448 247.808 272.349 247.481C272.281 247.228 272.159 247.013 271.98 246.833C271.837 246.63 271.655 246.477 271.429 246.368C271.135 246.214 270.82 246.139 270.487 246.149C270.368 246.162 270.251 246.178 270.131 246.191C270.087 246.196 270.043 246.201 269.999 246.207C269.58 246.222 269.193 246.342 268.836 246.565C268.667 246.703 268.501 246.844 268.335 246.984C268.132 247.189 267.937 247.405 267.737 247.613C267.331 248.04 266.928 248.469 266.522 248.895C266.153 249.285 265.937 249.886 265.953 250.421C265.95 250.723 266.023 251.001 266.169 251.256C266.265 251.526 266.426 251.758 266.65 251.947C267.068 252.301 267.612 252.558 268.176 252.517C268.366 252.486 268.556 252.454 268.748 252.421C269.122 252.304 269.44 252.103 269.705 251.817Z" fill="#EFEDE4"/>
<path d="M275.657 239.318C275.867 238.84 276.078 238.361 276.288 237.883C276.392 237.649 276.496 237.412 276.598 237.178C276.652 237.056 276.704 236.934 276.759 236.812C276.782 236.76 276.806 236.708 276.827 236.656C276.99 236.281 277.074 236.029 277.071 235.616C277.071 235.356 277.011 235.117 276.884 234.898C276.801 234.664 276.663 234.467 276.47 234.303C276.34 234.212 276.21 234.121 276.08 234.03C275.792 233.876 275.482 233.806 275.155 233.814C274.757 233.793 274.37 233.988 274.003 234.129C273.785 234.212 273.569 234.298 273.35 234.381C272.898 234.555 272.448 234.729 271.996 234.903C271.46 235.07 271.003 235.358 270.623 235.769C270.259 236.17 270.012 236.635 269.887 237.16C269.762 237.706 269.781 238.247 269.944 238.783C270.054 239.196 270.256 239.55 270.553 239.846C270.787 240.176 271.088 240.431 271.46 240.613C271.944 240.868 272.459 240.987 273.005 240.972C273.574 240.951 274.099 240.79 274.583 240.486C275.043 240.189 275.402 239.799 275.657 239.318Z" fill="#EFEDE4"/>
<path d="M289.983 245.228C290.472 244.999 290.963 244.773 291.454 244.544C291.691 244.435 291.928 244.328 292.162 244.214C292.627 243.988 292.999 243.514 293.178 243.033C293.22 242.922 293.264 242.81 293.306 242.695C293.482 242.36 293.566 242.001 293.555 241.622C293.558 241.32 293.485 241.042 293.339 240.787C293.243 240.517 293.082 240.285 292.858 240.095C292.58 239.841 292.258 239.672 291.891 239.583C291.792 239.57 291.694 239.56 291.595 239.547C291.444 239.529 291.293 239.513 291.14 239.497C291.015 239.479 290.888 239.466 290.76 239.461C290.29 239.479 289.855 239.612 289.458 239.861C289.239 240.017 289.031 240.189 288.818 240.353C288.384 240.686 287.95 241.021 287.515 241.354C287.25 241.51 287.042 241.718 286.891 241.975C286.699 242.204 286.574 242.467 286.517 242.763C286.434 243.065 286.431 243.364 286.507 243.657C286.53 243.969 286.634 244.255 286.816 244.521C287.151 244.999 287.638 245.41 288.228 245.522C288.425 245.542 288.623 245.561 288.821 245.581C289.239 245.571 289.627 245.451 289.983 245.228Z" fill="#EFEDE4"/>
</svg>
