<svg width="834" height="587" viewBox="0 0 834 587" fill="none" xmlns="http://www.w3.org/2000/svg">
<path d="M468.343 287.484L420.406 301.534L372.469 287.484C343.624 375.278 316.203 509.614 345.018 528.378C359.839 538.031 365.753 519.971 365.753 519.971C365.753 519.971 368.159 544.869 380.166 555.65C388.858 563.454 396.826 547.734 396.826 547.734C396.826 547.734 404.063 573.025 415.6 579.22C416.724 579.946 417.903 580.41 419.144 580.543C419.492 580.579 419.834 580.579 420.181 580.579C420.258 580.584 420.334 580.584 420.411 580.584C420.488 580.584 420.564 580.579 420.641 580.579C420.983 580.579 421.325 580.584 421.678 580.543C422.919 580.41 424.099 579.946 425.222 579.22C436.759 573.02 443.991 547.734 443.991 547.734C443.991 547.734 451.964 563.459 460.651 555.65C472.653 544.869 475.064 519.971 475.064 519.971C475.064 519.971 480.983 538.031 495.799 528.378C524.609 509.614 497.188 375.283 468.343 287.484Z" fill="#79D5A9"/>
<path d="M407.511 91.9304C407.511 91.9304 362.614 68.5341 383.605 48.7793C397.134 36.0469 412.481 51.7926 412.481 51.7926C412.481 51.7926 417.215 0 431.495 0C445.775 0 444.754 56.0418 444.754 56.0418C444.754 56.0418 468.196 36.5628 470.361 69.2645C472.527 101.966 434.376 101.992 407.511 91.9304Z" fill="#0C6C45"/>
<path d="M583.898 212.82C627.881 188.091 667.963 156.436 702.202 119.373C720.634 99.4237 746.017 75.6597 770.751 86.8752C795.552 98.1213 793.484 136.579 775.276 156.829C783.861 140.353 810.072 139.771 822.809 153.305C835.542 166.834 835.807 188.703 827.932 205.532C820.057 222.36 805.583 235.093 790.828 246.39C799.755 235.322 819.75 247.81 819.061 262.013C818.371 276.216 805.818 286.768 793.509 293.892C775.818 304.127 756.333 311.267 736.221 314.888C746.951 307.406 761.216 323.668 757.094 336.083C752.978 348.499 739.663 355.011 727.493 359.791C688.586 375.067 647.319 386.415 605.552 384.898C569.24 383.581 521.375 371.808 501.002 338.29C483.719 309.858 498.561 276.037 519.965 254.413C538.014 236.175 561.814 225.236 583.898 212.82Z" fill="#17B268"/>
<path d="M676.059 184.3C684.864 178.539 697.024 172.962 705.017 179.806C712.264 186.016 710.017 197.788 705.64 206.271C701.269 214.755 695.186 223.452 696.677 232.88C705.743 236.966 717.147 231.21 726.003 235.735C733.689 239.663 735.988 250.332 732.734 258.33C729.481 266.327 722.106 271.925 714.399 275.822C706.902 279.617 697.116 285.357 699.512 293.411C701.779 301.041 712.806 301.394 718.26 307.191C722.847 312.068 722.433 320.143 718.965 325.868C715.497 331.593 709.655 335.423 703.817 338.697C680.727 351.629 654.374 358.375 627.959 358.952C603.465 359.484 576.912 355.694 556.09 341.956C540.773 331.848 526.974 314.208 533.373 294.923C537.152 283.539 546.575 275.454 555.789 268.391C567.668 259.29 579.869 250.577 592.035 241.854C616.611 224.239 641.519 207.089 666.749 190.418C669.849 188.37 672.949 186.333 676.059 184.3Z" fill="#0C6C45"/>
<path d="M609.286 278.474C609.286 276.932 608.602 275.093 607.448 274.031C606.253 272.933 604.68 272.116 603.005 272.192C602.448 272.269 601.891 272.341 601.334 272.417C600.272 272.713 599.348 273.255 598.561 274.031C595.313 276.799 592.065 279.562 588.817 282.33C588.204 282.897 587.77 283.571 587.519 284.353C587.126 285.104 586.947 285.911 586.978 286.774C586.978 288.316 587.662 290.155 588.817 291.217C590.012 292.315 591.585 293.132 593.26 293.056C593.817 292.979 594.373 292.907 594.93 292.831C595.992 292.535 596.917 291.993 597.703 291.217C600.951 288.454 604.2 285.686 607.448 282.923" fill="#002D1B"/>
<path d="M577.502 266.239C577.318 266.495 577.155 266.765 577.012 267.046C576.634 267.787 576.307 268.563 576.036 269.344C575.929 269.656 575.852 269.973 575.791 270.294C575.531 271.127 575.49 271.964 575.679 272.802C575.715 273.64 575.965 274.416 576.424 275.136C576.818 275.866 577.359 276.454 578.043 276.898C578.651 277.455 579.361 277.827 580.178 278.022C580.735 278.098 581.292 278.17 581.848 278.246C582.982 278.241 584.039 277.955 585.02 277.388C585.444 277.061 585.868 276.735 586.292 276.408C587.073 275.621 587.609 274.702 587.906 273.634C587.987 273.18 588.115 272.741 588.294 272.312C588.084 272.812 587.87 273.313 587.66 273.813C587.88 273.297 588.166 272.822 588.503 272.378C588.176 272.802 587.849 273.226 587.522 273.65C587.87 273.211 588.263 272.817 588.702 272.47C588.278 272.797 587.854 273.124 587.431 273.451C587.854 273.129 588.314 272.853 588.804 272.644C588.304 272.853 587.803 273.068 587.303 273.277C587.614 273.144 587.936 273.037 588.268 272.96C589.085 272.766 589.795 272.393 590.403 271.837C591.087 271.392 591.629 270.805 592.022 270.075C592.482 269.355 592.732 268.573 592.768 267.741C592.957 266.908 592.916 266.071 592.655 265.238C592.446 264.738 592.231 264.237 592.022 263.737C591.465 262.792 590.709 262.041 589.77 261.484C589.269 261.275 588.769 261.06 588.268 260.851C587.155 260.55 586.041 260.55 584.928 260.851C584.622 260.922 584.325 261.025 584.029 261.142C583.284 261.443 582.461 261.745 581.751 262.164C581.046 262.577 580.383 263.144 579.76 263.64" fill="#002D1B"/>
<path d="M571.167 298.375C570.329 298.186 569.497 298.227 568.659 298.487C567.842 298.681 567.132 299.054 566.524 299.611C565.84 300.055 565.299 300.643 564.905 301.373C564.696 301.874 564.481 302.374 564.272 302.875C563.971 303.988 563.971 305.101 564.272 306.215C564.481 306.715 564.696 307.216 564.905 307.716C565.462 308.661 566.218 309.412 567.157 309.969C568.245 310.525 569.333 311.077 570.421 311.633C571.141 312.093 571.923 312.343 572.755 312.379C573.593 312.568 574.425 312.527 575.263 312.267C576.08 312.073 576.79 311.7 577.398 311.143C578.082 310.699 578.623 310.112 579.017 309.381C579.226 308.881 579.44 308.38 579.65 307.88C579.951 306.766 579.951 305.653 579.65 304.54C579.44 304.039 579.226 303.538 579.017 303.038C578.46 302.093 577.704 301.342 576.764 300.786" fill="#002D1B"/>
<path d="M713.814 220.445C737.94 200.434 760.019 178.075 779.718 153.698C781.286 151.757 778.538 148.974 776.955 150.935C757.251 175.312 735.172 197.677 711.046 217.682C709.11 219.285 711.888 222.038 713.814 220.445Z" fill="white"/>
<path d="M735.609 281.012C753.433 269.766 771.258 258.519 789.082 247.273C791.201 245.935 789.245 242.549 787.111 243.897C769.286 255.143 751.462 266.39 733.643 277.636C731.513 278.979 733.474 282.36 735.609 281.012Z" fill="white"/>
<path d="M725.414 317.998C731.277 318.866 737.232 318.462 742.886 316.639C743.892 316.317 744.54 315.286 744.249 314.234C743.979 313.248 742.855 312.543 741.844 312.87C736.895 314.463 731.609 314.99 726.45 314.229C725.409 314.075 724.352 314.489 724.045 315.592C723.795 316.511 724.362 317.839 725.414 317.998Z" fill="white"/>
<path d="M724.124 156.079C727.397 164.271 730.676 172.468 733.95 180.66C734.343 181.641 735.257 182.325 736.355 182.024C737.285 181.768 738.118 180.604 737.719 179.618C734.445 171.426 731.167 163.229 727.893 155.037C727.5 154.056 726.585 153.372 725.487 153.673C724.558 153.934 723.725 155.093 724.124 156.079Z" fill="white"/>
<path d="M735.503 149.559C736.596 152.838 737.689 156.117 738.782 159.39C739.104 160.361 740.146 161.091 741.188 160.754C742.153 160.442 742.899 159.39 742.551 158.348C741.459 155.07 740.366 151.791 739.273 148.517C738.951 147.552 737.909 146.816 736.867 147.153C735.907 147.465 735.161 148.517 735.503 149.559Z" fill="white"/>
<path d="M791.474 194.214C793.109 197.493 794.748 200.772 796.383 204.051C796.842 204.97 798.211 205.297 799.059 204.751C799.998 204.148 800.249 203.055 799.758 202.074C798.124 198.795 796.485 195.517 794.85 192.238C794.391 191.324 793.022 190.992 792.174 191.538C791.24 192.146 790.989 193.234 791.474 194.214Z" fill="white"/>
<path d="M756.736 221.137C756.736 222.23 756.736 223.323 756.736 224.416C756.736 224.916 756.956 225.442 757.308 225.8C757.645 226.137 758.202 226.392 758.692 226.372C759.198 226.351 759.724 226.183 760.076 225.8C760.429 225.417 760.648 224.947 760.648 224.416C760.648 223.323 760.648 222.23 760.648 221.137C760.648 220.636 760.429 220.11 760.076 219.753C759.739 219.416 759.183 219.16 758.692 219.181C758.187 219.201 757.661 219.37 757.308 219.753C756.956 220.136 756.736 220.606 756.736 221.137Z" fill="white"/>
<path d="M778.612 284.244C780.2 287.002 781.794 289.765 783.382 292.522C783.893 293.411 785.175 293.794 786.058 293.222C786.952 292.645 787.304 291.496 786.758 290.546C785.17 287.788 783.576 285.025 781.988 282.267C781.477 281.378 780.195 280.995 779.311 281.567C778.418 282.145 778.065 283.294 778.612 284.244Z" fill="white"/>
<path d="M249.334 203.765C205.351 179.036 165.269 147.381 131.03 110.318C112.598 90.369 87.215 66.605 62.4806 77.8205C37.6798 89.0667 39.7483 127.524 57.9556 147.774C49.3703 131.293 23.16 130.716 10.4225 144.25C-2.30985 157.78 -2.57546 179.649 5.29991 196.477C13.1753 213.305 27.6492 226.038 42.404 237.335C33.4766 226.268 13.4817 238.755 14.1712 252.958C14.8607 267.161 27.4143 277.713 39.7228 284.838C57.4143 295.073 76.8984 302.212 97.0107 305.828C86.2804 298.346 72.0159 314.608 76.1375 327.023C80.2539 339.439 93.5685 345.951 105.744 350.731C144.651 366.007 185.918 377.355 227.685 375.838C263.997 374.521 311.862 362.749 332.235 329.23C349.518 300.798 334.676 266.972 313.272 245.353C295.213 227.115 271.413 216.176 249.334 203.765Z" fill="#17B268"/>
<path d="M157.165 175.232C148.36 169.471 136.2 163.889 128.207 170.738C120.96 176.948 123.207 188.72 127.584 197.198C131.955 205.681 138.038 214.379 136.547 223.807C127.481 227.893 116.077 222.137 107.221 226.662C99.5346 230.589 97.2364 241.258 100.49 249.256C103.743 257.254 111.118 262.852 118.825 266.749C126.322 270.543 136.108 276.284 133.712 284.338C131.445 291.968 120.418 292.321 114.964 298.117C110.377 302.995 110.791 311.069 114.264 316.795C117.732 322.52 123.574 326.35 129.412 329.624C152.502 342.556 178.855 349.302 205.27 349.879C229.764 350.41 256.317 346.621 277.139 332.882C292.456 322.775 306.255 305.135 299.856 285.85C296.077 274.466 286.654 266.381 277.44 259.318C265.561 250.217 253.36 241.504 241.194 232.78C216.618 215.166 191.71 198.015 166.48 181.345C163.375 179.302 160.275 177.265 157.165 175.232Z" fill="#0C6C45"/>
<path d="M223.94 269.42C223.94 267.877 224.625 266.039 225.779 264.976C226.974 263.878 228.547 263.061 230.222 263.138C230.779 263.214 231.336 263.286 231.892 263.362C232.955 263.659 233.879 264.2 234.666 264.976C237.914 267.745 241.162 270.508 244.41 273.276C245.023 273.843 245.457 274.517 245.708 275.298C246.101 276.049 246.28 276.856 246.249 277.719C246.249 279.261 245.565 281.1 244.41 282.162C243.215 283.26 241.642 284.077 239.967 284.001C239.41 283.924 238.854 283.853 238.297 283.776C237.235 283.48 236.31 282.939 235.524 282.162C232.275 279.399 229.027 276.631 225.779 273.863" fill="#002D1B"/>
<path d="M255.728 257.186C255.911 257.441 256.075 257.712 256.218 257.993C256.596 258.733 256.923 259.51 257.193 260.291C257.301 260.602 257.377 260.919 257.438 261.241C257.699 262.078 257.74 262.911 257.551 263.749C257.515 264.586 257.265 265.362 256.805 266.083C256.412 266.813 255.871 267.4 255.186 267.845C254.578 268.401 253.869 268.774 253.051 268.968C252.495 269.045 251.938 269.116 251.381 269.193C250.247 269.188 249.19 268.902 248.21 268.335C247.786 268.008 247.362 267.681 246.938 267.354C246.157 266.573 245.62 265.648 245.324 264.581C245.242 264.126 245.115 263.687 244.936 263.258C245.145 263.759 245.36 264.259 245.569 264.76C245.35 264.244 245.069 263.769 244.727 263.325C245.053 263.749 245.38 264.172 245.707 264.596C245.36 264.157 244.967 263.764 244.527 263.417C244.951 263.743 245.375 264.07 245.799 264.397C245.375 264.075 244.915 263.8 244.425 263.59C244.926 263.8 245.426 264.014 245.927 264.224C245.615 264.091 245.293 263.983 244.962 263.907C244.144 263.713 243.434 263.34 242.827 262.783C242.142 262.339 241.606 261.752 241.208 261.021C240.748 260.301 240.498 259.52 240.462 258.687C240.273 257.85 240.314 257.017 240.574 256.18C240.784 255.679 240.998 255.179 241.208 254.678C241.764 253.733 242.52 252.982 243.46 252.426C243.96 252.216 244.461 252.002 244.962 251.792C246.075 251.496 247.188 251.496 248.302 251.792C248.608 251.864 248.904 251.966 249.201 252.084C249.946 252.385 250.768 252.686 251.478 253.105C252.183 253.519 252.847 254.086 253.47 254.581" fill="#002D1B"/>
<path d="M262.061 289.32C262.899 289.131 263.732 289.172 264.569 289.433C265.386 289.627 266.096 290.005 266.704 290.556C267.388 291.001 267.925 291.588 268.323 292.318C268.532 292.819 268.747 293.319 268.956 293.82C269.258 294.933 269.258 296.047 268.956 297.16C268.747 297.66 268.532 298.161 268.323 298.662C267.766 299.606 267.01 300.357 266.071 300.914C264.983 301.471 263.895 302.022 262.807 302.579C262.087 303.038 261.306 303.289 260.473 303.324C259.641 303.513 258.803 303.473 257.971 303.212C257.153 303.018 256.444 302.645 255.836 302.088C255.151 301.644 254.61 301.057 254.217 300.326C254.007 299.826 253.793 299.325 253.583 298.825C253.282 297.712 253.282 296.598 253.583 295.485C253.793 294.984 254.007 294.484 254.217 293.983C254.773 293.038 255.529 292.288 256.469 291.731" fill="#002D1B"/>
<path d="M119.41 211.382C95.2829 191.372 73.2043 169.012 53.5057 144.636C51.9377 142.695 54.6855 139.911 56.2687 141.873C75.9673 166.249 98.0511 188.614 122.178 208.619C124.113 210.223 121.335 212.976 119.41 211.382Z" fill="white"/>
<path d="M97.6168 271.957C79.7925 260.711 61.9683 249.465 44.144 238.219C42.0245 236.88 43.9805 233.494 46.1154 234.843C63.9397 246.089 81.7639 257.335 99.5831 268.581C101.713 269.919 99.7517 273.305 97.6168 271.957Z" fill="white"/>
<path d="M107.818 308.935C101.954 309.803 95.9994 309.4 90.3457 307.577C89.3396 307.255 88.691 306.223 88.9821 305.171C89.2528 304.185 90.3763 303.481 91.3876 303.808C96.3365 305.401 101.623 305.927 106.781 305.166C107.823 305.013 108.88 305.426 109.186 306.53C109.437 307.454 108.865 308.782 107.818 308.935Z" fill="white"/>
<path d="M109.11 147.032C105.836 155.224 102.557 163.421 99.2836 171.613C98.8903 172.594 97.9761 173.278 96.878 172.977C95.9485 172.721 95.1211 171.557 95.5144 170.571C98.7881 162.379 102.067 154.182 105.341 145.99C105.734 145.009 106.648 144.325 107.746 144.626C108.676 144.882 109.503 146.046 109.11 147.032Z" fill="white"/>
<path d="M97.7225 140.504C96.6295 143.783 95.5366 147.062 94.4436 150.336C94.1219 151.306 93.08 152.036 92.0382 151.699C91.0729 151.388 90.3273 150.336 90.6745 149.294C91.7675 146.015 92.8604 142.741 93.9534 139.462C94.2751 138.497 95.317 137.762 96.3589 138.099C97.319 138.415 98.0698 139.467 97.7225 140.504Z" fill="white"/>
<path d="M41.752 185.169C40.1177 188.447 38.4782 191.726 36.8439 195.005C36.3843 195.924 35.0155 196.251 34.1677 195.705C33.228 195.102 32.9777 194.009 33.468 193.029C35.1023 189.75 36.7417 186.471 38.376 183.192C38.8357 182.273 40.2044 181.946 41.0523 182.492C41.9869 183.1 42.2423 184.188 41.752 185.169Z" fill="white"/>
<path d="M76.4913 212.082C76.4913 213.175 76.4913 214.268 76.4913 215.361C76.4913 215.862 76.2717 216.388 75.9193 216.745C75.5822 217.082 75.0254 217.338 74.5352 217.317C74.0295 217.297 73.5035 217.128 73.1511 216.745C72.7987 216.362 72.5791 215.892 72.5791 215.361C72.5791 214.268 72.5791 213.175 72.5791 212.082C72.5791 211.582 72.7987 211.056 73.1511 210.698C73.4882 210.361 74.0449 210.106 74.5352 210.126C75.0408 210.147 75.5669 210.315 75.9193 210.698C76.2717 211.086 76.4913 211.556 76.4913 212.082Z" fill="white"/>
<path d="M54.6173 275.173C53.0289 277.931 51.4354 280.694 49.8471 283.452C49.3363 284.341 48.0544 284.724 47.1709 284.152C46.2771 283.575 45.9247 282.426 46.4712 281.476C48.0596 278.718 49.653 275.955 51.2414 273.197C51.7521 272.308 53.0341 271.925 53.9176 272.497C54.8114 273.074 55.1637 274.223 54.6173 275.173Z" fill="white"/>
<path d="M490.856 491.487C494.579 502.845 497.215 514.382 499.482 525.981C501.566 537.61 503.573 544.796 504.927 558.861L507.465 560.955C507.24 562.426 501.755 566.395 500.422 566.808C494.779 568.54 488.44 566.538 482.782 566.471C477.123 566.374 475.509 568.105 469.84 566.859C468.354 566.532 467.419 565.062 467.746 563.58C467.981 562.513 468.808 561.732 469.804 561.492C475.453 560.159 478.476 558.529 484.135 558.351C489.794 558.202 494.033 557.523 499.707 559.168L497.077 562.288C491.357 551.262 490.202 539.479 488.451 527.799C486.883 516.088 485.683 504.316 485.57 492.36C485.555 490.858 486.76 489.633 488.262 489.617C489.457 489.607 490.493 490.394 490.856 491.487Z" fill="#1D213A"/>
<path d="M499.727 559.65C506.745 559.129 513.757 558.864 520.774 558.812C527.787 558.812 526.719 558.833 533.726 560.324C534.947 560.585 535.723 561.78 535.463 563C535.269 563.91 534.554 564.568 533.701 564.742C526.678 566.162 527.756 565.202 520.744 565.13C513.732 565.002 506.719 564.665 499.707 564.068C498.486 563.966 497.582 562.893 497.685 561.673C497.777 560.574 498.66 559.732 499.727 559.65Z" fill="#1D213A"/>
<path d="M498.799 564.418C498.799 564.418 503.314 569.872 501.827 574.275C500.346 578.677 499.667 587.742 503.778 585.878C507.89 584.014 511.204 569.79 509.488 566.312C507.772 562.834 513.308 574.964 511.036 579.887C508.768 584.811 515.275 585.061 517.757 579.985C524.003 567.206 515.678 564.985 515.678 564.985L510.464 561.18L498.799 564.418Z" fill="#1D213A"/>
<path d="M336.763 491.487C333.04 502.845 330.404 514.382 328.137 525.981C326.053 537.61 324.046 544.796 322.693 558.861L320.154 560.955C320.379 562.426 325.864 566.395 327.197 566.808C332.841 568.54 339.179 566.538 344.838 566.471C350.496 566.374 352.11 568.105 357.774 566.859C359.26 566.532 360.2 565.062 359.873 563.58C359.638 562.513 358.811 561.732 357.815 561.492C352.166 560.159 349.143 558.529 343.484 558.351C337.825 558.202 333.586 557.523 327.912 559.168L330.542 562.288C336.263 551.262 337.417 539.479 339.169 527.799C340.736 516.088 341.937 504.316 342.049 492.36C342.064 490.858 340.859 489.633 339.358 489.617C338.157 489.607 337.126 490.394 336.763 491.487Z" fill="#1D213A"/>
<path d="M327.892 559.65C320.875 559.129 313.863 558.864 306.845 558.812C299.833 558.812 300.9 558.833 293.893 560.324C292.673 560.585 291.896 561.78 292.157 563C292.351 563.91 293.066 564.568 293.919 564.742C300.941 566.162 299.864 565.202 306.881 565.13C313.893 565.002 320.905 564.665 327.918 564.068C329.138 563.966 330.042 562.893 329.94 561.673C329.843 560.574 328.96 559.732 327.892 559.65Z" fill="#1D213A"/>
<path d="M328.819 564.418C328.819 564.418 324.304 569.872 325.79 574.275C327.271 578.677 327.95 587.742 323.839 585.878C319.728 584.014 316.408 569.79 318.129 566.312C319.85 562.834 314.309 574.964 316.582 579.887C318.849 584.811 312.343 585.061 309.866 579.985C303.619 567.206 311.944 564.985 311.944 564.985L317.159 561.18L328.819 564.418Z" fill="#1D213A"/>
<path d="M468.649 494.038C468.649 494.038 474.41 514.012 482.516 514.967C490.621 515.922 498.328 516.801 501.464 513.149C515.018 497.367 510.447 449.359 510.447 449.359L468.649 494.038Z" fill="#2ABF78"/>
<path d="M367.255 486.272C367.255 486.272 355.58 517.922 347.475 518.877C339.37 519.832 332.618 519.597 328.527 517.059C316.03 509.301 324.681 448.703 324.681 448.703L367.255 486.272Z" fill="#2ABF78"/>
<path d="M277.677 247.29C264.347 321.897 308.29 515.671 417.983 515.512C527.677 515.349 560.424 337.734 562.988 261.238C565.552 184.736 561.614 78.9654 428.121 73.133C294.628 67.2954 282.759 218.853 277.677 247.29Z" fill="#009850"/>
<path d="M382.074 438.715C383.157 439.277 384.24 439.834 385.322 440.396C386.002 440.748 386.635 441.06 387.37 441.274C387.988 441.453 388.622 441.58 389.245 441.723C390.409 441.989 391.568 442.26 392.733 442.53C393.361 442.673 393.979 442.842 394.617 442.913C395.532 443.021 396.507 442.949 397.432 442.944C398.422 442.939 399.72 442.183 400.307 441.407C400.879 440.646 401.201 439.818 401.231 438.858C401.308 436.693 399.832 434.982 397.738 434.507C397.115 434.369 396.487 434.19 395.859 434.098C394.965 433.971 393.948 434.063 393.039 434.073C391.87 434.088 390.695 434.098 389.526 434.114C388.943 434.119 388.351 434.098 387.769 434.139C387.023 434.195 386.236 434.492 385.506 434.686C384.398 434.982 383.284 435.278 382.176 435.574C380.659 435.983 380.894 438.102 382.074 438.715Z" fill="#F9F9F4"/>
<path d="M405.028 455.387C405.952 455.5 406.877 455.617 407.801 455.729C408.245 455.786 408.69 455.847 409.139 455.893C409.497 455.918 409.854 455.929 410.212 455.929C410.707 455.898 411.157 455.75 411.565 455.484C411.785 455.367 411.974 455.26 412.178 455.132C412.331 455.03 412.49 454.933 412.648 454.831C413.067 454.524 413.388 454.136 413.608 453.661C413.792 453.298 413.874 452.921 413.853 452.522C413.889 451.562 413.516 450.745 412.791 450.112C412.643 449.979 412.495 449.851 412.342 449.718C412.28 449.662 412.214 449.606 412.147 449.55C411.657 449.151 411.1 448.896 410.472 448.784C410.12 448.727 409.762 448.707 409.4 448.733C408.95 448.722 408.506 448.712 408.057 448.702C407.127 448.681 406.203 448.661 405.273 448.641C404.803 448.671 404.379 448.809 403.996 449.059C403.588 449.238 403.251 449.509 402.975 449.866C402.822 450.112 402.668 450.357 402.51 450.607C402.301 451.021 402.209 451.455 402.229 451.909C402.178 452.216 402.209 452.517 402.316 452.808C402.382 453.258 402.556 453.666 402.842 454.029C403.388 454.708 404.144 455.28 405.028 455.387Z" fill="#F9F9F4"/>
<path d="M366.68 462.684C367.605 462.797 368.529 462.914 369.453 463.026C369.898 463.083 370.342 463.144 370.791 463.19C371.149 463.215 371.506 463.226 371.864 463.226C372.359 463.195 372.809 463.047 373.217 462.781C373.437 462.664 373.626 462.556 373.83 462.429C373.983 462.327 374.142 462.23 374.3 462.127C374.719 461.821 375.041 461.433 375.26 460.958C375.444 460.595 375.526 460.217 375.505 459.819C375.541 458.859 375.168 458.042 374.443 457.408C374.295 457.281 374.147 457.148 373.994 457.015C373.927 456.959 373.866 456.903 373.8 456.847C373.309 456.448 372.747 456.188 372.124 456.081C371.772 456.024 371.414 456.004 371.052 456.029C370.608 456.019 370.158 456.009 369.714 455.999C368.784 455.978 367.86 455.958 366.93 455.938C366.46 455.968 366.037 456.106 365.654 456.356C365.245 456.535 364.908 456.806 364.632 457.163C364.479 457.408 364.326 457.654 364.167 457.904C363.958 458.317 363.866 458.752 363.886 459.206C363.835 459.513 363.866 459.814 363.973 460.105C364.04 460.554 364.213 460.963 364.499 461.326C365.041 462.005 365.797 462.577 366.68 462.684Z" fill="#F9F9F4"/>
<path d="M427.042 449.016C427.757 448.776 428.472 448.541 429.182 448.301C429.892 448.066 430.627 447.862 431.322 447.581C431.781 447.397 432.236 447.076 432.552 446.692C432.685 446.478 432.823 446.263 432.956 446.049C433.14 445.686 433.222 445.308 433.196 444.915C433.242 444.644 433.216 444.384 433.119 444.129C433.094 443.863 433.002 443.618 432.844 443.403C432.747 443.158 432.598 442.954 432.399 442.791C432.159 442.489 431.858 442.265 431.495 442.111C430.826 441.723 430.106 441.401 429.412 441.054C428.717 440.702 428.022 440.354 427.328 440.002C425.78 439.221 423.789 439.486 422.41 440.487C421.72 440.993 421.194 441.631 420.831 442.407C420.53 443 420.397 443.623 420.433 444.277C420.351 444.941 420.443 445.584 420.714 446.212C421.025 447.014 421.516 447.688 422.18 448.24C422.849 448.781 423.605 449.129 424.452 449.282C425.336 449.42 426.204 449.333 427.042 449.016Z" fill="#F9F9F4"/>
<path d="M434.205 471.988C434.987 472.32 435.773 472.652 436.555 472.984C436.932 473.142 437.31 473.311 437.688 473.464C438.827 473.924 439.966 473.944 441.1 473.485C441.274 473.413 441.447 473.347 441.621 473.275C442.178 473.056 442.648 472.719 443.031 472.259C443.332 471.922 443.531 471.534 443.623 471.1C443.797 470.676 443.848 470.231 443.786 469.767C443.725 469.154 443.516 468.597 443.153 468.102C443.051 467.959 442.954 467.811 442.852 467.668C442.178 466.697 441.238 466.043 440.063 465.814C439.66 465.732 439.251 465.665 438.848 465.594C438.01 465.441 437.172 465.288 436.33 465.139C435.834 465.037 435.354 465.063 434.89 465.216C434.415 465.288 433.981 465.471 433.592 465.778C433.368 465.987 433.143 466.202 432.918 466.411C432.602 466.774 432.387 467.182 432.29 467.642C432.152 467.938 432.101 468.25 432.132 468.577C432.07 469.067 432.142 469.542 432.336 470.007C432.709 470.849 433.327 471.621 434.205 471.988Z" fill="#F9F9F4"/>
<path d="M526.043 158.699C513.489 106.069 442.493 102.336 442.493 102.336C409.807 96.5439 342.069 99.2865 324.735 147.984C304.582 204.603 356.058 227.407 356.058 227.407C356.058 227.407 287.054 369.072 415.982 394.659C435.353 398.505 455.348 396.758 472.983 388.219C556.885 347.601 501.002 223.362 501.002 223.362C501.002 223.362 538.591 211.329 526.043 158.699Z" fill="#EFEDE4"/>
<path d="M419.786 163.312C419.786 163.312 431.124 173.19 423.137 199.809C423.137 199.809 401.242 194.533 387.182 185.56L419.786 163.312Z" fill="#222221"/>
<path d="M426.076 180.002C426.132 179.971 426.147 179.94 426.158 179.915L425.897 179.568L425.81 179.031C425.08 179.287 401.515 182.857 389.161 184.7C388.982 184.726 388.839 185.002 388.859 185.308C388.875 185.614 389.038 185.844 389.222 185.814C422.01 180.906 425.596 180.267 426.076 180.002Z" fill="#222221"/>
<path d="M471.262 151.427C463.887 157.009 462.437 167.515 468.019 174.89C473.601 182.265 484.107 183.715 491.482 178.133C498.857 172.546 500.307 162.04 494.725 154.67C489.143 147.295 478.632 145.845 471.262 151.427Z" fill="#222221"/>
<path d="M492.042 163.735C491.057 165.895 488.508 166.845 486.353 165.86C484.193 164.874 483.243 162.326 484.228 160.17C485.214 158.01 487.763 157.06 489.918 158.046C492.073 159.031 493.023 161.58 492.042 163.735Z" fill="white"/>
<path d="M350.183 145.069C343.37 150.227 342.031 159.931 347.19 166.744C352.348 173.557 362.052 174.9 368.865 169.737C375.678 164.578 377.016 154.875 371.858 148.062C366.699 141.248 356.996 139.91 350.183 145.069Z" fill="#222221"/>
<path d="M369.38 156.398C368.471 158.389 366.117 159.273 364.125 158.359C362.128 157.45 361.249 155.095 362.163 153.103C363.073 151.112 365.427 150.228 367.419 151.142C369.411 152.051 370.289 154.406 369.38 156.398Z" fill="white"/>
<path d="M367.134 281.092C366.741 281.628 366.348 282.17 365.954 282.706C365.382 283.487 364.642 284.315 364.223 285.173C363.773 286.097 363.585 287.236 363.314 288.232C363.212 288.615 363.099 288.998 363.002 289.381C362.538 291.296 363.447 293.396 365.229 294.289C365.26 294.305 365.295 294.31 365.331 294.325C366.976 295.101 368.636 294.754 370.301 293.273C370.816 292.701 371.153 292.037 371.317 291.286C371.419 290.929 371.511 290.566 371.608 290.209C371.802 289.494 372.042 288.773 372.19 288.048C372.405 287.017 372.231 286.005 372.119 284.979C372.042 284.248 371.966 283.518 371.884 282.788C371.766 281.674 371.133 280.745 370.055 280.367C369.596 280.204 369.162 280.173 368.682 280.255C368.135 280.362 367.476 280.627 367.134 281.092Z" fill="#1A9362"/>
<path d="M352.532 301.586C351.521 303.133 350.852 304.839 350.311 306.606C349.902 307.939 349.565 309.441 350.076 310.789C350.413 311.672 350.806 312.551 351.276 313.373C351.873 314.415 353.15 315.007 354.325 314.951C354.922 314.921 355.479 314.747 355.985 314.425C356.511 314.088 356.914 313.639 357.2 313.082C357.307 312.919 357.42 312.75 357.532 312.587C357.343 312.862 357.154 313.138 356.965 313.414C357.124 313.184 357.292 312.959 357.466 312.745C357.558 312.633 357.65 312.525 357.742 312.413C358.334 311.708 358.753 310.906 358.952 310.002C359.105 309.308 359.279 308.628 359.509 307.954C359.376 308.327 359.243 308.705 359.115 309.083C359.529 307.908 360.081 306.785 360.76 305.743C361.056 305.202 361.204 304.629 361.199 304.027C361.296 303.434 361.24 302.857 361.041 302.28C360.699 301.187 359.784 300.028 358.722 299.553C357.655 299.073 356.393 298.863 355.259 299.272C354.897 299.441 354.539 299.609 354.177 299.778C353.467 300.227 352.915 300.83 352.532 301.586Z" fill="#1A9362"/>
<path d="M354.742 330.52C354.661 331.613 354.584 332.711 354.502 333.804C354.462 334.34 354.4 334.887 354.385 335.423C354.38 335.673 354.482 336.174 354.554 336.419C354.569 336.475 354.589 336.531 354.61 336.592C354.656 336.72 354.702 336.848 354.748 336.975C354.84 337.231 354.931 337.486 355.023 337.742C355.202 338.237 355.493 338.737 355.892 339.095C356.116 339.253 356.346 339.407 356.571 339.56C356.928 339.759 357.311 339.856 357.715 339.856C357.975 339.907 358.236 339.897 358.491 339.82C358.762 339.805 359.012 339.728 359.237 339.585C359.502 339.498 359.727 339.355 359.911 339.151C360.253 338.911 360.514 338.594 360.692 338.206C360.774 337.976 360.861 337.752 360.943 337.527C360.989 337.404 361.03 337.287 361.076 337.164C361.096 337.113 361.116 337.057 361.137 337.006C361.448 336.153 361.438 336.296 361.494 335.586C361.55 334.897 361.469 334.207 361.428 333.523C361.356 332.42 361.285 331.317 361.213 330.213C361.157 329.376 360.779 328.538 360.151 327.971C359.564 327.435 358.624 327.062 357.817 327.134C356.985 327.21 356.127 327.527 355.575 328.196C355.412 328.436 355.248 328.671 355.08 328.911C354.834 329.407 354.717 329.948 354.742 330.52Z" fill="#1A9362"/>
<path d="M372.855 308.408C373.085 309.614 373.314 310.819 373.544 312.029C373.606 312.162 373.667 312.295 373.728 312.433C373.825 312.55 373.927 312.668 374.024 312.78C374.305 313.035 374.663 313.173 375.036 313.204C375.337 313.23 375.608 313.178 375.883 313.051C376.215 312.898 376.542 312.632 376.695 312.285C377.201 311.141 377.707 309.992 378.212 308.842C378.442 308.388 378.544 307.903 378.519 307.392C378.493 306.881 378.345 306.411 378.074 305.982C377.788 305.533 377.405 305.191 376.93 304.946C376.588 304.757 376.231 304.665 375.853 304.67C375.48 304.609 375.112 304.644 374.755 304.772C374.254 304.93 373.83 305.206 373.478 305.589C373.125 305.977 372.896 306.427 372.788 306.937C372.681 307.433 372.707 307.923 372.855 308.408Z" fill="#1A9362"/>
<path d="M382.803 353.733C385.458 350.806 380.913 346.675 378.252 349.606C375.596 352.533 380.142 356.664 382.803 353.733Z" fill="#1A9362"/>
<path d="M497.692 281.092C498.086 281.628 498.479 282.17 498.872 282.706C499.444 283.487 500.185 284.315 500.603 285.173C501.053 286.097 501.242 287.236 501.512 288.232C501.615 288.615 501.727 288.998 501.824 289.381C502.289 291.296 501.38 293.396 499.597 294.289C499.567 294.305 499.531 294.31 499.495 294.325C497.846 295.101 496.191 294.754 494.526 293.273C494.01 292.701 493.673 292.037 493.509 291.286C493.407 290.929 493.315 290.566 493.218 290.209C493.024 289.494 492.784 288.773 492.636 288.048C492.422 287.017 492.595 286.005 492.708 284.979C492.784 284.248 492.861 283.518 492.943 282.788C493.06 281.674 493.693 280.745 494.771 280.367C495.231 280.204 495.665 280.173 496.145 280.255C496.696 280.362 497.355 280.627 497.692 281.092Z" fill="#1A9362"/>
<path d="M512.304 301.586C513.311 303.133 513.985 304.839 514.526 306.606C514.935 307.939 515.277 309.441 514.761 310.789C514.424 311.672 514.036 312.551 513.566 313.373C512.968 314.415 511.692 315.007 510.517 314.951C509.919 314.921 509.363 314.747 508.857 314.425C508.331 314.088 507.922 313.639 507.636 313.082C507.529 312.919 507.417 312.75 507.304 312.587C507.493 312.862 507.682 313.138 507.871 313.414C507.713 313.184 507.544 312.959 507.371 312.745C507.279 312.633 507.187 312.525 507.095 312.413C506.503 311.708 506.084 310.906 505.885 310.002C505.731 309.308 505.558 308.628 505.328 307.954C505.461 308.327 505.594 308.705 505.721 309.083C505.308 307.908 504.756 306.785 504.077 305.743C503.78 305.202 503.632 304.629 503.632 304.027C503.535 303.434 503.592 302.857 503.791 302.28C504.133 301.187 505.047 300.028 506.109 299.553C507.177 299.073 508.438 298.863 509.572 299.272C509.935 299.441 510.292 299.609 510.655 299.778C511.37 300.227 511.916 300.83 512.304 301.586Z" fill="#1A9362"/>
<path d="M510.091 330.52C510.173 331.613 510.249 332.711 510.331 333.804C510.372 334.34 510.433 334.887 510.449 335.423C510.454 335.673 510.351 336.174 510.28 336.419C510.265 336.475 510.244 336.531 510.224 336.592C510.178 336.72 510.132 336.848 510.086 336.975C509.994 337.231 509.902 337.486 509.81 337.742C509.631 338.237 509.34 338.737 508.942 339.095C508.717 339.253 508.487 339.407 508.263 339.56C507.905 339.759 507.522 339.856 507.119 339.856C506.858 339.907 506.598 339.897 506.342 339.82C506.072 339.805 505.821 339.728 505.597 339.585C505.331 339.498 505.106 339.355 504.923 339.151C504.58 338.911 504.32 338.594 504.141 338.206C504.059 337.976 503.972 337.752 503.891 337.527C503.845 337.404 503.804 337.287 503.758 337.164C503.737 337.113 503.717 337.057 503.697 337.006C503.385 336.153 503.39 336.296 503.339 335.586C503.283 334.897 503.36 334.207 503.406 333.523C503.477 332.42 503.549 331.317 503.62 330.213C503.671 329.376 504.054 328.538 504.682 327.971C505.27 327.435 506.215 327.062 507.016 327.134C507.849 327.21 508.707 327.527 509.259 328.196C509.422 328.436 509.585 328.671 509.754 328.911C510.004 329.407 510.117 329.948 510.091 330.52Z" fill="#1A9362"/>
<path d="M491.972 308.408C491.743 309.614 491.513 310.819 491.283 312.029C491.222 312.162 491.16 312.295 491.099 312.433C491.002 312.55 490.9 312.668 490.803 312.78C490.522 313.035 490.165 313.173 489.792 313.204C489.49 313.23 489.22 313.178 488.944 313.051C488.612 312.898 488.285 312.632 488.132 312.285C487.626 311.141 487.121 309.992 486.615 308.842C486.385 308.388 486.283 307.903 486.309 307.392C486.334 306.881 486.482 306.411 486.758 305.982C487.044 305.533 487.427 305.191 487.902 304.946C488.239 304.757 488.602 304.665 488.98 304.67C489.352 304.609 489.72 304.644 490.083 304.772C490.583 304.93 491.007 305.206 491.359 305.589C491.712 305.977 491.942 306.427 492.049 306.937C492.146 307.433 492.121 307.923 491.972 308.408Z" fill="#1A9362"/>
<path d="M482.038 353.733C479.382 350.806 483.928 346.675 486.589 349.606C489.239 352.533 484.694 356.664 482.038 353.733Z" fill="#1A9362"/>
</svg>
